G04 #@! TF.GenerationSoftware,KiCad,Pcbnew,(2018-01-18 revision 08b15a699)-makepkg*
G04 #@! TF.CreationDate,2018-01-23T16:45:18-05:00*
G04 #@! TF.ProjectId,osa103k,6F73613130336B2E6B696361645F7063,rev?*
G04 #@! TF.SameCoordinates,Original*
G04 #@! TF.FileFunction,Paste,Top*
G04 #@! TF.FilePolarity,Positive*
%FSLAX46Y46*%
G04 Gerber Fmt 4.6, Leading zero omitted, Abs format (unit mm)*
G04 Created by KiCad (PCBNEW (2018-01-18 revision 08b15a699)-makepkg) date 01/23/18 16:45:18*
%MOMM*%
%LPD*%
G01*
G04 APERTURE LIST*
%ADD10R,0.500000X0.900000*%
%ADD11C,0.500000*%
%ADD12C,0.100000*%
%ADD13R,0.750000X0.800000*%
%ADD14R,1.150000X1.400000*%
%ADD15R,1.450000X0.250000*%
%ADD16R,0.250000X1.450000*%
%ADD17R,0.600000X1.550000*%
%ADD18R,1.550000X0.600000*%
%ADD19R,1.000000X1.250000*%
%ADD20R,0.800000X0.900000*%
%ADD21R,1.250000X1.000000*%
%ADD22R,1.600000X1.000000*%
%ADD23R,0.800000X0.750000*%
%ADD24R,0.850000X1.000000*%
%ADD25C,0.750000*%
%ADD26R,0.900000X0.800000*%
%ADD27R,1.200000X1.200000*%
%ADD28R,5.080000X2.420000*%
%ADD29R,5.080000X2.290000*%
%ADD30R,1.350000X0.400000*%
%ADD31R,2.540000X1.021080*%
%ADD32R,1.021080X2.540000*%
%ADD33R,0.700000X1.300000*%
%ADD34R,1.300000X0.700000*%
%ADD35C,1.400000*%
%ADD36R,0.900000X1.700000*%
%ADD37R,0.900000X0.500000*%
%ADD38R,0.800000X0.500000*%
%ADD39R,0.800000X0.400000*%
%ADD40C,0.400000*%
%ADD41R,0.500000X0.800000*%
%ADD42R,0.400000X0.800000*%
%ADD43C,0.250000*%
%ADD44R,1.060000X0.650000*%
%ADD45R,0.650000X1.060000*%
%ADD46R,0.450000X1.750000*%
G04 APERTURE END LIST*
D10*
X126850000Y-52680000D03*
X125350000Y-52680000D03*
X101270000Y-58500000D03*
X102770000Y-58500000D03*
D11*
X77680330Y-67730330D03*
D12*
G36*
X78175305Y-67588909D02*
X77538909Y-68225305D01*
X77185355Y-67871751D01*
X77821751Y-67235355D01*
X78175305Y-67588909D01*
X78175305Y-67588909D01*
G37*
D11*
X76619670Y-66669670D03*
D12*
G36*
X77114645Y-66528249D02*
X76478249Y-67164645D01*
X76124695Y-66811091D01*
X76761091Y-66174695D01*
X77114645Y-66528249D01*
X77114645Y-66528249D01*
G37*
D13*
X109650000Y-47050000D03*
X109650000Y-48550000D03*
D14*
X102475000Y-49200000D03*
X102475000Y-47000000D03*
X104075000Y-47000000D03*
X104075000Y-49200000D03*
D15*
X90600000Y-80000000D03*
X90600000Y-79500000D03*
X90600000Y-79000000D03*
X90600000Y-78500000D03*
X90600000Y-78000000D03*
X90600000Y-77500000D03*
X90600000Y-77000000D03*
X90600000Y-76500000D03*
X90600000Y-76000000D03*
X90600000Y-75500000D03*
X90600000Y-75000000D03*
X90600000Y-74500000D03*
X90600000Y-74000000D03*
X90600000Y-73500000D03*
X90600000Y-73000000D03*
X90600000Y-72500000D03*
X90600000Y-72000000D03*
X90600000Y-71500000D03*
X90600000Y-71000000D03*
X90600000Y-70500000D03*
X90600000Y-70000000D03*
X90600000Y-69500000D03*
X90600000Y-69000000D03*
X90600000Y-68500000D03*
X90600000Y-68000000D03*
X90600000Y-67500000D03*
X90600000Y-67000000D03*
X90600000Y-66500000D03*
X90600000Y-66000000D03*
X90600000Y-65500000D03*
X90600000Y-65000000D03*
X90600000Y-64500000D03*
X90600000Y-64000000D03*
X90600000Y-63500000D03*
X90600000Y-63000000D03*
X90600000Y-62500000D03*
D16*
X92400000Y-60700000D03*
X92900000Y-60700000D03*
X93400000Y-60700000D03*
X93900000Y-60700000D03*
X94400000Y-60700000D03*
X94900000Y-60700000D03*
X95400000Y-60700000D03*
X95900000Y-60700000D03*
X96400000Y-60700000D03*
X96900000Y-60700000D03*
X97400000Y-60700000D03*
X97900000Y-60700000D03*
X98400000Y-60700000D03*
X98900000Y-60700000D03*
X99400000Y-60700000D03*
X99900000Y-60700000D03*
X100400000Y-60700000D03*
X100900000Y-60700000D03*
X101400000Y-60700000D03*
X101900000Y-60700000D03*
X102400000Y-60700000D03*
X102900000Y-60700000D03*
X103400000Y-60700000D03*
X103900000Y-60700000D03*
X104400000Y-60700000D03*
X104900000Y-60700000D03*
X105400000Y-60700000D03*
X105900000Y-60700000D03*
X106400000Y-60700000D03*
X106900000Y-60700000D03*
X107400000Y-60700000D03*
X107900000Y-60700000D03*
X108400000Y-60700000D03*
X108900000Y-60700000D03*
X109400000Y-60700000D03*
X109900000Y-60700000D03*
D15*
X111700000Y-62500000D03*
X111700000Y-63000000D03*
X111700000Y-63500000D03*
X111700000Y-64000000D03*
X111700000Y-64500000D03*
X111700000Y-65000000D03*
X111700000Y-65500000D03*
X111700000Y-66000000D03*
X111700000Y-66500000D03*
X111700000Y-67000000D03*
X111700000Y-67500000D03*
X111700000Y-68000000D03*
X111700000Y-68500000D03*
X111700000Y-69000000D03*
X111700000Y-69500000D03*
X111700000Y-70000000D03*
X111700000Y-70500000D03*
X111700000Y-71000000D03*
X111700000Y-71500000D03*
X111700000Y-72000000D03*
X111700000Y-72500000D03*
X111700000Y-73000000D03*
X111700000Y-73500000D03*
X111700000Y-74000000D03*
X111700000Y-74500000D03*
X111700000Y-75000000D03*
X111700000Y-75500000D03*
X111700000Y-76000000D03*
X111700000Y-76500000D03*
X111700000Y-77000000D03*
X111700000Y-77500000D03*
X111700000Y-78000000D03*
X111700000Y-78500000D03*
X111700000Y-79000000D03*
X111700000Y-79500000D03*
X111700000Y-80000000D03*
D16*
X109900000Y-81800000D03*
X109400000Y-81800000D03*
X108900000Y-81800000D03*
X108400000Y-81800000D03*
X107900000Y-81800000D03*
X107400000Y-81800000D03*
X106900000Y-81800000D03*
X106400000Y-81800000D03*
X105900000Y-81800000D03*
X105400000Y-81800000D03*
X104900000Y-81800000D03*
X104400000Y-81800000D03*
X103900000Y-81800000D03*
X103400000Y-81800000D03*
X102900000Y-81800000D03*
X102400000Y-81800000D03*
X101900000Y-81800000D03*
X101400000Y-81800000D03*
X100900000Y-81800000D03*
X100400000Y-81800000D03*
X99900000Y-81800000D03*
X99400000Y-81800000D03*
X98900000Y-81800000D03*
X98400000Y-81800000D03*
X97900000Y-81800000D03*
X97400000Y-81800000D03*
X96900000Y-81800000D03*
X96400000Y-81800000D03*
X95900000Y-81800000D03*
X95400000Y-81800000D03*
X94900000Y-81800000D03*
X94400000Y-81800000D03*
X93900000Y-81800000D03*
X93400000Y-81800000D03*
X92900000Y-81800000D03*
X92400000Y-81800000D03*
D17*
X70645000Y-67260000D03*
X71915000Y-67260000D03*
X73185000Y-67260000D03*
X74455000Y-67260000D03*
X74455000Y-72660000D03*
X73185000Y-72660000D03*
X71915000Y-72660000D03*
X70645000Y-72660000D03*
D18*
X66950000Y-88205000D03*
X66950000Y-86935000D03*
X66950000Y-85665000D03*
X66950000Y-84395000D03*
X72350000Y-84395000D03*
X72350000Y-85665000D03*
X72350000Y-86935000D03*
X72350000Y-88205000D03*
D19*
X117300000Y-78670000D03*
X115300000Y-78670000D03*
D20*
X85800000Y-73150000D03*
X83900000Y-73150000D03*
X84850000Y-75150000D03*
D21*
X69000000Y-50500000D03*
X69000000Y-48500000D03*
D22*
X66800000Y-50100000D03*
X66800000Y-47100000D03*
D23*
X72850000Y-55300000D03*
X71350000Y-55300000D03*
D19*
X73190000Y-53720000D03*
X71190000Y-53720000D03*
D23*
X66070000Y-80110000D03*
X67570000Y-80110000D03*
D19*
X66900000Y-65950000D03*
X68900000Y-65950000D03*
D23*
X73125000Y-52100000D03*
X74625000Y-52100000D03*
X75625000Y-49675000D03*
X77125000Y-49675000D03*
X77040000Y-46900000D03*
X75540000Y-46900000D03*
X66100000Y-89850000D03*
X67600000Y-89850000D03*
X71870000Y-82296000D03*
X70370000Y-82296000D03*
D13*
X88325000Y-48325000D03*
X88325000Y-46825000D03*
X73650000Y-60330000D03*
X73650000Y-58830000D03*
D24*
X82815000Y-45190000D03*
X86965000Y-45190000D03*
D23*
X82050000Y-77700000D03*
X83550000Y-77700000D03*
X83740000Y-91740000D03*
X82240000Y-91740000D03*
X80470000Y-81370000D03*
X78970000Y-81370000D03*
X79070000Y-88270000D03*
X80570000Y-88270000D03*
D21*
X88300000Y-62500000D03*
X88300000Y-60500000D03*
D25*
X85969670Y-60230330D03*
D12*
G36*
X85987348Y-59682322D02*
X86517678Y-60212652D01*
X85951992Y-60778338D01*
X85421662Y-60248008D01*
X85987348Y-59682322D01*
X85987348Y-59682322D01*
G37*
D25*
X87030330Y-59169670D03*
D12*
G36*
X87048008Y-58621662D02*
X87578338Y-59151992D01*
X87012652Y-59717678D01*
X86482322Y-59187348D01*
X87048008Y-58621662D01*
X87048008Y-58621662D01*
G37*
D23*
X84560000Y-48590000D03*
X86060000Y-48590000D03*
D13*
X76800000Y-80125000D03*
X76800000Y-78625000D03*
X76740000Y-89430000D03*
X76740000Y-90930000D03*
D23*
X82350000Y-47700000D03*
X80850000Y-47700000D03*
D25*
X84219670Y-60030330D03*
D12*
G36*
X84201992Y-60578338D02*
X83671662Y-60048008D01*
X84237348Y-59482322D01*
X84767678Y-60012652D01*
X84201992Y-60578338D01*
X84201992Y-60578338D01*
G37*
D25*
X85280330Y-58969670D03*
D12*
G36*
X85262652Y-59517678D02*
X84732322Y-58987348D01*
X85298008Y-58421662D01*
X85828338Y-58951992D01*
X85262652Y-59517678D01*
X85262652Y-59517678D01*
G37*
D13*
X74800000Y-55750000D03*
X74800000Y-54250000D03*
D25*
X86619670Y-57580330D03*
D12*
G36*
X86601992Y-58128338D02*
X86071662Y-57598008D01*
X86637348Y-57032322D01*
X87167678Y-57562652D01*
X86601992Y-58128338D01*
X86601992Y-58128338D01*
G37*
D25*
X87680330Y-56519670D03*
D12*
G36*
X87662652Y-57067678D02*
X87132322Y-56537348D01*
X87698008Y-55971662D01*
X88228338Y-56501992D01*
X87662652Y-57067678D01*
X87662652Y-57067678D01*
G37*
D19*
X68400000Y-45000000D03*
X70400000Y-45000000D03*
D13*
X86200000Y-84120000D03*
X86200000Y-82620000D03*
X86210000Y-85550000D03*
X86210000Y-87050000D03*
X75900000Y-59050000D03*
X75900000Y-57550000D03*
X87840000Y-84140000D03*
X87840000Y-82640000D03*
X87840000Y-87050000D03*
X87840000Y-85550000D03*
D21*
X91875000Y-44325000D03*
X91875000Y-46325000D03*
X90075000Y-44325000D03*
X90075000Y-46325000D03*
D13*
X102110000Y-53100000D03*
X102110000Y-51600000D03*
X97610000Y-45990000D03*
X97610000Y-47490000D03*
X100390000Y-46760000D03*
X100390000Y-48260000D03*
D23*
X103080000Y-44550000D03*
X101580000Y-44550000D03*
D13*
X97510000Y-49540000D03*
X97510000Y-51040000D03*
D23*
X107000000Y-53400000D03*
X105500000Y-53400000D03*
D19*
X130100000Y-71570000D03*
X132100000Y-71570000D03*
X127590000Y-49650000D03*
X125590000Y-49650000D03*
D21*
X129930000Y-46000000D03*
X129930000Y-48000000D03*
X122680000Y-44840000D03*
X122680000Y-46840000D03*
D19*
X124870000Y-69770000D03*
X126870000Y-69770000D03*
D21*
X124490000Y-44840000D03*
X124490000Y-46840000D03*
D23*
X114450000Y-81150000D03*
X115950000Y-81150000D03*
D19*
X122760000Y-49010000D03*
X120760000Y-49010000D03*
X125320000Y-62910000D03*
X123320000Y-62910000D03*
D13*
X106670000Y-47000000D03*
X106670000Y-45500000D03*
D19*
X68175000Y-91525000D03*
X66175000Y-91525000D03*
D13*
X125425000Y-56025000D03*
X125425000Y-57525000D03*
X126800000Y-56025000D03*
X126800000Y-57525000D03*
D23*
X129480000Y-59220000D03*
X127980000Y-59220000D03*
D26*
X71900000Y-46900000D03*
X73900000Y-45950000D03*
X73900000Y-47850000D03*
X72800000Y-62800000D03*
X70800000Y-63750000D03*
X70800000Y-61850000D03*
D27*
X108790000Y-54970000D03*
X108790000Y-52770000D03*
X79190000Y-73060000D03*
X79190000Y-75260000D03*
D20*
X131200000Y-81200000D03*
X130250000Y-79200000D03*
X132150000Y-79200000D03*
X128550000Y-79200000D03*
X126650000Y-79200000D03*
X127600000Y-81200000D03*
X124000000Y-81200000D03*
X123050000Y-79200000D03*
X124950000Y-79200000D03*
X120400000Y-81200000D03*
X119450000Y-79200000D03*
X121350000Y-79200000D03*
D28*
X58380000Y-58880000D03*
X58380000Y-50120000D03*
D29*
X58380000Y-54500000D03*
X58380000Y-82100000D03*
D28*
X58380000Y-77720000D03*
X58380000Y-86480000D03*
D30*
X132790000Y-55020000D03*
X132790000Y-55670000D03*
X132790000Y-56320000D03*
X132790000Y-56970000D03*
X132790000Y-57620000D03*
D31*
X79300000Y-79945540D03*
X79300000Y-77654460D03*
X79010000Y-89564460D03*
X79010000Y-91855540D03*
D32*
X87745540Y-80150000D03*
X85454460Y-80150000D03*
X85554460Y-89600000D03*
X87845540Y-89600000D03*
D33*
X91750000Y-58800000D03*
X89850000Y-58800000D03*
X105150000Y-51600000D03*
X107050000Y-51600000D03*
D34*
X73350000Y-91800000D03*
X73350000Y-89900000D03*
D33*
X129830000Y-49720000D03*
X131730000Y-49720000D03*
X128640000Y-71590000D03*
X126740000Y-71590000D03*
D12*
G36*
X132663164Y-66364858D02*
X132697140Y-66369898D01*
X132730458Y-66378244D01*
X132762797Y-66389815D01*
X132793847Y-66404501D01*
X132823308Y-66422159D01*
X132850896Y-66442619D01*
X132876345Y-66465686D01*
X133371320Y-66960661D01*
X133394387Y-66986110D01*
X133414847Y-67013698D01*
X133432505Y-67043159D01*
X133447191Y-67074209D01*
X133458762Y-67106548D01*
X133467108Y-67139866D01*
X133472148Y-67173842D01*
X133473833Y-67208148D01*
X133472148Y-67242454D01*
X133467108Y-67276430D01*
X133458762Y-67309748D01*
X133447191Y-67342087D01*
X133432505Y-67373137D01*
X133414847Y-67402598D01*
X133394387Y-67430186D01*
X133371320Y-67455635D01*
X132805635Y-68021320D01*
X132780186Y-68044387D01*
X132752598Y-68064847D01*
X132723137Y-68082505D01*
X132692087Y-68097191D01*
X132659748Y-68108762D01*
X132626430Y-68117108D01*
X132592454Y-68122148D01*
X132558148Y-68123833D01*
X132523842Y-68122148D01*
X132489866Y-68117108D01*
X132456548Y-68108762D01*
X132424209Y-68097191D01*
X132393159Y-68082505D01*
X132363698Y-68064847D01*
X132336110Y-68044387D01*
X132310661Y-68021320D01*
X131815686Y-67526345D01*
X131792619Y-67500896D01*
X131772159Y-67473308D01*
X131754501Y-67443847D01*
X131739815Y-67412797D01*
X131728244Y-67380458D01*
X131719898Y-67347140D01*
X131714858Y-67313164D01*
X131713173Y-67278858D01*
X131714858Y-67244552D01*
X131719898Y-67210576D01*
X131728244Y-67177258D01*
X131739815Y-67144919D01*
X131754501Y-67113869D01*
X131772159Y-67084408D01*
X131792619Y-67056820D01*
X131815686Y-67031371D01*
X132381371Y-66465686D01*
X132406820Y-66442619D01*
X132434408Y-66422159D01*
X132463869Y-66404501D01*
X132494919Y-66389815D01*
X132527258Y-66378244D01*
X132560576Y-66369898D01*
X132594552Y-66364858D01*
X132628858Y-66363173D01*
X132663164Y-66364858D01*
X132663164Y-66364858D01*
G37*
D35*
X132593503Y-67243503D03*
D12*
G36*
X129976158Y-63677852D02*
X130010134Y-63682892D01*
X130043452Y-63691238D01*
X130075791Y-63702809D01*
X130106841Y-63717495D01*
X130136302Y-63735153D01*
X130163890Y-63755613D01*
X130189339Y-63778680D01*
X130684314Y-64273655D01*
X130707381Y-64299104D01*
X130727841Y-64326692D01*
X130745499Y-64356153D01*
X130760185Y-64387203D01*
X130771756Y-64419542D01*
X130780102Y-64452860D01*
X130785142Y-64486836D01*
X130786827Y-64521142D01*
X130785142Y-64555448D01*
X130780102Y-64589424D01*
X130771756Y-64622742D01*
X130760185Y-64655081D01*
X130745499Y-64686131D01*
X130727841Y-64715592D01*
X130707381Y-64743180D01*
X130684314Y-64768629D01*
X130118629Y-65334314D01*
X130093180Y-65357381D01*
X130065592Y-65377841D01*
X130036131Y-65395499D01*
X130005081Y-65410185D01*
X129972742Y-65421756D01*
X129939424Y-65430102D01*
X129905448Y-65435142D01*
X129871142Y-65436827D01*
X129836836Y-65435142D01*
X129802860Y-65430102D01*
X129769542Y-65421756D01*
X129737203Y-65410185D01*
X129706153Y-65395499D01*
X129676692Y-65377841D01*
X129649104Y-65357381D01*
X129623655Y-65334314D01*
X129128680Y-64839339D01*
X129105613Y-64813890D01*
X129085153Y-64786302D01*
X129067495Y-64756841D01*
X129052809Y-64725791D01*
X129041238Y-64693452D01*
X129032892Y-64660134D01*
X129027852Y-64626158D01*
X129026167Y-64591852D01*
X129027852Y-64557546D01*
X129032892Y-64523570D01*
X129041238Y-64490252D01*
X129052809Y-64457913D01*
X129067495Y-64426863D01*
X129085153Y-64397402D01*
X129105613Y-64369814D01*
X129128680Y-64344365D01*
X129694365Y-63778680D01*
X129719814Y-63755613D01*
X129747402Y-63735153D01*
X129776863Y-63717495D01*
X129807913Y-63702809D01*
X129840252Y-63691238D01*
X129873570Y-63682892D01*
X129907546Y-63677852D01*
X129941852Y-63676167D01*
X129976158Y-63677852D01*
X129976158Y-63677852D01*
G37*
D35*
X129906497Y-64556497D03*
D34*
X120870000Y-46750000D03*
X120870000Y-44850000D03*
D33*
X125330000Y-60960000D03*
X127230000Y-60960000D03*
D34*
X69950000Y-91825000D03*
X69950000Y-89925000D03*
X128500000Y-55690000D03*
X128500000Y-57590000D03*
D26*
X83820000Y-81080000D03*
X83820000Y-79180000D03*
X81820000Y-80130000D03*
X84010000Y-90290000D03*
X84010000Y-88390000D03*
X82010000Y-89340000D03*
D36*
X65700000Y-54400000D03*
X68600000Y-54400000D03*
D37*
X69700000Y-58250000D03*
X69700000Y-56750000D03*
D10*
X70100000Y-46900000D03*
X68600000Y-46900000D03*
D36*
X65850000Y-82350000D03*
X68750000Y-82350000D03*
D37*
X71675000Y-51950000D03*
X71675000Y-50450000D03*
D10*
X74425000Y-50500000D03*
X72925000Y-50500000D03*
D37*
X72100000Y-57250000D03*
X72100000Y-58750000D03*
D10*
X75525000Y-48300000D03*
X77025000Y-48300000D03*
D37*
X75150000Y-85525000D03*
X75150000Y-84025000D03*
X75150000Y-89300000D03*
X75150000Y-90800000D03*
D10*
X90550000Y-47875000D03*
X92050000Y-47875000D03*
D37*
X75100000Y-60300000D03*
X75100000Y-61800000D03*
X73590000Y-82590000D03*
X73590000Y-81090000D03*
X75250000Y-81380000D03*
X75250000Y-82880000D03*
X76760000Y-85510000D03*
X76760000Y-84010000D03*
X75150000Y-86650000D03*
X75150000Y-88150000D03*
X84810000Y-83940000D03*
X84810000Y-85440000D03*
X82350000Y-74900000D03*
X82350000Y-76400000D03*
X85550000Y-78000000D03*
X85550000Y-76500000D03*
X75950000Y-73900000D03*
X75950000Y-75400000D03*
X76775000Y-82875000D03*
X76775000Y-81375000D03*
X76760000Y-88140000D03*
X76760000Y-86640000D03*
X77020000Y-44140000D03*
X77020000Y-45640000D03*
D23*
X74150000Y-44200000D03*
X75650000Y-44200000D03*
D10*
X94950000Y-83530000D03*
X93450000Y-83530000D03*
D37*
X90720000Y-84980000D03*
X90720000Y-86480000D03*
D10*
X89070000Y-81970000D03*
X90570000Y-81970000D03*
D37*
X109175000Y-87375000D03*
X109175000Y-88875000D03*
X107725000Y-88875000D03*
X107725000Y-87375000D03*
X106300000Y-87375000D03*
X106300000Y-88875000D03*
X104850000Y-87375000D03*
X104850000Y-88875000D03*
X103400000Y-88875000D03*
X103400000Y-87375000D03*
X101950000Y-87375000D03*
X101950000Y-88875000D03*
X100500000Y-88875000D03*
X100500000Y-87375000D03*
X99050000Y-87375000D03*
X99050000Y-88875000D03*
X97600000Y-88875000D03*
X97600000Y-87375000D03*
X96150000Y-87375000D03*
X96150000Y-88875000D03*
X94700000Y-88875000D03*
X94700000Y-87375000D03*
X93250000Y-88875000D03*
X93250000Y-87375000D03*
X106030000Y-56620000D03*
X106030000Y-58120000D03*
X109175000Y-84775000D03*
X109175000Y-86275000D03*
X107725000Y-86275000D03*
X107725000Y-84775000D03*
X106275000Y-86275000D03*
X106275000Y-84775000D03*
X104825000Y-86275000D03*
X104825000Y-84775000D03*
X103375000Y-84775000D03*
X103375000Y-86275000D03*
X101925000Y-84775000D03*
X101925000Y-86275000D03*
X100475000Y-84775000D03*
X100475000Y-86275000D03*
X99025000Y-84775000D03*
X99025000Y-86275000D03*
X97575000Y-86275000D03*
X97575000Y-84775000D03*
X96125000Y-86275000D03*
X96125000Y-84775000D03*
X94675000Y-86275000D03*
X94675000Y-84775000D03*
X93250000Y-84775000D03*
X93250000Y-86275000D03*
X103540000Y-53050000D03*
X103540000Y-51550000D03*
D10*
X82350000Y-73450000D03*
X80850000Y-73450000D03*
X106650000Y-44040000D03*
X105150000Y-44040000D03*
D37*
X88500000Y-75850000D03*
X88500000Y-74350000D03*
D10*
X100360000Y-44580000D03*
X98860000Y-44580000D03*
D37*
X99010000Y-48260000D03*
X99010000Y-46760000D03*
X99030000Y-49580000D03*
X99030000Y-51080000D03*
X99490000Y-53770000D03*
X99490000Y-52270000D03*
X98020000Y-53750000D03*
X98020000Y-52250000D03*
X109210000Y-58120000D03*
X109210000Y-56620000D03*
X106230000Y-49920000D03*
X106230000Y-48420000D03*
D10*
X106950000Y-54800000D03*
X105450000Y-54800000D03*
D37*
X110830000Y-55900000D03*
X110830000Y-57400000D03*
X77500000Y-75400000D03*
X77500000Y-73900000D03*
X113660000Y-63150000D03*
X113660000Y-64650000D03*
D10*
X128400000Y-68180000D03*
X126900000Y-68180000D03*
X124320000Y-68140000D03*
X125820000Y-68140000D03*
D37*
X115775000Y-86325000D03*
X115775000Y-87825000D03*
X112875000Y-86325000D03*
X112875000Y-87825000D03*
X114325000Y-87825000D03*
X114325000Y-86325000D03*
D10*
X121670000Y-62260000D03*
X120170000Y-62260000D03*
X113575000Y-67025000D03*
X115075000Y-67025000D03*
X113340000Y-71260000D03*
X114840000Y-71260000D03*
X125350000Y-54160000D03*
X126850000Y-54160000D03*
D37*
X129420000Y-81730000D03*
X129420000Y-83230000D03*
X125920000Y-81700000D03*
X125920000Y-83200000D03*
X122450000Y-81725000D03*
X122450000Y-83225000D03*
X118900000Y-81725000D03*
X118900000Y-83225000D03*
D34*
X131110000Y-84750000D03*
X131110000Y-82850000D03*
X127600000Y-83610000D03*
X127600000Y-85510000D03*
X124140000Y-85520000D03*
X124140000Y-83620000D03*
X120600000Y-83600000D03*
X120600000Y-85500000D03*
D37*
X129410000Y-86830000D03*
X129410000Y-85330000D03*
X125950000Y-87260000D03*
X125950000Y-85760000D03*
X122490000Y-85780000D03*
X122490000Y-87280000D03*
X118925000Y-87175000D03*
X118925000Y-85675000D03*
D38*
X91850000Y-51800000D03*
D39*
X91850000Y-51000000D03*
D38*
X91850000Y-49400000D03*
D39*
X91850000Y-50200000D03*
D38*
X90050000Y-51800000D03*
D39*
X90050000Y-50200000D03*
X90050000Y-51000000D03*
D38*
X90050000Y-49400000D03*
X79050000Y-63800000D03*
D39*
X79050000Y-65400000D03*
X79050000Y-64600000D03*
D38*
X79050000Y-66200000D03*
D39*
X80850000Y-64600000D03*
D38*
X80850000Y-63800000D03*
D39*
X80850000Y-65400000D03*
D38*
X80850000Y-66200000D03*
D11*
X90837868Y-56384924D03*
D12*
G36*
X90378249Y-56278858D02*
X90731802Y-55925305D01*
X91297487Y-56490990D01*
X90943934Y-56844543D01*
X90378249Y-56278858D01*
X90378249Y-56278858D01*
G37*
D40*
X91403553Y-55819239D03*
D12*
G36*
X90979289Y-55677818D02*
X91262132Y-55394975D01*
X91827817Y-55960660D01*
X91544974Y-56243503D01*
X90979289Y-55677818D01*
X90979289Y-55677818D01*
G37*
D11*
X92534924Y-54687868D03*
D12*
G36*
X92075305Y-54581802D02*
X92428858Y-54228249D01*
X92994543Y-54793934D01*
X92640990Y-55147487D01*
X92075305Y-54581802D01*
X92075305Y-54581802D01*
G37*
D40*
X91969239Y-55253553D03*
D12*
G36*
X91544975Y-55112132D02*
X91827818Y-54829289D01*
X92393503Y-55394974D01*
X92110660Y-55677817D01*
X91544975Y-55112132D01*
X91544975Y-55112132D01*
G37*
D11*
X89565076Y-55112132D03*
D12*
G36*
X89105457Y-55006066D02*
X89459010Y-54652513D01*
X90024695Y-55218198D01*
X89671142Y-55571751D01*
X89105457Y-55006066D01*
X89105457Y-55006066D01*
G37*
D40*
X90696447Y-53980761D03*
D12*
G36*
X90272183Y-53839340D02*
X90555026Y-53556497D01*
X91120711Y-54122182D01*
X90837868Y-54405025D01*
X90272183Y-53839340D01*
X90272183Y-53839340D01*
G37*
D40*
X90130761Y-54546447D03*
D12*
G36*
X89706497Y-54405026D02*
X89989340Y-54122183D01*
X90555025Y-54687868D01*
X90272182Y-54970711D01*
X89706497Y-54405026D01*
X89706497Y-54405026D01*
G37*
D11*
X91262132Y-53415076D03*
D12*
G36*
X90802513Y-53309010D02*
X91156066Y-52955457D01*
X91721751Y-53521142D01*
X91368198Y-53874695D01*
X90802513Y-53309010D01*
X90802513Y-53309010D01*
G37*
D38*
X84900000Y-64200000D03*
D39*
X84900000Y-63400000D03*
D38*
X84900000Y-61800000D03*
D39*
X84900000Y-62600000D03*
D38*
X83100000Y-64200000D03*
D39*
X83100000Y-62600000D03*
X83100000Y-63400000D03*
D38*
X83100000Y-61800000D03*
D41*
X115875000Y-65100000D03*
D42*
X116675000Y-65100000D03*
D41*
X118275000Y-65100000D03*
D42*
X117475000Y-65100000D03*
D41*
X115875000Y-63300000D03*
D42*
X117475000Y-63300000D03*
X116675000Y-63300000D03*
D41*
X118275000Y-63300000D03*
D38*
X118800000Y-70250000D03*
D39*
X118800000Y-68650000D03*
X118800000Y-69450000D03*
D38*
X118800000Y-67850000D03*
D39*
X117000000Y-69450000D03*
D38*
X117000000Y-70250000D03*
D39*
X117000000Y-68650000D03*
D38*
X117000000Y-67850000D03*
X119050000Y-75625000D03*
D39*
X119050000Y-74025000D03*
X119050000Y-74825000D03*
D38*
X119050000Y-73225000D03*
D39*
X117250000Y-74825000D03*
D38*
X117250000Y-75625000D03*
D39*
X117250000Y-74025000D03*
D38*
X117250000Y-73225000D03*
D43*
X82556371Y-49229542D03*
D12*
G36*
X82185140Y-49777550D02*
X82008363Y-49600773D01*
X82927602Y-48681534D01*
X83104379Y-48858311D01*
X82185140Y-49777550D01*
X82185140Y-49777550D01*
G37*
D43*
X82909924Y-49583095D03*
D12*
G36*
X82538693Y-50131103D02*
X82361916Y-49954326D01*
X83281155Y-49035087D01*
X83457932Y-49211864D01*
X82538693Y-50131103D01*
X82538693Y-50131103D01*
G37*
D43*
X83263478Y-49936649D03*
D12*
G36*
X82892247Y-50484657D02*
X82715470Y-50307880D01*
X83634709Y-49388641D01*
X83811486Y-49565418D01*
X82892247Y-50484657D01*
X82892247Y-50484657D01*
G37*
D43*
X83617031Y-50290202D03*
D12*
G36*
X83245800Y-50838210D02*
X83069023Y-50661433D01*
X83988262Y-49742194D01*
X84165039Y-49918971D01*
X83245800Y-50838210D01*
X83245800Y-50838210D01*
G37*
D43*
X83970584Y-50643755D03*
D12*
G36*
X83599353Y-51191763D02*
X83422576Y-51014986D01*
X84341815Y-50095747D01*
X84518592Y-50272524D01*
X83599353Y-51191763D01*
X83599353Y-51191763D01*
G37*
D43*
X84324138Y-50997309D03*
D12*
G36*
X83952907Y-51545317D02*
X83776130Y-51368540D01*
X84695369Y-50449301D01*
X84872146Y-50626078D01*
X83952907Y-51545317D01*
X83952907Y-51545317D01*
G37*
D43*
X84677691Y-51350862D03*
D12*
G36*
X84306460Y-51898870D02*
X84129683Y-51722093D01*
X85048922Y-50802854D01*
X85225699Y-50979631D01*
X84306460Y-51898870D01*
X84306460Y-51898870D01*
G37*
D43*
X85031245Y-51704416D03*
D12*
G36*
X84660014Y-52252424D02*
X84483237Y-52075647D01*
X85402476Y-51156408D01*
X85579253Y-51333185D01*
X84660014Y-52252424D01*
X84660014Y-52252424D01*
G37*
D43*
X85384798Y-52057969D03*
D12*
G36*
X85013567Y-52605977D02*
X84836790Y-52429200D01*
X85756029Y-51509961D01*
X85932806Y-51686738D01*
X85013567Y-52605977D01*
X85013567Y-52605977D01*
G37*
D43*
X85738351Y-52411522D03*
D12*
G36*
X85367120Y-52959530D02*
X85190343Y-52782753D01*
X86109582Y-51863514D01*
X86286359Y-52040291D01*
X85367120Y-52959530D01*
X85367120Y-52959530D01*
G37*
D43*
X86091905Y-52765076D03*
D12*
G36*
X85720674Y-53313084D02*
X85543897Y-53136307D01*
X86463136Y-52217068D01*
X86639913Y-52393845D01*
X85720674Y-53313084D01*
X85720674Y-53313084D01*
G37*
D43*
X86445458Y-53118629D03*
D12*
G36*
X86074227Y-53666637D02*
X85897450Y-53489860D01*
X86816689Y-52570621D01*
X86993466Y-52747398D01*
X86074227Y-53666637D01*
X86074227Y-53666637D01*
G37*
D43*
X86445458Y-55381371D03*
D12*
G36*
X85897450Y-55010140D02*
X86074227Y-54833363D01*
X86993466Y-55752602D01*
X86816689Y-55929379D01*
X85897450Y-55010140D01*
X85897450Y-55010140D01*
G37*
D43*
X86091905Y-55734924D03*
D12*
G36*
X85543897Y-55363693D02*
X85720674Y-55186916D01*
X86639913Y-56106155D01*
X86463136Y-56282932D01*
X85543897Y-55363693D01*
X85543897Y-55363693D01*
G37*
D43*
X85738351Y-56088478D03*
D12*
G36*
X85190343Y-55717247D02*
X85367120Y-55540470D01*
X86286359Y-56459709D01*
X86109582Y-56636486D01*
X85190343Y-55717247D01*
X85190343Y-55717247D01*
G37*
D43*
X85384798Y-56442031D03*
D12*
G36*
X84836790Y-56070800D02*
X85013567Y-55894023D01*
X85932806Y-56813262D01*
X85756029Y-56990039D01*
X84836790Y-56070800D01*
X84836790Y-56070800D01*
G37*
D43*
X85031245Y-56795584D03*
D12*
G36*
X84483237Y-56424353D02*
X84660014Y-56247576D01*
X85579253Y-57166815D01*
X85402476Y-57343592D01*
X84483237Y-56424353D01*
X84483237Y-56424353D01*
G37*
D43*
X84677691Y-57149138D03*
D12*
G36*
X84129683Y-56777907D02*
X84306460Y-56601130D01*
X85225699Y-57520369D01*
X85048922Y-57697146D01*
X84129683Y-56777907D01*
X84129683Y-56777907D01*
G37*
D43*
X84324138Y-57502691D03*
D12*
G36*
X83776130Y-57131460D02*
X83952907Y-56954683D01*
X84872146Y-57873922D01*
X84695369Y-58050699D01*
X83776130Y-57131460D01*
X83776130Y-57131460D01*
G37*
D43*
X83970584Y-57856245D03*
D12*
G36*
X83422576Y-57485014D02*
X83599353Y-57308237D01*
X84518592Y-58227476D01*
X84341815Y-58404253D01*
X83422576Y-57485014D01*
X83422576Y-57485014D01*
G37*
D43*
X83617031Y-58209798D03*
D12*
G36*
X83069023Y-57838567D02*
X83245800Y-57661790D01*
X84165039Y-58581029D01*
X83988262Y-58757806D01*
X83069023Y-57838567D01*
X83069023Y-57838567D01*
G37*
D43*
X83263478Y-58563351D03*
D12*
G36*
X82715470Y-58192120D02*
X82892247Y-58015343D01*
X83811486Y-58934582D01*
X83634709Y-59111359D01*
X82715470Y-58192120D01*
X82715470Y-58192120D01*
G37*
D43*
X82909924Y-58916905D03*
D12*
G36*
X82361916Y-58545674D02*
X82538693Y-58368897D01*
X83457932Y-59288136D01*
X83281155Y-59464913D01*
X82361916Y-58545674D01*
X82361916Y-58545674D01*
G37*
D43*
X82556371Y-59270458D03*
D12*
G36*
X82008363Y-58899227D02*
X82185140Y-58722450D01*
X83104379Y-59641689D01*
X82927602Y-59818466D01*
X82008363Y-58899227D01*
X82008363Y-58899227D01*
G37*
D43*
X80293629Y-59270458D03*
D12*
G36*
X79922398Y-59818466D02*
X79745621Y-59641689D01*
X80664860Y-58722450D01*
X80841637Y-58899227D01*
X79922398Y-59818466D01*
X79922398Y-59818466D01*
G37*
D43*
X79940076Y-58916905D03*
D12*
G36*
X79568845Y-59464913D02*
X79392068Y-59288136D01*
X80311307Y-58368897D01*
X80488084Y-58545674D01*
X79568845Y-59464913D01*
X79568845Y-59464913D01*
G37*
D43*
X79586522Y-58563351D03*
D12*
G36*
X79215291Y-59111359D02*
X79038514Y-58934582D01*
X79957753Y-58015343D01*
X80134530Y-58192120D01*
X79215291Y-59111359D01*
X79215291Y-59111359D01*
G37*
D43*
X79232969Y-58209798D03*
D12*
G36*
X78861738Y-58757806D02*
X78684961Y-58581029D01*
X79604200Y-57661790D01*
X79780977Y-57838567D01*
X78861738Y-58757806D01*
X78861738Y-58757806D01*
G37*
D43*
X78879416Y-57856245D03*
D12*
G36*
X78508185Y-58404253D02*
X78331408Y-58227476D01*
X79250647Y-57308237D01*
X79427424Y-57485014D01*
X78508185Y-58404253D01*
X78508185Y-58404253D01*
G37*
D43*
X78525862Y-57502691D03*
D12*
G36*
X78154631Y-58050699D02*
X77977854Y-57873922D01*
X78897093Y-56954683D01*
X79073870Y-57131460D01*
X78154631Y-58050699D01*
X78154631Y-58050699D01*
G37*
D43*
X78172309Y-57149138D03*
D12*
G36*
X77801078Y-57697146D02*
X77624301Y-57520369D01*
X78543540Y-56601130D01*
X78720317Y-56777907D01*
X77801078Y-57697146D01*
X77801078Y-57697146D01*
G37*
D43*
X77818755Y-56795584D03*
D12*
G36*
X77447524Y-57343592D02*
X77270747Y-57166815D01*
X78189986Y-56247576D01*
X78366763Y-56424353D01*
X77447524Y-57343592D01*
X77447524Y-57343592D01*
G37*
D43*
X77465202Y-56442031D03*
D12*
G36*
X77093971Y-56990039D02*
X76917194Y-56813262D01*
X77836433Y-55894023D01*
X78013210Y-56070800D01*
X77093971Y-56990039D01*
X77093971Y-56990039D01*
G37*
D43*
X77111649Y-56088478D03*
D12*
G36*
X76740418Y-56636486D02*
X76563641Y-56459709D01*
X77482880Y-55540470D01*
X77659657Y-55717247D01*
X76740418Y-56636486D01*
X76740418Y-56636486D01*
G37*
D43*
X76758095Y-55734924D03*
D12*
G36*
X76386864Y-56282932D02*
X76210087Y-56106155D01*
X77129326Y-55186916D01*
X77306103Y-55363693D01*
X76386864Y-56282932D01*
X76386864Y-56282932D01*
G37*
D43*
X76404542Y-55381371D03*
D12*
G36*
X76033311Y-55929379D02*
X75856534Y-55752602D01*
X76775773Y-54833363D01*
X76952550Y-55010140D01*
X76033311Y-55929379D01*
X76033311Y-55929379D01*
G37*
D43*
X76404542Y-53118629D03*
D12*
G36*
X75856534Y-52747398D02*
X76033311Y-52570621D01*
X76952550Y-53489860D01*
X76775773Y-53666637D01*
X75856534Y-52747398D01*
X75856534Y-52747398D01*
G37*
D43*
X76758095Y-52765076D03*
D12*
G36*
X76210087Y-52393845D02*
X76386864Y-52217068D01*
X77306103Y-53136307D01*
X77129326Y-53313084D01*
X76210087Y-52393845D01*
X76210087Y-52393845D01*
G37*
D43*
X77111649Y-52411522D03*
D12*
G36*
X76563641Y-52040291D02*
X76740418Y-51863514D01*
X77659657Y-52782753D01*
X77482880Y-52959530D01*
X76563641Y-52040291D01*
X76563641Y-52040291D01*
G37*
D43*
X77465202Y-52057969D03*
D12*
G36*
X76917194Y-51686738D02*
X77093971Y-51509961D01*
X78013210Y-52429200D01*
X77836433Y-52605977D01*
X76917194Y-51686738D01*
X76917194Y-51686738D01*
G37*
D43*
X77818755Y-51704416D03*
D12*
G36*
X77270747Y-51333185D02*
X77447524Y-51156408D01*
X78366763Y-52075647D01*
X78189986Y-52252424D01*
X77270747Y-51333185D01*
X77270747Y-51333185D01*
G37*
D43*
X78172309Y-51350862D03*
D12*
G36*
X77624301Y-50979631D02*
X77801078Y-50802854D01*
X78720317Y-51722093D01*
X78543540Y-51898870D01*
X77624301Y-50979631D01*
X77624301Y-50979631D01*
G37*
D43*
X78525862Y-50997309D03*
D12*
G36*
X77977854Y-50626078D02*
X78154631Y-50449301D01*
X79073870Y-51368540D01*
X78897093Y-51545317D01*
X77977854Y-50626078D01*
X77977854Y-50626078D01*
G37*
D43*
X78879416Y-50643755D03*
D12*
G36*
X78331408Y-50272524D02*
X78508185Y-50095747D01*
X79427424Y-51014986D01*
X79250647Y-51191763D01*
X78331408Y-50272524D01*
X78331408Y-50272524D01*
G37*
D43*
X79232969Y-50290202D03*
D12*
G36*
X78684961Y-49918971D02*
X78861738Y-49742194D01*
X79780977Y-50661433D01*
X79604200Y-50838210D01*
X78684961Y-49918971D01*
X78684961Y-49918971D01*
G37*
D43*
X79586522Y-49936649D03*
D12*
G36*
X79038514Y-49565418D02*
X79215291Y-49388641D01*
X80134530Y-50307880D01*
X79957753Y-50484657D01*
X79038514Y-49565418D01*
X79038514Y-49565418D01*
G37*
D43*
X79940076Y-49583095D03*
D12*
G36*
X79392068Y-49211864D02*
X79568845Y-49035087D01*
X80488084Y-49954326D01*
X80311307Y-50131103D01*
X79392068Y-49211864D01*
X79392068Y-49211864D01*
G37*
D43*
X80293629Y-49229542D03*
D12*
G36*
X79745621Y-48858311D02*
X79922398Y-48681534D01*
X80841637Y-49600773D01*
X80664860Y-49777550D01*
X79745621Y-48858311D01*
X79745621Y-48858311D01*
G37*
D44*
X80790000Y-45920000D03*
X80790000Y-44970000D03*
X80790000Y-44020000D03*
X78590000Y-44020000D03*
X78590000Y-45920000D03*
D45*
X95950000Y-47600000D03*
X94050000Y-47600000D03*
X94050000Y-45400000D03*
X95000000Y-45400000D03*
X95950000Y-45400000D03*
X114500000Y-84950000D03*
X115450000Y-84950000D03*
X113550000Y-84950000D03*
X113550000Y-82750000D03*
X114500000Y-82750000D03*
X115450000Y-82750000D03*
X128150000Y-46800000D03*
X126250000Y-46800000D03*
X126250000Y-44600000D03*
X127200000Y-44600000D03*
X128150000Y-44600000D03*
D44*
X127700000Y-64680000D03*
X127700000Y-66580000D03*
X125500000Y-66580000D03*
X125500000Y-65630000D03*
X125500000Y-64680000D03*
D45*
X113650000Y-46350000D03*
X112700000Y-46350000D03*
X111750000Y-46350000D03*
X111750000Y-48550000D03*
X113650000Y-48550000D03*
D46*
X114975000Y-52300000D03*
X115625000Y-52300000D03*
X116275000Y-52300000D03*
X116925000Y-52300000D03*
X117575000Y-52300000D03*
X118225000Y-52300000D03*
X118875000Y-52300000D03*
X119525000Y-52300000D03*
X120175000Y-52300000D03*
X120825000Y-52300000D03*
X121475000Y-52300000D03*
X122125000Y-52300000D03*
X122775000Y-52300000D03*
X123425000Y-52300000D03*
X123425000Y-59500000D03*
X122775000Y-59500000D03*
X122125000Y-59500000D03*
X121475000Y-59500000D03*
X120825000Y-59500000D03*
X120175000Y-59500000D03*
X119525000Y-59500000D03*
X118875000Y-59500000D03*
X118225000Y-59500000D03*
X117575000Y-59500000D03*
X116925000Y-59500000D03*
X116275000Y-59500000D03*
X115625000Y-59500000D03*
X114975000Y-59500000D03*
M02*
