M48
;DRILL file {KiCad (2018-01-18 revision 08b15a699)-makepkg} date 01/23/18 16:45:33
;FORMAT={-:-/ absolute / inch / decimal}
FMAT,2
INCH,TZ
T1C0.0118
T2C0.0157
T3C0.0181
T4C0.0197
T5C0.0217
T6C0.0394
T7C0.1260
%
G90
G05
M72
T1
X2.3035Y-3.5299
X5.0945Y-3.3146
X3.6709Y-1.8295
X4.1276Y-3.5724
X4.3079Y-3.5736
X4.6248Y-3.4803
X4.6201Y-3.3567
X4.8193Y-3.3244
X4.9571Y-3.3236
X5.3362Y-3.4555
X2.9917Y-2.6937
X3.1768Y-2.7055
X3.352Y-2.7035
X2.8902Y-2.4252
X5.224Y-2.7331
X3.4287Y-2.9201
X2.7398Y-3.0382
X4.6209Y-3.2213
X3.9307Y-3.5724
X2.4508Y-2.4303
X3.1858Y-2.9795
X3.7339Y-3.5724
X3.537Y-3.5724
X2.5276Y-3.4441
X2.4583Y-2.0669
X2.2472Y-3.6709
X2.5917Y-3.6787
X2.5291Y-2.2961
X3.5173Y-2.2433
X3.1846Y-2.3972
X3.0043Y-2.3992
X3.002Y-2.5004
X2.7657Y-3.6811
X2.3386Y-2.9646
X3.2299Y-3.1039
X2.5331Y-1.9189
X2.2724Y-1.8531
X5.1902Y-2.5654
X2.8122Y-1.6972
X2.2724Y-1.7165
X2.5961Y-1.7331
X3.137Y-1.6878
X3.4323Y-1.687
X4.4177Y-3.3374
X3.1917Y-3.5701
X3.3693Y-1.8303
X3.5681Y-3.4689
X2.2539Y-2.6272
X4.3776Y-2.0827
X3.9713Y-1.9638
X3.4315Y-2.135
X3.2067Y-1.926
X2.9949Y-2.1378
X3.7969Y-2.061
X4.7594Y-2.5925
X2.826Y-1.9201
X2.7012Y-2.0591
X2.9543Y-3.0575
X3.4402Y-3.05
X3.0193Y-2.8555
X3.2543Y-3.4697
X2.2539Y-2.4303
X5.0496Y-2.4717
X3.952Y-2.2366
X2.5783Y-2.672
X2.8484Y-2.563
X4.4673Y-2.422
X4.4925Y-2.1909
X4.9508Y-2.3276
X2.4571Y-3.3189
X4.8327Y-2.698
X2.4965Y-3.152
X5.0394Y-2.8933
X5.1228Y-2.961
X5.1949Y-3.0394
X2.7571Y-2.7488
X4.6319Y-3.0319
X3.7169Y-1.9984
X2.5154Y-2.9681
X2.4508Y-2.824
X4.8228Y-2.9102
X3.2594Y-2.8413
X5.3878Y-2.6421
X4.6776Y-1.9461
X4.9083Y-3.0118
X2.4508Y-2.6272
X3.6571Y-2.3335
X4.8539Y-2.4161
X3.7201Y-2.0972
X3.4012Y-2.8374
X2.2539Y-2.824
X5.3878Y-2.839
X4.8087Y-3.1685
X5.Y-3.0102
X2.722Y-2.485
X4.2799Y-1.713
X4.4768Y-1.713
X4.6736Y-1.713
X5.3165Y-1.9654
X5.3224Y-2.4535
X5.3878Y-3.0358
X5.3878Y-3.2327
X5.1118Y-1.7138
X3.4366Y-1.9299
X3.4799Y-1.7783
X4.7161Y-2.8138
T2
X2.7067Y-3.3618
X2.7067Y-3.4931
X2.7193Y-2.2094
X2.7441Y-2.3315
X2.7717Y-3.1949
X2.7795Y-3.3465
X2.8386Y-3.1909
X2.8494Y-2.56
X2.8839Y-2.7067
X2.8856Y-2.8169
X2.8976Y-2.2697
X2.9173Y-3.4016
X2.9193Y-3.2894
X2.9429Y-2.0965
X3.0184Y-2.0048
X3.0665Y-3.2037
X3.1063Y-2.0748
X3.1142Y-1.876
X3.1437Y-2.0413
X3.1555Y-2.124
X3.1555Y-2.2283
X3.1862Y-3.1898
X3.1949Y-2.2461
X3.1949Y-3.3366
X3.2382Y-2.2047
X3.2835Y-2.1634
X3.2953Y-2.0728
X3.3169Y-1.7795
X3.3307Y-2.122
X3.4248Y-2.4387
X3.5079Y-3.3268
X3.514Y-3.1016
X3.5719Y-3.2844
X3.6374Y-3.2843
X3.6807Y-2.8346
X3.685Y-2.7185
X3.6866Y-2.5697
X3.6879Y-2.7875
X3.6886Y-2.5146
X3.689Y-2.8799
X3.689Y-2.9724
X3.689Y-3.124
X3.7402Y-1.8346
X3.7457Y-2.5008
X3.7713Y-3.1602
X3.7736Y-1.9508
X3.8406Y-1.7618
X3.8602Y-2.8327
X3.8858Y-3.2716
X3.9173Y-2.9154
X3.9316Y-3.1186
X3.94Y-2.76
X3.9488Y-2.7106
X3.9528Y-1.7992
X3.9724Y-2.4744
X4.0079Y-2.8583
X4.01Y-2.81
X4.0118Y-2.5028
X4.0197Y-2.1457
X4.0217Y-3.0835
X4.0394Y-2.8583
X4.0469Y-3.2724
X4.0699Y-2.4744
X4.1024Y-2.7835
X4.1043Y-2.1496
X4.1059Y-2.1965
X4.1142Y-1.7933
X4.1732Y-3.1417
X4.2031Y-3.0969
X4.2299Y-3.6386
X4.2382Y-2.2087
X4.2386Y-2.2823
X4.252Y-2.9764
X4.2555Y-2.8543
X4.2677Y-2.4882
X4.2756Y-2.5157
X4.2795Y-3.0039
X4.2953Y-2.6417
X4.2953Y-2.6988
X4.2953Y-2.8016
X4.3012Y-2.5197
X4.3553Y-2.3701
X4.3559Y-1.8374
X4.4222Y-3.1741
X4.4508Y-3.2114
X4.4681Y-2.865
X4.4744Y-1.9618
X4.4876Y-3.0965
X4.4957Y-2.8079
X4.5059Y-3.224
X4.57Y-2.64
X4.5906Y-1.9744
X4.5984Y-2.2756
X4.6535Y-2.2756
X4.6556Y-2.9203
X4.67Y-2.62
X4.7028Y-3.065
X4.7161Y-3.373
X4.72Y-3.02
X4.7257Y-2.7252
X4.7323Y-2.1378
X4.7402Y-3.2429
X4.7736Y-2.1375
X4.8128Y-2.1419
X4.8406Y-3.065
X4.8539Y-3.3772
X4.8819Y-3.2469
X4.9587Y-1.8996
X4.9803Y-3.064
X4.9878Y-3.3764
X4.9931Y-2.5837
X5.0236Y-3.2469
X5.1177Y-2.0224
X5.1256Y-3.3594
X5.126Y-3.064
X5.1496Y-2.7274
X5.163Y-2.1287
X5.1654Y-3.2331
T3
X2.4339Y-3.4047
X2.4339Y-1.9732
X2.4339Y-2.3181
X2.4339Y-3.0598
T6
X2.6378Y-2.2677
X2.6378Y-2.3677
X2.6378Y-2.4677
X2.6378Y-2.7638
X2.6378Y-2.8638
X2.6378Y-2.9638
X4.4409Y-3.5669
X4.5409Y-3.5669
X4.6409Y-3.5669
X4.7409Y-3.5669
X4.8409Y-3.5669
X4.9409Y-3.5669
X5.0409Y-3.5669
T7
X5.2988Y-1.7724
X2.4406Y-3.6031
X2.4406Y-1.7724
X5.2988Y-3.6051
T4
X5.347Y-2.0795G85X5.3215Y-2.0795
G05
X5.347Y-2.3551G85X5.3215Y-2.3551
G05
T5
X5.228Y-2.1248G85X5.228Y-2.113
G05
X5.228Y-2.3217G85X5.228Y-2.3098
G05
T0
M30
