G04 #@! TF.GenerationSoftware,KiCad,Pcbnew,(2018-01-18 revision 08b15a699)-makepkg*
G04 #@! TF.CreationDate,2018-01-23T16:45:18-05:00*
G04 #@! TF.ProjectId,osa103k,6F73613130336B2E6B696361645F7063,rev?*
G04 #@! TF.SameCoordinates,Original*
G04 #@! TF.FileFunction,Soldermask,Top*
G04 #@! TF.FilePolarity,Negative*
%FSLAX46Y46*%
G04 Gerber Fmt 4.6, Leading zero omitted, Abs format (unit mm)*
G04 Created by KiCad (PCBNEW (2018-01-18 revision 08b15a699)-makepkg) date 01/23/18 16:45:18*
%MOMM*%
%LPD*%
G01*
G04 APERTURE LIST*
%ADD10R,0.900000X1.300000*%
%ADD11C,4.900000*%
%ADD12C,0.900000*%
%ADD13C,0.100000*%
%ADD14R,1.150000X1.200000*%
%ADD15R,1.550000X1.800000*%
%ADD16R,1.850000X0.650000*%
%ADD17R,0.650000X1.850000*%
%ADD18R,1.000000X1.950000*%
%ADD19R,1.950000X1.000000*%
%ADD20R,1.400000X1.650000*%
%ADD21R,1.200000X1.300000*%
%ADD22R,1.650000X1.400000*%
%ADD23R,2.000000X1.400000*%
%ADD24R,1.200000X1.150000*%
%ADD25R,1.250000X1.400000*%
%ADD26C,1.150000*%
%ADD27R,1.300000X1.200000*%
%ADD28R,1.600000X1.600000*%
%ADD29R,5.480000X2.820000*%
%ADD30R,5.480000X2.690000*%
%ADD31R,2.100000X2.100000*%
%ADD32O,2.100000X2.100000*%
%ADD33O,1.950000X1.400000*%
%ADD34O,1.350000X1.650000*%
%ADD35R,1.750000X0.800000*%
%ADD36R,2.940000X1.421080*%
%ADD37R,1.421080X2.940000*%
%ADD38R,1.100000X1.700000*%
%ADD39R,1.700000X1.100000*%
%ADD40C,1.800000*%
%ADD41R,1.300000X2.100000*%
%ADD42R,1.300000X0.900000*%
%ADD43R,1.200000X0.900000*%
%ADD44R,1.200000X0.800000*%
%ADD45C,0.800000*%
%ADD46R,0.900000X1.200000*%
%ADD47R,0.800000X1.200000*%
%ADD48R,1.700000X2.400000*%
%ADD49R,2.400000X2.400000*%
%ADD50R,2.400000X1.700000*%
%ADD51C,0.650000*%
%ADD52R,1.460000X1.050000*%
%ADD53R,1.050000X1.460000*%
%ADD54R,0.850000X2.150000*%
G04 APERTURE END LIST*
D10*
X126850000Y-52680000D03*
X125350000Y-52680000D03*
D11*
X134590000Y-45020000D03*
X134590000Y-91570000D03*
X61990000Y-45020000D03*
D10*
X101270000Y-58500000D03*
X102770000Y-58500000D03*
D11*
X61990000Y-91520000D03*
D12*
X77680330Y-67730330D03*
D13*
G36*
X78458147Y-67588909D02*
X77538909Y-68508147D01*
X76902513Y-67871751D01*
X77821751Y-66952513D01*
X78458147Y-67588909D01*
X78458147Y-67588909D01*
G37*
D12*
X76619670Y-66669670D03*
D13*
G36*
X77397487Y-66528249D02*
X76478249Y-67447487D01*
X75841853Y-66811091D01*
X76761091Y-65891853D01*
X77397487Y-66528249D01*
X77397487Y-66528249D01*
G37*
D14*
X109650000Y-47050000D03*
X109650000Y-48550000D03*
D15*
X102475000Y-49200000D03*
X102475000Y-47000000D03*
X104075000Y-47000000D03*
X104075000Y-49200000D03*
D16*
X90600000Y-80000000D03*
X90600000Y-79500000D03*
X90600000Y-79000000D03*
X90600000Y-78500000D03*
X90600000Y-78000000D03*
X90600000Y-77500000D03*
X90600000Y-77000000D03*
X90600000Y-76500000D03*
X90600000Y-76000000D03*
X90600000Y-75500000D03*
X90600000Y-75000000D03*
X90600000Y-74500000D03*
X90600000Y-74000000D03*
X90600000Y-73500000D03*
X90600000Y-73000000D03*
X90600000Y-72500000D03*
X90600000Y-72000000D03*
X90600000Y-71500000D03*
X90600000Y-71000000D03*
X90600000Y-70500000D03*
X90600000Y-70000000D03*
X90600000Y-69500000D03*
X90600000Y-69000000D03*
X90600000Y-68500000D03*
X90600000Y-68000000D03*
X90600000Y-67500000D03*
X90600000Y-67000000D03*
X90600000Y-66500000D03*
X90600000Y-66000000D03*
X90600000Y-65500000D03*
X90600000Y-65000000D03*
X90600000Y-64500000D03*
X90600000Y-64000000D03*
X90600000Y-63500000D03*
X90600000Y-63000000D03*
X90600000Y-62500000D03*
D17*
X92400000Y-60700000D03*
X92900000Y-60700000D03*
X93400000Y-60700000D03*
X93900000Y-60700000D03*
X94400000Y-60700000D03*
X94900000Y-60700000D03*
X95400000Y-60700000D03*
X95900000Y-60700000D03*
X96400000Y-60700000D03*
X96900000Y-60700000D03*
X97400000Y-60700000D03*
X97900000Y-60700000D03*
X98400000Y-60700000D03*
X98900000Y-60700000D03*
X99400000Y-60700000D03*
X99900000Y-60700000D03*
X100400000Y-60700000D03*
X100900000Y-60700000D03*
X101400000Y-60700000D03*
X101900000Y-60700000D03*
X102400000Y-60700000D03*
X102900000Y-60700000D03*
X103400000Y-60700000D03*
X103900000Y-60700000D03*
X104400000Y-60700000D03*
X104900000Y-60700000D03*
X105400000Y-60700000D03*
X105900000Y-60700000D03*
X106400000Y-60700000D03*
X106900000Y-60700000D03*
X107400000Y-60700000D03*
X107900000Y-60700000D03*
X108400000Y-60700000D03*
X108900000Y-60700000D03*
X109400000Y-60700000D03*
X109900000Y-60700000D03*
D16*
X111700000Y-62500000D03*
X111700000Y-63000000D03*
X111700000Y-63500000D03*
X111700000Y-64000000D03*
X111700000Y-64500000D03*
X111700000Y-65000000D03*
X111700000Y-65500000D03*
X111700000Y-66000000D03*
X111700000Y-66500000D03*
X111700000Y-67000000D03*
X111700000Y-67500000D03*
X111700000Y-68000000D03*
X111700000Y-68500000D03*
X111700000Y-69000000D03*
X111700000Y-69500000D03*
X111700000Y-70000000D03*
X111700000Y-70500000D03*
X111700000Y-71000000D03*
X111700000Y-71500000D03*
X111700000Y-72000000D03*
X111700000Y-72500000D03*
X111700000Y-73000000D03*
X111700000Y-73500000D03*
X111700000Y-74000000D03*
X111700000Y-74500000D03*
X111700000Y-75000000D03*
X111700000Y-75500000D03*
X111700000Y-76000000D03*
X111700000Y-76500000D03*
X111700000Y-77000000D03*
X111700000Y-77500000D03*
X111700000Y-78000000D03*
X111700000Y-78500000D03*
X111700000Y-79000000D03*
X111700000Y-79500000D03*
X111700000Y-80000000D03*
D17*
X109900000Y-81800000D03*
X109400000Y-81800000D03*
X108900000Y-81800000D03*
X108400000Y-81800000D03*
X107900000Y-81800000D03*
X107400000Y-81800000D03*
X106900000Y-81800000D03*
X106400000Y-81800000D03*
X105900000Y-81800000D03*
X105400000Y-81800000D03*
X104900000Y-81800000D03*
X104400000Y-81800000D03*
X103900000Y-81800000D03*
X103400000Y-81800000D03*
X102900000Y-81800000D03*
X102400000Y-81800000D03*
X101900000Y-81800000D03*
X101400000Y-81800000D03*
X100900000Y-81800000D03*
X100400000Y-81800000D03*
X99900000Y-81800000D03*
X99400000Y-81800000D03*
X98900000Y-81800000D03*
X98400000Y-81800000D03*
X97900000Y-81800000D03*
X97400000Y-81800000D03*
X96900000Y-81800000D03*
X96400000Y-81800000D03*
X95900000Y-81800000D03*
X95400000Y-81800000D03*
X94900000Y-81800000D03*
X94400000Y-81800000D03*
X93900000Y-81800000D03*
X93400000Y-81800000D03*
X92900000Y-81800000D03*
X92400000Y-81800000D03*
D18*
X70645000Y-67260000D03*
X71915000Y-67260000D03*
X73185000Y-67260000D03*
X74455000Y-67260000D03*
X74455000Y-72660000D03*
X73185000Y-72660000D03*
X71915000Y-72660000D03*
X70645000Y-72660000D03*
D19*
X66950000Y-88205000D03*
X66950000Y-86935000D03*
X66950000Y-85665000D03*
X66950000Y-84395000D03*
X72350000Y-84395000D03*
X72350000Y-85665000D03*
X72350000Y-86935000D03*
X72350000Y-88205000D03*
D20*
X117300000Y-78670000D03*
X115300000Y-78670000D03*
D21*
X85800000Y-73150000D03*
X83900000Y-73150000D03*
X84850000Y-75150000D03*
D22*
X69000000Y-50500000D03*
X69000000Y-48500000D03*
D23*
X66800000Y-50100000D03*
X66800000Y-47100000D03*
D24*
X72850000Y-55300000D03*
X71350000Y-55300000D03*
D20*
X73190000Y-53720000D03*
X71190000Y-53720000D03*
D24*
X66070000Y-80110000D03*
X67570000Y-80110000D03*
D20*
X66900000Y-65950000D03*
X68900000Y-65950000D03*
D24*
X73125000Y-52100000D03*
X74625000Y-52100000D03*
X75625000Y-49675000D03*
X77125000Y-49675000D03*
X77040000Y-46900000D03*
X75540000Y-46900000D03*
X66100000Y-89850000D03*
X67600000Y-89850000D03*
X71870000Y-82296000D03*
X70370000Y-82296000D03*
D14*
X88325000Y-48325000D03*
X88325000Y-46825000D03*
X73650000Y-60330000D03*
X73650000Y-58830000D03*
D25*
X82815000Y-45190000D03*
X86965000Y-45190000D03*
D24*
X82050000Y-77700000D03*
X83550000Y-77700000D03*
X83740000Y-91740000D03*
X82240000Y-91740000D03*
X80470000Y-81370000D03*
X78970000Y-81370000D03*
X79070000Y-88270000D03*
X80570000Y-88270000D03*
D22*
X88300000Y-62500000D03*
X88300000Y-60500000D03*
D26*
X85969670Y-60230330D03*
D13*
G36*
X85987348Y-59399480D02*
X86800520Y-60212652D01*
X85951992Y-61061180D01*
X85138820Y-60248008D01*
X85987348Y-59399480D01*
X85987348Y-59399480D01*
G37*
D26*
X87030330Y-59169670D03*
D13*
G36*
X87048008Y-58338820D02*
X87861180Y-59151992D01*
X87012652Y-60000520D01*
X86199480Y-59187348D01*
X87048008Y-58338820D01*
X87048008Y-58338820D01*
G37*
D24*
X84560000Y-48590000D03*
X86060000Y-48590000D03*
D14*
X76800000Y-80125000D03*
X76800000Y-78625000D03*
X76740000Y-89430000D03*
X76740000Y-90930000D03*
D24*
X82350000Y-47700000D03*
X80850000Y-47700000D03*
D26*
X84219670Y-60030330D03*
D13*
G36*
X84201992Y-60861180D02*
X83388820Y-60048008D01*
X84237348Y-59199480D01*
X85050520Y-60012652D01*
X84201992Y-60861180D01*
X84201992Y-60861180D01*
G37*
D26*
X85280330Y-58969670D03*
D13*
G36*
X85262652Y-59800520D02*
X84449480Y-58987348D01*
X85298008Y-58138820D01*
X86111180Y-58951992D01*
X85262652Y-59800520D01*
X85262652Y-59800520D01*
G37*
D14*
X74800000Y-55750000D03*
X74800000Y-54250000D03*
D26*
X86619670Y-57580330D03*
D13*
G36*
X86601992Y-58411180D02*
X85788820Y-57598008D01*
X86637348Y-56749480D01*
X87450520Y-57562652D01*
X86601992Y-58411180D01*
X86601992Y-58411180D01*
G37*
D26*
X87680330Y-56519670D03*
D13*
G36*
X87662652Y-57350520D02*
X86849480Y-56537348D01*
X87698008Y-55688820D01*
X88511180Y-56501992D01*
X87662652Y-57350520D01*
X87662652Y-57350520D01*
G37*
D20*
X68400000Y-45000000D03*
X70400000Y-45000000D03*
D14*
X86200000Y-84120000D03*
X86200000Y-82620000D03*
X86210000Y-85550000D03*
X86210000Y-87050000D03*
X75900000Y-59050000D03*
X75900000Y-57550000D03*
X87840000Y-84140000D03*
X87840000Y-82640000D03*
X87840000Y-87050000D03*
X87840000Y-85550000D03*
D22*
X91875000Y-44325000D03*
X91875000Y-46325000D03*
X90075000Y-44325000D03*
X90075000Y-46325000D03*
D14*
X102110000Y-53100000D03*
X102110000Y-51600000D03*
X97610000Y-45990000D03*
X97610000Y-47490000D03*
X100390000Y-46760000D03*
X100390000Y-48260000D03*
D24*
X103080000Y-44550000D03*
X101580000Y-44550000D03*
D14*
X97510000Y-49540000D03*
X97510000Y-51040000D03*
D24*
X107000000Y-53400000D03*
X105500000Y-53400000D03*
D20*
X130100000Y-71570000D03*
X132100000Y-71570000D03*
X127590000Y-49650000D03*
X125590000Y-49650000D03*
D22*
X129930000Y-46000000D03*
X129930000Y-48000000D03*
X122680000Y-44840000D03*
X122680000Y-46840000D03*
D20*
X124870000Y-69770000D03*
X126870000Y-69770000D03*
D22*
X124490000Y-44840000D03*
X124490000Y-46840000D03*
D24*
X114450000Y-81150000D03*
X115950000Y-81150000D03*
D20*
X122760000Y-49010000D03*
X120760000Y-49010000D03*
X125320000Y-62910000D03*
X123320000Y-62910000D03*
D14*
X106670000Y-47000000D03*
X106670000Y-45500000D03*
D20*
X68175000Y-91525000D03*
X66175000Y-91525000D03*
D14*
X125425000Y-56025000D03*
X125425000Y-57525000D03*
X126800000Y-56025000D03*
X126800000Y-57525000D03*
D24*
X129480000Y-59220000D03*
X127980000Y-59220000D03*
D27*
X71900000Y-46900000D03*
X73900000Y-45950000D03*
X73900000Y-47850000D03*
X72800000Y-62800000D03*
X70800000Y-63750000D03*
X70800000Y-61850000D03*
D28*
X108790000Y-54970000D03*
X108790000Y-52770000D03*
X79190000Y-73060000D03*
X79190000Y-75260000D03*
D21*
X131200000Y-81200000D03*
X130250000Y-79200000D03*
X132150000Y-79200000D03*
X128550000Y-79200000D03*
X126650000Y-79200000D03*
X127600000Y-81200000D03*
X124000000Y-81200000D03*
X123050000Y-79200000D03*
X124950000Y-79200000D03*
X120400000Y-81200000D03*
X119450000Y-79200000D03*
X121350000Y-79200000D03*
D29*
X58380000Y-58880000D03*
X58380000Y-50120000D03*
D30*
X58380000Y-54500000D03*
X58380000Y-82100000D03*
D29*
X58380000Y-77720000D03*
X58380000Y-86480000D03*
D31*
X67000000Y-57600000D03*
D32*
X67000000Y-60140000D03*
X67000000Y-62680000D03*
X67000000Y-75280000D03*
X67000000Y-72740000D03*
D31*
X67000000Y-70200000D03*
D32*
X128040000Y-90600000D03*
X125500000Y-90600000D03*
X122960000Y-90600000D03*
X120420000Y-90600000D03*
X117880000Y-90600000D03*
X115340000Y-90600000D03*
D31*
X112800000Y-90600000D03*
D33*
X135490000Y-52820000D03*
X135490000Y-59820000D03*
D34*
X132790000Y-53820000D03*
X132790000Y-58820000D03*
D35*
X132790000Y-55020000D03*
X132790000Y-55670000D03*
X132790000Y-56320000D03*
X132790000Y-56970000D03*
X132790000Y-57620000D03*
D36*
X79300000Y-79945540D03*
X79300000Y-77654460D03*
X79010000Y-89564460D03*
X79010000Y-91855540D03*
D37*
X87745540Y-80150000D03*
X85454460Y-80150000D03*
X85554460Y-89600000D03*
X87845540Y-89600000D03*
D38*
X91750000Y-58800000D03*
X89850000Y-58800000D03*
X105150000Y-51600000D03*
X107050000Y-51600000D03*
D39*
X73350000Y-91800000D03*
X73350000Y-89900000D03*
D38*
X129830000Y-49720000D03*
X131730000Y-49720000D03*
X128640000Y-71590000D03*
X126740000Y-71590000D03*
D13*
G36*
X132672966Y-66123919D02*
X132716649Y-66130399D01*
X132759486Y-66141129D01*
X132801066Y-66156006D01*
X132840987Y-66174887D01*
X132878865Y-66197591D01*
X132914335Y-66223897D01*
X132947056Y-66253554D01*
X133583452Y-66889950D01*
X133613109Y-66922671D01*
X133639415Y-66958141D01*
X133662119Y-66996019D01*
X133681000Y-67035940D01*
X133695877Y-67077520D01*
X133706607Y-67120357D01*
X133713087Y-67164040D01*
X133715254Y-67208148D01*
X133713087Y-67252256D01*
X133706607Y-67295939D01*
X133695877Y-67338776D01*
X133681000Y-67380356D01*
X133662119Y-67420277D01*
X133639415Y-67458155D01*
X133613109Y-67493625D01*
X133583452Y-67526346D01*
X132876346Y-68233452D01*
X132843625Y-68263109D01*
X132808155Y-68289415D01*
X132770277Y-68312119D01*
X132730356Y-68331000D01*
X132688776Y-68345877D01*
X132645939Y-68356607D01*
X132602256Y-68363087D01*
X132558148Y-68365254D01*
X132514040Y-68363087D01*
X132470357Y-68356607D01*
X132427520Y-68345877D01*
X132385940Y-68331000D01*
X132346019Y-68312119D01*
X132308141Y-68289415D01*
X132272671Y-68263109D01*
X132239950Y-68233452D01*
X131603554Y-67597056D01*
X131573897Y-67564335D01*
X131547591Y-67528865D01*
X131524887Y-67490987D01*
X131506006Y-67451066D01*
X131491129Y-67409486D01*
X131480399Y-67366649D01*
X131473919Y-67322966D01*
X131471752Y-67278858D01*
X131473919Y-67234750D01*
X131480399Y-67191067D01*
X131491129Y-67148230D01*
X131506006Y-67106650D01*
X131524887Y-67066729D01*
X131547591Y-67028851D01*
X131573897Y-66993381D01*
X131603554Y-66960660D01*
X132310660Y-66253554D01*
X132343381Y-66223897D01*
X132378851Y-66197591D01*
X132416729Y-66174887D01*
X132456650Y-66156006D01*
X132498230Y-66141129D01*
X132541067Y-66130399D01*
X132584750Y-66123919D01*
X132628858Y-66121752D01*
X132672966Y-66123919D01*
X132672966Y-66123919D01*
G37*
D40*
X132593503Y-67243503D03*
D13*
G36*
X129985960Y-63436913D02*
X130029643Y-63443393D01*
X130072480Y-63454123D01*
X130114060Y-63469000D01*
X130153981Y-63487881D01*
X130191859Y-63510585D01*
X130227329Y-63536891D01*
X130260050Y-63566548D01*
X130896446Y-64202944D01*
X130926103Y-64235665D01*
X130952409Y-64271135D01*
X130975113Y-64309013D01*
X130993994Y-64348934D01*
X131008871Y-64390514D01*
X131019601Y-64433351D01*
X131026081Y-64477034D01*
X131028248Y-64521142D01*
X131026081Y-64565250D01*
X131019601Y-64608933D01*
X131008871Y-64651770D01*
X130993994Y-64693350D01*
X130975113Y-64733271D01*
X130952409Y-64771149D01*
X130926103Y-64806619D01*
X130896446Y-64839340D01*
X130189340Y-65546446D01*
X130156619Y-65576103D01*
X130121149Y-65602409D01*
X130083271Y-65625113D01*
X130043350Y-65643994D01*
X130001770Y-65658871D01*
X129958933Y-65669601D01*
X129915250Y-65676081D01*
X129871142Y-65678248D01*
X129827034Y-65676081D01*
X129783351Y-65669601D01*
X129740514Y-65658871D01*
X129698934Y-65643994D01*
X129659013Y-65625113D01*
X129621135Y-65602409D01*
X129585665Y-65576103D01*
X129552944Y-65546446D01*
X128916548Y-64910050D01*
X128886891Y-64877329D01*
X128860585Y-64841859D01*
X128837881Y-64803981D01*
X128819000Y-64764060D01*
X128804123Y-64722480D01*
X128793393Y-64679643D01*
X128786913Y-64635960D01*
X128784746Y-64591852D01*
X128786913Y-64547744D01*
X128793393Y-64504061D01*
X128804123Y-64461224D01*
X128819000Y-64419644D01*
X128837881Y-64379723D01*
X128860585Y-64341845D01*
X128886891Y-64306375D01*
X128916548Y-64273654D01*
X129623654Y-63566548D01*
X129656375Y-63536891D01*
X129691845Y-63510585D01*
X129729723Y-63487881D01*
X129769644Y-63469000D01*
X129811224Y-63454123D01*
X129854061Y-63443393D01*
X129897744Y-63436913D01*
X129941852Y-63434746D01*
X129985960Y-63436913D01*
X129985960Y-63436913D01*
G37*
D40*
X129906497Y-64556497D03*
D39*
X120870000Y-46750000D03*
X120870000Y-44850000D03*
D38*
X125330000Y-60960000D03*
X127230000Y-60960000D03*
D39*
X69950000Y-91825000D03*
X69950000Y-89925000D03*
X128500000Y-55690000D03*
X128500000Y-57590000D03*
D27*
X83820000Y-81080000D03*
X83820000Y-79180000D03*
X81820000Y-80130000D03*
X84010000Y-90290000D03*
X84010000Y-88390000D03*
X82010000Y-89340000D03*
D41*
X65700000Y-54400000D03*
X68600000Y-54400000D03*
D42*
X69700000Y-58250000D03*
X69700000Y-56750000D03*
D10*
X70100000Y-46900000D03*
X68600000Y-46900000D03*
D41*
X65850000Y-82350000D03*
X68750000Y-82350000D03*
D42*
X71675000Y-51950000D03*
X71675000Y-50450000D03*
D10*
X74425000Y-50500000D03*
X72925000Y-50500000D03*
D42*
X72100000Y-57250000D03*
X72100000Y-58750000D03*
D10*
X75525000Y-48300000D03*
X77025000Y-48300000D03*
D42*
X75150000Y-85525000D03*
X75150000Y-84025000D03*
X75150000Y-89300000D03*
X75150000Y-90800000D03*
D10*
X90550000Y-47875000D03*
X92050000Y-47875000D03*
D42*
X75100000Y-60300000D03*
X75100000Y-61800000D03*
X73590000Y-82590000D03*
X73590000Y-81090000D03*
X75250000Y-81380000D03*
X75250000Y-82880000D03*
X76760000Y-85510000D03*
X76760000Y-84010000D03*
X75150000Y-86650000D03*
X75150000Y-88150000D03*
X84810000Y-83940000D03*
X84810000Y-85440000D03*
X82350000Y-74900000D03*
X82350000Y-76400000D03*
X85550000Y-78000000D03*
X85550000Y-76500000D03*
X75950000Y-73900000D03*
X75950000Y-75400000D03*
X76775000Y-82875000D03*
X76775000Y-81375000D03*
X76760000Y-88140000D03*
X76760000Y-86640000D03*
X77020000Y-44140000D03*
X77020000Y-45640000D03*
D24*
X74150000Y-44200000D03*
X75650000Y-44200000D03*
D10*
X94950000Y-83530000D03*
X93450000Y-83530000D03*
D42*
X90720000Y-84980000D03*
X90720000Y-86480000D03*
D10*
X89070000Y-81970000D03*
X90570000Y-81970000D03*
D42*
X109175000Y-87375000D03*
X109175000Y-88875000D03*
X107725000Y-88875000D03*
X107725000Y-87375000D03*
X106300000Y-87375000D03*
X106300000Y-88875000D03*
X104850000Y-87375000D03*
X104850000Y-88875000D03*
X103400000Y-88875000D03*
X103400000Y-87375000D03*
X101950000Y-87375000D03*
X101950000Y-88875000D03*
X100500000Y-88875000D03*
X100500000Y-87375000D03*
X99050000Y-87375000D03*
X99050000Y-88875000D03*
X97600000Y-88875000D03*
X97600000Y-87375000D03*
X96150000Y-87375000D03*
X96150000Y-88875000D03*
X94700000Y-88875000D03*
X94700000Y-87375000D03*
X93250000Y-88875000D03*
X93250000Y-87375000D03*
X106030000Y-56620000D03*
X106030000Y-58120000D03*
X109175000Y-84775000D03*
X109175000Y-86275000D03*
X107725000Y-86275000D03*
X107725000Y-84775000D03*
X106275000Y-86275000D03*
X106275000Y-84775000D03*
X104825000Y-86275000D03*
X104825000Y-84775000D03*
X103375000Y-84775000D03*
X103375000Y-86275000D03*
X101925000Y-84775000D03*
X101925000Y-86275000D03*
X100475000Y-84775000D03*
X100475000Y-86275000D03*
X99025000Y-84775000D03*
X99025000Y-86275000D03*
X97575000Y-86275000D03*
X97575000Y-84775000D03*
X96125000Y-86275000D03*
X96125000Y-84775000D03*
X94675000Y-86275000D03*
X94675000Y-84775000D03*
X93250000Y-84775000D03*
X93250000Y-86275000D03*
X103540000Y-53050000D03*
X103540000Y-51550000D03*
D10*
X82350000Y-73450000D03*
X80850000Y-73450000D03*
X106650000Y-44040000D03*
X105150000Y-44040000D03*
D42*
X88500000Y-75850000D03*
X88500000Y-74350000D03*
D10*
X100360000Y-44580000D03*
X98860000Y-44580000D03*
D42*
X99010000Y-48260000D03*
X99010000Y-46760000D03*
X99030000Y-49580000D03*
X99030000Y-51080000D03*
X99490000Y-53770000D03*
X99490000Y-52270000D03*
X98020000Y-53750000D03*
X98020000Y-52250000D03*
X109210000Y-58120000D03*
X109210000Y-56620000D03*
X106230000Y-49920000D03*
X106230000Y-48420000D03*
D10*
X106950000Y-54800000D03*
X105450000Y-54800000D03*
D42*
X110830000Y-55900000D03*
X110830000Y-57400000D03*
X77500000Y-75400000D03*
X77500000Y-73900000D03*
X113660000Y-63150000D03*
X113660000Y-64650000D03*
D10*
X128400000Y-68180000D03*
X126900000Y-68180000D03*
X124320000Y-68140000D03*
X125820000Y-68140000D03*
D42*
X115775000Y-86325000D03*
X115775000Y-87825000D03*
X112875000Y-86325000D03*
X112875000Y-87825000D03*
X114325000Y-87825000D03*
X114325000Y-86325000D03*
D10*
X121670000Y-62260000D03*
X120170000Y-62260000D03*
X113575000Y-67025000D03*
X115075000Y-67025000D03*
X113340000Y-71260000D03*
X114840000Y-71260000D03*
X125350000Y-54160000D03*
X126850000Y-54160000D03*
D42*
X129420000Y-81730000D03*
X129420000Y-83230000D03*
X125920000Y-81700000D03*
X125920000Y-83200000D03*
X122450000Y-81725000D03*
X122450000Y-83225000D03*
X118900000Y-81725000D03*
X118900000Y-83225000D03*
D39*
X131110000Y-84750000D03*
X131110000Y-82850000D03*
X127600000Y-83610000D03*
X127600000Y-85510000D03*
X124140000Y-85520000D03*
X124140000Y-83620000D03*
X120600000Y-83600000D03*
X120600000Y-85500000D03*
D42*
X129410000Y-86830000D03*
X129410000Y-85330000D03*
X125950000Y-87260000D03*
X125950000Y-85760000D03*
X122490000Y-85780000D03*
X122490000Y-87280000D03*
X118925000Y-87175000D03*
X118925000Y-85675000D03*
D43*
X91850000Y-51800000D03*
D44*
X91850000Y-51000000D03*
D43*
X91850000Y-49400000D03*
D44*
X91850000Y-50200000D03*
D43*
X90050000Y-51800000D03*
D44*
X90050000Y-50200000D03*
X90050000Y-51000000D03*
D43*
X90050000Y-49400000D03*
X79050000Y-63800000D03*
D44*
X79050000Y-65400000D03*
X79050000Y-64600000D03*
D43*
X79050000Y-66200000D03*
D44*
X80850000Y-64600000D03*
D43*
X80850000Y-63800000D03*
D44*
X80850000Y-65400000D03*
D43*
X80850000Y-66200000D03*
D12*
X90837868Y-56384924D03*
D13*
G36*
X90095406Y-56278858D02*
X90731802Y-55642462D01*
X91580330Y-56490990D01*
X90943934Y-57127386D01*
X90095406Y-56278858D01*
X90095406Y-56278858D01*
G37*
D45*
X91403553Y-55819239D03*
D13*
G36*
X90696446Y-55677818D02*
X91262132Y-55112132D01*
X92110660Y-55960660D01*
X91544974Y-56526346D01*
X90696446Y-55677818D01*
X90696446Y-55677818D01*
G37*
D12*
X92534924Y-54687868D03*
D13*
G36*
X91792462Y-54581802D02*
X92428858Y-53945406D01*
X93277386Y-54793934D01*
X92640990Y-55430330D01*
X91792462Y-54581802D01*
X91792462Y-54581802D01*
G37*
D45*
X91969239Y-55253553D03*
D13*
G36*
X91262132Y-55112132D02*
X91827818Y-54546446D01*
X92676346Y-55394974D01*
X92110660Y-55960660D01*
X91262132Y-55112132D01*
X91262132Y-55112132D01*
G37*
D12*
X89565076Y-55112132D03*
D13*
G36*
X88822614Y-55006066D02*
X89459010Y-54369670D01*
X90307538Y-55218198D01*
X89671142Y-55854594D01*
X88822614Y-55006066D01*
X88822614Y-55006066D01*
G37*
D45*
X90696447Y-53980761D03*
D13*
G36*
X89989340Y-53839340D02*
X90555026Y-53273654D01*
X91403554Y-54122182D01*
X90837868Y-54687868D01*
X89989340Y-53839340D01*
X89989340Y-53839340D01*
G37*
D45*
X90130761Y-54546447D03*
D13*
G36*
X89423654Y-54405026D02*
X89989340Y-53839340D01*
X90837868Y-54687868D01*
X90272182Y-55253554D01*
X89423654Y-54405026D01*
X89423654Y-54405026D01*
G37*
D12*
X91262132Y-53415076D03*
D13*
G36*
X90519670Y-53309010D02*
X91156066Y-52672614D01*
X92004594Y-53521142D01*
X91368198Y-54157538D01*
X90519670Y-53309010D01*
X90519670Y-53309010D01*
G37*
D43*
X84900000Y-64200000D03*
D44*
X84900000Y-63400000D03*
D43*
X84900000Y-61800000D03*
D44*
X84900000Y-62600000D03*
D43*
X83100000Y-64200000D03*
D44*
X83100000Y-62600000D03*
X83100000Y-63400000D03*
D43*
X83100000Y-61800000D03*
D46*
X115875000Y-65100000D03*
D47*
X116675000Y-65100000D03*
D46*
X118275000Y-65100000D03*
D47*
X117475000Y-65100000D03*
D46*
X115875000Y-63300000D03*
D47*
X117475000Y-63300000D03*
X116675000Y-63300000D03*
D46*
X118275000Y-63300000D03*
D43*
X118800000Y-70250000D03*
D44*
X118800000Y-68650000D03*
X118800000Y-69450000D03*
D43*
X118800000Y-67850000D03*
D44*
X117000000Y-69450000D03*
D43*
X117000000Y-70250000D03*
D44*
X117000000Y-68650000D03*
D43*
X117000000Y-67850000D03*
X119050000Y-75625000D03*
D44*
X119050000Y-74025000D03*
X119050000Y-74825000D03*
D43*
X119050000Y-73225000D03*
D44*
X117250000Y-74825000D03*
D43*
X117250000Y-75625000D03*
D44*
X117250000Y-74025000D03*
D43*
X117250000Y-73225000D03*
D48*
X69890000Y-79250000D03*
D49*
X71040000Y-75250000D03*
D48*
X72190000Y-79250000D03*
D50*
X82810000Y-83660000D03*
D49*
X78810000Y-84810000D03*
D50*
X82810000Y-85960000D03*
D51*
X82556371Y-49229542D03*
D13*
G36*
X82185140Y-50060392D02*
X81725521Y-49600773D01*
X82927602Y-48398692D01*
X83387221Y-48858311D01*
X82185140Y-50060392D01*
X82185140Y-50060392D01*
G37*
D51*
X82909924Y-49583095D03*
D13*
G36*
X82538693Y-50413945D02*
X82079074Y-49954326D01*
X83281155Y-48752245D01*
X83740774Y-49211864D01*
X82538693Y-50413945D01*
X82538693Y-50413945D01*
G37*
D51*
X83263478Y-49936649D03*
D13*
G36*
X82892247Y-50767499D02*
X82432628Y-50307880D01*
X83634709Y-49105799D01*
X84094328Y-49565418D01*
X82892247Y-50767499D01*
X82892247Y-50767499D01*
G37*
D51*
X83617031Y-50290202D03*
D13*
G36*
X83245800Y-51121052D02*
X82786181Y-50661433D01*
X83988262Y-49459352D01*
X84447881Y-49918971D01*
X83245800Y-51121052D01*
X83245800Y-51121052D01*
G37*
D51*
X83970584Y-50643755D03*
D13*
G36*
X83599353Y-51474605D02*
X83139734Y-51014986D01*
X84341815Y-49812905D01*
X84801434Y-50272524D01*
X83599353Y-51474605D01*
X83599353Y-51474605D01*
G37*
D51*
X84324138Y-50997309D03*
D13*
G36*
X83952907Y-51828159D02*
X83493288Y-51368540D01*
X84695369Y-50166459D01*
X85154988Y-50626078D01*
X83952907Y-51828159D01*
X83952907Y-51828159D01*
G37*
D51*
X84677691Y-51350862D03*
D13*
G36*
X84306460Y-52181712D02*
X83846841Y-51722093D01*
X85048922Y-50520012D01*
X85508541Y-50979631D01*
X84306460Y-52181712D01*
X84306460Y-52181712D01*
G37*
D51*
X85031245Y-51704416D03*
D13*
G36*
X84660014Y-52535266D02*
X84200395Y-52075647D01*
X85402476Y-50873566D01*
X85862095Y-51333185D01*
X84660014Y-52535266D01*
X84660014Y-52535266D01*
G37*
D51*
X85384798Y-52057969D03*
D13*
G36*
X85013567Y-52888819D02*
X84553948Y-52429200D01*
X85756029Y-51227119D01*
X86215648Y-51686738D01*
X85013567Y-52888819D01*
X85013567Y-52888819D01*
G37*
D51*
X85738351Y-52411522D03*
D13*
G36*
X85367120Y-53242372D02*
X84907501Y-52782753D01*
X86109582Y-51580672D01*
X86569201Y-52040291D01*
X85367120Y-53242372D01*
X85367120Y-53242372D01*
G37*
D51*
X86091905Y-52765076D03*
D13*
G36*
X85720674Y-53595926D02*
X85261055Y-53136307D01*
X86463136Y-51934226D01*
X86922755Y-52393845D01*
X85720674Y-53595926D01*
X85720674Y-53595926D01*
G37*
D51*
X86445458Y-53118629D03*
D13*
G36*
X86074227Y-53949479D02*
X85614608Y-53489860D01*
X86816689Y-52287779D01*
X87276308Y-52747398D01*
X86074227Y-53949479D01*
X86074227Y-53949479D01*
G37*
D51*
X86445458Y-55381371D03*
D13*
G36*
X85614608Y-55010140D02*
X86074227Y-54550521D01*
X87276308Y-55752602D01*
X86816689Y-56212221D01*
X85614608Y-55010140D01*
X85614608Y-55010140D01*
G37*
D51*
X86091905Y-55734924D03*
D13*
G36*
X85261055Y-55363693D02*
X85720674Y-54904074D01*
X86922755Y-56106155D01*
X86463136Y-56565774D01*
X85261055Y-55363693D01*
X85261055Y-55363693D01*
G37*
D51*
X85738351Y-56088478D03*
D13*
G36*
X84907501Y-55717247D02*
X85367120Y-55257628D01*
X86569201Y-56459709D01*
X86109582Y-56919328D01*
X84907501Y-55717247D01*
X84907501Y-55717247D01*
G37*
D51*
X85384798Y-56442031D03*
D13*
G36*
X84553948Y-56070800D02*
X85013567Y-55611181D01*
X86215648Y-56813262D01*
X85756029Y-57272881D01*
X84553948Y-56070800D01*
X84553948Y-56070800D01*
G37*
D51*
X85031245Y-56795584D03*
D13*
G36*
X84200395Y-56424353D02*
X84660014Y-55964734D01*
X85862095Y-57166815D01*
X85402476Y-57626434D01*
X84200395Y-56424353D01*
X84200395Y-56424353D01*
G37*
D51*
X84677691Y-57149138D03*
D13*
G36*
X83846841Y-56777907D02*
X84306460Y-56318288D01*
X85508541Y-57520369D01*
X85048922Y-57979988D01*
X83846841Y-56777907D01*
X83846841Y-56777907D01*
G37*
D51*
X84324138Y-57502691D03*
D13*
G36*
X83493288Y-57131460D02*
X83952907Y-56671841D01*
X85154988Y-57873922D01*
X84695369Y-58333541D01*
X83493288Y-57131460D01*
X83493288Y-57131460D01*
G37*
D51*
X83970584Y-57856245D03*
D13*
G36*
X83139734Y-57485014D02*
X83599353Y-57025395D01*
X84801434Y-58227476D01*
X84341815Y-58687095D01*
X83139734Y-57485014D01*
X83139734Y-57485014D01*
G37*
D51*
X83617031Y-58209798D03*
D13*
G36*
X82786181Y-57838567D02*
X83245800Y-57378948D01*
X84447881Y-58581029D01*
X83988262Y-59040648D01*
X82786181Y-57838567D01*
X82786181Y-57838567D01*
G37*
D51*
X83263478Y-58563351D03*
D13*
G36*
X82432628Y-58192120D02*
X82892247Y-57732501D01*
X84094328Y-58934582D01*
X83634709Y-59394201D01*
X82432628Y-58192120D01*
X82432628Y-58192120D01*
G37*
D51*
X82909924Y-58916905D03*
D13*
G36*
X82079074Y-58545674D02*
X82538693Y-58086055D01*
X83740774Y-59288136D01*
X83281155Y-59747755D01*
X82079074Y-58545674D01*
X82079074Y-58545674D01*
G37*
D51*
X82556371Y-59270458D03*
D13*
G36*
X81725521Y-58899227D02*
X82185140Y-58439608D01*
X83387221Y-59641689D01*
X82927602Y-60101308D01*
X81725521Y-58899227D01*
X81725521Y-58899227D01*
G37*
D51*
X80293629Y-59270458D03*
D13*
G36*
X79922398Y-60101308D02*
X79462779Y-59641689D01*
X80664860Y-58439608D01*
X81124479Y-58899227D01*
X79922398Y-60101308D01*
X79922398Y-60101308D01*
G37*
D51*
X79940076Y-58916905D03*
D13*
G36*
X79568845Y-59747755D02*
X79109226Y-59288136D01*
X80311307Y-58086055D01*
X80770926Y-58545674D01*
X79568845Y-59747755D01*
X79568845Y-59747755D01*
G37*
D51*
X79586522Y-58563351D03*
D13*
G36*
X79215291Y-59394201D02*
X78755672Y-58934582D01*
X79957753Y-57732501D01*
X80417372Y-58192120D01*
X79215291Y-59394201D01*
X79215291Y-59394201D01*
G37*
D51*
X79232969Y-58209798D03*
D13*
G36*
X78861738Y-59040648D02*
X78402119Y-58581029D01*
X79604200Y-57378948D01*
X80063819Y-57838567D01*
X78861738Y-59040648D01*
X78861738Y-59040648D01*
G37*
D51*
X78879416Y-57856245D03*
D13*
G36*
X78508185Y-58687095D02*
X78048566Y-58227476D01*
X79250647Y-57025395D01*
X79710266Y-57485014D01*
X78508185Y-58687095D01*
X78508185Y-58687095D01*
G37*
D51*
X78525862Y-57502691D03*
D13*
G36*
X78154631Y-58333541D02*
X77695012Y-57873922D01*
X78897093Y-56671841D01*
X79356712Y-57131460D01*
X78154631Y-58333541D01*
X78154631Y-58333541D01*
G37*
D51*
X78172309Y-57149138D03*
D13*
G36*
X77801078Y-57979988D02*
X77341459Y-57520369D01*
X78543540Y-56318288D01*
X79003159Y-56777907D01*
X77801078Y-57979988D01*
X77801078Y-57979988D01*
G37*
D51*
X77818755Y-56795584D03*
D13*
G36*
X77447524Y-57626434D02*
X76987905Y-57166815D01*
X78189986Y-55964734D01*
X78649605Y-56424353D01*
X77447524Y-57626434D01*
X77447524Y-57626434D01*
G37*
D51*
X77465202Y-56442031D03*
D13*
G36*
X77093971Y-57272881D02*
X76634352Y-56813262D01*
X77836433Y-55611181D01*
X78296052Y-56070800D01*
X77093971Y-57272881D01*
X77093971Y-57272881D01*
G37*
D51*
X77111649Y-56088478D03*
D13*
G36*
X76740418Y-56919328D02*
X76280799Y-56459709D01*
X77482880Y-55257628D01*
X77942499Y-55717247D01*
X76740418Y-56919328D01*
X76740418Y-56919328D01*
G37*
D51*
X76758095Y-55734924D03*
D13*
G36*
X76386864Y-56565774D02*
X75927245Y-56106155D01*
X77129326Y-54904074D01*
X77588945Y-55363693D01*
X76386864Y-56565774D01*
X76386864Y-56565774D01*
G37*
D51*
X76404542Y-55381371D03*
D13*
G36*
X76033311Y-56212221D02*
X75573692Y-55752602D01*
X76775773Y-54550521D01*
X77235392Y-55010140D01*
X76033311Y-56212221D01*
X76033311Y-56212221D01*
G37*
D51*
X76404542Y-53118629D03*
D13*
G36*
X75573692Y-52747398D02*
X76033311Y-52287779D01*
X77235392Y-53489860D01*
X76775773Y-53949479D01*
X75573692Y-52747398D01*
X75573692Y-52747398D01*
G37*
D51*
X76758095Y-52765076D03*
D13*
G36*
X75927245Y-52393845D02*
X76386864Y-51934226D01*
X77588945Y-53136307D01*
X77129326Y-53595926D01*
X75927245Y-52393845D01*
X75927245Y-52393845D01*
G37*
D51*
X77111649Y-52411522D03*
D13*
G36*
X76280799Y-52040291D02*
X76740418Y-51580672D01*
X77942499Y-52782753D01*
X77482880Y-53242372D01*
X76280799Y-52040291D01*
X76280799Y-52040291D01*
G37*
D51*
X77465202Y-52057969D03*
D13*
G36*
X76634352Y-51686738D02*
X77093971Y-51227119D01*
X78296052Y-52429200D01*
X77836433Y-52888819D01*
X76634352Y-51686738D01*
X76634352Y-51686738D01*
G37*
D51*
X77818755Y-51704416D03*
D13*
G36*
X76987905Y-51333185D02*
X77447524Y-50873566D01*
X78649605Y-52075647D01*
X78189986Y-52535266D01*
X76987905Y-51333185D01*
X76987905Y-51333185D01*
G37*
D51*
X78172309Y-51350862D03*
D13*
G36*
X77341459Y-50979631D02*
X77801078Y-50520012D01*
X79003159Y-51722093D01*
X78543540Y-52181712D01*
X77341459Y-50979631D01*
X77341459Y-50979631D01*
G37*
D51*
X78525862Y-50997309D03*
D13*
G36*
X77695012Y-50626078D02*
X78154631Y-50166459D01*
X79356712Y-51368540D01*
X78897093Y-51828159D01*
X77695012Y-50626078D01*
X77695012Y-50626078D01*
G37*
D51*
X78879416Y-50643755D03*
D13*
G36*
X78048566Y-50272524D02*
X78508185Y-49812905D01*
X79710266Y-51014986D01*
X79250647Y-51474605D01*
X78048566Y-50272524D01*
X78048566Y-50272524D01*
G37*
D51*
X79232969Y-50290202D03*
D13*
G36*
X78402119Y-49918971D02*
X78861738Y-49459352D01*
X80063819Y-50661433D01*
X79604200Y-51121052D01*
X78402119Y-49918971D01*
X78402119Y-49918971D01*
G37*
D51*
X79586522Y-49936649D03*
D13*
G36*
X78755672Y-49565418D02*
X79215291Y-49105799D01*
X80417372Y-50307880D01*
X79957753Y-50767499D01*
X78755672Y-49565418D01*
X78755672Y-49565418D01*
G37*
D51*
X79940076Y-49583095D03*
D13*
G36*
X79109226Y-49211864D02*
X79568845Y-48752245D01*
X80770926Y-49954326D01*
X80311307Y-50413945D01*
X79109226Y-49211864D01*
X79109226Y-49211864D01*
G37*
D51*
X80293629Y-49229542D03*
D13*
G36*
X79462779Y-48858311D02*
X79922398Y-48398692D01*
X81124479Y-49600773D01*
X80664860Y-50060392D01*
X79462779Y-48858311D01*
X79462779Y-48858311D01*
G37*
D52*
X80790000Y-45920000D03*
X80790000Y-44970000D03*
X80790000Y-44020000D03*
X78590000Y-44020000D03*
X78590000Y-45920000D03*
D53*
X95950000Y-47600000D03*
X94050000Y-47600000D03*
X94050000Y-45400000D03*
X95000000Y-45400000D03*
X95950000Y-45400000D03*
X114500000Y-84950000D03*
X115450000Y-84950000D03*
X113550000Y-84950000D03*
X113550000Y-82750000D03*
X114500000Y-82750000D03*
X115450000Y-82750000D03*
X128150000Y-46800000D03*
X126250000Y-46800000D03*
X126250000Y-44600000D03*
X127200000Y-44600000D03*
X128150000Y-44600000D03*
D52*
X127700000Y-64680000D03*
X127700000Y-66580000D03*
X125500000Y-66580000D03*
X125500000Y-65630000D03*
X125500000Y-64680000D03*
D53*
X113650000Y-46350000D03*
X112700000Y-46350000D03*
X111750000Y-46350000D03*
X111750000Y-48550000D03*
X113650000Y-48550000D03*
D54*
X114975000Y-52300000D03*
X115625000Y-52300000D03*
X116275000Y-52300000D03*
X116925000Y-52300000D03*
X117575000Y-52300000D03*
X118225000Y-52300000D03*
X118875000Y-52300000D03*
X119525000Y-52300000D03*
X120175000Y-52300000D03*
X120825000Y-52300000D03*
X121475000Y-52300000D03*
X122125000Y-52300000D03*
X122775000Y-52300000D03*
X123425000Y-52300000D03*
X123425000Y-59500000D03*
X122775000Y-59500000D03*
X122125000Y-59500000D03*
X121475000Y-59500000D03*
X120825000Y-59500000D03*
X120175000Y-59500000D03*
X119525000Y-59500000D03*
X118875000Y-59500000D03*
X118225000Y-59500000D03*
X117575000Y-59500000D03*
X116925000Y-59500000D03*
X116275000Y-59500000D03*
X115625000Y-59500000D03*
X114975000Y-59500000D03*
M02*
