G04 #@! TF.GenerationSoftware,KiCad,Pcbnew,(2018-01-18 revision 08b15a699)-makepkg*
G04 #@! TF.CreationDate,2018-01-23T16:45:18-05:00*
G04 #@! TF.ProjectId,osa103k,6F73613130336B2E6B696361645F7063,rev?*
G04 #@! TF.SameCoordinates,Original*
G04 #@! TF.FileFunction,Legend,Top*
G04 #@! TF.FilePolarity,Positive*
%FSLAX46Y46*%
G04 Gerber Fmt 4.6, Leading zero omitted, Abs format (unit mm)*
G04 Created by KiCad (PCBNEW (2018-01-18 revision 08b15a699)-makepkg) date 01/23/18 16:45:18*
%MOMM*%
%LPD*%
G01*
G04 APERTURE LIST*
%ADD10C,0.120000*%
%ADD11C,0.150000*%
G04 APERTURE END LIST*
D10*
X125600000Y-52000000D02*
X126600000Y-52000000D01*
X126600000Y-53360000D02*
X125600000Y-53360000D01*
X102520000Y-59180000D02*
X101520000Y-59180000D01*
X101520000Y-57820000D02*
X102520000Y-57820000D01*
X77277279Y-66365614D02*
X77984386Y-67072721D01*
X77022721Y-68034386D02*
X76315614Y-67327279D01*
X110250000Y-47450000D02*
X110250000Y-48150000D01*
X109050000Y-48150000D02*
X109050000Y-47450000D01*
X104850000Y-50100000D02*
X104850000Y-46100000D01*
X101700000Y-50100000D02*
X104850000Y-50100000D01*
D11*
X91975000Y-81425000D02*
X91975000Y-82525000D01*
X90975000Y-61075000D02*
X90975000Y-62150000D01*
X111325000Y-61075000D02*
X111325000Y-62150000D01*
X111325000Y-81425000D02*
X111325000Y-80350000D01*
X90975000Y-81425000D02*
X90975000Y-80350000D01*
X111325000Y-81425000D02*
X110250000Y-81425000D01*
X111325000Y-61075000D02*
X110250000Y-61075000D01*
X90975000Y-61075000D02*
X92050000Y-61075000D01*
X90975000Y-81425000D02*
X91975000Y-81425000D01*
X70025000Y-72035000D02*
X70025000Y-73435000D01*
X75125000Y-72035000D02*
X75125000Y-67885000D01*
X69975000Y-72035000D02*
X69975000Y-67885000D01*
X75125000Y-72035000D02*
X74980000Y-72035000D01*
X75125000Y-67885000D02*
X74980000Y-67885000D01*
X69975000Y-67885000D02*
X70120000Y-67885000D01*
X69975000Y-72035000D02*
X70025000Y-72035000D01*
X71725000Y-88825000D02*
X73125000Y-88825000D01*
X71725000Y-83725000D02*
X67575000Y-83725000D01*
X71725000Y-88875000D02*
X67575000Y-88875000D01*
X71725000Y-83725000D02*
X71725000Y-83870000D01*
X67575000Y-83725000D02*
X67575000Y-83870000D01*
X67575000Y-88875000D02*
X67575000Y-88730000D01*
X71725000Y-88875000D02*
X71725000Y-88825000D01*
D10*
X115800000Y-79520000D02*
X116800000Y-79520000D01*
X116800000Y-77820000D02*
X115800000Y-77820000D01*
X83270000Y-74910000D02*
X84200000Y-74910000D01*
X86430000Y-74910000D02*
X85500000Y-74910000D01*
X86430000Y-74910000D02*
X86430000Y-72750000D01*
X83270000Y-74910000D02*
X83270000Y-73450000D01*
X68150000Y-49000000D02*
X68150000Y-50000000D01*
X69850000Y-50000000D02*
X69850000Y-49000000D01*
X65780000Y-47600000D02*
X65780000Y-49600000D01*
X67820000Y-49600000D02*
X67820000Y-47600000D01*
X72450000Y-55900000D02*
X71750000Y-55900000D01*
X71750000Y-54700000D02*
X72450000Y-54700000D01*
X71690000Y-54570000D02*
X72690000Y-54570000D01*
X72690000Y-52870000D02*
X71690000Y-52870000D01*
X66470000Y-79510000D02*
X67170000Y-79510000D01*
X67170000Y-80710000D02*
X66470000Y-80710000D01*
X68400000Y-65100000D02*
X67400000Y-65100000D01*
X67400000Y-66800000D02*
X68400000Y-66800000D01*
X73525000Y-51500000D02*
X74225000Y-51500000D01*
X74225000Y-52700000D02*
X73525000Y-52700000D01*
X76025000Y-49075000D02*
X76725000Y-49075000D01*
X76725000Y-50275000D02*
X76025000Y-50275000D01*
X76640000Y-47500000D02*
X75940000Y-47500000D01*
X75940000Y-46300000D02*
X76640000Y-46300000D01*
X66500000Y-89250000D02*
X67200000Y-89250000D01*
X67200000Y-90450000D02*
X66500000Y-90450000D01*
X71470000Y-82896000D02*
X70770000Y-82896000D01*
X70770000Y-81696000D02*
X71470000Y-81696000D01*
X87725000Y-47925000D02*
X87725000Y-47225000D01*
X88925000Y-47225000D02*
X88925000Y-47925000D01*
X73050000Y-59930000D02*
X73050000Y-59230000D01*
X74250000Y-59230000D02*
X74250000Y-59930000D01*
X82440000Y-43390000D02*
X82440000Y-43890000D01*
X82440000Y-43390000D02*
X82940000Y-43390000D01*
X82440000Y-46990000D02*
X82440000Y-46490000D01*
X82440000Y-46990000D02*
X82940000Y-46990000D01*
X87340000Y-43890000D02*
X86840000Y-43390000D01*
X87340000Y-46490000D02*
X86840000Y-46990000D01*
X82450000Y-77100000D02*
X83150000Y-77100000D01*
X83150000Y-78300000D02*
X82450000Y-78300000D01*
X83340000Y-92340000D02*
X82640000Y-92340000D01*
X82640000Y-91140000D02*
X83340000Y-91140000D01*
X80070000Y-81970000D02*
X79370000Y-81970000D01*
X79370000Y-80770000D02*
X80070000Y-80770000D01*
X79470000Y-87670000D02*
X80170000Y-87670000D01*
X80170000Y-88870000D02*
X79470000Y-88870000D01*
X87450000Y-61000000D02*
X87450000Y-62000000D01*
X89150000Y-62000000D02*
X89150000Y-61000000D01*
X85828249Y-59523223D02*
X86323223Y-59028249D01*
X87171751Y-59876777D02*
X86676777Y-60371751D01*
X84960000Y-47990000D02*
X85660000Y-47990000D01*
X85660000Y-49190000D02*
X84960000Y-49190000D01*
X76200000Y-79725000D02*
X76200000Y-79025000D01*
X77400000Y-79025000D02*
X77400000Y-79725000D01*
X77340000Y-89830000D02*
X77340000Y-90530000D01*
X76140000Y-90530000D02*
X76140000Y-89830000D01*
X81950000Y-48300000D02*
X81250000Y-48300000D01*
X81250000Y-47100000D02*
X81950000Y-47100000D01*
X84078249Y-59323223D02*
X84573223Y-58828249D01*
X85421751Y-59676777D02*
X84926777Y-60171751D01*
X74200000Y-55350000D02*
X74200000Y-54650000D01*
X75400000Y-54650000D02*
X75400000Y-55350000D01*
X86478249Y-56873223D02*
X86973223Y-56378249D01*
X87821751Y-57226777D02*
X87326777Y-57721751D01*
X69900000Y-44150000D02*
X68900000Y-44150000D01*
X68900000Y-45850000D02*
X69900000Y-45850000D01*
X85600000Y-83720000D02*
X85600000Y-83020000D01*
X86800000Y-83020000D02*
X86800000Y-83720000D01*
X86810000Y-85950000D02*
X86810000Y-86650000D01*
X85610000Y-86650000D02*
X85610000Y-85950000D01*
X75300000Y-58650000D02*
X75300000Y-57950000D01*
X76500000Y-57950000D02*
X76500000Y-58650000D01*
X87240000Y-83740000D02*
X87240000Y-83040000D01*
X88440000Y-83040000D02*
X88440000Y-83740000D01*
X87240000Y-86650000D02*
X87240000Y-85950000D01*
X88440000Y-85950000D02*
X88440000Y-86650000D01*
X92725000Y-45825000D02*
X92725000Y-44825000D01*
X91025000Y-44825000D02*
X91025000Y-45825000D01*
X90925000Y-45825000D02*
X90925000Y-44825000D01*
X89225000Y-44825000D02*
X89225000Y-45825000D01*
X101510000Y-52700000D02*
X101510000Y-52000000D01*
X102710000Y-52000000D02*
X102710000Y-52700000D01*
X98210000Y-46390000D02*
X98210000Y-47090000D01*
X97010000Y-47090000D02*
X97010000Y-46390000D01*
X100990000Y-47160000D02*
X100990000Y-47860000D01*
X99790000Y-47860000D02*
X99790000Y-47160000D01*
X102680000Y-45150000D02*
X101980000Y-45150000D01*
X101980000Y-43950000D02*
X102680000Y-43950000D01*
X98110000Y-49940000D02*
X98110000Y-50640000D01*
X96910000Y-50640000D02*
X96910000Y-49940000D01*
X106600000Y-54000000D02*
X105900000Y-54000000D01*
X105900000Y-52800000D02*
X106600000Y-52800000D01*
X131600000Y-70720000D02*
X130600000Y-70720000D01*
X130600000Y-72420000D02*
X131600000Y-72420000D01*
X126090000Y-50500000D02*
X127090000Y-50500000D01*
X127090000Y-48800000D02*
X126090000Y-48800000D01*
X130780000Y-47500000D02*
X130780000Y-46500000D01*
X129080000Y-46500000D02*
X129080000Y-47500000D01*
X123530000Y-46340000D02*
X123530000Y-45340000D01*
X121830000Y-45340000D02*
X121830000Y-46340000D01*
X126370000Y-68920000D02*
X125370000Y-68920000D01*
X125370000Y-70620000D02*
X126370000Y-70620000D01*
X125340000Y-46340000D02*
X125340000Y-45340000D01*
X123640000Y-45340000D02*
X123640000Y-46340000D01*
X114850000Y-80550000D02*
X115550000Y-80550000D01*
X115550000Y-81750000D02*
X114850000Y-81750000D01*
X121260000Y-49860000D02*
X122260000Y-49860000D01*
X122260000Y-48160000D02*
X121260000Y-48160000D01*
X123820000Y-63760000D02*
X124820000Y-63760000D01*
X124820000Y-62060000D02*
X123820000Y-62060000D01*
X106070000Y-46600000D02*
X106070000Y-45900000D01*
X107270000Y-45900000D02*
X107270000Y-46600000D01*
X66675000Y-92375000D02*
X67675000Y-92375000D01*
X67675000Y-90675000D02*
X66675000Y-90675000D01*
X126025000Y-56425000D02*
X126025000Y-57125000D01*
X124825000Y-57125000D02*
X124825000Y-56425000D01*
X127400000Y-56425000D02*
X127400000Y-57125000D01*
X126200000Y-57125000D02*
X126200000Y-56425000D01*
X129080000Y-59820000D02*
X128380000Y-59820000D01*
X128380000Y-58620000D02*
X129080000Y-58620000D01*
X72140000Y-45320000D02*
X73600000Y-45320000D01*
X72140000Y-48480000D02*
X74300000Y-48480000D01*
X72140000Y-48480000D02*
X72140000Y-47550000D01*
X72140000Y-45320000D02*
X72140000Y-46250000D01*
X72560000Y-64380000D02*
X71100000Y-64380000D01*
X72560000Y-61220000D02*
X70400000Y-61220000D01*
X72560000Y-61220000D02*
X72560000Y-62150000D01*
X72560000Y-64380000D02*
X72560000Y-63450000D01*
X108090000Y-55670000D02*
X108090000Y-52870000D01*
X109490000Y-55670000D02*
X109490000Y-52870000D01*
X108090000Y-55670000D02*
X109490000Y-55670000D01*
X78490000Y-75960000D02*
X79890000Y-75960000D01*
X79890000Y-75960000D02*
X79890000Y-73160000D01*
X78490000Y-75960000D02*
X78490000Y-73160000D01*
X129620000Y-80960000D02*
X129620000Y-79500000D01*
X132780000Y-80960000D02*
X132780000Y-78800000D01*
X132780000Y-80960000D02*
X131850000Y-80960000D01*
X129620000Y-80960000D02*
X130550000Y-80960000D01*
X126020000Y-80960000D02*
X126950000Y-80960000D01*
X129180000Y-80960000D02*
X128250000Y-80960000D01*
X129180000Y-80960000D02*
X129180000Y-78800000D01*
X126020000Y-80960000D02*
X126020000Y-79500000D01*
X122420000Y-80960000D02*
X122420000Y-79500000D01*
X125580000Y-80960000D02*
X125580000Y-78800000D01*
X125580000Y-80960000D02*
X124650000Y-80960000D01*
X122420000Y-80960000D02*
X123350000Y-80960000D01*
X118820000Y-80960000D02*
X118820000Y-79500000D01*
X121980000Y-80960000D02*
X121980000Y-78800000D01*
X121980000Y-80960000D02*
X121050000Y-80960000D01*
X118820000Y-80960000D02*
X119750000Y-80960000D01*
X65670000Y-64010000D02*
X68330000Y-64010000D01*
X65670000Y-58870000D02*
X65670000Y-64010000D01*
X68330000Y-58870000D02*
X68330000Y-64010000D01*
X65670000Y-58870000D02*
X68330000Y-58870000D01*
X65670000Y-57600000D02*
X65670000Y-56270000D01*
X65670000Y-56270000D02*
X67000000Y-56270000D01*
X65670000Y-68870000D02*
X67000000Y-68870000D01*
X65670000Y-70200000D02*
X65670000Y-68870000D01*
X65670000Y-71470000D02*
X68330000Y-71470000D01*
X68330000Y-71470000D02*
X68330000Y-76610000D01*
X65670000Y-71470000D02*
X65670000Y-76610000D01*
X65670000Y-76610000D02*
X68330000Y-76610000D01*
X111470000Y-91930000D02*
X111470000Y-90600000D01*
X112800000Y-91930000D02*
X111470000Y-91930000D01*
X114070000Y-91930000D02*
X114070000Y-89270000D01*
X114070000Y-89270000D02*
X129370000Y-89270000D01*
X114070000Y-91930000D02*
X129370000Y-91930000D01*
X129370000Y-91930000D02*
X129370000Y-89270000D01*
X138170000Y-60670000D02*
X131760000Y-60670000D01*
X136940000Y-51970000D02*
X136940000Y-60670000D01*
X131760000Y-51970000D02*
X138170000Y-51970000D01*
X131760000Y-60670000D02*
X131760000Y-51970000D01*
X138170000Y-60670000D02*
X138170000Y-51970000D01*
X90200000Y-57920000D02*
X91400000Y-57920000D01*
X91400000Y-59680000D02*
X90200000Y-59680000D01*
X106700000Y-52480000D02*
X105500000Y-52480000D01*
X105500000Y-50720000D02*
X106700000Y-50720000D01*
X74230000Y-90250000D02*
X74230000Y-91450000D01*
X72470000Y-91450000D02*
X72470000Y-90250000D01*
X131380000Y-50600000D02*
X130180000Y-50600000D01*
X130180000Y-48840000D02*
X131380000Y-48840000D01*
X127090000Y-70710000D02*
X128290000Y-70710000D01*
X128290000Y-72470000D02*
X127090000Y-72470000D01*
D11*
X133150000Y-64000000D02*
X130850000Y-64000000D01*
X133150000Y-66300000D02*
X133150000Y-64000000D01*
X130150000Y-67800000D02*
X129350000Y-66800000D01*
X131650000Y-67800000D02*
X130150000Y-67800000D01*
X129350000Y-66800000D02*
X129350000Y-65500000D01*
D10*
X121750000Y-45200000D02*
X121750000Y-46400000D01*
X119990000Y-46400000D02*
X119990000Y-45200000D01*
X126880000Y-61840000D02*
X125680000Y-61840000D01*
X125680000Y-60080000D02*
X126880000Y-60080000D01*
X70830000Y-90275000D02*
X70830000Y-91475000D01*
X69070000Y-91475000D02*
X69070000Y-90275000D01*
X127620000Y-57240000D02*
X127620000Y-56040000D01*
X129380000Y-56040000D02*
X129380000Y-57240000D01*
X82060000Y-78550000D02*
X82060000Y-79480000D01*
X82060000Y-81710000D02*
X82060000Y-80780000D01*
X82060000Y-81710000D02*
X84220000Y-81710000D01*
X82060000Y-78550000D02*
X83520000Y-78550000D01*
X82250000Y-87760000D02*
X82250000Y-88690000D01*
X82250000Y-90920000D02*
X82250000Y-89990000D01*
X82250000Y-90920000D02*
X84410000Y-90920000D01*
X82250000Y-87760000D02*
X83710000Y-87760000D01*
X68150000Y-55470000D02*
X66150000Y-55470000D01*
X66150000Y-53330000D02*
X68150000Y-53330000D01*
X70380000Y-57000000D02*
X70380000Y-58000000D01*
X69020000Y-58000000D02*
X69020000Y-57000000D01*
X68850000Y-46220000D02*
X69850000Y-46220000D01*
X69850000Y-47580000D02*
X68850000Y-47580000D01*
X68300000Y-83420000D02*
X66300000Y-83420000D01*
X66300000Y-81280000D02*
X68300000Y-81280000D01*
X72355000Y-50700000D02*
X72355000Y-51700000D01*
X70995000Y-51700000D02*
X70995000Y-50700000D01*
X73175000Y-49820000D02*
X74175000Y-49820000D01*
X74175000Y-51180000D02*
X73175000Y-51180000D01*
X71420000Y-58500000D02*
X71420000Y-57500000D01*
X72780000Y-57500000D02*
X72780000Y-58500000D01*
X76775000Y-48980000D02*
X75775000Y-48980000D01*
X75775000Y-47620000D02*
X76775000Y-47620000D01*
X75830000Y-84275000D02*
X75830000Y-85275000D01*
X74470000Y-85275000D02*
X74470000Y-84275000D01*
X74470000Y-90550000D02*
X74470000Y-89550000D01*
X75830000Y-89550000D02*
X75830000Y-90550000D01*
X91800000Y-48555000D02*
X90800000Y-48555000D01*
X90800000Y-47195000D02*
X91800000Y-47195000D01*
X74420000Y-61550000D02*
X74420000Y-60550000D01*
X75780000Y-60550000D02*
X75780000Y-61550000D01*
X74270000Y-81340000D02*
X74270000Y-82340000D01*
X72910000Y-82340000D02*
X72910000Y-81340000D01*
X74570000Y-82630000D02*
X74570000Y-81630000D01*
X75930000Y-81630000D02*
X75930000Y-82630000D01*
X77440000Y-84260000D02*
X77440000Y-85260000D01*
X76080000Y-85260000D02*
X76080000Y-84260000D01*
X74470000Y-87900000D02*
X74470000Y-86900000D01*
X75830000Y-86900000D02*
X75830000Y-87900000D01*
X84130000Y-85190000D02*
X84130000Y-84190000D01*
X85490000Y-84190000D02*
X85490000Y-85190000D01*
X81670000Y-76150000D02*
X81670000Y-75150000D01*
X83030000Y-75150000D02*
X83030000Y-76150000D01*
X86230000Y-76750000D02*
X86230000Y-77750000D01*
X84870000Y-77750000D02*
X84870000Y-76750000D01*
X75270000Y-75150000D02*
X75270000Y-74150000D01*
X76630000Y-74150000D02*
X76630000Y-75150000D01*
X77455000Y-81625000D02*
X77455000Y-82625000D01*
X76095000Y-82625000D02*
X76095000Y-81625000D01*
X77440000Y-86890000D02*
X77440000Y-87890000D01*
X76080000Y-87890000D02*
X76080000Y-86890000D01*
X76340000Y-45390000D02*
X76340000Y-44390000D01*
X77700000Y-44390000D02*
X77700000Y-45390000D01*
X74550000Y-43600000D02*
X75250000Y-43600000D01*
X75250000Y-44800000D02*
X74550000Y-44800000D01*
X93700000Y-82850000D02*
X94700000Y-82850000D01*
X94700000Y-84210000D02*
X93700000Y-84210000D01*
X90040000Y-86230000D02*
X90040000Y-85230000D01*
X91400000Y-85230000D02*
X91400000Y-86230000D01*
X90320000Y-82650000D02*
X89320000Y-82650000D01*
X89320000Y-81290000D02*
X90320000Y-81290000D01*
X108495000Y-88625000D02*
X108495000Y-87625000D01*
X109855000Y-87625000D02*
X109855000Y-88625000D01*
X108405000Y-87625000D02*
X108405000Y-88625000D01*
X107045000Y-88625000D02*
X107045000Y-87625000D01*
X105620000Y-88625000D02*
X105620000Y-87625000D01*
X106980000Y-87625000D02*
X106980000Y-88625000D01*
X104170000Y-88625000D02*
X104170000Y-87625000D01*
X105530000Y-87625000D02*
X105530000Y-88625000D01*
X104080000Y-87625000D02*
X104080000Y-88625000D01*
X102720000Y-88625000D02*
X102720000Y-87625000D01*
X101270000Y-88625000D02*
X101270000Y-87625000D01*
X102630000Y-87625000D02*
X102630000Y-88625000D01*
X101180000Y-87625000D02*
X101180000Y-88625000D01*
X99820000Y-88625000D02*
X99820000Y-87625000D01*
X98370000Y-88625000D02*
X98370000Y-87625000D01*
X99730000Y-87625000D02*
X99730000Y-88625000D01*
X98280000Y-87625000D02*
X98280000Y-88625000D01*
X96920000Y-88625000D02*
X96920000Y-87625000D01*
X95470000Y-88625000D02*
X95470000Y-87625000D01*
X96830000Y-87625000D02*
X96830000Y-88625000D01*
X95380000Y-87625000D02*
X95380000Y-88625000D01*
X94020000Y-88625000D02*
X94020000Y-87625000D01*
X93930000Y-87625000D02*
X93930000Y-88625000D01*
X92570000Y-88625000D02*
X92570000Y-87625000D01*
X105350000Y-57870000D02*
X105350000Y-56870000D01*
X106710000Y-56870000D02*
X106710000Y-57870000D01*
X108495000Y-86025000D02*
X108495000Y-85025000D01*
X109855000Y-85025000D02*
X109855000Y-86025000D01*
X108405000Y-85025000D02*
X108405000Y-86025000D01*
X107045000Y-86025000D02*
X107045000Y-85025000D01*
X106955000Y-85025000D02*
X106955000Y-86025000D01*
X105595000Y-86025000D02*
X105595000Y-85025000D01*
X105505000Y-85025000D02*
X105505000Y-86025000D01*
X104145000Y-86025000D02*
X104145000Y-85025000D01*
X102695000Y-86025000D02*
X102695000Y-85025000D01*
X104055000Y-85025000D02*
X104055000Y-86025000D01*
X101245000Y-86025000D02*
X101245000Y-85025000D01*
X102605000Y-85025000D02*
X102605000Y-86025000D01*
X99795000Y-86025000D02*
X99795000Y-85025000D01*
X101155000Y-85025000D02*
X101155000Y-86025000D01*
X98345000Y-86025000D02*
X98345000Y-85025000D01*
X99705000Y-85025000D02*
X99705000Y-86025000D01*
X98255000Y-85025000D02*
X98255000Y-86025000D01*
X96895000Y-86025000D02*
X96895000Y-85025000D01*
X96805000Y-85025000D02*
X96805000Y-86025000D01*
X95445000Y-86025000D02*
X95445000Y-85025000D01*
X95355000Y-85025000D02*
X95355000Y-86025000D01*
X93995000Y-86025000D02*
X93995000Y-85025000D01*
X92570000Y-86025000D02*
X92570000Y-85025000D01*
X93930000Y-85025000D02*
X93930000Y-86025000D01*
X104220000Y-51800000D02*
X104220000Y-52800000D01*
X102860000Y-52800000D02*
X102860000Y-51800000D01*
X81100000Y-72770000D02*
X82100000Y-72770000D01*
X82100000Y-74130000D02*
X81100000Y-74130000D01*
X105400000Y-43360000D02*
X106400000Y-43360000D01*
X106400000Y-44720000D02*
X105400000Y-44720000D01*
X89180000Y-74600000D02*
X89180000Y-75600000D01*
X87820000Y-75600000D02*
X87820000Y-74600000D01*
X99110000Y-43900000D02*
X100110000Y-43900000D01*
X100110000Y-45260000D02*
X99110000Y-45260000D01*
X99690000Y-47010000D02*
X99690000Y-48010000D01*
X98330000Y-48010000D02*
X98330000Y-47010000D01*
X98350000Y-50830000D02*
X98350000Y-49830000D01*
X99710000Y-49830000D02*
X99710000Y-50830000D01*
X100170000Y-52520000D02*
X100170000Y-53520000D01*
X98810000Y-53520000D02*
X98810000Y-52520000D01*
X98700000Y-52500000D02*
X98700000Y-53500000D01*
X97340000Y-53500000D02*
X97340000Y-52500000D01*
X109890000Y-56870000D02*
X109890000Y-57870000D01*
X108530000Y-57870000D02*
X108530000Y-56870000D01*
X106910000Y-48670000D02*
X106910000Y-49670000D01*
X105550000Y-49670000D02*
X105550000Y-48670000D01*
X105700000Y-54120000D02*
X106700000Y-54120000D01*
X106700000Y-55480000D02*
X105700000Y-55480000D01*
X110150000Y-57150000D02*
X110150000Y-56150000D01*
X111510000Y-56150000D02*
X111510000Y-57150000D01*
X78180000Y-74150000D02*
X78180000Y-75150000D01*
X76820000Y-75150000D02*
X76820000Y-74150000D01*
X112980000Y-64400000D02*
X112980000Y-63400000D01*
X114340000Y-63400000D02*
X114340000Y-64400000D01*
X127150000Y-67500000D02*
X128150000Y-67500000D01*
X128150000Y-68860000D02*
X127150000Y-68860000D01*
X125570000Y-68820000D02*
X124570000Y-68820000D01*
X124570000Y-67460000D02*
X125570000Y-67460000D01*
X115095000Y-87575000D02*
X115095000Y-86575000D01*
X116455000Y-86575000D02*
X116455000Y-87575000D01*
X112195000Y-87575000D02*
X112195000Y-86575000D01*
X113555000Y-86575000D02*
X113555000Y-87575000D01*
X115005000Y-86575000D02*
X115005000Y-87575000D01*
X113645000Y-87575000D02*
X113645000Y-86575000D01*
X120420000Y-61580000D02*
X121420000Y-61580000D01*
X121420000Y-62940000D02*
X120420000Y-62940000D01*
X114825000Y-67705000D02*
X113825000Y-67705000D01*
X113825000Y-66345000D02*
X114825000Y-66345000D01*
X114590000Y-71940000D02*
X113590000Y-71940000D01*
X113590000Y-70580000D02*
X114590000Y-70580000D01*
X126600000Y-54840000D02*
X125600000Y-54840000D01*
X125600000Y-53480000D02*
X126600000Y-53480000D01*
X128740000Y-82980000D02*
X128740000Y-81980000D01*
X130100000Y-81980000D02*
X130100000Y-82980000D01*
X125240000Y-82950000D02*
X125240000Y-81950000D01*
X126600000Y-81950000D02*
X126600000Y-82950000D01*
X121770000Y-82975000D02*
X121770000Y-81975000D01*
X123130000Y-81975000D02*
X123130000Y-82975000D01*
X118220000Y-82975000D02*
X118220000Y-81975000D01*
X119580000Y-81975000D02*
X119580000Y-82975000D01*
X131990000Y-83200000D02*
X131990000Y-84400000D01*
X130230000Y-84400000D02*
X130230000Y-83200000D01*
X126720000Y-85160000D02*
X126720000Y-83960000D01*
X128480000Y-83960000D02*
X128480000Y-85160000D01*
X125020000Y-83970000D02*
X125020000Y-85170000D01*
X123260000Y-85170000D02*
X123260000Y-83970000D01*
X119720000Y-85150000D02*
X119720000Y-83950000D01*
X121480000Y-83950000D02*
X121480000Y-85150000D01*
X130090000Y-85580000D02*
X130090000Y-86580000D01*
X128730000Y-86580000D02*
X128730000Y-85580000D01*
X126630000Y-86010000D02*
X126630000Y-87010000D01*
X125270000Y-87010000D02*
X125270000Y-86010000D01*
X121810000Y-87030000D02*
X121810000Y-86030000D01*
X123170000Y-86030000D02*
X123170000Y-87030000D01*
X119605000Y-85925000D02*
X119605000Y-86925000D01*
X118245000Y-86925000D02*
X118245000Y-85925000D01*
X91450000Y-48920000D02*
X90450000Y-48920000D01*
X91450000Y-52280000D02*
X90450000Y-52280000D01*
X80450000Y-66680000D02*
X79450000Y-66680000D01*
X80450000Y-63320000D02*
X79450000Y-63320000D01*
X92591493Y-54065614D02*
X91884386Y-53358507D01*
X90215614Y-56441493D02*
X89508507Y-55734386D01*
X84500000Y-61320000D02*
X83500000Y-61320000D01*
X84500000Y-64680000D02*
X83500000Y-64680000D01*
X118755000Y-64700000D02*
X118755000Y-63700000D01*
X115395000Y-64700000D02*
X115395000Y-63700000D01*
X117400000Y-67370000D02*
X118400000Y-67370000D01*
X117400000Y-70730000D02*
X118400000Y-70730000D01*
X117650000Y-72745000D02*
X118650000Y-72745000D01*
X117650000Y-76105000D02*
X118650000Y-76105000D01*
X69823222Y-77271194D02*
G75*
G02X70150000Y-76420000I1216778J21194D01*
G01*
X71929364Y-76430042D02*
G75*
G02X71920000Y-78080000I-889364J-819958D01*
G01*
X71374851Y-78408610D02*
G75*
G02X70710000Y-78410000I-334851J1158610D01*
G01*
X70155062Y-78075218D02*
G75*
G02X69830000Y-77250000I884938J825218D01*
G01*
X69060000Y-79810000D02*
X68480000Y-79810000D01*
X71360000Y-79810000D02*
X70720000Y-79810000D01*
X73600000Y-79810000D02*
X73020000Y-79810000D01*
X69860000Y-74690000D02*
X68480000Y-74690000D01*
X73600000Y-74690000D02*
X72220000Y-74690000D01*
X68480000Y-74690000D02*
X68480000Y-79810000D01*
X73600000Y-74690000D02*
X73600000Y-79810000D01*
X78250000Y-82250000D02*
X83370000Y-82250000D01*
X78250000Y-87370000D02*
X83370000Y-87370000D01*
X78250000Y-82250000D02*
X78250000Y-83630000D01*
X78250000Y-85990000D02*
X78250000Y-87370000D01*
X83370000Y-82250000D02*
X83370000Y-82830000D01*
X83370000Y-84490000D02*
X83370000Y-85130000D01*
X83370000Y-86790000D02*
X83370000Y-87370000D01*
X81635218Y-85694938D02*
G75*
G02X80810000Y-86020000I-825218J884938D01*
G01*
X81968610Y-84475149D02*
G75*
G02X81970000Y-85140000I-1158610J-334851D01*
G01*
X79990042Y-83920636D02*
G75*
G02X81640000Y-83930000I819958J-889364D01*
G01*
X80831194Y-86026778D02*
G75*
G02X79980000Y-85700000I-21194J1216778D01*
G01*
D11*
X81106802Y-49441674D02*
X80134530Y-48469402D01*
X86551524Y-54250000D02*
X86180293Y-53878769D01*
X81425000Y-59376524D02*
X81053769Y-59005293D01*
X76298476Y-54250000D02*
X76669707Y-54621231D01*
X81425000Y-49123476D02*
X81796231Y-49494707D01*
X76298476Y-54250000D02*
X76669707Y-53878769D01*
X81425000Y-59376524D02*
X81796231Y-59005293D01*
X86551524Y-54250000D02*
X86180293Y-54621231D01*
X81425000Y-49123476D02*
X81106802Y-49441674D01*
D10*
X80590000Y-43360000D02*
X78790000Y-43360000D01*
X78790000Y-46580000D02*
X81240000Y-46580000D01*
X96610000Y-47400000D02*
X96610000Y-44950000D01*
X93390000Y-45600000D02*
X93390000Y-47400000D01*
X116110000Y-84750000D02*
X116110000Y-82300000D01*
X112890000Y-82950000D02*
X112890000Y-84750000D01*
X128810000Y-46600000D02*
X128810000Y-44150000D01*
X125590000Y-44800000D02*
X125590000Y-46600000D01*
X127500000Y-64020000D02*
X125050000Y-64020000D01*
X125700000Y-67240000D02*
X127500000Y-67240000D01*
X111090000Y-46550000D02*
X111090000Y-48350000D01*
X114310000Y-48350000D02*
X114310000Y-45900000D01*
D11*
X114450000Y-58775000D02*
X114450000Y-60375000D01*
X124525000Y-58775000D02*
X124525000Y-53025000D01*
X113875000Y-58775000D02*
X113875000Y-53025000D01*
X124525000Y-58775000D02*
X123875000Y-58775000D01*
X124525000Y-53025000D02*
X123875000Y-53025000D01*
X113875000Y-53025000D02*
X114525000Y-53025000D01*
X113875000Y-58775000D02*
X114450000Y-58775000D01*
X125411428Y-51777142D02*
X125111428Y-51348571D01*
X124897142Y-51777142D02*
X124897142Y-50877142D01*
X125240000Y-50877142D01*
X125325714Y-50920000D01*
X125368571Y-50962857D01*
X125411428Y-51048571D01*
X125411428Y-51177142D01*
X125368571Y-51262857D01*
X125325714Y-51305714D01*
X125240000Y-51348571D01*
X124897142Y-51348571D01*
X125840000Y-51777142D02*
X126011428Y-51777142D01*
X126097142Y-51734285D01*
X126140000Y-51691428D01*
X126225714Y-51562857D01*
X126268571Y-51391428D01*
X126268571Y-51048571D01*
X126225714Y-50962857D01*
X126182857Y-50920000D01*
X126097142Y-50877142D01*
X125925714Y-50877142D01*
X125840000Y-50920000D01*
X125797142Y-50962857D01*
X125754285Y-51048571D01*
X125754285Y-51262857D01*
X125797142Y-51348571D01*
X125840000Y-51391428D01*
X125925714Y-51434285D01*
X126097142Y-51434285D01*
X126182857Y-51391428D01*
X126225714Y-51348571D01*
X126268571Y-51262857D01*
X126568571Y-50877142D02*
X127125714Y-50877142D01*
X126825714Y-51220000D01*
X126954285Y-51220000D01*
X127040000Y-51262857D01*
X127082857Y-51305714D01*
X127125714Y-51391428D01*
X127125714Y-51605714D01*
X127082857Y-51691428D01*
X127040000Y-51734285D01*
X126954285Y-51777142D01*
X126697142Y-51777142D01*
X126611428Y-51734285D01*
X126568571Y-51691428D01*
X100911428Y-57477142D02*
X100611428Y-57048571D01*
X100397142Y-57477142D02*
X100397142Y-56577142D01*
X100740000Y-56577142D01*
X100825714Y-56620000D01*
X100868571Y-56662857D01*
X100911428Y-56748571D01*
X100911428Y-56877142D01*
X100868571Y-56962857D01*
X100825714Y-57005714D01*
X100740000Y-57048571D01*
X100397142Y-57048571D01*
X101682857Y-56577142D02*
X101511428Y-56577142D01*
X101425714Y-56620000D01*
X101382857Y-56662857D01*
X101297142Y-56791428D01*
X101254285Y-56962857D01*
X101254285Y-57305714D01*
X101297142Y-57391428D01*
X101340000Y-57434285D01*
X101425714Y-57477142D01*
X101597142Y-57477142D01*
X101682857Y-57434285D01*
X101725714Y-57391428D01*
X101768571Y-57305714D01*
X101768571Y-57091428D01*
X101725714Y-57005714D01*
X101682857Y-56962857D01*
X101597142Y-56920000D01*
X101425714Y-56920000D01*
X101340000Y-56962857D01*
X101297142Y-57005714D01*
X101254285Y-57091428D01*
X102282857Y-56962857D02*
X102197142Y-56920000D01*
X102154285Y-56877142D01*
X102111428Y-56791428D01*
X102111428Y-56748571D01*
X102154285Y-56662857D01*
X102197142Y-56620000D01*
X102282857Y-56577142D01*
X102454285Y-56577142D01*
X102540000Y-56620000D01*
X102582857Y-56662857D01*
X102625714Y-56748571D01*
X102625714Y-56791428D01*
X102582857Y-56877142D01*
X102540000Y-56920000D01*
X102454285Y-56962857D01*
X102282857Y-56962857D01*
X102197142Y-57005714D01*
X102154285Y-57048571D01*
X102111428Y-57134285D01*
X102111428Y-57305714D01*
X102154285Y-57391428D01*
X102197142Y-57434285D01*
X102282857Y-57477142D01*
X102454285Y-57477142D01*
X102540000Y-57434285D01*
X102582857Y-57391428D01*
X102625714Y-57305714D01*
X102625714Y-57134285D01*
X102582857Y-57048571D01*
X102540000Y-57005714D01*
X102454285Y-56962857D01*
X75427689Y-68104086D02*
X75518603Y-67588908D01*
X75064034Y-67740431D02*
X75700430Y-67104035D01*
X75942867Y-67346472D01*
X75973172Y-67437386D01*
X75973172Y-67497995D01*
X75942867Y-67588908D01*
X75851953Y-67679822D01*
X75761040Y-67710127D01*
X75700430Y-67710127D01*
X75609517Y-67679822D01*
X75367080Y-67437386D01*
X76033781Y-68710178D02*
X75670126Y-68346523D01*
X75851953Y-68528350D02*
X76488349Y-67891954D01*
X76336827Y-67922259D01*
X76215608Y-67922259D01*
X76124695Y-67891954D01*
X76639872Y-69316269D02*
X76276217Y-68952614D01*
X76458045Y-69134442D02*
X77094441Y-68498046D01*
X76942918Y-68528350D01*
X76821700Y-68528350D01*
X76730786Y-68498046D01*
X108182857Y-50191428D02*
X108140000Y-50234285D01*
X108011428Y-50277142D01*
X107925714Y-50277142D01*
X107797142Y-50234285D01*
X107711428Y-50148571D01*
X107668571Y-50062857D01*
X107625714Y-49891428D01*
X107625714Y-49762857D01*
X107668571Y-49591428D01*
X107711428Y-49505714D01*
X107797142Y-49420000D01*
X107925714Y-49377142D01*
X108011428Y-49377142D01*
X108140000Y-49420000D01*
X108182857Y-49462857D01*
X109040000Y-50277142D02*
X108525714Y-50277142D01*
X108782857Y-50277142D02*
X108782857Y-49377142D01*
X108697142Y-49505714D01*
X108611428Y-49591428D01*
X108525714Y-49634285D01*
X109897142Y-50277142D02*
X109382857Y-50277142D01*
X109640000Y-50277142D02*
X109640000Y-49377142D01*
X109554285Y-49505714D01*
X109468571Y-49591428D01*
X109382857Y-49634285D01*
X110240000Y-49462857D02*
X110282857Y-49420000D01*
X110368571Y-49377142D01*
X110582857Y-49377142D01*
X110668571Y-49420000D01*
X110711428Y-49462857D01*
X110754285Y-49548571D01*
X110754285Y-49634285D01*
X110711428Y-49762857D01*
X110197142Y-50277142D01*
X110754285Y-50277142D01*
X104061428Y-44877142D02*
X104661428Y-45777142D01*
X104661428Y-44877142D02*
X104061428Y-45777142D01*
X105475714Y-45777142D02*
X104961428Y-45777142D01*
X105218571Y-45777142D02*
X105218571Y-44877142D01*
X105132857Y-45005714D01*
X105047142Y-45091428D01*
X104961428Y-45134285D01*
X103297142Y-69055714D02*
X104025714Y-69055714D01*
X104111428Y-69012857D01*
X104154285Y-68970000D01*
X104197142Y-68884285D01*
X104197142Y-68712857D01*
X104154285Y-68627142D01*
X104111428Y-68584285D01*
X104025714Y-68541428D01*
X103297142Y-68541428D01*
X103297142Y-67684285D02*
X103297142Y-68112857D01*
X103725714Y-68155714D01*
X103682857Y-68112857D01*
X103640000Y-68027142D01*
X103640000Y-67812857D01*
X103682857Y-67727142D01*
X103725714Y-67684285D01*
X103811428Y-67641428D01*
X104025714Y-67641428D01*
X104111428Y-67684285D01*
X104154285Y-67727142D01*
X104197142Y-67812857D01*
X104197142Y-68027142D01*
X104154285Y-68112857D01*
X104111428Y-68155714D01*
X71697142Y-70455714D02*
X72425714Y-70455714D01*
X72511428Y-70412857D01*
X72554285Y-70370000D01*
X72597142Y-70284285D01*
X72597142Y-70112857D01*
X72554285Y-70027142D01*
X72511428Y-69984285D01*
X72425714Y-69941428D01*
X71697142Y-69941428D01*
X71697142Y-69598571D02*
X71697142Y-69041428D01*
X72040000Y-69341428D01*
X72040000Y-69212857D01*
X72082857Y-69127142D01*
X72125714Y-69084285D01*
X72211428Y-69041428D01*
X72425714Y-69041428D01*
X72511428Y-69084285D01*
X72554285Y-69127142D01*
X72597142Y-69212857D01*
X72597142Y-69470000D01*
X72554285Y-69555714D01*
X72511428Y-69598571D01*
X68804285Y-86177142D02*
X68804285Y-86905714D01*
X68847142Y-86991428D01*
X68890000Y-87034285D01*
X68975714Y-87077142D01*
X69147142Y-87077142D01*
X69232857Y-87034285D01*
X69275714Y-86991428D01*
X69318571Y-86905714D01*
X69318571Y-86177142D01*
X70218571Y-87077142D02*
X69704285Y-87077142D01*
X69961428Y-87077142D02*
X69961428Y-86177142D01*
X69875714Y-86305714D01*
X69790000Y-86391428D01*
X69704285Y-86434285D01*
X115511428Y-77291428D02*
X115468571Y-77334285D01*
X115340000Y-77377142D01*
X115254285Y-77377142D01*
X115125714Y-77334285D01*
X115040000Y-77248571D01*
X114997142Y-77162857D01*
X114954285Y-76991428D01*
X114954285Y-76862857D01*
X114997142Y-76691428D01*
X115040000Y-76605714D01*
X115125714Y-76520000D01*
X115254285Y-76477142D01*
X115340000Y-76477142D01*
X115468571Y-76520000D01*
X115511428Y-76562857D01*
X115940000Y-77377142D02*
X116111428Y-77377142D01*
X116197142Y-77334285D01*
X116240000Y-77291428D01*
X116325714Y-77162857D01*
X116368571Y-76991428D01*
X116368571Y-76648571D01*
X116325714Y-76562857D01*
X116282857Y-76520000D01*
X116197142Y-76477142D01*
X116025714Y-76477142D01*
X115940000Y-76520000D01*
X115897142Y-76562857D01*
X115854285Y-76648571D01*
X115854285Y-76862857D01*
X115897142Y-76948571D01*
X115940000Y-76991428D01*
X116025714Y-77034285D01*
X116197142Y-77034285D01*
X116282857Y-76991428D01*
X116325714Y-76948571D01*
X116368571Y-76862857D01*
X117225714Y-77377142D02*
X116711428Y-77377142D01*
X116968571Y-77377142D02*
X116968571Y-76477142D01*
X116882857Y-76605714D01*
X116797142Y-76691428D01*
X116711428Y-76734285D01*
X84704285Y-72262857D02*
X84618571Y-72220000D01*
X84532857Y-72134285D01*
X84404285Y-72005714D01*
X84318571Y-71962857D01*
X84232857Y-71962857D01*
X84275714Y-72177142D02*
X84190000Y-72134285D01*
X84104285Y-72048571D01*
X84061428Y-71877142D01*
X84061428Y-71577142D01*
X84104285Y-71405714D01*
X84190000Y-71320000D01*
X84275714Y-71277142D01*
X84447142Y-71277142D01*
X84532857Y-71320000D01*
X84618571Y-71405714D01*
X84661428Y-71577142D01*
X84661428Y-71877142D01*
X84618571Y-72048571D01*
X84532857Y-72134285D01*
X84447142Y-72177142D01*
X84275714Y-72177142D01*
X84961428Y-71277142D02*
X85518571Y-71277142D01*
X85218571Y-71620000D01*
X85347142Y-71620000D01*
X85432857Y-71662857D01*
X85475714Y-71705714D01*
X85518571Y-71791428D01*
X85518571Y-72005714D01*
X85475714Y-72091428D01*
X85432857Y-72134285D01*
X85347142Y-72177142D01*
X85090000Y-72177142D01*
X85004285Y-72134285D01*
X84961428Y-72091428D01*
X70811428Y-50120000D02*
X70854285Y-50162857D01*
X70897142Y-50291428D01*
X70897142Y-50377142D01*
X70854285Y-50505714D01*
X70768571Y-50591428D01*
X70682857Y-50634285D01*
X70511428Y-50677142D01*
X70382857Y-50677142D01*
X70211428Y-50634285D01*
X70125714Y-50591428D01*
X70040000Y-50505714D01*
X69997142Y-50377142D01*
X69997142Y-50291428D01*
X70040000Y-50162857D01*
X70082857Y-50120000D01*
X70897142Y-49262857D02*
X70897142Y-49777142D01*
X70897142Y-49520000D02*
X69997142Y-49520000D01*
X70125714Y-49605714D01*
X70211428Y-49691428D01*
X70254285Y-49777142D01*
X68871428Y-48750000D02*
X68914285Y-48792857D01*
X68957142Y-48921428D01*
X68957142Y-49007142D01*
X68914285Y-49135714D01*
X68828571Y-49221428D01*
X68742857Y-49264285D01*
X68571428Y-49307142D01*
X68442857Y-49307142D01*
X68271428Y-49264285D01*
X68185714Y-49221428D01*
X68100000Y-49135714D01*
X68057142Y-49007142D01*
X68057142Y-48921428D01*
X68100000Y-48792857D01*
X68142857Y-48750000D01*
X68142857Y-48407142D02*
X68100000Y-48364285D01*
X68057142Y-48278571D01*
X68057142Y-48064285D01*
X68100000Y-47978571D01*
X68142857Y-47935714D01*
X68228571Y-47892857D01*
X68314285Y-47892857D01*
X68442857Y-47935714D01*
X68957142Y-48450000D01*
X68957142Y-47892857D01*
X70311428Y-55420000D02*
X70354285Y-55462857D01*
X70397142Y-55591428D01*
X70397142Y-55677142D01*
X70354285Y-55805714D01*
X70268571Y-55891428D01*
X70182857Y-55934285D01*
X70011428Y-55977142D01*
X69882857Y-55977142D01*
X69711428Y-55934285D01*
X69625714Y-55891428D01*
X69540000Y-55805714D01*
X69497142Y-55677142D01*
X69497142Y-55591428D01*
X69540000Y-55462857D01*
X69582857Y-55420000D01*
X69497142Y-55120000D02*
X69497142Y-54562857D01*
X69840000Y-54862857D01*
X69840000Y-54734285D01*
X69882857Y-54648571D01*
X69925714Y-54605714D01*
X70011428Y-54562857D01*
X70225714Y-54562857D01*
X70311428Y-54605714D01*
X70354285Y-54648571D01*
X70397142Y-54734285D01*
X70397142Y-54991428D01*
X70354285Y-55077142D01*
X70311428Y-55120000D01*
X71640000Y-54091428D02*
X71597142Y-54134285D01*
X71468571Y-54177142D01*
X71382857Y-54177142D01*
X71254285Y-54134285D01*
X71168571Y-54048571D01*
X71125714Y-53962857D01*
X71082857Y-53791428D01*
X71082857Y-53662857D01*
X71125714Y-53491428D01*
X71168571Y-53405714D01*
X71254285Y-53320000D01*
X71382857Y-53277142D01*
X71468571Y-53277142D01*
X71597142Y-53320000D01*
X71640000Y-53362857D01*
X72411428Y-53577142D02*
X72411428Y-54177142D01*
X72197142Y-53234285D02*
X71982857Y-53877142D01*
X72540000Y-53877142D01*
X64240000Y-80491428D02*
X64197142Y-80534285D01*
X64068571Y-80577142D01*
X63982857Y-80577142D01*
X63854285Y-80534285D01*
X63768571Y-80448571D01*
X63725714Y-80362857D01*
X63682857Y-80191428D01*
X63682857Y-80062857D01*
X63725714Y-79891428D01*
X63768571Y-79805714D01*
X63854285Y-79720000D01*
X63982857Y-79677142D01*
X64068571Y-79677142D01*
X64197142Y-79720000D01*
X64240000Y-79762857D01*
X65054285Y-79677142D02*
X64625714Y-79677142D01*
X64582857Y-80105714D01*
X64625714Y-80062857D01*
X64711428Y-80020000D01*
X64925714Y-80020000D01*
X65011428Y-80062857D01*
X65054285Y-80105714D01*
X65097142Y-80191428D01*
X65097142Y-80405714D01*
X65054285Y-80491428D01*
X65011428Y-80534285D01*
X64925714Y-80577142D01*
X64711428Y-80577142D01*
X64625714Y-80534285D01*
X64582857Y-80491428D01*
X67750000Y-64771428D02*
X67707142Y-64814285D01*
X67578571Y-64857142D01*
X67492857Y-64857142D01*
X67364285Y-64814285D01*
X67278571Y-64728571D01*
X67235714Y-64642857D01*
X67192857Y-64471428D01*
X67192857Y-64342857D01*
X67235714Y-64171428D01*
X67278571Y-64085714D01*
X67364285Y-64000000D01*
X67492857Y-63957142D01*
X67578571Y-63957142D01*
X67707142Y-64000000D01*
X67750000Y-64042857D01*
X68521428Y-63957142D02*
X68350000Y-63957142D01*
X68264285Y-64000000D01*
X68221428Y-64042857D01*
X68135714Y-64171428D01*
X68092857Y-64342857D01*
X68092857Y-64685714D01*
X68135714Y-64771428D01*
X68178571Y-64814285D01*
X68264285Y-64857142D01*
X68435714Y-64857142D01*
X68521428Y-64814285D01*
X68564285Y-64771428D01*
X68607142Y-64685714D01*
X68607142Y-64471428D01*
X68564285Y-64385714D01*
X68521428Y-64342857D01*
X68435714Y-64300000D01*
X68264285Y-64300000D01*
X68178571Y-64342857D01*
X68135714Y-64385714D01*
X68092857Y-64471428D01*
X74240000Y-53691428D02*
X74197142Y-53734285D01*
X74068571Y-53777142D01*
X73982857Y-53777142D01*
X73854285Y-53734285D01*
X73768571Y-53648571D01*
X73725714Y-53562857D01*
X73682857Y-53391428D01*
X73682857Y-53262857D01*
X73725714Y-53091428D01*
X73768571Y-53005714D01*
X73854285Y-52920000D01*
X73982857Y-52877142D01*
X74068571Y-52877142D01*
X74197142Y-52920000D01*
X74240000Y-52962857D01*
X74540000Y-52877142D02*
X75140000Y-52877142D01*
X74754285Y-53777142D01*
X76225000Y-51496428D02*
X76182142Y-51539285D01*
X76053571Y-51582142D01*
X75967857Y-51582142D01*
X75839285Y-51539285D01*
X75753571Y-51453571D01*
X75710714Y-51367857D01*
X75667857Y-51196428D01*
X75667857Y-51067857D01*
X75710714Y-50896428D01*
X75753571Y-50810714D01*
X75839285Y-50725000D01*
X75967857Y-50682142D01*
X76053571Y-50682142D01*
X76182142Y-50725000D01*
X76225000Y-50767857D01*
X76739285Y-51067857D02*
X76653571Y-51025000D01*
X76610714Y-50982142D01*
X76567857Y-50896428D01*
X76567857Y-50853571D01*
X76610714Y-50767857D01*
X76653571Y-50725000D01*
X76739285Y-50682142D01*
X76910714Y-50682142D01*
X76996428Y-50725000D01*
X77039285Y-50767857D01*
X77082142Y-50853571D01*
X77082142Y-50896428D01*
X77039285Y-50982142D01*
X76996428Y-51025000D01*
X76910714Y-51067857D01*
X76739285Y-51067857D01*
X76653571Y-51110714D01*
X76610714Y-51153571D01*
X76567857Y-51239285D01*
X76567857Y-51410714D01*
X76610714Y-51496428D01*
X76653571Y-51539285D01*
X76739285Y-51582142D01*
X76910714Y-51582142D01*
X76996428Y-51539285D01*
X77039285Y-51496428D01*
X77082142Y-51410714D01*
X77082142Y-51239285D01*
X77039285Y-51153571D01*
X76996428Y-51110714D01*
X76910714Y-51067857D01*
X76140000Y-48721428D02*
X76097142Y-48764285D01*
X75968571Y-48807142D01*
X75882857Y-48807142D01*
X75754285Y-48764285D01*
X75668571Y-48678571D01*
X75625714Y-48592857D01*
X75582857Y-48421428D01*
X75582857Y-48292857D01*
X75625714Y-48121428D01*
X75668571Y-48035714D01*
X75754285Y-47950000D01*
X75882857Y-47907142D01*
X75968571Y-47907142D01*
X76097142Y-47950000D01*
X76140000Y-47992857D01*
X76568571Y-48807142D02*
X76740000Y-48807142D01*
X76825714Y-48764285D01*
X76868571Y-48721428D01*
X76954285Y-48592857D01*
X76997142Y-48421428D01*
X76997142Y-48078571D01*
X76954285Y-47992857D01*
X76911428Y-47950000D01*
X76825714Y-47907142D01*
X76654285Y-47907142D01*
X76568571Y-47950000D01*
X76525714Y-47992857D01*
X76482857Y-48078571D01*
X76482857Y-48292857D01*
X76525714Y-48378571D01*
X76568571Y-48421428D01*
X76654285Y-48464285D01*
X76825714Y-48464285D01*
X76911428Y-48421428D01*
X76954285Y-48378571D01*
X76997142Y-48292857D01*
X64111428Y-88591428D02*
X64068571Y-88634285D01*
X63940000Y-88677142D01*
X63854285Y-88677142D01*
X63725714Y-88634285D01*
X63640000Y-88548571D01*
X63597142Y-88462857D01*
X63554285Y-88291428D01*
X63554285Y-88162857D01*
X63597142Y-87991428D01*
X63640000Y-87905714D01*
X63725714Y-87820000D01*
X63854285Y-87777142D01*
X63940000Y-87777142D01*
X64068571Y-87820000D01*
X64111428Y-87862857D01*
X64968571Y-88677142D02*
X64454285Y-88677142D01*
X64711428Y-88677142D02*
X64711428Y-87777142D01*
X64625714Y-87905714D01*
X64540000Y-87991428D01*
X64454285Y-88034285D01*
X65825714Y-88677142D02*
X65311428Y-88677142D01*
X65568571Y-88677142D02*
X65568571Y-87777142D01*
X65482857Y-87905714D01*
X65397142Y-87991428D01*
X65311428Y-88034285D01*
X70711428Y-83691428D02*
X70668571Y-83734285D01*
X70540000Y-83777142D01*
X70454285Y-83777142D01*
X70325714Y-83734285D01*
X70240000Y-83648571D01*
X70197142Y-83562857D01*
X70154285Y-83391428D01*
X70154285Y-83262857D01*
X70197142Y-83091428D01*
X70240000Y-83005714D01*
X70325714Y-82920000D01*
X70454285Y-82877142D01*
X70540000Y-82877142D01*
X70668571Y-82920000D01*
X70711428Y-82962857D01*
X71568571Y-83777142D02*
X71054285Y-83777142D01*
X71311428Y-83777142D02*
X71311428Y-82877142D01*
X71225714Y-83005714D01*
X71140000Y-83091428D01*
X71054285Y-83134285D01*
X71911428Y-82962857D02*
X71954285Y-82920000D01*
X72040000Y-82877142D01*
X72254285Y-82877142D01*
X72340000Y-82920000D01*
X72382857Y-82962857D01*
X72425714Y-83048571D01*
X72425714Y-83134285D01*
X72382857Y-83262857D01*
X71868571Y-83777142D01*
X72425714Y-83777142D01*
X89911428Y-48848571D02*
X89954285Y-48891428D01*
X89997142Y-49020000D01*
X89997142Y-49105714D01*
X89954285Y-49234285D01*
X89868571Y-49320000D01*
X89782857Y-49362857D01*
X89611428Y-49405714D01*
X89482857Y-49405714D01*
X89311428Y-49362857D01*
X89225714Y-49320000D01*
X89140000Y-49234285D01*
X89097142Y-49105714D01*
X89097142Y-49020000D01*
X89140000Y-48891428D01*
X89182857Y-48848571D01*
X89997142Y-47991428D02*
X89997142Y-48505714D01*
X89997142Y-48248571D02*
X89097142Y-48248571D01*
X89225714Y-48334285D01*
X89311428Y-48420000D01*
X89354285Y-48505714D01*
X89097142Y-47177142D02*
X89097142Y-47605714D01*
X89525714Y-47648571D01*
X89482857Y-47605714D01*
X89440000Y-47520000D01*
X89440000Y-47305714D01*
X89482857Y-47220000D01*
X89525714Y-47177142D01*
X89611428Y-47134285D01*
X89825714Y-47134285D01*
X89911428Y-47177142D01*
X89954285Y-47220000D01*
X89997142Y-47305714D01*
X89997142Y-47520000D01*
X89954285Y-47605714D01*
X89911428Y-47648571D01*
X74011428Y-62948571D02*
X74054285Y-62991428D01*
X74097142Y-63120000D01*
X74097142Y-63205714D01*
X74054285Y-63334285D01*
X73968571Y-63420000D01*
X73882857Y-63462857D01*
X73711428Y-63505714D01*
X73582857Y-63505714D01*
X73411428Y-63462857D01*
X73325714Y-63420000D01*
X73240000Y-63334285D01*
X73197142Y-63205714D01*
X73197142Y-63120000D01*
X73240000Y-62991428D01*
X73282857Y-62948571D01*
X74097142Y-62091428D02*
X74097142Y-62605714D01*
X74097142Y-62348571D02*
X73197142Y-62348571D01*
X73325714Y-62434285D01*
X73411428Y-62520000D01*
X73454285Y-62605714D01*
X73197142Y-61791428D02*
X73197142Y-61191428D01*
X74097142Y-61577142D01*
X84311428Y-48361428D02*
X84268571Y-48404285D01*
X84140000Y-48447142D01*
X84054285Y-48447142D01*
X83925714Y-48404285D01*
X83840000Y-48318571D01*
X83797142Y-48232857D01*
X83754285Y-48061428D01*
X83754285Y-47932857D01*
X83797142Y-47761428D01*
X83840000Y-47675714D01*
X83925714Y-47590000D01*
X84054285Y-47547142D01*
X84140000Y-47547142D01*
X84268571Y-47590000D01*
X84311428Y-47632857D01*
X85168571Y-48447142D02*
X84654285Y-48447142D01*
X84911428Y-48447142D02*
X84911428Y-47547142D01*
X84825714Y-47675714D01*
X84740000Y-47761428D01*
X84654285Y-47804285D01*
X85682857Y-47932857D02*
X85597142Y-47890000D01*
X85554285Y-47847142D01*
X85511428Y-47761428D01*
X85511428Y-47718571D01*
X85554285Y-47632857D01*
X85597142Y-47590000D01*
X85682857Y-47547142D01*
X85854285Y-47547142D01*
X85940000Y-47590000D01*
X85982857Y-47632857D01*
X86025714Y-47718571D01*
X86025714Y-47761428D01*
X85982857Y-47847142D01*
X85940000Y-47890000D01*
X85854285Y-47932857D01*
X85682857Y-47932857D01*
X85597142Y-47975714D01*
X85554285Y-48018571D01*
X85511428Y-48104285D01*
X85511428Y-48275714D01*
X85554285Y-48361428D01*
X85597142Y-48404285D01*
X85682857Y-48447142D01*
X85854285Y-48447142D01*
X85940000Y-48404285D01*
X85982857Y-48361428D01*
X86025714Y-48275714D01*
X86025714Y-48104285D01*
X85982857Y-48018571D01*
X85940000Y-47975714D01*
X85854285Y-47932857D01*
X82811428Y-76891428D02*
X82768571Y-76934285D01*
X82640000Y-76977142D01*
X82554285Y-76977142D01*
X82425714Y-76934285D01*
X82340000Y-76848571D01*
X82297142Y-76762857D01*
X82254285Y-76591428D01*
X82254285Y-76462857D01*
X82297142Y-76291428D01*
X82340000Y-76205714D01*
X82425714Y-76120000D01*
X82554285Y-76077142D01*
X82640000Y-76077142D01*
X82768571Y-76120000D01*
X82811428Y-76162857D01*
X83668571Y-76977142D02*
X83154285Y-76977142D01*
X83411428Y-76977142D02*
X83411428Y-76077142D01*
X83325714Y-76205714D01*
X83240000Y-76291428D01*
X83154285Y-76334285D01*
X84097142Y-76977142D02*
X84268571Y-76977142D01*
X84354285Y-76934285D01*
X84397142Y-76891428D01*
X84482857Y-76762857D01*
X84525714Y-76591428D01*
X84525714Y-76248571D01*
X84482857Y-76162857D01*
X84440000Y-76120000D01*
X84354285Y-76077142D01*
X84182857Y-76077142D01*
X84097142Y-76120000D01*
X84054285Y-76162857D01*
X84011428Y-76248571D01*
X84011428Y-76462857D01*
X84054285Y-76548571D01*
X84097142Y-76591428D01*
X84182857Y-76634285D01*
X84354285Y-76634285D01*
X84440000Y-76591428D01*
X84482857Y-76548571D01*
X84525714Y-76462857D01*
X82411428Y-93561428D02*
X82368571Y-93604285D01*
X82240000Y-93647142D01*
X82154285Y-93647142D01*
X82025714Y-93604285D01*
X81940000Y-93518571D01*
X81897142Y-93432857D01*
X81854285Y-93261428D01*
X81854285Y-93132857D01*
X81897142Y-92961428D01*
X81940000Y-92875714D01*
X82025714Y-92790000D01*
X82154285Y-92747142D01*
X82240000Y-92747142D01*
X82368571Y-92790000D01*
X82411428Y-92832857D01*
X82754285Y-92832857D02*
X82797142Y-92790000D01*
X82882857Y-92747142D01*
X83097142Y-92747142D01*
X83182857Y-92790000D01*
X83225714Y-92832857D01*
X83268571Y-92918571D01*
X83268571Y-93004285D01*
X83225714Y-93132857D01*
X82711428Y-93647142D01*
X83268571Y-93647142D01*
X83825714Y-92747142D02*
X83911428Y-92747142D01*
X83997142Y-92790000D01*
X84040000Y-92832857D01*
X84082857Y-92918571D01*
X84125714Y-93090000D01*
X84125714Y-93304285D01*
X84082857Y-93475714D01*
X84040000Y-93561428D01*
X83997142Y-93604285D01*
X83911428Y-93647142D01*
X83825714Y-93647142D01*
X83740000Y-93604285D01*
X83697142Y-93561428D01*
X83654285Y-93475714D01*
X83611428Y-93304285D01*
X83611428Y-93090000D01*
X83654285Y-92918571D01*
X83697142Y-92832857D01*
X83740000Y-92790000D01*
X83825714Y-92747142D01*
X79711428Y-83391428D02*
X79668571Y-83434285D01*
X79540000Y-83477142D01*
X79454285Y-83477142D01*
X79325714Y-83434285D01*
X79240000Y-83348571D01*
X79197142Y-83262857D01*
X79154285Y-83091428D01*
X79154285Y-82962857D01*
X79197142Y-82791428D01*
X79240000Y-82705714D01*
X79325714Y-82620000D01*
X79454285Y-82577142D01*
X79540000Y-82577142D01*
X79668571Y-82620000D01*
X79711428Y-82662857D01*
X80054285Y-82662857D02*
X80097142Y-82620000D01*
X80182857Y-82577142D01*
X80397142Y-82577142D01*
X80482857Y-82620000D01*
X80525714Y-82662857D01*
X80568571Y-82748571D01*
X80568571Y-82834285D01*
X80525714Y-82962857D01*
X80011428Y-83477142D01*
X80568571Y-83477142D01*
X80911428Y-82662857D02*
X80954285Y-82620000D01*
X81040000Y-82577142D01*
X81254285Y-82577142D01*
X81340000Y-82620000D01*
X81382857Y-82662857D01*
X81425714Y-82748571D01*
X81425714Y-82834285D01*
X81382857Y-82962857D01*
X80868571Y-83477142D01*
X81425714Y-83477142D01*
X79241428Y-87091428D02*
X79198571Y-87134285D01*
X79070000Y-87177142D01*
X78984285Y-87177142D01*
X78855714Y-87134285D01*
X78770000Y-87048571D01*
X78727142Y-86962857D01*
X78684285Y-86791428D01*
X78684285Y-86662857D01*
X78727142Y-86491428D01*
X78770000Y-86405714D01*
X78855714Y-86320000D01*
X78984285Y-86277142D01*
X79070000Y-86277142D01*
X79198571Y-86320000D01*
X79241428Y-86362857D01*
X79584285Y-86362857D02*
X79627142Y-86320000D01*
X79712857Y-86277142D01*
X79927142Y-86277142D01*
X80012857Y-86320000D01*
X80055714Y-86362857D01*
X80098571Y-86448571D01*
X80098571Y-86534285D01*
X80055714Y-86662857D01*
X79541428Y-87177142D01*
X80098571Y-87177142D01*
X80398571Y-86277142D02*
X80955714Y-86277142D01*
X80655714Y-86620000D01*
X80784285Y-86620000D01*
X80870000Y-86662857D01*
X80912857Y-86705714D01*
X80955714Y-86791428D01*
X80955714Y-87005714D01*
X80912857Y-87091428D01*
X80870000Y-87134285D01*
X80784285Y-87177142D01*
X80527142Y-87177142D01*
X80441428Y-87134285D01*
X80398571Y-87091428D01*
X90121428Y-62078571D02*
X90164285Y-62121428D01*
X90207142Y-62250000D01*
X90207142Y-62335714D01*
X90164285Y-62464285D01*
X90078571Y-62550000D01*
X89992857Y-62592857D01*
X89821428Y-62635714D01*
X89692857Y-62635714D01*
X89521428Y-62592857D01*
X89435714Y-62550000D01*
X89350000Y-62464285D01*
X89307142Y-62335714D01*
X89307142Y-62250000D01*
X89350000Y-62121428D01*
X89392857Y-62078571D01*
X89392857Y-61735714D02*
X89350000Y-61692857D01*
X89307142Y-61607142D01*
X89307142Y-61392857D01*
X89350000Y-61307142D01*
X89392857Y-61264285D01*
X89478571Y-61221428D01*
X89564285Y-61221428D01*
X89692857Y-61264285D01*
X90207142Y-61778571D01*
X90207142Y-61221428D01*
X89607142Y-60450000D02*
X90207142Y-60450000D01*
X89264285Y-60664285D02*
X89907142Y-60878571D01*
X89907142Y-60321428D01*
X86608172Y-62106396D02*
X86608172Y-62167005D01*
X86547563Y-62288223D01*
X86486954Y-62348832D01*
X86365735Y-62409441D01*
X86244517Y-62409441D01*
X86153603Y-62379137D01*
X86002081Y-62288223D01*
X85911167Y-62197309D01*
X85820253Y-62045786D01*
X85789948Y-61954873D01*
X85789948Y-61833654D01*
X85850558Y-61712436D01*
X85911167Y-61651827D01*
X86032385Y-61591218D01*
X86092994Y-61591218D01*
X86335431Y-61348781D02*
X86335431Y-61288172D01*
X86365735Y-61197258D01*
X86517258Y-61045735D01*
X86608172Y-61015431D01*
X86668781Y-61015431D01*
X86759695Y-61045735D01*
X86820304Y-61106345D01*
X86880913Y-61227563D01*
X86880913Y-61954873D01*
X87274873Y-61560913D01*
X87214264Y-60348730D02*
X86911218Y-60651776D01*
X87183959Y-60985126D01*
X87183959Y-60924517D01*
X87214264Y-60833603D01*
X87365786Y-60682081D01*
X87456700Y-60651776D01*
X87517309Y-60651776D01*
X87608223Y-60682081D01*
X87759746Y-60833603D01*
X87790051Y-60924517D01*
X87790051Y-60985126D01*
X87759746Y-61076040D01*
X87608223Y-61227563D01*
X87517309Y-61257867D01*
X87456700Y-61257867D01*
X84731428Y-47411428D02*
X84688571Y-47454285D01*
X84560000Y-47497142D01*
X84474285Y-47497142D01*
X84345714Y-47454285D01*
X84260000Y-47368571D01*
X84217142Y-47282857D01*
X84174285Y-47111428D01*
X84174285Y-46982857D01*
X84217142Y-46811428D01*
X84260000Y-46725714D01*
X84345714Y-46640000D01*
X84474285Y-46597142D01*
X84560000Y-46597142D01*
X84688571Y-46640000D01*
X84731428Y-46682857D01*
X85074285Y-46682857D02*
X85117142Y-46640000D01*
X85202857Y-46597142D01*
X85417142Y-46597142D01*
X85502857Y-46640000D01*
X85545714Y-46682857D01*
X85588571Y-46768571D01*
X85588571Y-46854285D01*
X85545714Y-46982857D01*
X85031428Y-47497142D01*
X85588571Y-47497142D01*
X86360000Y-46597142D02*
X86188571Y-46597142D01*
X86102857Y-46640000D01*
X86060000Y-46682857D01*
X85974285Y-46811428D01*
X85931428Y-46982857D01*
X85931428Y-47325714D01*
X85974285Y-47411428D01*
X86017142Y-47454285D01*
X86102857Y-47497142D01*
X86274285Y-47497142D01*
X86360000Y-47454285D01*
X86402857Y-47411428D01*
X86445714Y-47325714D01*
X86445714Y-47111428D01*
X86402857Y-47025714D01*
X86360000Y-46982857D01*
X86274285Y-46940000D01*
X86102857Y-46940000D01*
X86017142Y-46982857D01*
X85974285Y-47025714D01*
X85931428Y-47111428D01*
X75911428Y-79848571D02*
X75954285Y-79891428D01*
X75997142Y-80020000D01*
X75997142Y-80105714D01*
X75954285Y-80234285D01*
X75868571Y-80320000D01*
X75782857Y-80362857D01*
X75611428Y-80405714D01*
X75482857Y-80405714D01*
X75311428Y-80362857D01*
X75225714Y-80320000D01*
X75140000Y-80234285D01*
X75097142Y-80105714D01*
X75097142Y-80020000D01*
X75140000Y-79891428D01*
X75182857Y-79848571D01*
X75182857Y-79505714D02*
X75140000Y-79462857D01*
X75097142Y-79377142D01*
X75097142Y-79162857D01*
X75140000Y-79077142D01*
X75182857Y-79034285D01*
X75268571Y-78991428D01*
X75354285Y-78991428D01*
X75482857Y-79034285D01*
X75997142Y-79548571D01*
X75997142Y-78991428D01*
X75097142Y-78691428D02*
X75097142Y-78091428D01*
X75997142Y-78477142D01*
X75711428Y-92691428D02*
X75668571Y-92734285D01*
X75540000Y-92777142D01*
X75454285Y-92777142D01*
X75325714Y-92734285D01*
X75240000Y-92648571D01*
X75197142Y-92562857D01*
X75154285Y-92391428D01*
X75154285Y-92262857D01*
X75197142Y-92091428D01*
X75240000Y-92005714D01*
X75325714Y-91920000D01*
X75454285Y-91877142D01*
X75540000Y-91877142D01*
X75668571Y-91920000D01*
X75711428Y-91962857D01*
X76054285Y-91962857D02*
X76097142Y-91920000D01*
X76182857Y-91877142D01*
X76397142Y-91877142D01*
X76482857Y-91920000D01*
X76525714Y-91962857D01*
X76568571Y-92048571D01*
X76568571Y-92134285D01*
X76525714Y-92262857D01*
X76011428Y-92777142D01*
X76568571Y-92777142D01*
X77082857Y-92262857D02*
X76997142Y-92220000D01*
X76954285Y-92177142D01*
X76911428Y-92091428D01*
X76911428Y-92048571D01*
X76954285Y-91962857D01*
X76997142Y-91920000D01*
X77082857Y-91877142D01*
X77254285Y-91877142D01*
X77340000Y-91920000D01*
X77382857Y-91962857D01*
X77425714Y-92048571D01*
X77425714Y-92091428D01*
X77382857Y-92177142D01*
X77340000Y-92220000D01*
X77254285Y-92262857D01*
X77082857Y-92262857D01*
X76997142Y-92305714D01*
X76954285Y-92348571D01*
X76911428Y-92434285D01*
X76911428Y-92605714D01*
X76954285Y-92691428D01*
X76997142Y-92734285D01*
X77082857Y-92777142D01*
X77254285Y-92777142D01*
X77340000Y-92734285D01*
X77382857Y-92691428D01*
X77425714Y-92605714D01*
X77425714Y-92434285D01*
X77382857Y-92348571D01*
X77340000Y-92305714D01*
X77254285Y-92262857D01*
X81021428Y-49521428D02*
X80978571Y-49564285D01*
X80850000Y-49607142D01*
X80764285Y-49607142D01*
X80635714Y-49564285D01*
X80550000Y-49478571D01*
X80507142Y-49392857D01*
X80464285Y-49221428D01*
X80464285Y-49092857D01*
X80507142Y-48921428D01*
X80550000Y-48835714D01*
X80635714Y-48750000D01*
X80764285Y-48707142D01*
X80850000Y-48707142D01*
X80978571Y-48750000D01*
X81021428Y-48792857D01*
X81364285Y-48792857D02*
X81407142Y-48750000D01*
X81492857Y-48707142D01*
X81707142Y-48707142D01*
X81792857Y-48750000D01*
X81835714Y-48792857D01*
X81878571Y-48878571D01*
X81878571Y-48964285D01*
X81835714Y-49092857D01*
X81321428Y-49607142D01*
X81878571Y-49607142D01*
X82307142Y-49607142D02*
X82478571Y-49607142D01*
X82564285Y-49564285D01*
X82607142Y-49521428D01*
X82692857Y-49392857D01*
X82735714Y-49221428D01*
X82735714Y-48878571D01*
X82692857Y-48792857D01*
X82650000Y-48750000D01*
X82564285Y-48707142D01*
X82392857Y-48707142D01*
X82307142Y-48750000D01*
X82264285Y-48792857D01*
X82221428Y-48878571D01*
X82221428Y-49092857D01*
X82264285Y-49178571D01*
X82307142Y-49221428D01*
X82392857Y-49264285D01*
X82564285Y-49264285D01*
X82650000Y-49221428D01*
X82692857Y-49178571D01*
X82735714Y-49092857D01*
X82108172Y-61806396D02*
X82108172Y-61867005D01*
X82047563Y-61988223D01*
X81986954Y-62048832D01*
X81865735Y-62109441D01*
X81744517Y-62109441D01*
X81653603Y-62079137D01*
X81502081Y-61988223D01*
X81411167Y-61897309D01*
X81320253Y-61745786D01*
X81289948Y-61654873D01*
X81289948Y-61533654D01*
X81350558Y-61412436D01*
X81411167Y-61351827D01*
X81532385Y-61291218D01*
X81592994Y-61291218D01*
X81744517Y-61018477D02*
X82138477Y-60624517D01*
X82168781Y-61079086D01*
X82259695Y-60988172D01*
X82350609Y-60957867D01*
X82411218Y-60957867D01*
X82502132Y-60988172D01*
X82653654Y-61139695D01*
X82683959Y-61230609D01*
X82683959Y-61291218D01*
X82653654Y-61382132D01*
X82471827Y-61563959D01*
X82380913Y-61594264D01*
X82320304Y-61594264D01*
X82532436Y-60230558D02*
X82593045Y-60169948D01*
X82683959Y-60139644D01*
X82744568Y-60139644D01*
X82835482Y-60169948D01*
X82987005Y-60260862D01*
X83138528Y-60412385D01*
X83229441Y-60563908D01*
X83259746Y-60654822D01*
X83259746Y-60715431D01*
X83229441Y-60806345D01*
X83168832Y-60866954D01*
X83077918Y-60897258D01*
X83017309Y-60897258D01*
X82926396Y-60866954D01*
X82774873Y-60776040D01*
X82623350Y-60624517D01*
X82532436Y-60472994D01*
X82502132Y-60382081D01*
X82502132Y-60321471D01*
X82532436Y-60230558D01*
X72911428Y-57191428D02*
X72868571Y-57234285D01*
X72740000Y-57277142D01*
X72654285Y-57277142D01*
X72525714Y-57234285D01*
X72440000Y-57148571D01*
X72397142Y-57062857D01*
X72354285Y-56891428D01*
X72354285Y-56762857D01*
X72397142Y-56591428D01*
X72440000Y-56505714D01*
X72525714Y-56420000D01*
X72654285Y-56377142D01*
X72740000Y-56377142D01*
X72868571Y-56420000D01*
X72911428Y-56462857D01*
X73211428Y-56377142D02*
X73768571Y-56377142D01*
X73468571Y-56720000D01*
X73597142Y-56720000D01*
X73682857Y-56762857D01*
X73725714Y-56805714D01*
X73768571Y-56891428D01*
X73768571Y-57105714D01*
X73725714Y-57191428D01*
X73682857Y-57234285D01*
X73597142Y-57277142D01*
X73340000Y-57277142D01*
X73254285Y-57234285D01*
X73211428Y-57191428D01*
X74625714Y-57277142D02*
X74111428Y-57277142D01*
X74368571Y-57277142D02*
X74368571Y-56377142D01*
X74282857Y-56505714D01*
X74197142Y-56591428D01*
X74111428Y-56634285D01*
X88308172Y-58406396D02*
X88308172Y-58467005D01*
X88247563Y-58588223D01*
X88186954Y-58648832D01*
X88065735Y-58709441D01*
X87944517Y-58709441D01*
X87853603Y-58679137D01*
X87702081Y-58588223D01*
X87611167Y-58497309D01*
X87520253Y-58345786D01*
X87489948Y-58254873D01*
X87489948Y-58133654D01*
X87550558Y-58012436D01*
X87611167Y-57951827D01*
X87732385Y-57891218D01*
X87792994Y-57891218D01*
X87944517Y-57618477D02*
X88338477Y-57224517D01*
X88368781Y-57679086D01*
X88459695Y-57588172D01*
X88550609Y-57557867D01*
X88611218Y-57557867D01*
X88702132Y-57588172D01*
X88853654Y-57739695D01*
X88883959Y-57830609D01*
X88883959Y-57891218D01*
X88853654Y-57982132D01*
X88671827Y-58163959D01*
X88580913Y-58194264D01*
X88520304Y-58194264D01*
X88641522Y-57042690D02*
X88641522Y-56982081D01*
X88671827Y-56891167D01*
X88823350Y-56739644D01*
X88914264Y-56709339D01*
X88974873Y-56709339D01*
X89065786Y-56739644D01*
X89126396Y-56800253D01*
X89187005Y-56921471D01*
X89187005Y-57648781D01*
X89580964Y-57254822D01*
X68511428Y-43791428D02*
X68468571Y-43834285D01*
X68340000Y-43877142D01*
X68254285Y-43877142D01*
X68125714Y-43834285D01*
X68040000Y-43748571D01*
X67997142Y-43662857D01*
X67954285Y-43491428D01*
X67954285Y-43362857D01*
X67997142Y-43191428D01*
X68040000Y-43105714D01*
X68125714Y-43020000D01*
X68254285Y-42977142D01*
X68340000Y-42977142D01*
X68468571Y-43020000D01*
X68511428Y-43062857D01*
X68811428Y-42977142D02*
X69368571Y-42977142D01*
X69068571Y-43320000D01*
X69197142Y-43320000D01*
X69282857Y-43362857D01*
X69325714Y-43405714D01*
X69368571Y-43491428D01*
X69368571Y-43705714D01*
X69325714Y-43791428D01*
X69282857Y-43834285D01*
X69197142Y-43877142D01*
X68940000Y-43877142D01*
X68854285Y-43834285D01*
X68811428Y-43791428D01*
X69668571Y-42977142D02*
X70225714Y-42977142D01*
X69925714Y-43320000D01*
X70054285Y-43320000D01*
X70140000Y-43362857D01*
X70182857Y-43405714D01*
X70225714Y-43491428D01*
X70225714Y-43705714D01*
X70182857Y-43791428D01*
X70140000Y-43834285D01*
X70054285Y-43877142D01*
X69797142Y-43877142D01*
X69711428Y-43834285D01*
X69668571Y-43791428D01*
X86911428Y-82448571D02*
X86954285Y-82491428D01*
X86997142Y-82620000D01*
X86997142Y-82705714D01*
X86954285Y-82834285D01*
X86868571Y-82920000D01*
X86782857Y-82962857D01*
X86611428Y-83005714D01*
X86482857Y-83005714D01*
X86311428Y-82962857D01*
X86225714Y-82920000D01*
X86140000Y-82834285D01*
X86097142Y-82705714D01*
X86097142Y-82620000D01*
X86140000Y-82491428D01*
X86182857Y-82448571D01*
X86097142Y-82148571D02*
X86097142Y-81591428D01*
X86440000Y-81891428D01*
X86440000Y-81762857D01*
X86482857Y-81677142D01*
X86525714Y-81634285D01*
X86611428Y-81591428D01*
X86825714Y-81591428D01*
X86911428Y-81634285D01*
X86954285Y-81677142D01*
X86997142Y-81762857D01*
X86997142Y-82020000D01*
X86954285Y-82105714D01*
X86911428Y-82148571D01*
X86397142Y-80820000D02*
X86997142Y-80820000D01*
X86054285Y-81034285D02*
X86697142Y-81248571D01*
X86697142Y-80691428D01*
X87011428Y-89148571D02*
X87054285Y-89191428D01*
X87097142Y-89320000D01*
X87097142Y-89405714D01*
X87054285Y-89534285D01*
X86968571Y-89620000D01*
X86882857Y-89662857D01*
X86711428Y-89705714D01*
X86582857Y-89705714D01*
X86411428Y-89662857D01*
X86325714Y-89620000D01*
X86240000Y-89534285D01*
X86197142Y-89405714D01*
X86197142Y-89320000D01*
X86240000Y-89191428D01*
X86282857Y-89148571D01*
X86197142Y-88848571D02*
X86197142Y-88291428D01*
X86540000Y-88591428D01*
X86540000Y-88462857D01*
X86582857Y-88377142D01*
X86625714Y-88334285D01*
X86711428Y-88291428D01*
X86925714Y-88291428D01*
X87011428Y-88334285D01*
X87054285Y-88377142D01*
X87097142Y-88462857D01*
X87097142Y-88720000D01*
X87054285Y-88805714D01*
X87011428Y-88848571D01*
X86197142Y-87477142D02*
X86197142Y-87905714D01*
X86625714Y-87948571D01*
X86582857Y-87905714D01*
X86540000Y-87820000D01*
X86540000Y-87605714D01*
X86582857Y-87520000D01*
X86625714Y-87477142D01*
X86711428Y-87434285D01*
X86925714Y-87434285D01*
X87011428Y-87477142D01*
X87054285Y-87520000D01*
X87097142Y-87605714D01*
X87097142Y-87820000D01*
X87054285Y-87905714D01*
X87011428Y-87948571D01*
X77711428Y-59948571D02*
X77754285Y-59991428D01*
X77797142Y-60120000D01*
X77797142Y-60205714D01*
X77754285Y-60334285D01*
X77668571Y-60420000D01*
X77582857Y-60462857D01*
X77411428Y-60505714D01*
X77282857Y-60505714D01*
X77111428Y-60462857D01*
X77025714Y-60420000D01*
X76940000Y-60334285D01*
X76897142Y-60205714D01*
X76897142Y-60120000D01*
X76940000Y-59991428D01*
X76982857Y-59948571D01*
X76897142Y-59648571D02*
X76897142Y-59091428D01*
X77240000Y-59391428D01*
X77240000Y-59262857D01*
X77282857Y-59177142D01*
X77325714Y-59134285D01*
X77411428Y-59091428D01*
X77625714Y-59091428D01*
X77711428Y-59134285D01*
X77754285Y-59177142D01*
X77797142Y-59262857D01*
X77797142Y-59520000D01*
X77754285Y-59605714D01*
X77711428Y-59648571D01*
X76897142Y-58320000D02*
X76897142Y-58491428D01*
X76940000Y-58577142D01*
X76982857Y-58620000D01*
X77111428Y-58705714D01*
X77282857Y-58748571D01*
X77625714Y-58748571D01*
X77711428Y-58705714D01*
X77754285Y-58662857D01*
X77797142Y-58577142D01*
X77797142Y-58405714D01*
X77754285Y-58320000D01*
X77711428Y-58277142D01*
X77625714Y-58234285D01*
X77411428Y-58234285D01*
X77325714Y-58277142D01*
X77282857Y-58320000D01*
X77240000Y-58405714D01*
X77240000Y-58577142D01*
X77282857Y-58662857D01*
X77325714Y-58705714D01*
X77411428Y-58748571D01*
X89661428Y-83968571D02*
X89704285Y-84011428D01*
X89747142Y-84140000D01*
X89747142Y-84225714D01*
X89704285Y-84354285D01*
X89618571Y-84440000D01*
X89532857Y-84482857D01*
X89361428Y-84525714D01*
X89232857Y-84525714D01*
X89061428Y-84482857D01*
X88975714Y-84440000D01*
X88890000Y-84354285D01*
X88847142Y-84225714D01*
X88847142Y-84140000D01*
X88890000Y-84011428D01*
X88932857Y-83968571D01*
X88847142Y-83668571D02*
X88847142Y-83111428D01*
X89190000Y-83411428D01*
X89190000Y-83282857D01*
X89232857Y-83197142D01*
X89275714Y-83154285D01*
X89361428Y-83111428D01*
X89575714Y-83111428D01*
X89661428Y-83154285D01*
X89704285Y-83197142D01*
X89747142Y-83282857D01*
X89747142Y-83540000D01*
X89704285Y-83625714D01*
X89661428Y-83668571D01*
X89232857Y-82597142D02*
X89190000Y-82682857D01*
X89147142Y-82725714D01*
X89061428Y-82768571D01*
X89018571Y-82768571D01*
X88932857Y-82725714D01*
X88890000Y-82682857D01*
X88847142Y-82597142D01*
X88847142Y-82425714D01*
X88890000Y-82340000D01*
X88932857Y-82297142D01*
X89018571Y-82254285D01*
X89061428Y-82254285D01*
X89147142Y-82297142D01*
X89190000Y-82340000D01*
X89232857Y-82425714D01*
X89232857Y-82597142D01*
X89275714Y-82682857D01*
X89318571Y-82725714D01*
X89404285Y-82768571D01*
X89575714Y-82768571D01*
X89661428Y-82725714D01*
X89704285Y-82682857D01*
X89747142Y-82597142D01*
X89747142Y-82425714D01*
X89704285Y-82340000D01*
X89661428Y-82297142D01*
X89575714Y-82254285D01*
X89404285Y-82254285D01*
X89318571Y-82297142D01*
X89275714Y-82340000D01*
X89232857Y-82425714D01*
X89511428Y-88748571D02*
X89554285Y-88791428D01*
X89597142Y-88920000D01*
X89597142Y-89005714D01*
X89554285Y-89134285D01*
X89468571Y-89220000D01*
X89382857Y-89262857D01*
X89211428Y-89305714D01*
X89082857Y-89305714D01*
X88911428Y-89262857D01*
X88825714Y-89220000D01*
X88740000Y-89134285D01*
X88697142Y-89005714D01*
X88697142Y-88920000D01*
X88740000Y-88791428D01*
X88782857Y-88748571D01*
X88697142Y-88448571D02*
X88697142Y-87891428D01*
X89040000Y-88191428D01*
X89040000Y-88062857D01*
X89082857Y-87977142D01*
X89125714Y-87934285D01*
X89211428Y-87891428D01*
X89425714Y-87891428D01*
X89511428Y-87934285D01*
X89554285Y-87977142D01*
X89597142Y-88062857D01*
X89597142Y-88320000D01*
X89554285Y-88405714D01*
X89511428Y-88448571D01*
X89597142Y-87462857D02*
X89597142Y-87291428D01*
X89554285Y-87205714D01*
X89511428Y-87162857D01*
X89382857Y-87077142D01*
X89211428Y-87034285D01*
X88868571Y-87034285D01*
X88782857Y-87077142D01*
X88740000Y-87120000D01*
X88697142Y-87205714D01*
X88697142Y-87377142D01*
X88740000Y-87462857D01*
X88782857Y-87505714D01*
X88868571Y-87548571D01*
X89082857Y-87548571D01*
X89168571Y-87505714D01*
X89211428Y-87462857D01*
X89254285Y-87377142D01*
X89254285Y-87205714D01*
X89211428Y-87120000D01*
X89168571Y-87077142D01*
X89082857Y-87034285D01*
X91911428Y-43191428D02*
X91868571Y-43234285D01*
X91740000Y-43277142D01*
X91654285Y-43277142D01*
X91525714Y-43234285D01*
X91440000Y-43148571D01*
X91397142Y-43062857D01*
X91354285Y-42891428D01*
X91354285Y-42762857D01*
X91397142Y-42591428D01*
X91440000Y-42505714D01*
X91525714Y-42420000D01*
X91654285Y-42377142D01*
X91740000Y-42377142D01*
X91868571Y-42420000D01*
X91911428Y-42462857D01*
X92682857Y-42677142D02*
X92682857Y-43277142D01*
X92468571Y-42334285D02*
X92254285Y-42977142D01*
X92811428Y-42977142D01*
X93325714Y-42377142D02*
X93411428Y-42377142D01*
X93497142Y-42420000D01*
X93540000Y-42462857D01*
X93582857Y-42548571D01*
X93625714Y-42720000D01*
X93625714Y-42934285D01*
X93582857Y-43105714D01*
X93540000Y-43191428D01*
X93497142Y-43234285D01*
X93411428Y-43277142D01*
X93325714Y-43277142D01*
X93240000Y-43234285D01*
X93197142Y-43191428D01*
X93154285Y-43105714D01*
X93111428Y-42934285D01*
X93111428Y-42720000D01*
X93154285Y-42548571D01*
X93197142Y-42462857D01*
X93240000Y-42420000D01*
X93325714Y-42377142D01*
X88911428Y-43191428D02*
X88868571Y-43234285D01*
X88740000Y-43277142D01*
X88654285Y-43277142D01*
X88525714Y-43234285D01*
X88440000Y-43148571D01*
X88397142Y-43062857D01*
X88354285Y-42891428D01*
X88354285Y-42762857D01*
X88397142Y-42591428D01*
X88440000Y-42505714D01*
X88525714Y-42420000D01*
X88654285Y-42377142D01*
X88740000Y-42377142D01*
X88868571Y-42420000D01*
X88911428Y-42462857D01*
X89682857Y-42677142D02*
X89682857Y-43277142D01*
X89468571Y-42334285D02*
X89254285Y-42977142D01*
X89811428Y-42977142D01*
X90111428Y-42462857D02*
X90154285Y-42420000D01*
X90240000Y-42377142D01*
X90454285Y-42377142D01*
X90540000Y-42420000D01*
X90582857Y-42462857D01*
X90625714Y-42548571D01*
X90625714Y-42634285D01*
X90582857Y-42762857D01*
X90068571Y-43277142D01*
X90625714Y-43277142D01*
X101311428Y-53848571D02*
X101354285Y-53891428D01*
X101397142Y-54020000D01*
X101397142Y-54105714D01*
X101354285Y-54234285D01*
X101268571Y-54320000D01*
X101182857Y-54362857D01*
X101011428Y-54405714D01*
X100882857Y-54405714D01*
X100711428Y-54362857D01*
X100625714Y-54320000D01*
X100540000Y-54234285D01*
X100497142Y-54105714D01*
X100497142Y-54020000D01*
X100540000Y-53891428D01*
X100582857Y-53848571D01*
X100797142Y-53077142D02*
X101397142Y-53077142D01*
X100454285Y-53291428D02*
X101097142Y-53505714D01*
X101097142Y-52948571D01*
X100497142Y-52691428D02*
X100497142Y-52134285D01*
X100840000Y-52434285D01*
X100840000Y-52305714D01*
X100882857Y-52220000D01*
X100925714Y-52177142D01*
X101011428Y-52134285D01*
X101225714Y-52134285D01*
X101311428Y-52177142D01*
X101354285Y-52220000D01*
X101397142Y-52305714D01*
X101397142Y-52562857D01*
X101354285Y-52648571D01*
X101311428Y-52691428D01*
X97911428Y-44448571D02*
X97954285Y-44491428D01*
X97997142Y-44620000D01*
X97997142Y-44705714D01*
X97954285Y-44834285D01*
X97868571Y-44920000D01*
X97782857Y-44962857D01*
X97611428Y-45005714D01*
X97482857Y-45005714D01*
X97311428Y-44962857D01*
X97225714Y-44920000D01*
X97140000Y-44834285D01*
X97097142Y-44705714D01*
X97097142Y-44620000D01*
X97140000Y-44491428D01*
X97182857Y-44448571D01*
X97397142Y-43677142D02*
X97997142Y-43677142D01*
X97054285Y-43891428D02*
X97697142Y-44105714D01*
X97697142Y-43548571D01*
X97397142Y-42820000D02*
X97997142Y-42820000D01*
X97054285Y-43034285D02*
X97697142Y-43248571D01*
X97697142Y-42691428D01*
X101811428Y-47248571D02*
X101854285Y-47291428D01*
X101897142Y-47420000D01*
X101897142Y-47505714D01*
X101854285Y-47634285D01*
X101768571Y-47720000D01*
X101682857Y-47762857D01*
X101511428Y-47805714D01*
X101382857Y-47805714D01*
X101211428Y-47762857D01*
X101125714Y-47720000D01*
X101040000Y-47634285D01*
X100997142Y-47505714D01*
X100997142Y-47420000D01*
X101040000Y-47291428D01*
X101082857Y-47248571D01*
X101297142Y-46477142D02*
X101897142Y-46477142D01*
X100954285Y-46691428D02*
X101597142Y-46905714D01*
X101597142Y-46348571D01*
X100997142Y-45577142D02*
X100997142Y-46005714D01*
X101425714Y-46048571D01*
X101382857Y-46005714D01*
X101340000Y-45920000D01*
X101340000Y-45705714D01*
X101382857Y-45620000D01*
X101425714Y-45577142D01*
X101511428Y-45534285D01*
X101725714Y-45534285D01*
X101811428Y-45577142D01*
X101854285Y-45620000D01*
X101897142Y-45705714D01*
X101897142Y-45920000D01*
X101854285Y-46005714D01*
X101811428Y-46048571D01*
X101751428Y-43371428D02*
X101708571Y-43414285D01*
X101580000Y-43457142D01*
X101494285Y-43457142D01*
X101365714Y-43414285D01*
X101280000Y-43328571D01*
X101237142Y-43242857D01*
X101194285Y-43071428D01*
X101194285Y-42942857D01*
X101237142Y-42771428D01*
X101280000Y-42685714D01*
X101365714Y-42600000D01*
X101494285Y-42557142D01*
X101580000Y-42557142D01*
X101708571Y-42600000D01*
X101751428Y-42642857D01*
X102522857Y-42857142D02*
X102522857Y-43457142D01*
X102308571Y-42514285D02*
X102094285Y-43157142D01*
X102651428Y-43157142D01*
X103380000Y-42557142D02*
X103208571Y-42557142D01*
X103122857Y-42600000D01*
X103080000Y-42642857D01*
X102994285Y-42771428D01*
X102951428Y-42942857D01*
X102951428Y-43285714D01*
X102994285Y-43371428D01*
X103037142Y-43414285D01*
X103122857Y-43457142D01*
X103294285Y-43457142D01*
X103380000Y-43414285D01*
X103422857Y-43371428D01*
X103465714Y-43285714D01*
X103465714Y-43071428D01*
X103422857Y-42985714D01*
X103380000Y-42942857D01*
X103294285Y-42900000D01*
X103122857Y-42900000D01*
X103037142Y-42942857D01*
X102994285Y-42985714D01*
X102951428Y-43071428D01*
X96511428Y-51048571D02*
X96554285Y-51091428D01*
X96597142Y-51220000D01*
X96597142Y-51305714D01*
X96554285Y-51434285D01*
X96468571Y-51520000D01*
X96382857Y-51562857D01*
X96211428Y-51605714D01*
X96082857Y-51605714D01*
X95911428Y-51562857D01*
X95825714Y-51520000D01*
X95740000Y-51434285D01*
X95697142Y-51305714D01*
X95697142Y-51220000D01*
X95740000Y-51091428D01*
X95782857Y-51048571D01*
X95697142Y-50234285D02*
X95697142Y-50662857D01*
X96125714Y-50705714D01*
X96082857Y-50662857D01*
X96040000Y-50577142D01*
X96040000Y-50362857D01*
X96082857Y-50277142D01*
X96125714Y-50234285D01*
X96211428Y-50191428D01*
X96425714Y-50191428D01*
X96511428Y-50234285D01*
X96554285Y-50277142D01*
X96597142Y-50362857D01*
X96597142Y-50577142D01*
X96554285Y-50662857D01*
X96511428Y-50705714D01*
X95697142Y-49634285D02*
X95697142Y-49548571D01*
X95740000Y-49462857D01*
X95782857Y-49420000D01*
X95868571Y-49377142D01*
X96040000Y-49334285D01*
X96254285Y-49334285D01*
X96425714Y-49377142D01*
X96511428Y-49420000D01*
X96554285Y-49462857D01*
X96597142Y-49548571D01*
X96597142Y-49634285D01*
X96554285Y-49720000D01*
X96511428Y-49762857D01*
X96425714Y-49805714D01*
X96254285Y-49848571D01*
X96040000Y-49848571D01*
X95868571Y-49805714D01*
X95782857Y-49762857D01*
X95740000Y-49720000D01*
X95697142Y-49634285D01*
X103011428Y-54591428D02*
X102968571Y-54634285D01*
X102840000Y-54677142D01*
X102754285Y-54677142D01*
X102625714Y-54634285D01*
X102540000Y-54548571D01*
X102497142Y-54462857D01*
X102454285Y-54291428D01*
X102454285Y-54162857D01*
X102497142Y-53991428D01*
X102540000Y-53905714D01*
X102625714Y-53820000D01*
X102754285Y-53777142D01*
X102840000Y-53777142D01*
X102968571Y-53820000D01*
X103011428Y-53862857D01*
X103825714Y-53777142D02*
X103397142Y-53777142D01*
X103354285Y-54205714D01*
X103397142Y-54162857D01*
X103482857Y-54120000D01*
X103697142Y-54120000D01*
X103782857Y-54162857D01*
X103825714Y-54205714D01*
X103868571Y-54291428D01*
X103868571Y-54505714D01*
X103825714Y-54591428D01*
X103782857Y-54634285D01*
X103697142Y-54677142D01*
X103482857Y-54677142D01*
X103397142Y-54634285D01*
X103354285Y-54591428D01*
X104168571Y-53777142D02*
X104725714Y-53777142D01*
X104425714Y-54120000D01*
X104554285Y-54120000D01*
X104640000Y-54162857D01*
X104682857Y-54205714D01*
X104725714Y-54291428D01*
X104725714Y-54505714D01*
X104682857Y-54591428D01*
X104640000Y-54634285D01*
X104554285Y-54677142D01*
X104297142Y-54677142D01*
X104211428Y-54634285D01*
X104168571Y-54591428D01*
X130311428Y-73491428D02*
X130268571Y-73534285D01*
X130140000Y-73577142D01*
X130054285Y-73577142D01*
X129925714Y-73534285D01*
X129840000Y-73448571D01*
X129797142Y-73362857D01*
X129754285Y-73191428D01*
X129754285Y-73062857D01*
X129797142Y-72891428D01*
X129840000Y-72805714D01*
X129925714Y-72720000D01*
X130054285Y-72677142D01*
X130140000Y-72677142D01*
X130268571Y-72720000D01*
X130311428Y-72762857D01*
X131125714Y-72677142D02*
X130697142Y-72677142D01*
X130654285Y-73105714D01*
X130697142Y-73062857D01*
X130782857Y-73020000D01*
X130997142Y-73020000D01*
X131082857Y-73062857D01*
X131125714Y-73105714D01*
X131168571Y-73191428D01*
X131168571Y-73405714D01*
X131125714Y-73491428D01*
X131082857Y-73534285D01*
X130997142Y-73577142D01*
X130782857Y-73577142D01*
X130697142Y-73534285D01*
X130654285Y-73491428D01*
X131940000Y-72677142D02*
X131768571Y-72677142D01*
X131682857Y-72720000D01*
X131640000Y-72762857D01*
X131554285Y-72891428D01*
X131511428Y-73062857D01*
X131511428Y-73405714D01*
X131554285Y-73491428D01*
X131597142Y-73534285D01*
X131682857Y-73577142D01*
X131854285Y-73577142D01*
X131940000Y-73534285D01*
X131982857Y-73491428D01*
X132025714Y-73405714D01*
X132025714Y-73191428D01*
X131982857Y-73105714D01*
X131940000Y-73062857D01*
X131854285Y-73020000D01*
X131682857Y-73020000D01*
X131597142Y-73062857D01*
X131554285Y-73105714D01*
X131511428Y-73191428D01*
X126211428Y-48491428D02*
X126168571Y-48534285D01*
X126040000Y-48577142D01*
X125954285Y-48577142D01*
X125825714Y-48534285D01*
X125740000Y-48448571D01*
X125697142Y-48362857D01*
X125654285Y-48191428D01*
X125654285Y-48062857D01*
X125697142Y-47891428D01*
X125740000Y-47805714D01*
X125825714Y-47720000D01*
X125954285Y-47677142D01*
X126040000Y-47677142D01*
X126168571Y-47720000D01*
X126211428Y-47762857D01*
X126982857Y-47677142D02*
X126811428Y-47677142D01*
X126725714Y-47720000D01*
X126682857Y-47762857D01*
X126597142Y-47891428D01*
X126554285Y-48062857D01*
X126554285Y-48405714D01*
X126597142Y-48491428D01*
X126640000Y-48534285D01*
X126725714Y-48577142D01*
X126897142Y-48577142D01*
X126982857Y-48534285D01*
X127025714Y-48491428D01*
X127068571Y-48405714D01*
X127068571Y-48191428D01*
X127025714Y-48105714D01*
X126982857Y-48062857D01*
X126897142Y-48020000D01*
X126725714Y-48020000D01*
X126640000Y-48062857D01*
X126597142Y-48105714D01*
X126554285Y-48191428D01*
X127411428Y-47762857D02*
X127454285Y-47720000D01*
X127540000Y-47677142D01*
X127754285Y-47677142D01*
X127840000Y-47720000D01*
X127882857Y-47762857D01*
X127925714Y-47848571D01*
X127925714Y-47934285D01*
X127882857Y-48062857D01*
X127368571Y-48577142D01*
X127925714Y-48577142D01*
X131811428Y-47648571D02*
X131854285Y-47691428D01*
X131897142Y-47820000D01*
X131897142Y-47905714D01*
X131854285Y-48034285D01*
X131768571Y-48120000D01*
X131682857Y-48162857D01*
X131511428Y-48205714D01*
X131382857Y-48205714D01*
X131211428Y-48162857D01*
X131125714Y-48120000D01*
X131040000Y-48034285D01*
X130997142Y-47905714D01*
X130997142Y-47820000D01*
X131040000Y-47691428D01*
X131082857Y-47648571D01*
X130997142Y-47348571D02*
X130997142Y-46748571D01*
X131897142Y-47134285D01*
X130997142Y-46234285D02*
X130997142Y-46148571D01*
X131040000Y-46062857D01*
X131082857Y-46020000D01*
X131168571Y-45977142D01*
X131340000Y-45934285D01*
X131554285Y-45934285D01*
X131725714Y-45977142D01*
X131811428Y-46020000D01*
X131854285Y-46062857D01*
X131897142Y-46148571D01*
X131897142Y-46234285D01*
X131854285Y-46320000D01*
X131811428Y-46362857D01*
X131725714Y-46405714D01*
X131554285Y-46448571D01*
X131340000Y-46448571D01*
X131168571Y-46405714D01*
X131082857Y-46362857D01*
X131040000Y-46320000D01*
X130997142Y-46234285D01*
X122911428Y-43848571D02*
X122954285Y-43891428D01*
X122997142Y-44020000D01*
X122997142Y-44105714D01*
X122954285Y-44234285D01*
X122868571Y-44320000D01*
X122782857Y-44362857D01*
X122611428Y-44405714D01*
X122482857Y-44405714D01*
X122311428Y-44362857D01*
X122225714Y-44320000D01*
X122140000Y-44234285D01*
X122097142Y-44105714D01*
X122097142Y-44020000D01*
X122140000Y-43891428D01*
X122182857Y-43848571D01*
X122097142Y-43548571D02*
X122097142Y-42948571D01*
X122997142Y-43334285D01*
X122097142Y-42177142D02*
X122097142Y-42605714D01*
X122525714Y-42648571D01*
X122482857Y-42605714D01*
X122440000Y-42520000D01*
X122440000Y-42305714D01*
X122482857Y-42220000D01*
X122525714Y-42177142D01*
X122611428Y-42134285D01*
X122825714Y-42134285D01*
X122911428Y-42177142D01*
X122954285Y-42220000D01*
X122997142Y-42305714D01*
X122997142Y-42520000D01*
X122954285Y-42605714D01*
X122911428Y-42648571D01*
X128411428Y-70191428D02*
X128368571Y-70234285D01*
X128240000Y-70277142D01*
X128154285Y-70277142D01*
X128025714Y-70234285D01*
X127940000Y-70148571D01*
X127897142Y-70062857D01*
X127854285Y-69891428D01*
X127854285Y-69762857D01*
X127897142Y-69591428D01*
X127940000Y-69505714D01*
X128025714Y-69420000D01*
X128154285Y-69377142D01*
X128240000Y-69377142D01*
X128368571Y-69420000D01*
X128411428Y-69462857D01*
X128711428Y-69377142D02*
X129311428Y-69377142D01*
X128925714Y-70277142D01*
X129697142Y-70277142D02*
X129868571Y-70277142D01*
X129954285Y-70234285D01*
X129997142Y-70191428D01*
X130082857Y-70062857D01*
X130125714Y-69891428D01*
X130125714Y-69548571D01*
X130082857Y-69462857D01*
X130040000Y-69420000D01*
X129954285Y-69377142D01*
X129782857Y-69377142D01*
X129697142Y-69420000D01*
X129654285Y-69462857D01*
X129611428Y-69548571D01*
X129611428Y-69762857D01*
X129654285Y-69848571D01*
X129697142Y-69891428D01*
X129782857Y-69934285D01*
X129954285Y-69934285D01*
X130040000Y-69891428D01*
X130082857Y-69848571D01*
X130125714Y-69762857D01*
X123911428Y-43391428D02*
X123868571Y-43434285D01*
X123740000Y-43477142D01*
X123654285Y-43477142D01*
X123525714Y-43434285D01*
X123440000Y-43348571D01*
X123397142Y-43262857D01*
X123354285Y-43091428D01*
X123354285Y-42962857D01*
X123397142Y-42791428D01*
X123440000Y-42705714D01*
X123525714Y-42620000D01*
X123654285Y-42577142D01*
X123740000Y-42577142D01*
X123868571Y-42620000D01*
X123911428Y-42662857D01*
X124425714Y-42962857D02*
X124340000Y-42920000D01*
X124297142Y-42877142D01*
X124254285Y-42791428D01*
X124254285Y-42748571D01*
X124297142Y-42662857D01*
X124340000Y-42620000D01*
X124425714Y-42577142D01*
X124597142Y-42577142D01*
X124682857Y-42620000D01*
X124725714Y-42662857D01*
X124768571Y-42748571D01*
X124768571Y-42791428D01*
X124725714Y-42877142D01*
X124682857Y-42920000D01*
X124597142Y-42962857D01*
X124425714Y-42962857D01*
X124340000Y-43005714D01*
X124297142Y-43048571D01*
X124254285Y-43134285D01*
X124254285Y-43305714D01*
X124297142Y-43391428D01*
X124340000Y-43434285D01*
X124425714Y-43477142D01*
X124597142Y-43477142D01*
X124682857Y-43434285D01*
X124725714Y-43391428D01*
X124768571Y-43305714D01*
X124768571Y-43134285D01*
X124725714Y-43048571D01*
X124682857Y-43005714D01*
X124597142Y-42962857D01*
X125068571Y-42577142D02*
X125625714Y-42577142D01*
X125325714Y-42920000D01*
X125454285Y-42920000D01*
X125540000Y-42962857D01*
X125582857Y-43005714D01*
X125625714Y-43091428D01*
X125625714Y-43305714D01*
X125582857Y-43391428D01*
X125540000Y-43434285D01*
X125454285Y-43477142D01*
X125197142Y-43477142D01*
X125111428Y-43434285D01*
X125068571Y-43391428D01*
X114111428Y-80391428D02*
X114068571Y-80434285D01*
X113940000Y-80477142D01*
X113854285Y-80477142D01*
X113725714Y-80434285D01*
X113640000Y-80348571D01*
X113597142Y-80262857D01*
X113554285Y-80091428D01*
X113554285Y-79962857D01*
X113597142Y-79791428D01*
X113640000Y-79705714D01*
X113725714Y-79620000D01*
X113854285Y-79577142D01*
X113940000Y-79577142D01*
X114068571Y-79620000D01*
X114111428Y-79662857D01*
X114540000Y-80477142D02*
X114711428Y-80477142D01*
X114797142Y-80434285D01*
X114840000Y-80391428D01*
X114925714Y-80262857D01*
X114968571Y-80091428D01*
X114968571Y-79748571D01*
X114925714Y-79662857D01*
X114882857Y-79620000D01*
X114797142Y-79577142D01*
X114625714Y-79577142D01*
X114540000Y-79620000D01*
X114497142Y-79662857D01*
X114454285Y-79748571D01*
X114454285Y-79962857D01*
X114497142Y-80048571D01*
X114540000Y-80091428D01*
X114625714Y-80134285D01*
X114797142Y-80134285D01*
X114882857Y-80091428D01*
X114925714Y-80048571D01*
X114968571Y-79962857D01*
X115525714Y-79577142D02*
X115611428Y-79577142D01*
X115697142Y-79620000D01*
X115740000Y-79662857D01*
X115782857Y-79748571D01*
X115825714Y-79920000D01*
X115825714Y-80134285D01*
X115782857Y-80305714D01*
X115740000Y-80391428D01*
X115697142Y-80434285D01*
X115611428Y-80477142D01*
X115525714Y-80477142D01*
X115440000Y-80434285D01*
X115397142Y-80391428D01*
X115354285Y-80305714D01*
X115311428Y-80134285D01*
X115311428Y-79920000D01*
X115354285Y-79748571D01*
X115397142Y-79662857D01*
X115440000Y-79620000D01*
X115525714Y-79577142D01*
X121011428Y-50891428D02*
X120968571Y-50934285D01*
X120840000Y-50977142D01*
X120754285Y-50977142D01*
X120625714Y-50934285D01*
X120540000Y-50848571D01*
X120497142Y-50762857D01*
X120454285Y-50591428D01*
X120454285Y-50462857D01*
X120497142Y-50291428D01*
X120540000Y-50205714D01*
X120625714Y-50120000D01*
X120754285Y-50077142D01*
X120840000Y-50077142D01*
X120968571Y-50120000D01*
X121011428Y-50162857D01*
X121440000Y-50977142D02*
X121611428Y-50977142D01*
X121697142Y-50934285D01*
X121740000Y-50891428D01*
X121825714Y-50762857D01*
X121868571Y-50591428D01*
X121868571Y-50248571D01*
X121825714Y-50162857D01*
X121782857Y-50120000D01*
X121697142Y-50077142D01*
X121525714Y-50077142D01*
X121440000Y-50120000D01*
X121397142Y-50162857D01*
X121354285Y-50248571D01*
X121354285Y-50462857D01*
X121397142Y-50548571D01*
X121440000Y-50591428D01*
X121525714Y-50634285D01*
X121697142Y-50634285D01*
X121782857Y-50591428D01*
X121825714Y-50548571D01*
X121868571Y-50462857D01*
X122640000Y-50377142D02*
X122640000Y-50977142D01*
X122425714Y-50034285D02*
X122211428Y-50677142D01*
X122768571Y-50677142D01*
X123741428Y-64731428D02*
X123698571Y-64774285D01*
X123570000Y-64817142D01*
X123484285Y-64817142D01*
X123355714Y-64774285D01*
X123270000Y-64688571D01*
X123227142Y-64602857D01*
X123184285Y-64431428D01*
X123184285Y-64302857D01*
X123227142Y-64131428D01*
X123270000Y-64045714D01*
X123355714Y-63960000D01*
X123484285Y-63917142D01*
X123570000Y-63917142D01*
X123698571Y-63960000D01*
X123741428Y-64002857D01*
X124170000Y-64817142D02*
X124341428Y-64817142D01*
X124427142Y-64774285D01*
X124470000Y-64731428D01*
X124555714Y-64602857D01*
X124598571Y-64431428D01*
X124598571Y-64088571D01*
X124555714Y-64002857D01*
X124512857Y-63960000D01*
X124427142Y-63917142D01*
X124255714Y-63917142D01*
X124170000Y-63960000D01*
X124127142Y-64002857D01*
X124084285Y-64088571D01*
X124084285Y-64302857D01*
X124127142Y-64388571D01*
X124170000Y-64431428D01*
X124255714Y-64474285D01*
X124427142Y-64474285D01*
X124512857Y-64431428D01*
X124555714Y-64388571D01*
X124598571Y-64302857D01*
X125412857Y-63917142D02*
X124984285Y-63917142D01*
X124941428Y-64345714D01*
X124984285Y-64302857D01*
X125070000Y-64260000D01*
X125284285Y-64260000D01*
X125370000Y-64302857D01*
X125412857Y-64345714D01*
X125455714Y-64431428D01*
X125455714Y-64645714D01*
X125412857Y-64731428D01*
X125370000Y-64774285D01*
X125284285Y-64817142D01*
X125070000Y-64817142D01*
X124984285Y-64774285D01*
X124941428Y-64731428D01*
X108491428Y-46828571D02*
X108534285Y-46871428D01*
X108577142Y-47000000D01*
X108577142Y-47085714D01*
X108534285Y-47214285D01*
X108448571Y-47300000D01*
X108362857Y-47342857D01*
X108191428Y-47385714D01*
X108062857Y-47385714D01*
X107891428Y-47342857D01*
X107805714Y-47300000D01*
X107720000Y-47214285D01*
X107677142Y-47085714D01*
X107677142Y-47000000D01*
X107720000Y-46871428D01*
X107762857Y-46828571D01*
X108577142Y-46400000D02*
X108577142Y-46228571D01*
X108534285Y-46142857D01*
X108491428Y-46100000D01*
X108362857Y-46014285D01*
X108191428Y-45971428D01*
X107848571Y-45971428D01*
X107762857Y-46014285D01*
X107720000Y-46057142D01*
X107677142Y-46142857D01*
X107677142Y-46314285D01*
X107720000Y-46400000D01*
X107762857Y-46442857D01*
X107848571Y-46485714D01*
X108062857Y-46485714D01*
X108148571Y-46442857D01*
X108191428Y-46400000D01*
X108234285Y-46314285D01*
X108234285Y-46142857D01*
X108191428Y-46057142D01*
X108148571Y-46014285D01*
X108062857Y-45971428D01*
X107677142Y-45200000D02*
X107677142Y-45371428D01*
X107720000Y-45457142D01*
X107762857Y-45500000D01*
X107891428Y-45585714D01*
X108062857Y-45628571D01*
X108405714Y-45628571D01*
X108491428Y-45585714D01*
X108534285Y-45542857D01*
X108577142Y-45457142D01*
X108577142Y-45285714D01*
X108534285Y-45200000D01*
X108491428Y-45157142D01*
X108405714Y-45114285D01*
X108191428Y-45114285D01*
X108105714Y-45157142D01*
X108062857Y-45200000D01*
X108020000Y-45285714D01*
X108020000Y-45457142D01*
X108062857Y-45542857D01*
X108105714Y-45585714D01*
X108191428Y-45628571D01*
X66511428Y-93391428D02*
X66468571Y-93434285D01*
X66340000Y-93477142D01*
X66254285Y-93477142D01*
X66125714Y-93434285D01*
X66040000Y-93348571D01*
X65997142Y-93262857D01*
X65954285Y-93091428D01*
X65954285Y-92962857D01*
X65997142Y-92791428D01*
X66040000Y-92705714D01*
X66125714Y-92620000D01*
X66254285Y-92577142D01*
X66340000Y-92577142D01*
X66468571Y-92620000D01*
X66511428Y-92662857D01*
X66940000Y-93477142D02*
X67111428Y-93477142D01*
X67197142Y-93434285D01*
X67240000Y-93391428D01*
X67325714Y-93262857D01*
X67368571Y-93091428D01*
X67368571Y-92748571D01*
X67325714Y-92662857D01*
X67282857Y-92620000D01*
X67197142Y-92577142D01*
X67025714Y-92577142D01*
X66940000Y-92620000D01*
X66897142Y-92662857D01*
X66854285Y-92748571D01*
X66854285Y-92962857D01*
X66897142Y-93048571D01*
X66940000Y-93091428D01*
X67025714Y-93134285D01*
X67197142Y-93134285D01*
X67282857Y-93091428D01*
X67325714Y-93048571D01*
X67368571Y-92962857D01*
X67668571Y-92577142D02*
X68268571Y-92577142D01*
X67882857Y-93477142D01*
X124211428Y-57377142D02*
X124254285Y-57420000D01*
X124297142Y-57548571D01*
X124297142Y-57634285D01*
X124254285Y-57762857D01*
X124168571Y-57848571D01*
X124082857Y-57891428D01*
X123911428Y-57934285D01*
X123782857Y-57934285D01*
X123611428Y-57891428D01*
X123525714Y-57848571D01*
X123440000Y-57762857D01*
X123397142Y-57634285D01*
X123397142Y-57548571D01*
X123440000Y-57420000D01*
X123482857Y-57377142D01*
X124297142Y-56520000D02*
X124297142Y-57034285D01*
X124297142Y-56777142D02*
X123397142Y-56777142D01*
X123525714Y-56862857D01*
X123611428Y-56948571D01*
X123654285Y-57034285D01*
X123397142Y-55962857D02*
X123397142Y-55877142D01*
X123440000Y-55791428D01*
X123482857Y-55748571D01*
X123568571Y-55705714D01*
X123740000Y-55662857D01*
X123954285Y-55662857D01*
X124125714Y-55705714D01*
X124211428Y-55748571D01*
X124254285Y-55791428D01*
X124297142Y-55877142D01*
X124297142Y-55962857D01*
X124254285Y-56048571D01*
X124211428Y-56091428D01*
X124125714Y-56134285D01*
X123954285Y-56177142D01*
X123740000Y-56177142D01*
X123568571Y-56134285D01*
X123482857Y-56091428D01*
X123440000Y-56048571D01*
X123397142Y-55962857D01*
X123397142Y-55362857D02*
X123397142Y-54805714D01*
X123740000Y-55105714D01*
X123740000Y-54977142D01*
X123782857Y-54891428D01*
X123825714Y-54848571D01*
X123911428Y-54805714D01*
X124125714Y-54805714D01*
X124211428Y-54848571D01*
X124254285Y-54891428D01*
X124297142Y-54977142D01*
X124297142Y-55234285D01*
X124254285Y-55320000D01*
X124211428Y-55362857D01*
X127211428Y-60877142D02*
X127254285Y-60920000D01*
X127297142Y-61048571D01*
X127297142Y-61134285D01*
X127254285Y-61262857D01*
X127168571Y-61348571D01*
X127082857Y-61391428D01*
X126911428Y-61434285D01*
X126782857Y-61434285D01*
X126611428Y-61391428D01*
X126525714Y-61348571D01*
X126440000Y-61262857D01*
X126397142Y-61134285D01*
X126397142Y-61048571D01*
X126440000Y-60920000D01*
X126482857Y-60877142D01*
X127297142Y-60020000D02*
X127297142Y-60534285D01*
X127297142Y-60277142D02*
X126397142Y-60277142D01*
X126525714Y-60362857D01*
X126611428Y-60448571D01*
X126654285Y-60534285D01*
X126397142Y-59462857D02*
X126397142Y-59377142D01*
X126440000Y-59291428D01*
X126482857Y-59248571D01*
X126568571Y-59205714D01*
X126740000Y-59162857D01*
X126954285Y-59162857D01*
X127125714Y-59205714D01*
X127211428Y-59248571D01*
X127254285Y-59291428D01*
X127297142Y-59377142D01*
X127297142Y-59462857D01*
X127254285Y-59548571D01*
X127211428Y-59591428D01*
X127125714Y-59634285D01*
X126954285Y-59677142D01*
X126740000Y-59677142D01*
X126568571Y-59634285D01*
X126482857Y-59591428D01*
X126440000Y-59548571D01*
X126397142Y-59462857D01*
X126397142Y-58348571D02*
X126397142Y-58777142D01*
X126825714Y-58820000D01*
X126782857Y-58777142D01*
X126740000Y-58691428D01*
X126740000Y-58477142D01*
X126782857Y-58391428D01*
X126825714Y-58348571D01*
X126911428Y-58305714D01*
X127125714Y-58305714D01*
X127211428Y-58348571D01*
X127254285Y-58391428D01*
X127297142Y-58477142D01*
X127297142Y-58691428D01*
X127254285Y-58777142D01*
X127211428Y-58820000D01*
X128882857Y-60891428D02*
X128840000Y-60934285D01*
X128711428Y-60977142D01*
X128625714Y-60977142D01*
X128497142Y-60934285D01*
X128411428Y-60848571D01*
X128368571Y-60762857D01*
X128325714Y-60591428D01*
X128325714Y-60462857D01*
X128368571Y-60291428D01*
X128411428Y-60205714D01*
X128497142Y-60120000D01*
X128625714Y-60077142D01*
X128711428Y-60077142D01*
X128840000Y-60120000D01*
X128882857Y-60162857D01*
X129740000Y-60977142D02*
X129225714Y-60977142D01*
X129482857Y-60977142D02*
X129482857Y-60077142D01*
X129397142Y-60205714D01*
X129311428Y-60291428D01*
X129225714Y-60334285D01*
X130597142Y-60977142D02*
X130082857Y-60977142D01*
X130340000Y-60977142D02*
X130340000Y-60077142D01*
X130254285Y-60205714D01*
X130168571Y-60291428D01*
X130082857Y-60334285D01*
X131454285Y-60977142D02*
X130940000Y-60977142D01*
X131197142Y-60977142D02*
X131197142Y-60077142D01*
X131111428Y-60205714D01*
X131025714Y-60291428D01*
X130940000Y-60334285D01*
X71725714Y-44377142D02*
X71725714Y-43477142D01*
X71940000Y-43477142D01*
X72068571Y-43520000D01*
X72154285Y-43605714D01*
X72197142Y-43691428D01*
X72240000Y-43862857D01*
X72240000Y-43991428D01*
X72197142Y-44162857D01*
X72154285Y-44248571D01*
X72068571Y-44334285D01*
X71940000Y-44377142D01*
X71725714Y-44377142D01*
X73097142Y-44377142D02*
X72582857Y-44377142D01*
X72840000Y-44377142D02*
X72840000Y-43477142D01*
X72754285Y-43605714D01*
X72668571Y-43691428D01*
X72582857Y-43734285D01*
X71135714Y-60707142D02*
X71135714Y-59807142D01*
X71350000Y-59807142D01*
X71478571Y-59850000D01*
X71564285Y-59935714D01*
X71607142Y-60021428D01*
X71650000Y-60192857D01*
X71650000Y-60321428D01*
X71607142Y-60492857D01*
X71564285Y-60578571D01*
X71478571Y-60664285D01*
X71350000Y-60707142D01*
X71135714Y-60707142D01*
X71992857Y-59892857D02*
X72035714Y-59850000D01*
X72121428Y-59807142D01*
X72335714Y-59807142D01*
X72421428Y-59850000D01*
X72464285Y-59892857D01*
X72507142Y-59978571D01*
X72507142Y-60064285D01*
X72464285Y-60192857D01*
X71950000Y-60707142D01*
X72507142Y-60707142D01*
X109825714Y-52377142D02*
X109825714Y-51477142D01*
X110040000Y-51477142D01*
X110168571Y-51520000D01*
X110254285Y-51605714D01*
X110297142Y-51691428D01*
X110340000Y-51862857D01*
X110340000Y-51991428D01*
X110297142Y-52162857D01*
X110254285Y-52248571D01*
X110168571Y-52334285D01*
X110040000Y-52377142D01*
X109825714Y-52377142D01*
X110640000Y-51477142D02*
X111197142Y-51477142D01*
X110897142Y-51820000D01*
X111025714Y-51820000D01*
X111111428Y-51862857D01*
X111154285Y-51905714D01*
X111197142Y-51991428D01*
X111197142Y-52205714D01*
X111154285Y-52291428D01*
X111111428Y-52334285D01*
X111025714Y-52377142D01*
X110768571Y-52377142D01*
X110682857Y-52334285D01*
X110640000Y-52291428D01*
X78525714Y-71977142D02*
X78525714Y-71077142D01*
X78740000Y-71077142D01*
X78868571Y-71120000D01*
X78954285Y-71205714D01*
X78997142Y-71291428D01*
X79040000Y-71462857D01*
X79040000Y-71591428D01*
X78997142Y-71762857D01*
X78954285Y-71848571D01*
X78868571Y-71934285D01*
X78740000Y-71977142D01*
X78525714Y-71977142D01*
X79811428Y-71377142D02*
X79811428Y-71977142D01*
X79597142Y-71034285D02*
X79382857Y-71677142D01*
X79940000Y-71677142D01*
X131325714Y-80977142D02*
X131325714Y-80077142D01*
X131540000Y-80077142D01*
X131668571Y-80120000D01*
X131754285Y-80205714D01*
X131797142Y-80291428D01*
X131840000Y-80462857D01*
X131840000Y-80591428D01*
X131797142Y-80762857D01*
X131754285Y-80848571D01*
X131668571Y-80934285D01*
X131540000Y-80977142D01*
X131325714Y-80977142D01*
X132654285Y-80077142D02*
X132225714Y-80077142D01*
X132182857Y-80505714D01*
X132225714Y-80462857D01*
X132311428Y-80420000D01*
X132525714Y-80420000D01*
X132611428Y-80462857D01*
X132654285Y-80505714D01*
X132697142Y-80591428D01*
X132697142Y-80805714D01*
X132654285Y-80891428D01*
X132611428Y-80934285D01*
X132525714Y-80977142D01*
X132311428Y-80977142D01*
X132225714Y-80934285D01*
X132182857Y-80891428D01*
X127625714Y-80877142D02*
X127625714Y-79977142D01*
X127840000Y-79977142D01*
X127968571Y-80020000D01*
X128054285Y-80105714D01*
X128097142Y-80191428D01*
X128140000Y-80362857D01*
X128140000Y-80491428D01*
X128097142Y-80662857D01*
X128054285Y-80748571D01*
X127968571Y-80834285D01*
X127840000Y-80877142D01*
X127625714Y-80877142D01*
X128911428Y-79977142D02*
X128740000Y-79977142D01*
X128654285Y-80020000D01*
X128611428Y-80062857D01*
X128525714Y-80191428D01*
X128482857Y-80362857D01*
X128482857Y-80705714D01*
X128525714Y-80791428D01*
X128568571Y-80834285D01*
X128654285Y-80877142D01*
X128825714Y-80877142D01*
X128911428Y-80834285D01*
X128954285Y-80791428D01*
X128997142Y-80705714D01*
X128997142Y-80491428D01*
X128954285Y-80405714D01*
X128911428Y-80362857D01*
X128825714Y-80320000D01*
X128654285Y-80320000D01*
X128568571Y-80362857D01*
X128525714Y-80405714D01*
X128482857Y-80491428D01*
X124125714Y-80877142D02*
X124125714Y-79977142D01*
X124340000Y-79977142D01*
X124468571Y-80020000D01*
X124554285Y-80105714D01*
X124597142Y-80191428D01*
X124640000Y-80362857D01*
X124640000Y-80491428D01*
X124597142Y-80662857D01*
X124554285Y-80748571D01*
X124468571Y-80834285D01*
X124340000Y-80877142D01*
X124125714Y-80877142D01*
X124940000Y-79977142D02*
X125540000Y-79977142D01*
X125154285Y-80877142D01*
X120725714Y-80877142D02*
X120725714Y-79977142D01*
X120940000Y-79977142D01*
X121068571Y-80020000D01*
X121154285Y-80105714D01*
X121197142Y-80191428D01*
X121240000Y-80362857D01*
X121240000Y-80491428D01*
X121197142Y-80662857D01*
X121154285Y-80748571D01*
X121068571Y-80834285D01*
X120940000Y-80877142D01*
X120725714Y-80877142D01*
X121754285Y-80362857D02*
X121668571Y-80320000D01*
X121625714Y-80277142D01*
X121582857Y-80191428D01*
X121582857Y-80148571D01*
X121625714Y-80062857D01*
X121668571Y-80020000D01*
X121754285Y-79977142D01*
X121925714Y-79977142D01*
X122011428Y-80020000D01*
X122054285Y-80062857D01*
X122097142Y-80148571D01*
X122097142Y-80191428D01*
X122054285Y-80277142D01*
X122011428Y-80320000D01*
X121925714Y-80362857D01*
X121754285Y-80362857D01*
X121668571Y-80405714D01*
X121625714Y-80448571D01*
X121582857Y-80534285D01*
X121582857Y-80705714D01*
X121625714Y-80791428D01*
X121668571Y-80834285D01*
X121754285Y-80877142D01*
X121925714Y-80877142D01*
X122011428Y-80834285D01*
X122054285Y-80791428D01*
X122097142Y-80705714D01*
X122097142Y-80534285D01*
X122054285Y-80448571D01*
X122011428Y-80405714D01*
X121925714Y-80362857D01*
X58080000Y-61117142D02*
X58080000Y-61760000D01*
X58037142Y-61888571D01*
X57951428Y-61974285D01*
X57822857Y-62017142D01*
X57737142Y-62017142D01*
X58980000Y-62017142D02*
X58465714Y-62017142D01*
X58722857Y-62017142D02*
X58722857Y-61117142D01*
X58637142Y-61245714D01*
X58551428Y-61331428D01*
X58465714Y-61374285D01*
X58080000Y-88717142D02*
X58080000Y-89360000D01*
X58037142Y-89488571D01*
X57951428Y-89574285D01*
X57822857Y-89617142D01*
X57737142Y-89617142D01*
X58465714Y-88802857D02*
X58508571Y-88760000D01*
X58594285Y-88717142D01*
X58808571Y-88717142D01*
X58894285Y-88760000D01*
X58937142Y-88802857D01*
X58980000Y-88888571D01*
X58980000Y-88974285D01*
X58937142Y-89102857D01*
X58422857Y-89617142D01*
X58980000Y-89617142D01*
X64290000Y-56977142D02*
X64290000Y-57620000D01*
X64247142Y-57748571D01*
X64161428Y-57834285D01*
X64032857Y-57877142D01*
X63947142Y-57877142D01*
X64632857Y-56977142D02*
X65190000Y-56977142D01*
X64890000Y-57320000D01*
X65018571Y-57320000D01*
X65104285Y-57362857D01*
X65147142Y-57405714D01*
X65190000Y-57491428D01*
X65190000Y-57705714D01*
X65147142Y-57791428D01*
X65104285Y-57834285D01*
X65018571Y-57877142D01*
X64761428Y-57877142D01*
X64675714Y-57834285D01*
X64632857Y-57791428D01*
X64390000Y-69877142D02*
X64390000Y-70520000D01*
X64347142Y-70648571D01*
X64261428Y-70734285D01*
X64132857Y-70777142D01*
X64047142Y-70777142D01*
X65204285Y-69877142D02*
X65032857Y-69877142D01*
X64947142Y-69920000D01*
X64904285Y-69962857D01*
X64818571Y-70091428D01*
X64775714Y-70262857D01*
X64775714Y-70605714D01*
X64818571Y-70691428D01*
X64861428Y-70734285D01*
X64947142Y-70777142D01*
X65118571Y-70777142D01*
X65204285Y-70734285D01*
X65247142Y-70691428D01*
X65290000Y-70605714D01*
X65290000Y-70391428D01*
X65247142Y-70305714D01*
X65204285Y-70262857D01*
X65118571Y-70220000D01*
X64947142Y-70220000D01*
X64861428Y-70262857D01*
X64818571Y-70305714D01*
X64775714Y-70391428D01*
X109741428Y-90107142D02*
X109741428Y-90750000D01*
X109698571Y-90878571D01*
X109612857Y-90964285D01*
X109484285Y-91007142D01*
X109398571Y-91007142D01*
X110641428Y-91007142D02*
X110127142Y-91007142D01*
X110384285Y-91007142D02*
X110384285Y-90107142D01*
X110298571Y-90235714D01*
X110212857Y-90321428D01*
X110127142Y-90364285D01*
X111198571Y-90107142D02*
X111284285Y-90107142D01*
X111370000Y-90150000D01*
X111412857Y-90192857D01*
X111455714Y-90278571D01*
X111498571Y-90450000D01*
X111498571Y-90664285D01*
X111455714Y-90835714D01*
X111412857Y-90921428D01*
X111370000Y-90964285D01*
X111284285Y-91007142D01*
X111198571Y-91007142D01*
X111112857Y-90964285D01*
X111070000Y-90921428D01*
X111027142Y-90835714D01*
X110984285Y-90664285D01*
X110984285Y-90450000D01*
X111027142Y-90278571D01*
X111070000Y-90192857D01*
X111112857Y-90150000D01*
X111198571Y-90107142D01*
X134997142Y-57098571D02*
X135640000Y-57098571D01*
X135768571Y-57141428D01*
X135854285Y-57227142D01*
X135897142Y-57355714D01*
X135897142Y-57441428D01*
X135897142Y-56198571D02*
X135897142Y-56712857D01*
X135897142Y-56455714D02*
X134997142Y-56455714D01*
X135125714Y-56541428D01*
X135211428Y-56627142D01*
X135254285Y-56712857D01*
X135082857Y-55855714D02*
X135040000Y-55812857D01*
X134997142Y-55727142D01*
X134997142Y-55512857D01*
X135040000Y-55427142D01*
X135082857Y-55384285D01*
X135168571Y-55341428D01*
X135254285Y-55341428D01*
X135382857Y-55384285D01*
X135897142Y-55898571D01*
X135897142Y-55341428D01*
X76940000Y-77577142D02*
X76511428Y-77577142D01*
X76511428Y-76677142D01*
X77711428Y-77577142D02*
X77197142Y-77577142D01*
X77454285Y-77577142D02*
X77454285Y-76677142D01*
X77368571Y-76805714D01*
X77282857Y-76891428D01*
X77197142Y-76934285D01*
X79140000Y-93777142D02*
X78711428Y-93777142D01*
X78711428Y-92877142D01*
X79397142Y-92962857D02*
X79440000Y-92920000D01*
X79525714Y-92877142D01*
X79740000Y-92877142D01*
X79825714Y-92920000D01*
X79868571Y-92962857D01*
X79911428Y-93048571D01*
X79911428Y-93134285D01*
X79868571Y-93262857D01*
X79354285Y-93777142D01*
X79911428Y-93777142D01*
X88340000Y-78477142D02*
X87911428Y-78477142D01*
X87911428Y-77577142D01*
X88554285Y-77577142D02*
X89111428Y-77577142D01*
X88811428Y-77920000D01*
X88940000Y-77920000D01*
X89025714Y-77962857D01*
X89068571Y-78005714D01*
X89111428Y-78091428D01*
X89111428Y-78305714D01*
X89068571Y-78391428D01*
X89025714Y-78434285D01*
X88940000Y-78477142D01*
X88682857Y-78477142D01*
X88597142Y-78434285D01*
X88554285Y-78391428D01*
X86540000Y-92377142D02*
X86111428Y-92377142D01*
X86111428Y-91477142D01*
X87225714Y-91777142D02*
X87225714Y-92377142D01*
X87011428Y-91434285D02*
X86797142Y-92077142D01*
X87354285Y-92077142D01*
X92540000Y-57577142D02*
X92111428Y-57577142D01*
X92111428Y-56677142D01*
X93268571Y-56677142D02*
X92840000Y-56677142D01*
X92797142Y-57105714D01*
X92840000Y-57062857D01*
X92925714Y-57020000D01*
X93140000Y-57020000D01*
X93225714Y-57062857D01*
X93268571Y-57105714D01*
X93311428Y-57191428D01*
X93311428Y-57405714D01*
X93268571Y-57491428D01*
X93225714Y-57534285D01*
X93140000Y-57577142D01*
X92925714Y-57577142D01*
X92840000Y-57534285D01*
X92797142Y-57491428D01*
X108240000Y-51577142D02*
X107811428Y-51577142D01*
X107811428Y-50677142D01*
X108925714Y-50677142D02*
X108754285Y-50677142D01*
X108668571Y-50720000D01*
X108625714Y-50762857D01*
X108540000Y-50891428D01*
X108497142Y-51062857D01*
X108497142Y-51405714D01*
X108540000Y-51491428D01*
X108582857Y-51534285D01*
X108668571Y-51577142D01*
X108840000Y-51577142D01*
X108925714Y-51534285D01*
X108968571Y-51491428D01*
X109011428Y-51405714D01*
X109011428Y-51191428D01*
X108968571Y-51105714D01*
X108925714Y-51062857D01*
X108840000Y-51020000D01*
X108668571Y-51020000D01*
X108582857Y-51062857D01*
X108540000Y-51105714D01*
X108497142Y-51191428D01*
X73897142Y-93520000D02*
X73897142Y-93948571D01*
X72997142Y-93948571D01*
X72997142Y-93305714D02*
X72997142Y-92705714D01*
X73897142Y-93091428D01*
X133040000Y-50077142D02*
X132611428Y-50077142D01*
X132611428Y-49177142D01*
X133468571Y-49562857D02*
X133382857Y-49520000D01*
X133340000Y-49477142D01*
X133297142Y-49391428D01*
X133297142Y-49348571D01*
X133340000Y-49262857D01*
X133382857Y-49220000D01*
X133468571Y-49177142D01*
X133640000Y-49177142D01*
X133725714Y-49220000D01*
X133768571Y-49262857D01*
X133811428Y-49348571D01*
X133811428Y-49391428D01*
X133768571Y-49477142D01*
X133725714Y-49520000D01*
X133640000Y-49562857D01*
X133468571Y-49562857D01*
X133382857Y-49605714D01*
X133340000Y-49648571D01*
X133297142Y-49734285D01*
X133297142Y-49905714D01*
X133340000Y-49991428D01*
X133382857Y-50034285D01*
X133468571Y-50077142D01*
X133640000Y-50077142D01*
X133725714Y-50034285D01*
X133768571Y-49991428D01*
X133811428Y-49905714D01*
X133811428Y-49734285D01*
X133768571Y-49648571D01*
X133725714Y-49605714D01*
X133640000Y-49562857D01*
X127440000Y-73577142D02*
X127011428Y-73577142D01*
X127011428Y-72677142D01*
X127782857Y-73577142D02*
X127954285Y-73577142D01*
X128040000Y-73534285D01*
X128082857Y-73491428D01*
X128168571Y-73362857D01*
X128211428Y-73191428D01*
X128211428Y-72848571D01*
X128168571Y-72762857D01*
X128125714Y-72720000D01*
X128040000Y-72677142D01*
X127868571Y-72677142D01*
X127782857Y-72720000D01*
X127740000Y-72762857D01*
X127697142Y-72848571D01*
X127697142Y-73062857D01*
X127740000Y-73148571D01*
X127782857Y-73191428D01*
X127868571Y-73234285D01*
X128040000Y-73234285D01*
X128125714Y-73191428D01*
X128168571Y-73148571D01*
X128211428Y-73062857D01*
X131911428Y-65577142D02*
X131482857Y-65577142D01*
X131482857Y-64677142D01*
X132682857Y-65577142D02*
X132168571Y-65577142D01*
X132425714Y-65577142D02*
X132425714Y-64677142D01*
X132340000Y-64805714D01*
X132254285Y-64891428D01*
X132168571Y-64934285D01*
X133240000Y-64677142D02*
X133325714Y-64677142D01*
X133411428Y-64720000D01*
X133454285Y-64762857D01*
X133497142Y-64848571D01*
X133540000Y-65020000D01*
X133540000Y-65234285D01*
X133497142Y-65405714D01*
X133454285Y-65491428D01*
X133411428Y-65534285D01*
X133325714Y-65577142D01*
X133240000Y-65577142D01*
X133154285Y-65534285D01*
X133111428Y-65491428D01*
X133068571Y-65405714D01*
X133025714Y-65234285D01*
X133025714Y-65020000D01*
X133068571Y-64848571D01*
X133111428Y-64762857D01*
X133154285Y-64720000D01*
X133240000Y-64677142D01*
X119911428Y-43877142D02*
X119482857Y-43877142D01*
X119482857Y-42977142D01*
X120682857Y-43877142D02*
X120168571Y-43877142D01*
X120425714Y-43877142D02*
X120425714Y-42977142D01*
X120340000Y-43105714D01*
X120254285Y-43191428D01*
X120168571Y-43234285D01*
X121540000Y-43877142D02*
X121025714Y-43877142D01*
X121282857Y-43877142D02*
X121282857Y-42977142D01*
X121197142Y-43105714D01*
X121111428Y-43191428D01*
X121025714Y-43234285D01*
X127011428Y-63017142D02*
X126582857Y-63017142D01*
X126582857Y-62117142D01*
X127782857Y-63017142D02*
X127268571Y-63017142D01*
X127525714Y-63017142D02*
X127525714Y-62117142D01*
X127440000Y-62245714D01*
X127354285Y-62331428D01*
X127268571Y-62374285D01*
X128125714Y-62202857D02*
X128168571Y-62160000D01*
X128254285Y-62117142D01*
X128468571Y-62117142D01*
X128554285Y-62160000D01*
X128597142Y-62202857D01*
X128640000Y-62288571D01*
X128640000Y-62374285D01*
X128597142Y-62502857D01*
X128082857Y-63017142D01*
X128640000Y-63017142D01*
X69911428Y-93577142D02*
X69482857Y-93577142D01*
X69482857Y-92677142D01*
X70682857Y-93577142D02*
X70168571Y-93577142D01*
X70425714Y-93577142D02*
X70425714Y-92677142D01*
X70340000Y-92805714D01*
X70254285Y-92891428D01*
X70168571Y-92934285D01*
X70982857Y-92677142D02*
X71540000Y-92677142D01*
X71240000Y-93020000D01*
X71368571Y-93020000D01*
X71454285Y-93062857D01*
X71497142Y-93105714D01*
X71540000Y-93191428D01*
X71540000Y-93405714D01*
X71497142Y-93491428D01*
X71454285Y-93534285D01*
X71368571Y-93577142D01*
X71111428Y-93577142D01*
X71025714Y-93534285D01*
X70982857Y-93491428D01*
X130597142Y-57248571D02*
X130597142Y-57677142D01*
X129697142Y-57677142D01*
X130597142Y-56477142D02*
X130597142Y-56991428D01*
X130597142Y-56734285D02*
X129697142Y-56734285D01*
X129825714Y-56820000D01*
X129911428Y-56905714D01*
X129954285Y-56991428D01*
X129997142Y-55705714D02*
X130597142Y-55705714D01*
X129654285Y-55920000D02*
X130297142Y-56134285D01*
X130297142Y-55577142D01*
X82004285Y-79462857D02*
X81918571Y-79420000D01*
X81832857Y-79334285D01*
X81704285Y-79205714D01*
X81618571Y-79162857D01*
X81532857Y-79162857D01*
X81575714Y-79377142D02*
X81490000Y-79334285D01*
X81404285Y-79248571D01*
X81361428Y-79077142D01*
X81361428Y-78777142D01*
X81404285Y-78605714D01*
X81490000Y-78520000D01*
X81575714Y-78477142D01*
X81747142Y-78477142D01*
X81832857Y-78520000D01*
X81918571Y-78605714D01*
X81961428Y-78777142D01*
X81961428Y-79077142D01*
X81918571Y-79248571D01*
X81832857Y-79334285D01*
X81747142Y-79377142D01*
X81575714Y-79377142D01*
X82818571Y-79377142D02*
X82304285Y-79377142D01*
X82561428Y-79377142D02*
X82561428Y-78477142D01*
X82475714Y-78605714D01*
X82390000Y-78691428D01*
X82304285Y-78734285D01*
X83404285Y-89962857D02*
X83318571Y-89920000D01*
X83232857Y-89834285D01*
X83104285Y-89705714D01*
X83018571Y-89662857D01*
X82932857Y-89662857D01*
X82975714Y-89877142D02*
X82890000Y-89834285D01*
X82804285Y-89748571D01*
X82761428Y-89577142D01*
X82761428Y-89277142D01*
X82804285Y-89105714D01*
X82890000Y-89020000D01*
X82975714Y-88977142D01*
X83147142Y-88977142D01*
X83232857Y-89020000D01*
X83318571Y-89105714D01*
X83361428Y-89277142D01*
X83361428Y-89577142D01*
X83318571Y-89748571D01*
X83232857Y-89834285D01*
X83147142Y-89877142D01*
X82975714Y-89877142D01*
X83704285Y-89062857D02*
X83747142Y-89020000D01*
X83832857Y-88977142D01*
X84047142Y-88977142D01*
X84132857Y-89020000D01*
X84175714Y-89062857D01*
X84218571Y-89148571D01*
X84218571Y-89234285D01*
X84175714Y-89362857D01*
X83661428Y-89877142D01*
X84218571Y-89877142D01*
X67000000Y-52957142D02*
X66700000Y-52528571D01*
X66485714Y-52957142D02*
X66485714Y-52057142D01*
X66828571Y-52057142D01*
X66914285Y-52100000D01*
X66957142Y-52142857D01*
X67000000Y-52228571D01*
X67000000Y-52357142D01*
X66957142Y-52442857D01*
X66914285Y-52485714D01*
X66828571Y-52528571D01*
X66485714Y-52528571D01*
X67857142Y-52957142D02*
X67342857Y-52957142D01*
X67600000Y-52957142D02*
X67600000Y-52057142D01*
X67514285Y-52185714D01*
X67428571Y-52271428D01*
X67342857Y-52314285D01*
X69897142Y-59820000D02*
X69468571Y-60120000D01*
X69897142Y-60334285D02*
X68997142Y-60334285D01*
X68997142Y-59991428D01*
X69040000Y-59905714D01*
X69082857Y-59862857D01*
X69168571Y-59820000D01*
X69297142Y-59820000D01*
X69382857Y-59862857D01*
X69425714Y-59905714D01*
X69468571Y-59991428D01*
X69468571Y-60334285D01*
X69082857Y-59477142D02*
X69040000Y-59434285D01*
X68997142Y-59348571D01*
X68997142Y-59134285D01*
X69040000Y-59048571D01*
X69082857Y-59005714D01*
X69168571Y-58962857D01*
X69254285Y-58962857D01*
X69382857Y-59005714D01*
X69897142Y-59520000D01*
X69897142Y-58962857D01*
X70240000Y-48677142D02*
X69940000Y-48248571D01*
X69725714Y-48677142D02*
X69725714Y-47777142D01*
X70068571Y-47777142D01*
X70154285Y-47820000D01*
X70197142Y-47862857D01*
X70240000Y-47948571D01*
X70240000Y-48077142D01*
X70197142Y-48162857D01*
X70154285Y-48205714D01*
X70068571Y-48248571D01*
X69725714Y-48248571D01*
X71054285Y-47777142D02*
X70625714Y-47777142D01*
X70582857Y-48205714D01*
X70625714Y-48162857D01*
X70711428Y-48120000D01*
X70925714Y-48120000D01*
X71011428Y-48162857D01*
X71054285Y-48205714D01*
X71097142Y-48291428D01*
X71097142Y-48505714D01*
X71054285Y-48591428D01*
X71011428Y-48634285D01*
X70925714Y-48677142D01*
X70711428Y-48677142D01*
X70625714Y-48634285D01*
X70582857Y-48591428D01*
X67797142Y-82520000D02*
X67368571Y-82820000D01*
X67797142Y-83034285D02*
X66897142Y-83034285D01*
X66897142Y-82691428D01*
X66940000Y-82605714D01*
X66982857Y-82562857D01*
X67068571Y-82520000D01*
X67197142Y-82520000D01*
X67282857Y-82562857D01*
X67325714Y-82605714D01*
X67368571Y-82691428D01*
X67368571Y-83034285D01*
X66897142Y-81748571D02*
X66897142Y-81920000D01*
X66940000Y-82005714D01*
X66982857Y-82048571D01*
X67111428Y-82134285D01*
X67282857Y-82177142D01*
X67625714Y-82177142D01*
X67711428Y-82134285D01*
X67754285Y-82091428D01*
X67797142Y-82005714D01*
X67797142Y-81834285D01*
X67754285Y-81748571D01*
X67711428Y-81705714D01*
X67625714Y-81662857D01*
X67411428Y-81662857D01*
X67325714Y-81705714D01*
X67282857Y-81748571D01*
X67240000Y-81834285D01*
X67240000Y-82005714D01*
X67282857Y-82091428D01*
X67325714Y-82134285D01*
X67411428Y-82177142D01*
X72297142Y-49320000D02*
X71868571Y-49620000D01*
X72297142Y-49834285D02*
X71397142Y-49834285D01*
X71397142Y-49491428D01*
X71440000Y-49405714D01*
X71482857Y-49362857D01*
X71568571Y-49320000D01*
X71697142Y-49320000D01*
X71782857Y-49362857D01*
X71825714Y-49405714D01*
X71868571Y-49491428D01*
X71868571Y-49834285D01*
X71397142Y-49020000D02*
X71397142Y-48420000D01*
X72297142Y-48805714D01*
X73240000Y-49677142D02*
X72940000Y-49248571D01*
X72725714Y-49677142D02*
X72725714Y-48777142D01*
X73068571Y-48777142D01*
X73154285Y-48820000D01*
X73197142Y-48862857D01*
X73240000Y-48948571D01*
X73240000Y-49077142D01*
X73197142Y-49162857D01*
X73154285Y-49205714D01*
X73068571Y-49248571D01*
X72725714Y-49248571D01*
X73754285Y-49162857D02*
X73668571Y-49120000D01*
X73625714Y-49077142D01*
X73582857Y-48991428D01*
X73582857Y-48948571D01*
X73625714Y-48862857D01*
X73668571Y-48820000D01*
X73754285Y-48777142D01*
X73925714Y-48777142D01*
X74011428Y-48820000D01*
X74054285Y-48862857D01*
X74097142Y-48948571D01*
X74097142Y-48991428D01*
X74054285Y-49077142D01*
X74011428Y-49120000D01*
X73925714Y-49162857D01*
X73754285Y-49162857D01*
X73668571Y-49205714D01*
X73625714Y-49248571D01*
X73582857Y-49334285D01*
X73582857Y-49505714D01*
X73625714Y-49591428D01*
X73668571Y-49634285D01*
X73754285Y-49677142D01*
X73925714Y-49677142D01*
X74011428Y-49634285D01*
X74054285Y-49591428D01*
X74097142Y-49505714D01*
X74097142Y-49334285D01*
X74054285Y-49248571D01*
X74011428Y-49205714D01*
X73925714Y-49162857D01*
X71297142Y-58320000D02*
X70868571Y-58620000D01*
X71297142Y-58834285D02*
X70397142Y-58834285D01*
X70397142Y-58491428D01*
X70440000Y-58405714D01*
X70482857Y-58362857D01*
X70568571Y-58320000D01*
X70697142Y-58320000D01*
X70782857Y-58362857D01*
X70825714Y-58405714D01*
X70868571Y-58491428D01*
X70868571Y-58834285D01*
X71297142Y-57891428D02*
X71297142Y-57720000D01*
X71254285Y-57634285D01*
X71211428Y-57591428D01*
X71082857Y-57505714D01*
X70911428Y-57462857D01*
X70568571Y-57462857D01*
X70482857Y-57505714D01*
X70440000Y-57548571D01*
X70397142Y-57634285D01*
X70397142Y-57805714D01*
X70440000Y-57891428D01*
X70482857Y-57934285D01*
X70568571Y-57977142D01*
X70782857Y-57977142D01*
X70868571Y-57934285D01*
X70911428Y-57891428D01*
X70954285Y-57805714D01*
X70954285Y-57634285D01*
X70911428Y-57548571D01*
X70868571Y-57505714D01*
X70782857Y-57462857D01*
X75696428Y-47257142D02*
X75396428Y-46828571D01*
X75182142Y-47257142D02*
X75182142Y-46357142D01*
X75525000Y-46357142D01*
X75610714Y-46400000D01*
X75653571Y-46442857D01*
X75696428Y-46528571D01*
X75696428Y-46657142D01*
X75653571Y-46742857D01*
X75610714Y-46785714D01*
X75525000Y-46828571D01*
X75182142Y-46828571D01*
X76553571Y-47257142D02*
X76039285Y-47257142D01*
X76296428Y-47257142D02*
X76296428Y-46357142D01*
X76210714Y-46485714D01*
X76125000Y-46571428D01*
X76039285Y-46614285D01*
X77110714Y-46357142D02*
X77196428Y-46357142D01*
X77282142Y-46400000D01*
X77325000Y-46442857D01*
X77367857Y-46528571D01*
X77410714Y-46700000D01*
X77410714Y-46914285D01*
X77367857Y-47085714D01*
X77325000Y-47171428D01*
X77282142Y-47214285D01*
X77196428Y-47257142D01*
X77110714Y-47257142D01*
X77025000Y-47214285D01*
X76982142Y-47171428D01*
X76939285Y-47085714D01*
X76896428Y-46914285D01*
X76896428Y-46700000D01*
X76939285Y-46528571D01*
X76982142Y-46442857D01*
X77025000Y-46400000D01*
X77110714Y-46357142D01*
X74107142Y-85353571D02*
X73678571Y-85653571D01*
X74107142Y-85867857D02*
X73207142Y-85867857D01*
X73207142Y-85525000D01*
X73250000Y-85439285D01*
X73292857Y-85396428D01*
X73378571Y-85353571D01*
X73507142Y-85353571D01*
X73592857Y-85396428D01*
X73635714Y-85439285D01*
X73678571Y-85525000D01*
X73678571Y-85867857D01*
X74107142Y-84496428D02*
X74107142Y-85010714D01*
X74107142Y-84753571D02*
X73207142Y-84753571D01*
X73335714Y-84839285D01*
X73421428Y-84925000D01*
X73464285Y-85010714D01*
X73207142Y-84196428D02*
X73207142Y-83639285D01*
X73550000Y-83939285D01*
X73550000Y-83810714D01*
X73592857Y-83725000D01*
X73635714Y-83682142D01*
X73721428Y-83639285D01*
X73935714Y-83639285D01*
X74021428Y-83682142D01*
X74064285Y-83725000D01*
X74107142Y-83810714D01*
X74107142Y-84067857D01*
X74064285Y-84153571D01*
X74021428Y-84196428D01*
X75111428Y-93977142D02*
X74811428Y-93548571D01*
X74597142Y-93977142D02*
X74597142Y-93077142D01*
X74940000Y-93077142D01*
X75025714Y-93120000D01*
X75068571Y-93162857D01*
X75111428Y-93248571D01*
X75111428Y-93377142D01*
X75068571Y-93462857D01*
X75025714Y-93505714D01*
X74940000Y-93548571D01*
X74597142Y-93548571D01*
X75968571Y-93977142D02*
X75454285Y-93977142D01*
X75711428Y-93977142D02*
X75711428Y-93077142D01*
X75625714Y-93205714D01*
X75540000Y-93291428D01*
X75454285Y-93334285D01*
X76740000Y-93377142D02*
X76740000Y-93977142D01*
X76525714Y-93034285D02*
X76311428Y-93677142D01*
X76868571Y-93677142D01*
X93597142Y-49348571D02*
X93168571Y-49648571D01*
X93597142Y-49862857D02*
X92697142Y-49862857D01*
X92697142Y-49520000D01*
X92740000Y-49434285D01*
X92782857Y-49391428D01*
X92868571Y-49348571D01*
X92997142Y-49348571D01*
X93082857Y-49391428D01*
X93125714Y-49434285D01*
X93168571Y-49520000D01*
X93168571Y-49862857D01*
X93597142Y-48491428D02*
X93597142Y-49005714D01*
X93597142Y-48748571D02*
X92697142Y-48748571D01*
X92825714Y-48834285D01*
X92911428Y-48920000D01*
X92954285Y-49005714D01*
X92697142Y-47677142D02*
X92697142Y-48105714D01*
X93125714Y-48148571D01*
X93082857Y-48105714D01*
X93040000Y-48020000D01*
X93040000Y-47805714D01*
X93082857Y-47720000D01*
X93125714Y-47677142D01*
X93211428Y-47634285D01*
X93425714Y-47634285D01*
X93511428Y-47677142D01*
X93554285Y-47720000D01*
X93597142Y-47805714D01*
X93597142Y-48020000D01*
X93554285Y-48105714D01*
X93511428Y-48148571D01*
X75497142Y-64248571D02*
X75068571Y-64548571D01*
X75497142Y-64762857D02*
X74597142Y-64762857D01*
X74597142Y-64420000D01*
X74640000Y-64334285D01*
X74682857Y-64291428D01*
X74768571Y-64248571D01*
X74897142Y-64248571D01*
X74982857Y-64291428D01*
X75025714Y-64334285D01*
X75068571Y-64420000D01*
X75068571Y-64762857D01*
X75497142Y-63391428D02*
X75497142Y-63905714D01*
X75497142Y-63648571D02*
X74597142Y-63648571D01*
X74725714Y-63734285D01*
X74811428Y-63820000D01*
X74854285Y-63905714D01*
X74597142Y-62620000D02*
X74597142Y-62791428D01*
X74640000Y-62877142D01*
X74682857Y-62920000D01*
X74811428Y-63005714D01*
X74982857Y-63048571D01*
X75325714Y-63048571D01*
X75411428Y-63005714D01*
X75454285Y-62962857D01*
X75497142Y-62877142D01*
X75497142Y-62705714D01*
X75454285Y-62620000D01*
X75411428Y-62577142D01*
X75325714Y-62534285D01*
X75111428Y-62534285D01*
X75025714Y-62577142D01*
X74982857Y-62620000D01*
X74940000Y-62705714D01*
X74940000Y-62877142D01*
X74982857Y-62962857D01*
X75025714Y-63005714D01*
X75111428Y-63048571D01*
X71111428Y-81477142D02*
X70811428Y-81048571D01*
X70597142Y-81477142D02*
X70597142Y-80577142D01*
X70940000Y-80577142D01*
X71025714Y-80620000D01*
X71068571Y-80662857D01*
X71111428Y-80748571D01*
X71111428Y-80877142D01*
X71068571Y-80962857D01*
X71025714Y-81005714D01*
X70940000Y-81048571D01*
X70597142Y-81048571D01*
X71454285Y-80662857D02*
X71497142Y-80620000D01*
X71582857Y-80577142D01*
X71797142Y-80577142D01*
X71882857Y-80620000D01*
X71925714Y-80662857D01*
X71968571Y-80748571D01*
X71968571Y-80834285D01*
X71925714Y-80962857D01*
X71411428Y-81477142D01*
X71968571Y-81477142D01*
X72525714Y-80577142D02*
X72611428Y-80577142D01*
X72697142Y-80620000D01*
X72740000Y-80662857D01*
X72782857Y-80748571D01*
X72825714Y-80920000D01*
X72825714Y-81134285D01*
X72782857Y-81305714D01*
X72740000Y-81391428D01*
X72697142Y-81434285D01*
X72611428Y-81477142D01*
X72525714Y-81477142D01*
X72440000Y-81434285D01*
X72397142Y-81391428D01*
X72354285Y-81305714D01*
X72311428Y-81134285D01*
X72311428Y-80920000D01*
X72354285Y-80748571D01*
X72397142Y-80662857D01*
X72440000Y-80620000D01*
X72525714Y-80577142D01*
X74597142Y-79648571D02*
X74168571Y-79948571D01*
X74597142Y-80162857D02*
X73697142Y-80162857D01*
X73697142Y-79820000D01*
X73740000Y-79734285D01*
X73782857Y-79691428D01*
X73868571Y-79648571D01*
X73997142Y-79648571D01*
X74082857Y-79691428D01*
X74125714Y-79734285D01*
X74168571Y-79820000D01*
X74168571Y-80162857D01*
X73782857Y-79305714D02*
X73740000Y-79262857D01*
X73697142Y-79177142D01*
X73697142Y-78962857D01*
X73740000Y-78877142D01*
X73782857Y-78834285D01*
X73868571Y-78791428D01*
X73954285Y-78791428D01*
X74082857Y-78834285D01*
X74597142Y-79348571D01*
X74597142Y-78791428D01*
X74597142Y-77934285D02*
X74597142Y-78448571D01*
X74597142Y-78191428D02*
X73697142Y-78191428D01*
X73825714Y-78277142D01*
X73911428Y-78362857D01*
X73954285Y-78448571D01*
X77197142Y-85448571D02*
X76768571Y-85748571D01*
X77197142Y-85962857D02*
X76297142Y-85962857D01*
X76297142Y-85620000D01*
X76340000Y-85534285D01*
X76382857Y-85491428D01*
X76468571Y-85448571D01*
X76597142Y-85448571D01*
X76682857Y-85491428D01*
X76725714Y-85534285D01*
X76768571Y-85620000D01*
X76768571Y-85962857D01*
X76382857Y-85105714D02*
X76340000Y-85062857D01*
X76297142Y-84977142D01*
X76297142Y-84762857D01*
X76340000Y-84677142D01*
X76382857Y-84634285D01*
X76468571Y-84591428D01*
X76554285Y-84591428D01*
X76682857Y-84634285D01*
X77197142Y-85148571D01*
X77197142Y-84591428D01*
X76382857Y-84248571D02*
X76340000Y-84205714D01*
X76297142Y-84120000D01*
X76297142Y-83905714D01*
X76340000Y-83820000D01*
X76382857Y-83777142D01*
X76468571Y-83734285D01*
X76554285Y-83734285D01*
X76682857Y-83777142D01*
X77197142Y-84291428D01*
X77197142Y-83734285D01*
X74597142Y-88548571D02*
X74168571Y-88848571D01*
X74597142Y-89062857D02*
X73697142Y-89062857D01*
X73697142Y-88720000D01*
X73740000Y-88634285D01*
X73782857Y-88591428D01*
X73868571Y-88548571D01*
X73997142Y-88548571D01*
X74082857Y-88591428D01*
X74125714Y-88634285D01*
X74168571Y-88720000D01*
X74168571Y-89062857D01*
X73782857Y-88205714D02*
X73740000Y-88162857D01*
X73697142Y-88077142D01*
X73697142Y-87862857D01*
X73740000Y-87777142D01*
X73782857Y-87734285D01*
X73868571Y-87691428D01*
X73954285Y-87691428D01*
X74082857Y-87734285D01*
X74597142Y-88248571D01*
X74597142Y-87691428D01*
X73697142Y-87391428D02*
X73697142Y-86834285D01*
X74040000Y-87134285D01*
X74040000Y-87005714D01*
X74082857Y-86920000D01*
X74125714Y-86877142D01*
X74211428Y-86834285D01*
X74425714Y-86834285D01*
X74511428Y-86877142D01*
X74554285Y-86920000D01*
X74597142Y-87005714D01*
X74597142Y-87262857D01*
X74554285Y-87348571D01*
X74511428Y-87391428D01*
X85297142Y-87648571D02*
X84868571Y-87948571D01*
X85297142Y-88162857D02*
X84397142Y-88162857D01*
X84397142Y-87820000D01*
X84440000Y-87734285D01*
X84482857Y-87691428D01*
X84568571Y-87648571D01*
X84697142Y-87648571D01*
X84782857Y-87691428D01*
X84825714Y-87734285D01*
X84868571Y-87820000D01*
X84868571Y-88162857D01*
X84482857Y-87305714D02*
X84440000Y-87262857D01*
X84397142Y-87177142D01*
X84397142Y-86962857D01*
X84440000Y-86877142D01*
X84482857Y-86834285D01*
X84568571Y-86791428D01*
X84654285Y-86791428D01*
X84782857Y-86834285D01*
X85297142Y-87348571D01*
X85297142Y-86791428D01*
X84397142Y-85977142D02*
X84397142Y-86405714D01*
X84825714Y-86448571D01*
X84782857Y-86405714D01*
X84740000Y-86320000D01*
X84740000Y-86105714D01*
X84782857Y-86020000D01*
X84825714Y-85977142D01*
X84911428Y-85934285D01*
X85125714Y-85934285D01*
X85211428Y-85977142D01*
X85254285Y-86020000D01*
X85297142Y-86105714D01*
X85297142Y-86320000D01*
X85254285Y-86405714D01*
X85211428Y-86448571D01*
X81307142Y-76228571D02*
X80878571Y-76528571D01*
X81307142Y-76742857D02*
X80407142Y-76742857D01*
X80407142Y-76400000D01*
X80450000Y-76314285D01*
X80492857Y-76271428D01*
X80578571Y-76228571D01*
X80707142Y-76228571D01*
X80792857Y-76271428D01*
X80835714Y-76314285D01*
X80878571Y-76400000D01*
X80878571Y-76742857D01*
X80492857Y-75885714D02*
X80450000Y-75842857D01*
X80407142Y-75757142D01*
X80407142Y-75542857D01*
X80450000Y-75457142D01*
X80492857Y-75414285D01*
X80578571Y-75371428D01*
X80664285Y-75371428D01*
X80792857Y-75414285D01*
X81307142Y-75928571D01*
X81307142Y-75371428D01*
X80407142Y-74600000D02*
X80407142Y-74771428D01*
X80450000Y-74857142D01*
X80492857Y-74900000D01*
X80621428Y-74985714D01*
X80792857Y-75028571D01*
X81135714Y-75028571D01*
X81221428Y-74985714D01*
X81264285Y-74942857D01*
X81307142Y-74857142D01*
X81307142Y-74685714D01*
X81264285Y-74600000D01*
X81221428Y-74557142D01*
X81135714Y-74514285D01*
X80921428Y-74514285D01*
X80835714Y-74557142D01*
X80792857Y-74600000D01*
X80750000Y-74685714D01*
X80750000Y-74857142D01*
X80792857Y-74942857D01*
X80835714Y-74985714D01*
X80921428Y-75028571D01*
X87497142Y-77948571D02*
X87068571Y-78248571D01*
X87497142Y-78462857D02*
X86597142Y-78462857D01*
X86597142Y-78120000D01*
X86640000Y-78034285D01*
X86682857Y-77991428D01*
X86768571Y-77948571D01*
X86897142Y-77948571D01*
X86982857Y-77991428D01*
X87025714Y-78034285D01*
X87068571Y-78120000D01*
X87068571Y-78462857D01*
X86682857Y-77605714D02*
X86640000Y-77562857D01*
X86597142Y-77477142D01*
X86597142Y-77262857D01*
X86640000Y-77177142D01*
X86682857Y-77134285D01*
X86768571Y-77091428D01*
X86854285Y-77091428D01*
X86982857Y-77134285D01*
X87497142Y-77648571D01*
X87497142Y-77091428D01*
X86597142Y-76791428D02*
X86597142Y-76191428D01*
X87497142Y-76577142D01*
X76397142Y-72648571D02*
X75968571Y-72948571D01*
X76397142Y-73162857D02*
X75497142Y-73162857D01*
X75497142Y-72820000D01*
X75540000Y-72734285D01*
X75582857Y-72691428D01*
X75668571Y-72648571D01*
X75797142Y-72648571D01*
X75882857Y-72691428D01*
X75925714Y-72734285D01*
X75968571Y-72820000D01*
X75968571Y-73162857D01*
X75582857Y-72305714D02*
X75540000Y-72262857D01*
X75497142Y-72177142D01*
X75497142Y-71962857D01*
X75540000Y-71877142D01*
X75582857Y-71834285D01*
X75668571Y-71791428D01*
X75754285Y-71791428D01*
X75882857Y-71834285D01*
X76397142Y-72348571D01*
X76397142Y-71791428D01*
X76397142Y-71362857D02*
X76397142Y-71191428D01*
X76354285Y-71105714D01*
X76311428Y-71062857D01*
X76182857Y-70977142D01*
X76011428Y-70934285D01*
X75668571Y-70934285D01*
X75582857Y-70977142D01*
X75540000Y-71020000D01*
X75497142Y-71105714D01*
X75497142Y-71277142D01*
X75540000Y-71362857D01*
X75582857Y-71405714D01*
X75668571Y-71448571D01*
X75882857Y-71448571D01*
X75968571Y-71405714D01*
X76011428Y-71362857D01*
X76054285Y-71277142D01*
X76054285Y-71105714D01*
X76011428Y-71020000D01*
X75968571Y-70977142D01*
X75882857Y-70934285D01*
X76511428Y-82877142D02*
X76211428Y-82448571D01*
X75997142Y-82877142D02*
X75997142Y-81977142D01*
X76340000Y-81977142D01*
X76425714Y-82020000D01*
X76468571Y-82062857D01*
X76511428Y-82148571D01*
X76511428Y-82277142D01*
X76468571Y-82362857D01*
X76425714Y-82405714D01*
X76340000Y-82448571D01*
X75997142Y-82448571D01*
X76811428Y-81977142D02*
X77368571Y-81977142D01*
X77068571Y-82320000D01*
X77197142Y-82320000D01*
X77282857Y-82362857D01*
X77325714Y-82405714D01*
X77368571Y-82491428D01*
X77368571Y-82705714D01*
X77325714Y-82791428D01*
X77282857Y-82834285D01*
X77197142Y-82877142D01*
X76940000Y-82877142D01*
X76854285Y-82834285D01*
X76811428Y-82791428D01*
X77925714Y-81977142D02*
X78011428Y-81977142D01*
X78097142Y-82020000D01*
X78140000Y-82062857D01*
X78182857Y-82148571D01*
X78225714Y-82320000D01*
X78225714Y-82534285D01*
X78182857Y-82705714D01*
X78140000Y-82791428D01*
X78097142Y-82834285D01*
X78011428Y-82877142D01*
X77925714Y-82877142D01*
X77840000Y-82834285D01*
X77797142Y-82791428D01*
X77754285Y-82705714D01*
X77711428Y-82534285D01*
X77711428Y-82320000D01*
X77754285Y-82148571D01*
X77797142Y-82062857D01*
X77840000Y-82020000D01*
X77925714Y-81977142D01*
X78397142Y-88748571D02*
X77968571Y-89048571D01*
X78397142Y-89262857D02*
X77497142Y-89262857D01*
X77497142Y-88920000D01*
X77540000Y-88834285D01*
X77582857Y-88791428D01*
X77668571Y-88748571D01*
X77797142Y-88748571D01*
X77882857Y-88791428D01*
X77925714Y-88834285D01*
X77968571Y-88920000D01*
X77968571Y-89262857D01*
X77497142Y-88448571D02*
X77497142Y-87891428D01*
X77840000Y-88191428D01*
X77840000Y-88062857D01*
X77882857Y-87977142D01*
X77925714Y-87934285D01*
X78011428Y-87891428D01*
X78225714Y-87891428D01*
X78311428Y-87934285D01*
X78354285Y-87977142D01*
X78397142Y-88062857D01*
X78397142Y-88320000D01*
X78354285Y-88405714D01*
X78311428Y-88448571D01*
X78397142Y-87034285D02*
X78397142Y-87548571D01*
X78397142Y-87291428D02*
X77497142Y-87291428D01*
X77625714Y-87377142D01*
X77711428Y-87462857D01*
X77754285Y-87548571D01*
X77497142Y-43748571D02*
X77068571Y-44048571D01*
X77497142Y-44262857D02*
X76597142Y-44262857D01*
X76597142Y-43920000D01*
X76640000Y-43834285D01*
X76682857Y-43791428D01*
X76768571Y-43748571D01*
X76897142Y-43748571D01*
X76982857Y-43791428D01*
X77025714Y-43834285D01*
X77068571Y-43920000D01*
X77068571Y-44262857D01*
X76597142Y-43448571D02*
X76597142Y-42891428D01*
X76940000Y-43191428D01*
X76940000Y-43062857D01*
X76982857Y-42977142D01*
X77025714Y-42934285D01*
X77111428Y-42891428D01*
X77325714Y-42891428D01*
X77411428Y-42934285D01*
X77454285Y-42977142D01*
X77497142Y-43062857D01*
X77497142Y-43320000D01*
X77454285Y-43405714D01*
X77411428Y-43448571D01*
X76682857Y-42548571D02*
X76640000Y-42505714D01*
X76597142Y-42420000D01*
X76597142Y-42205714D01*
X76640000Y-42120000D01*
X76682857Y-42077142D01*
X76768571Y-42034285D01*
X76854285Y-42034285D01*
X76982857Y-42077142D01*
X77497142Y-42591428D01*
X77497142Y-42034285D01*
X74111428Y-43277142D02*
X73811428Y-42848571D01*
X73597142Y-43277142D02*
X73597142Y-42377142D01*
X73940000Y-42377142D01*
X74025714Y-42420000D01*
X74068571Y-42462857D01*
X74111428Y-42548571D01*
X74111428Y-42677142D01*
X74068571Y-42762857D01*
X74025714Y-42805714D01*
X73940000Y-42848571D01*
X73597142Y-42848571D01*
X74411428Y-42377142D02*
X74968571Y-42377142D01*
X74668571Y-42720000D01*
X74797142Y-42720000D01*
X74882857Y-42762857D01*
X74925714Y-42805714D01*
X74968571Y-42891428D01*
X74968571Y-43105714D01*
X74925714Y-43191428D01*
X74882857Y-43234285D01*
X74797142Y-43277142D01*
X74540000Y-43277142D01*
X74454285Y-43234285D01*
X74411428Y-43191428D01*
X75268571Y-42377142D02*
X75825714Y-42377142D01*
X75525714Y-42720000D01*
X75654285Y-42720000D01*
X75740000Y-42762857D01*
X75782857Y-42805714D01*
X75825714Y-42891428D01*
X75825714Y-43105714D01*
X75782857Y-43191428D01*
X75740000Y-43234285D01*
X75654285Y-43277142D01*
X75397142Y-43277142D01*
X75311428Y-43234285D01*
X75268571Y-43191428D01*
X96511428Y-83877142D02*
X96211428Y-83448571D01*
X95997142Y-83877142D02*
X95997142Y-82977142D01*
X96340000Y-82977142D01*
X96425714Y-83020000D01*
X96468571Y-83062857D01*
X96511428Y-83148571D01*
X96511428Y-83277142D01*
X96468571Y-83362857D01*
X96425714Y-83405714D01*
X96340000Y-83448571D01*
X95997142Y-83448571D01*
X96811428Y-82977142D02*
X97368571Y-82977142D01*
X97068571Y-83320000D01*
X97197142Y-83320000D01*
X97282857Y-83362857D01*
X97325714Y-83405714D01*
X97368571Y-83491428D01*
X97368571Y-83705714D01*
X97325714Y-83791428D01*
X97282857Y-83834285D01*
X97197142Y-83877142D01*
X96940000Y-83877142D01*
X96854285Y-83834285D01*
X96811428Y-83791428D01*
X98140000Y-83277142D02*
X98140000Y-83877142D01*
X97925714Y-82934285D02*
X97711428Y-83577142D01*
X98268571Y-83577142D01*
X89797142Y-86308571D02*
X89368571Y-86608571D01*
X89797142Y-86822857D02*
X88897142Y-86822857D01*
X88897142Y-86480000D01*
X88940000Y-86394285D01*
X88982857Y-86351428D01*
X89068571Y-86308571D01*
X89197142Y-86308571D01*
X89282857Y-86351428D01*
X89325714Y-86394285D01*
X89368571Y-86480000D01*
X89368571Y-86822857D01*
X88897142Y-86008571D02*
X88897142Y-85451428D01*
X89240000Y-85751428D01*
X89240000Y-85622857D01*
X89282857Y-85537142D01*
X89325714Y-85494285D01*
X89411428Y-85451428D01*
X89625714Y-85451428D01*
X89711428Y-85494285D01*
X89754285Y-85537142D01*
X89797142Y-85622857D01*
X89797142Y-85880000D01*
X89754285Y-85965714D01*
X89711428Y-86008571D01*
X88897142Y-84637142D02*
X88897142Y-85065714D01*
X89325714Y-85108571D01*
X89282857Y-85065714D01*
X89240000Y-84980000D01*
X89240000Y-84765714D01*
X89282857Y-84680000D01*
X89325714Y-84637142D01*
X89411428Y-84594285D01*
X89625714Y-84594285D01*
X89711428Y-84637142D01*
X89754285Y-84680000D01*
X89797142Y-84765714D01*
X89797142Y-84980000D01*
X89754285Y-85065714D01*
X89711428Y-85108571D01*
X89241428Y-80927142D02*
X88941428Y-80498571D01*
X88727142Y-80927142D02*
X88727142Y-80027142D01*
X89070000Y-80027142D01*
X89155714Y-80070000D01*
X89198571Y-80112857D01*
X89241428Y-80198571D01*
X89241428Y-80327142D01*
X89198571Y-80412857D01*
X89155714Y-80455714D01*
X89070000Y-80498571D01*
X88727142Y-80498571D01*
X89541428Y-80027142D02*
X90098571Y-80027142D01*
X89798571Y-80370000D01*
X89927142Y-80370000D01*
X90012857Y-80412857D01*
X90055714Y-80455714D01*
X90098571Y-80541428D01*
X90098571Y-80755714D01*
X90055714Y-80841428D01*
X90012857Y-80884285D01*
X89927142Y-80927142D01*
X89670000Y-80927142D01*
X89584285Y-80884285D01*
X89541428Y-80841428D01*
X90870000Y-80027142D02*
X90698571Y-80027142D01*
X90612857Y-80070000D01*
X90570000Y-80112857D01*
X90484285Y-80241428D01*
X90441428Y-80412857D01*
X90441428Y-80755714D01*
X90484285Y-80841428D01*
X90527142Y-80884285D01*
X90612857Y-80927142D01*
X90784285Y-80927142D01*
X90870000Y-80884285D01*
X90912857Y-80841428D01*
X90955714Y-80755714D01*
X90955714Y-80541428D01*
X90912857Y-80455714D01*
X90870000Y-80412857D01*
X90784285Y-80370000D01*
X90612857Y-80370000D01*
X90527142Y-80412857D01*
X90484285Y-80455714D01*
X90441428Y-80541428D01*
X111197142Y-88848571D02*
X110768571Y-89148571D01*
X111197142Y-89362857D02*
X110297142Y-89362857D01*
X110297142Y-89020000D01*
X110340000Y-88934285D01*
X110382857Y-88891428D01*
X110468571Y-88848571D01*
X110597142Y-88848571D01*
X110682857Y-88891428D01*
X110725714Y-88934285D01*
X110768571Y-89020000D01*
X110768571Y-89362857D01*
X110297142Y-88548571D02*
X110297142Y-87991428D01*
X110640000Y-88291428D01*
X110640000Y-88162857D01*
X110682857Y-88077142D01*
X110725714Y-88034285D01*
X110811428Y-87991428D01*
X111025714Y-87991428D01*
X111111428Y-88034285D01*
X111154285Y-88077142D01*
X111197142Y-88162857D01*
X111197142Y-88420000D01*
X111154285Y-88505714D01*
X111111428Y-88548571D01*
X110297142Y-87691428D02*
X110297142Y-87091428D01*
X111197142Y-87477142D01*
X92397142Y-89148571D02*
X91968571Y-89448571D01*
X92397142Y-89662857D02*
X91497142Y-89662857D01*
X91497142Y-89320000D01*
X91540000Y-89234285D01*
X91582857Y-89191428D01*
X91668571Y-89148571D01*
X91797142Y-89148571D01*
X91882857Y-89191428D01*
X91925714Y-89234285D01*
X91968571Y-89320000D01*
X91968571Y-89662857D01*
X91797142Y-88377142D02*
X92397142Y-88377142D01*
X91454285Y-88591428D02*
X92097142Y-88805714D01*
X92097142Y-88248571D01*
X91882857Y-87777142D02*
X91840000Y-87862857D01*
X91797142Y-87905714D01*
X91711428Y-87948571D01*
X91668571Y-87948571D01*
X91582857Y-87905714D01*
X91540000Y-87862857D01*
X91497142Y-87777142D01*
X91497142Y-87605714D01*
X91540000Y-87520000D01*
X91582857Y-87477142D01*
X91668571Y-87434285D01*
X91711428Y-87434285D01*
X91797142Y-87477142D01*
X91840000Y-87520000D01*
X91882857Y-87605714D01*
X91882857Y-87777142D01*
X91925714Y-87862857D01*
X91968571Y-87905714D01*
X92054285Y-87948571D01*
X92225714Y-87948571D01*
X92311428Y-87905714D01*
X92354285Y-87862857D01*
X92397142Y-87777142D01*
X92397142Y-87605714D01*
X92354285Y-87520000D01*
X92311428Y-87477142D01*
X92225714Y-87434285D01*
X92054285Y-87434285D01*
X91968571Y-87477142D01*
X91925714Y-87520000D01*
X91882857Y-87605714D01*
X106211428Y-59477142D02*
X105911428Y-59048571D01*
X105697142Y-59477142D02*
X105697142Y-58577142D01*
X106040000Y-58577142D01*
X106125714Y-58620000D01*
X106168571Y-58662857D01*
X106211428Y-58748571D01*
X106211428Y-58877142D01*
X106168571Y-58962857D01*
X106125714Y-59005714D01*
X106040000Y-59048571D01*
X105697142Y-59048571D01*
X106982857Y-58877142D02*
X106982857Y-59477142D01*
X106768571Y-58534285D02*
X106554285Y-59177142D01*
X107111428Y-59177142D01*
X107497142Y-59477142D02*
X107668571Y-59477142D01*
X107754285Y-59434285D01*
X107797142Y-59391428D01*
X107882857Y-59262857D01*
X107925714Y-59091428D01*
X107925714Y-58748571D01*
X107882857Y-58662857D01*
X107840000Y-58620000D01*
X107754285Y-58577142D01*
X107582857Y-58577142D01*
X107497142Y-58620000D01*
X107454285Y-58662857D01*
X107411428Y-58748571D01*
X107411428Y-58962857D01*
X107454285Y-59048571D01*
X107497142Y-59091428D01*
X107582857Y-59134285D01*
X107754285Y-59134285D01*
X107840000Y-59091428D01*
X107882857Y-59048571D01*
X107925714Y-58962857D01*
X111097142Y-85448571D02*
X110668571Y-85748571D01*
X111097142Y-85962857D02*
X110197142Y-85962857D01*
X110197142Y-85620000D01*
X110240000Y-85534285D01*
X110282857Y-85491428D01*
X110368571Y-85448571D01*
X110497142Y-85448571D01*
X110582857Y-85491428D01*
X110625714Y-85534285D01*
X110668571Y-85620000D01*
X110668571Y-85962857D01*
X110197142Y-84634285D02*
X110197142Y-85062857D01*
X110625714Y-85105714D01*
X110582857Y-85062857D01*
X110540000Y-84977142D01*
X110540000Y-84762857D01*
X110582857Y-84677142D01*
X110625714Y-84634285D01*
X110711428Y-84591428D01*
X110925714Y-84591428D01*
X111011428Y-84634285D01*
X111054285Y-84677142D01*
X111097142Y-84762857D01*
X111097142Y-84977142D01*
X111054285Y-85062857D01*
X111011428Y-85105714D01*
X110197142Y-84034285D02*
X110197142Y-83948571D01*
X110240000Y-83862857D01*
X110282857Y-83820000D01*
X110368571Y-83777142D01*
X110540000Y-83734285D01*
X110754285Y-83734285D01*
X110925714Y-83777142D01*
X111011428Y-83820000D01*
X111054285Y-83862857D01*
X111097142Y-83948571D01*
X111097142Y-84034285D01*
X111054285Y-84120000D01*
X111011428Y-84162857D01*
X110925714Y-84205714D01*
X110754285Y-84248571D01*
X110540000Y-84248571D01*
X110368571Y-84205714D01*
X110282857Y-84162857D01*
X110240000Y-84120000D01*
X110197142Y-84034285D01*
X92397142Y-85848571D02*
X91968571Y-86148571D01*
X92397142Y-86362857D02*
X91497142Y-86362857D01*
X91497142Y-86020000D01*
X91540000Y-85934285D01*
X91582857Y-85891428D01*
X91668571Y-85848571D01*
X91797142Y-85848571D01*
X91882857Y-85891428D01*
X91925714Y-85934285D01*
X91968571Y-86020000D01*
X91968571Y-86362857D01*
X91497142Y-85077142D02*
X91497142Y-85248571D01*
X91540000Y-85334285D01*
X91582857Y-85377142D01*
X91711428Y-85462857D01*
X91882857Y-85505714D01*
X92225714Y-85505714D01*
X92311428Y-85462857D01*
X92354285Y-85420000D01*
X92397142Y-85334285D01*
X92397142Y-85162857D01*
X92354285Y-85077142D01*
X92311428Y-85034285D01*
X92225714Y-84991428D01*
X92011428Y-84991428D01*
X91925714Y-85034285D01*
X91882857Y-85077142D01*
X91840000Y-85162857D01*
X91840000Y-85334285D01*
X91882857Y-85420000D01*
X91925714Y-85462857D01*
X92011428Y-85505714D01*
X92397142Y-84134285D02*
X92397142Y-84648571D01*
X92397142Y-84391428D02*
X91497142Y-84391428D01*
X91625714Y-84477142D01*
X91711428Y-84562857D01*
X91754285Y-84648571D01*
X103997142Y-52848571D02*
X103568571Y-53148571D01*
X103997142Y-53362857D02*
X103097142Y-53362857D01*
X103097142Y-53020000D01*
X103140000Y-52934285D01*
X103182857Y-52891428D01*
X103268571Y-52848571D01*
X103397142Y-52848571D01*
X103482857Y-52891428D01*
X103525714Y-52934285D01*
X103568571Y-53020000D01*
X103568571Y-53362857D01*
X103097142Y-52077142D02*
X103097142Y-52248571D01*
X103140000Y-52334285D01*
X103182857Y-52377142D01*
X103311428Y-52462857D01*
X103482857Y-52505714D01*
X103825714Y-52505714D01*
X103911428Y-52462857D01*
X103954285Y-52420000D01*
X103997142Y-52334285D01*
X103997142Y-52162857D01*
X103954285Y-52077142D01*
X103911428Y-52034285D01*
X103825714Y-51991428D01*
X103611428Y-51991428D01*
X103525714Y-52034285D01*
X103482857Y-52077142D01*
X103440000Y-52162857D01*
X103440000Y-52334285D01*
X103482857Y-52420000D01*
X103525714Y-52462857D01*
X103611428Y-52505714D01*
X103182857Y-51648571D02*
X103140000Y-51605714D01*
X103097142Y-51520000D01*
X103097142Y-51305714D01*
X103140000Y-51220000D01*
X103182857Y-51177142D01*
X103268571Y-51134285D01*
X103354285Y-51134285D01*
X103482857Y-51177142D01*
X103997142Y-51691428D01*
X103997142Y-51134285D01*
X81021428Y-72407142D02*
X80721428Y-71978571D01*
X80507142Y-72407142D02*
X80507142Y-71507142D01*
X80850000Y-71507142D01*
X80935714Y-71550000D01*
X80978571Y-71592857D01*
X81021428Y-71678571D01*
X81021428Y-71807142D01*
X80978571Y-71892857D01*
X80935714Y-71935714D01*
X80850000Y-71978571D01*
X80507142Y-71978571D01*
X81792857Y-71507142D02*
X81621428Y-71507142D01*
X81535714Y-71550000D01*
X81492857Y-71592857D01*
X81407142Y-71721428D01*
X81364285Y-71892857D01*
X81364285Y-72235714D01*
X81407142Y-72321428D01*
X81450000Y-72364285D01*
X81535714Y-72407142D01*
X81707142Y-72407142D01*
X81792857Y-72364285D01*
X81835714Y-72321428D01*
X81878571Y-72235714D01*
X81878571Y-72021428D01*
X81835714Y-71935714D01*
X81792857Y-71892857D01*
X81707142Y-71850000D01*
X81535714Y-71850000D01*
X81450000Y-71892857D01*
X81407142Y-71935714D01*
X81364285Y-72021428D01*
X82178571Y-71507142D02*
X82735714Y-71507142D01*
X82435714Y-71850000D01*
X82564285Y-71850000D01*
X82650000Y-71892857D01*
X82692857Y-71935714D01*
X82735714Y-72021428D01*
X82735714Y-72235714D01*
X82692857Y-72321428D01*
X82650000Y-72364285D01*
X82564285Y-72407142D01*
X82307142Y-72407142D01*
X82221428Y-72364285D01*
X82178571Y-72321428D01*
X105311428Y-43077142D02*
X105011428Y-42648571D01*
X104797142Y-43077142D02*
X104797142Y-42177142D01*
X105140000Y-42177142D01*
X105225714Y-42220000D01*
X105268571Y-42262857D01*
X105311428Y-42348571D01*
X105311428Y-42477142D01*
X105268571Y-42562857D01*
X105225714Y-42605714D01*
X105140000Y-42648571D01*
X104797142Y-42648571D01*
X106082857Y-42177142D02*
X105911428Y-42177142D01*
X105825714Y-42220000D01*
X105782857Y-42262857D01*
X105697142Y-42391428D01*
X105654285Y-42562857D01*
X105654285Y-42905714D01*
X105697142Y-42991428D01*
X105740000Y-43034285D01*
X105825714Y-43077142D01*
X105997142Y-43077142D01*
X106082857Y-43034285D01*
X106125714Y-42991428D01*
X106168571Y-42905714D01*
X106168571Y-42691428D01*
X106125714Y-42605714D01*
X106082857Y-42562857D01*
X105997142Y-42520000D01*
X105825714Y-42520000D01*
X105740000Y-42562857D01*
X105697142Y-42605714D01*
X105654285Y-42691428D01*
X106940000Y-42477142D02*
X106940000Y-43077142D01*
X106725714Y-42134285D02*
X106511428Y-42777142D01*
X107068571Y-42777142D01*
X87597142Y-75148571D02*
X87168571Y-75448571D01*
X87597142Y-75662857D02*
X86697142Y-75662857D01*
X86697142Y-75320000D01*
X86740000Y-75234285D01*
X86782857Y-75191428D01*
X86868571Y-75148571D01*
X86997142Y-75148571D01*
X87082857Y-75191428D01*
X87125714Y-75234285D01*
X87168571Y-75320000D01*
X87168571Y-75662857D01*
X86697142Y-74377142D02*
X86697142Y-74548571D01*
X86740000Y-74634285D01*
X86782857Y-74677142D01*
X86911428Y-74762857D01*
X87082857Y-74805714D01*
X87425714Y-74805714D01*
X87511428Y-74762857D01*
X87554285Y-74720000D01*
X87597142Y-74634285D01*
X87597142Y-74462857D01*
X87554285Y-74377142D01*
X87511428Y-74334285D01*
X87425714Y-74291428D01*
X87211428Y-74291428D01*
X87125714Y-74334285D01*
X87082857Y-74377142D01*
X87040000Y-74462857D01*
X87040000Y-74634285D01*
X87082857Y-74720000D01*
X87125714Y-74762857D01*
X87211428Y-74805714D01*
X86697142Y-73477142D02*
X86697142Y-73905714D01*
X87125714Y-73948571D01*
X87082857Y-73905714D01*
X87040000Y-73820000D01*
X87040000Y-73605714D01*
X87082857Y-73520000D01*
X87125714Y-73477142D01*
X87211428Y-73434285D01*
X87425714Y-73434285D01*
X87511428Y-73477142D01*
X87554285Y-73520000D01*
X87597142Y-73605714D01*
X87597142Y-73820000D01*
X87554285Y-73905714D01*
X87511428Y-73948571D01*
X99011428Y-43477142D02*
X98711428Y-43048571D01*
X98497142Y-43477142D02*
X98497142Y-42577142D01*
X98840000Y-42577142D01*
X98925714Y-42620000D01*
X98968571Y-42662857D01*
X99011428Y-42748571D01*
X99011428Y-42877142D01*
X98968571Y-42962857D01*
X98925714Y-43005714D01*
X98840000Y-43048571D01*
X98497142Y-43048571D01*
X99782857Y-42577142D02*
X99611428Y-42577142D01*
X99525714Y-42620000D01*
X99482857Y-42662857D01*
X99397142Y-42791428D01*
X99354285Y-42962857D01*
X99354285Y-43305714D01*
X99397142Y-43391428D01*
X99440000Y-43434285D01*
X99525714Y-43477142D01*
X99697142Y-43477142D01*
X99782857Y-43434285D01*
X99825714Y-43391428D01*
X99868571Y-43305714D01*
X99868571Y-43091428D01*
X99825714Y-43005714D01*
X99782857Y-42962857D01*
X99697142Y-42920000D01*
X99525714Y-42920000D01*
X99440000Y-42962857D01*
X99397142Y-43005714D01*
X99354285Y-43091428D01*
X100640000Y-42577142D02*
X100468571Y-42577142D01*
X100382857Y-42620000D01*
X100340000Y-42662857D01*
X100254285Y-42791428D01*
X100211428Y-42962857D01*
X100211428Y-43305714D01*
X100254285Y-43391428D01*
X100297142Y-43434285D01*
X100382857Y-43477142D01*
X100554285Y-43477142D01*
X100640000Y-43434285D01*
X100682857Y-43391428D01*
X100725714Y-43305714D01*
X100725714Y-43091428D01*
X100682857Y-43005714D01*
X100640000Y-42962857D01*
X100554285Y-42920000D01*
X100382857Y-42920000D01*
X100297142Y-42962857D01*
X100254285Y-43005714D01*
X100211428Y-43091428D01*
X98111428Y-46377142D02*
X97811428Y-45948571D01*
X97597142Y-46377142D02*
X97597142Y-45477142D01*
X97940000Y-45477142D01*
X98025714Y-45520000D01*
X98068571Y-45562857D01*
X98111428Y-45648571D01*
X98111428Y-45777142D01*
X98068571Y-45862857D01*
X98025714Y-45905714D01*
X97940000Y-45948571D01*
X97597142Y-45948571D01*
X98882857Y-45477142D02*
X98711428Y-45477142D01*
X98625714Y-45520000D01*
X98582857Y-45562857D01*
X98497142Y-45691428D01*
X98454285Y-45862857D01*
X98454285Y-46205714D01*
X98497142Y-46291428D01*
X98540000Y-46334285D01*
X98625714Y-46377142D01*
X98797142Y-46377142D01*
X98882857Y-46334285D01*
X98925714Y-46291428D01*
X98968571Y-46205714D01*
X98968571Y-45991428D01*
X98925714Y-45905714D01*
X98882857Y-45862857D01*
X98797142Y-45820000D01*
X98625714Y-45820000D01*
X98540000Y-45862857D01*
X98497142Y-45905714D01*
X98454285Y-45991428D01*
X99268571Y-45477142D02*
X99868571Y-45477142D01*
X99482857Y-46377142D01*
X100887142Y-50908571D02*
X100458571Y-51208571D01*
X100887142Y-51422857D02*
X99987142Y-51422857D01*
X99987142Y-51080000D01*
X100030000Y-50994285D01*
X100072857Y-50951428D01*
X100158571Y-50908571D01*
X100287142Y-50908571D01*
X100372857Y-50951428D01*
X100415714Y-50994285D01*
X100458571Y-51080000D01*
X100458571Y-51422857D01*
X99987142Y-50137142D02*
X99987142Y-50308571D01*
X100030000Y-50394285D01*
X100072857Y-50437142D01*
X100201428Y-50522857D01*
X100372857Y-50565714D01*
X100715714Y-50565714D01*
X100801428Y-50522857D01*
X100844285Y-50480000D01*
X100887142Y-50394285D01*
X100887142Y-50222857D01*
X100844285Y-50137142D01*
X100801428Y-50094285D01*
X100715714Y-50051428D01*
X100501428Y-50051428D01*
X100415714Y-50094285D01*
X100372857Y-50137142D01*
X100330000Y-50222857D01*
X100330000Y-50394285D01*
X100372857Y-50480000D01*
X100415714Y-50522857D01*
X100501428Y-50565714D01*
X100887142Y-49622857D02*
X100887142Y-49451428D01*
X100844285Y-49365714D01*
X100801428Y-49322857D01*
X100672857Y-49237142D01*
X100501428Y-49194285D01*
X100158571Y-49194285D01*
X100072857Y-49237142D01*
X100030000Y-49280000D01*
X99987142Y-49365714D01*
X99987142Y-49537142D01*
X100030000Y-49622857D01*
X100072857Y-49665714D01*
X100158571Y-49708571D01*
X100372857Y-49708571D01*
X100458571Y-49665714D01*
X100501428Y-49622857D01*
X100544285Y-49537142D01*
X100544285Y-49365714D01*
X100501428Y-49280000D01*
X100458571Y-49237142D01*
X100372857Y-49194285D01*
X99797142Y-56148571D02*
X99368571Y-56448571D01*
X99797142Y-56662857D02*
X98897142Y-56662857D01*
X98897142Y-56320000D01*
X98940000Y-56234285D01*
X98982857Y-56191428D01*
X99068571Y-56148571D01*
X99197142Y-56148571D01*
X99282857Y-56191428D01*
X99325714Y-56234285D01*
X99368571Y-56320000D01*
X99368571Y-56662857D01*
X98897142Y-55848571D02*
X98897142Y-55248571D01*
X99797142Y-55634285D01*
X98897142Y-54734285D02*
X98897142Y-54648571D01*
X98940000Y-54562857D01*
X98982857Y-54520000D01*
X99068571Y-54477142D01*
X99240000Y-54434285D01*
X99454285Y-54434285D01*
X99625714Y-54477142D01*
X99711428Y-54520000D01*
X99754285Y-54562857D01*
X99797142Y-54648571D01*
X99797142Y-54734285D01*
X99754285Y-54820000D01*
X99711428Y-54862857D01*
X99625714Y-54905714D01*
X99454285Y-54948571D01*
X99240000Y-54948571D01*
X99068571Y-54905714D01*
X98982857Y-54862857D01*
X98940000Y-54820000D01*
X98897142Y-54734285D01*
X97097142Y-53748571D02*
X96668571Y-54048571D01*
X97097142Y-54262857D02*
X96197142Y-54262857D01*
X96197142Y-53920000D01*
X96240000Y-53834285D01*
X96282857Y-53791428D01*
X96368571Y-53748571D01*
X96497142Y-53748571D01*
X96582857Y-53791428D01*
X96625714Y-53834285D01*
X96668571Y-53920000D01*
X96668571Y-54262857D01*
X96197142Y-53448571D02*
X96197142Y-52848571D01*
X97097142Y-53234285D01*
X97097142Y-52034285D02*
X97097142Y-52548571D01*
X97097142Y-52291428D02*
X96197142Y-52291428D01*
X96325714Y-52377142D01*
X96411428Y-52462857D01*
X96454285Y-52548571D01*
X110711428Y-59477142D02*
X110411428Y-59048571D01*
X110197142Y-59477142D02*
X110197142Y-58577142D01*
X110540000Y-58577142D01*
X110625714Y-58620000D01*
X110668571Y-58662857D01*
X110711428Y-58748571D01*
X110711428Y-58877142D01*
X110668571Y-58962857D01*
X110625714Y-59005714D01*
X110540000Y-59048571D01*
X110197142Y-59048571D01*
X111011428Y-58577142D02*
X111611428Y-58577142D01*
X111225714Y-59477142D01*
X111911428Y-58662857D02*
X111954285Y-58620000D01*
X112040000Y-58577142D01*
X112254285Y-58577142D01*
X112340000Y-58620000D01*
X112382857Y-58662857D01*
X112425714Y-58748571D01*
X112425714Y-58834285D01*
X112382857Y-58962857D01*
X111868571Y-59477142D01*
X112425714Y-59477142D01*
X105697142Y-49748571D02*
X105268571Y-50048571D01*
X105697142Y-50262857D02*
X104797142Y-50262857D01*
X104797142Y-49920000D01*
X104840000Y-49834285D01*
X104882857Y-49791428D01*
X104968571Y-49748571D01*
X105097142Y-49748571D01*
X105182857Y-49791428D01*
X105225714Y-49834285D01*
X105268571Y-49920000D01*
X105268571Y-50262857D01*
X104797142Y-49448571D02*
X104797142Y-48848571D01*
X105697142Y-49234285D01*
X104797142Y-48591428D02*
X104797142Y-48034285D01*
X105140000Y-48334285D01*
X105140000Y-48205714D01*
X105182857Y-48120000D01*
X105225714Y-48077142D01*
X105311428Y-48034285D01*
X105525714Y-48034285D01*
X105611428Y-48077142D01*
X105654285Y-48120000D01*
X105697142Y-48205714D01*
X105697142Y-48462857D01*
X105654285Y-48548571D01*
X105611428Y-48591428D01*
X103311428Y-56277142D02*
X103011428Y-55848571D01*
X102797142Y-56277142D02*
X102797142Y-55377142D01*
X103140000Y-55377142D01*
X103225714Y-55420000D01*
X103268571Y-55462857D01*
X103311428Y-55548571D01*
X103311428Y-55677142D01*
X103268571Y-55762857D01*
X103225714Y-55805714D01*
X103140000Y-55848571D01*
X102797142Y-55848571D01*
X103611428Y-55377142D02*
X104211428Y-55377142D01*
X103825714Y-56277142D01*
X104940000Y-55677142D02*
X104940000Y-56277142D01*
X104725714Y-55334285D02*
X104511428Y-55977142D01*
X105068571Y-55977142D01*
X111197142Y-54548571D02*
X110768571Y-54848571D01*
X111197142Y-55062857D02*
X110297142Y-55062857D01*
X110297142Y-54720000D01*
X110340000Y-54634285D01*
X110382857Y-54591428D01*
X110468571Y-54548571D01*
X110597142Y-54548571D01*
X110682857Y-54591428D01*
X110725714Y-54634285D01*
X110768571Y-54720000D01*
X110768571Y-55062857D01*
X110297142Y-54248571D02*
X110297142Y-53648571D01*
X111197142Y-54034285D01*
X110297142Y-52877142D02*
X110297142Y-53305714D01*
X110725714Y-53348571D01*
X110682857Y-53305714D01*
X110640000Y-53220000D01*
X110640000Y-53005714D01*
X110682857Y-52920000D01*
X110725714Y-52877142D01*
X110811428Y-52834285D01*
X111025714Y-52834285D01*
X111111428Y-52877142D01*
X111154285Y-52920000D01*
X111197142Y-53005714D01*
X111197142Y-53220000D01*
X111154285Y-53305714D01*
X111111428Y-53348571D01*
X77797142Y-72548571D02*
X77368571Y-72848571D01*
X77797142Y-73062857D02*
X76897142Y-73062857D01*
X76897142Y-72720000D01*
X76940000Y-72634285D01*
X76982857Y-72591428D01*
X77068571Y-72548571D01*
X77197142Y-72548571D01*
X77282857Y-72591428D01*
X77325714Y-72634285D01*
X77368571Y-72720000D01*
X77368571Y-73062857D01*
X76897142Y-72248571D02*
X76897142Y-71648571D01*
X77797142Y-72034285D01*
X76897142Y-70920000D02*
X76897142Y-71091428D01*
X76940000Y-71177142D01*
X76982857Y-71220000D01*
X77111428Y-71305714D01*
X77282857Y-71348571D01*
X77625714Y-71348571D01*
X77711428Y-71305714D01*
X77754285Y-71262857D01*
X77797142Y-71177142D01*
X77797142Y-71005714D01*
X77754285Y-70920000D01*
X77711428Y-70877142D01*
X77625714Y-70834285D01*
X77411428Y-70834285D01*
X77325714Y-70877142D01*
X77282857Y-70920000D01*
X77240000Y-71005714D01*
X77240000Y-71177142D01*
X77282857Y-71262857D01*
X77325714Y-71305714D01*
X77411428Y-71348571D01*
X112617142Y-64478571D02*
X112188571Y-64778571D01*
X112617142Y-64992857D02*
X111717142Y-64992857D01*
X111717142Y-64650000D01*
X111760000Y-64564285D01*
X111802857Y-64521428D01*
X111888571Y-64478571D01*
X112017142Y-64478571D01*
X112102857Y-64521428D01*
X112145714Y-64564285D01*
X112188571Y-64650000D01*
X112188571Y-64992857D01*
X111717142Y-64178571D02*
X111717142Y-63578571D01*
X112617142Y-63964285D01*
X111717142Y-63321428D02*
X111717142Y-62721428D01*
X112617142Y-63107142D01*
X129511428Y-68877142D02*
X129211428Y-68448571D01*
X128997142Y-68877142D02*
X128997142Y-67977142D01*
X129340000Y-67977142D01*
X129425714Y-68020000D01*
X129468571Y-68062857D01*
X129511428Y-68148571D01*
X129511428Y-68277142D01*
X129468571Y-68362857D01*
X129425714Y-68405714D01*
X129340000Y-68448571D01*
X128997142Y-68448571D01*
X130025714Y-68362857D02*
X129940000Y-68320000D01*
X129897142Y-68277142D01*
X129854285Y-68191428D01*
X129854285Y-68148571D01*
X129897142Y-68062857D01*
X129940000Y-68020000D01*
X130025714Y-67977142D01*
X130197142Y-67977142D01*
X130282857Y-68020000D01*
X130325714Y-68062857D01*
X130368571Y-68148571D01*
X130368571Y-68191428D01*
X130325714Y-68277142D01*
X130282857Y-68320000D01*
X130197142Y-68362857D01*
X130025714Y-68362857D01*
X129940000Y-68405714D01*
X129897142Y-68448571D01*
X129854285Y-68534285D01*
X129854285Y-68705714D01*
X129897142Y-68791428D01*
X129940000Y-68834285D01*
X130025714Y-68877142D01*
X130197142Y-68877142D01*
X130282857Y-68834285D01*
X130325714Y-68791428D01*
X130368571Y-68705714D01*
X130368571Y-68534285D01*
X130325714Y-68448571D01*
X130282857Y-68405714D01*
X130197142Y-68362857D01*
X131225714Y-68877142D02*
X130711428Y-68877142D01*
X130968571Y-68877142D02*
X130968571Y-67977142D01*
X130882857Y-68105714D01*
X130797142Y-68191428D01*
X130711428Y-68234285D01*
X121611428Y-68577142D02*
X121311428Y-68148571D01*
X121097142Y-68577142D02*
X121097142Y-67677142D01*
X121440000Y-67677142D01*
X121525714Y-67720000D01*
X121568571Y-67762857D01*
X121611428Y-67848571D01*
X121611428Y-67977142D01*
X121568571Y-68062857D01*
X121525714Y-68105714D01*
X121440000Y-68148571D01*
X121097142Y-68148571D01*
X122125714Y-68062857D02*
X122040000Y-68020000D01*
X121997142Y-67977142D01*
X121954285Y-67891428D01*
X121954285Y-67848571D01*
X121997142Y-67762857D01*
X122040000Y-67720000D01*
X122125714Y-67677142D01*
X122297142Y-67677142D01*
X122382857Y-67720000D01*
X122425714Y-67762857D01*
X122468571Y-67848571D01*
X122468571Y-67891428D01*
X122425714Y-67977142D01*
X122382857Y-68020000D01*
X122297142Y-68062857D01*
X122125714Y-68062857D01*
X122040000Y-68105714D01*
X121997142Y-68148571D01*
X121954285Y-68234285D01*
X121954285Y-68405714D01*
X121997142Y-68491428D01*
X122040000Y-68534285D01*
X122125714Y-68577142D01*
X122297142Y-68577142D01*
X122382857Y-68534285D01*
X122425714Y-68491428D01*
X122468571Y-68405714D01*
X122468571Y-68234285D01*
X122425714Y-68148571D01*
X122382857Y-68105714D01*
X122297142Y-68062857D01*
X122811428Y-67762857D02*
X122854285Y-67720000D01*
X122940000Y-67677142D01*
X123154285Y-67677142D01*
X123240000Y-67720000D01*
X123282857Y-67762857D01*
X123325714Y-67848571D01*
X123325714Y-67934285D01*
X123282857Y-68062857D01*
X122768571Y-68577142D01*
X123325714Y-68577142D01*
X117597142Y-86748571D02*
X117168571Y-87048571D01*
X117597142Y-87262857D02*
X116697142Y-87262857D01*
X116697142Y-86920000D01*
X116740000Y-86834285D01*
X116782857Y-86791428D01*
X116868571Y-86748571D01*
X116997142Y-86748571D01*
X117082857Y-86791428D01*
X117125714Y-86834285D01*
X117168571Y-86920000D01*
X117168571Y-87262857D01*
X117082857Y-86234285D02*
X117040000Y-86320000D01*
X116997142Y-86362857D01*
X116911428Y-86405714D01*
X116868571Y-86405714D01*
X116782857Y-86362857D01*
X116740000Y-86320000D01*
X116697142Y-86234285D01*
X116697142Y-86062857D01*
X116740000Y-85977142D01*
X116782857Y-85934285D01*
X116868571Y-85891428D01*
X116911428Y-85891428D01*
X116997142Y-85934285D01*
X117040000Y-85977142D01*
X117082857Y-86062857D01*
X117082857Y-86234285D01*
X117125714Y-86320000D01*
X117168571Y-86362857D01*
X117254285Y-86405714D01*
X117425714Y-86405714D01*
X117511428Y-86362857D01*
X117554285Y-86320000D01*
X117597142Y-86234285D01*
X117597142Y-86062857D01*
X117554285Y-85977142D01*
X117511428Y-85934285D01*
X117425714Y-85891428D01*
X117254285Y-85891428D01*
X117168571Y-85934285D01*
X117125714Y-85977142D01*
X117082857Y-86062857D01*
X116697142Y-85591428D02*
X116697142Y-85034285D01*
X117040000Y-85334285D01*
X117040000Y-85205714D01*
X117082857Y-85120000D01*
X117125714Y-85077142D01*
X117211428Y-85034285D01*
X117425714Y-85034285D01*
X117511428Y-85077142D01*
X117554285Y-85120000D01*
X117597142Y-85205714D01*
X117597142Y-85462857D01*
X117554285Y-85548571D01*
X117511428Y-85591428D01*
X113297142Y-88648571D02*
X112868571Y-88948571D01*
X113297142Y-89162857D02*
X112397142Y-89162857D01*
X112397142Y-88820000D01*
X112440000Y-88734285D01*
X112482857Y-88691428D01*
X112568571Y-88648571D01*
X112697142Y-88648571D01*
X112782857Y-88691428D01*
X112825714Y-88734285D01*
X112868571Y-88820000D01*
X112868571Y-89162857D01*
X112782857Y-88134285D02*
X112740000Y-88220000D01*
X112697142Y-88262857D01*
X112611428Y-88305714D01*
X112568571Y-88305714D01*
X112482857Y-88262857D01*
X112440000Y-88220000D01*
X112397142Y-88134285D01*
X112397142Y-87962857D01*
X112440000Y-87877142D01*
X112482857Y-87834285D01*
X112568571Y-87791428D01*
X112611428Y-87791428D01*
X112697142Y-87834285D01*
X112740000Y-87877142D01*
X112782857Y-87962857D01*
X112782857Y-88134285D01*
X112825714Y-88220000D01*
X112868571Y-88262857D01*
X112954285Y-88305714D01*
X113125714Y-88305714D01*
X113211428Y-88262857D01*
X113254285Y-88220000D01*
X113297142Y-88134285D01*
X113297142Y-87962857D01*
X113254285Y-87877142D01*
X113211428Y-87834285D01*
X113125714Y-87791428D01*
X112954285Y-87791428D01*
X112868571Y-87834285D01*
X112825714Y-87877142D01*
X112782857Y-87962857D01*
X112697142Y-87020000D02*
X113297142Y-87020000D01*
X112354285Y-87234285D02*
X112997142Y-87448571D01*
X112997142Y-86891428D01*
X114797142Y-88748571D02*
X114368571Y-89048571D01*
X114797142Y-89262857D02*
X113897142Y-89262857D01*
X113897142Y-88920000D01*
X113940000Y-88834285D01*
X113982857Y-88791428D01*
X114068571Y-88748571D01*
X114197142Y-88748571D01*
X114282857Y-88791428D01*
X114325714Y-88834285D01*
X114368571Y-88920000D01*
X114368571Y-89262857D01*
X114282857Y-88234285D02*
X114240000Y-88320000D01*
X114197142Y-88362857D01*
X114111428Y-88405714D01*
X114068571Y-88405714D01*
X113982857Y-88362857D01*
X113940000Y-88320000D01*
X113897142Y-88234285D01*
X113897142Y-88062857D01*
X113940000Y-87977142D01*
X113982857Y-87934285D01*
X114068571Y-87891428D01*
X114111428Y-87891428D01*
X114197142Y-87934285D01*
X114240000Y-87977142D01*
X114282857Y-88062857D01*
X114282857Y-88234285D01*
X114325714Y-88320000D01*
X114368571Y-88362857D01*
X114454285Y-88405714D01*
X114625714Y-88405714D01*
X114711428Y-88362857D01*
X114754285Y-88320000D01*
X114797142Y-88234285D01*
X114797142Y-88062857D01*
X114754285Y-87977142D01*
X114711428Y-87934285D01*
X114625714Y-87891428D01*
X114454285Y-87891428D01*
X114368571Y-87934285D01*
X114325714Y-87977142D01*
X114282857Y-88062857D01*
X113897142Y-87077142D02*
X113897142Y-87505714D01*
X114325714Y-87548571D01*
X114282857Y-87505714D01*
X114240000Y-87420000D01*
X114240000Y-87205714D01*
X114282857Y-87120000D01*
X114325714Y-87077142D01*
X114411428Y-87034285D01*
X114625714Y-87034285D01*
X114711428Y-87077142D01*
X114754285Y-87120000D01*
X114797142Y-87205714D01*
X114797142Y-87420000D01*
X114754285Y-87505714D01*
X114711428Y-87548571D01*
X121897142Y-64848571D02*
X121468571Y-65148571D01*
X121897142Y-65362857D02*
X120997142Y-65362857D01*
X120997142Y-65020000D01*
X121040000Y-64934285D01*
X121082857Y-64891428D01*
X121168571Y-64848571D01*
X121297142Y-64848571D01*
X121382857Y-64891428D01*
X121425714Y-64934285D01*
X121468571Y-65020000D01*
X121468571Y-65362857D01*
X121382857Y-64334285D02*
X121340000Y-64420000D01*
X121297142Y-64462857D01*
X121211428Y-64505714D01*
X121168571Y-64505714D01*
X121082857Y-64462857D01*
X121040000Y-64420000D01*
X120997142Y-64334285D01*
X120997142Y-64162857D01*
X121040000Y-64077142D01*
X121082857Y-64034285D01*
X121168571Y-63991428D01*
X121211428Y-63991428D01*
X121297142Y-64034285D01*
X121340000Y-64077142D01*
X121382857Y-64162857D01*
X121382857Y-64334285D01*
X121425714Y-64420000D01*
X121468571Y-64462857D01*
X121554285Y-64505714D01*
X121725714Y-64505714D01*
X121811428Y-64462857D01*
X121854285Y-64420000D01*
X121897142Y-64334285D01*
X121897142Y-64162857D01*
X121854285Y-64077142D01*
X121811428Y-64034285D01*
X121725714Y-63991428D01*
X121554285Y-63991428D01*
X121468571Y-64034285D01*
X121425714Y-64077142D01*
X121382857Y-64162857D01*
X120997142Y-63691428D02*
X120997142Y-63091428D01*
X121897142Y-63477142D01*
X113746428Y-68882142D02*
X113446428Y-68453571D01*
X113232142Y-68882142D02*
X113232142Y-67982142D01*
X113575000Y-67982142D01*
X113660714Y-68025000D01*
X113703571Y-68067857D01*
X113746428Y-68153571D01*
X113746428Y-68282142D01*
X113703571Y-68367857D01*
X113660714Y-68410714D01*
X113575000Y-68453571D01*
X113232142Y-68453571D01*
X114260714Y-68367857D02*
X114175000Y-68325000D01*
X114132142Y-68282142D01*
X114089285Y-68196428D01*
X114089285Y-68153571D01*
X114132142Y-68067857D01*
X114175000Y-68025000D01*
X114260714Y-67982142D01*
X114432142Y-67982142D01*
X114517857Y-68025000D01*
X114560714Y-68067857D01*
X114603571Y-68153571D01*
X114603571Y-68196428D01*
X114560714Y-68282142D01*
X114517857Y-68325000D01*
X114432142Y-68367857D01*
X114260714Y-68367857D01*
X114175000Y-68410714D01*
X114132142Y-68453571D01*
X114089285Y-68539285D01*
X114089285Y-68710714D01*
X114132142Y-68796428D01*
X114175000Y-68839285D01*
X114260714Y-68882142D01*
X114432142Y-68882142D01*
X114517857Y-68839285D01*
X114560714Y-68796428D01*
X114603571Y-68710714D01*
X114603571Y-68539285D01*
X114560714Y-68453571D01*
X114517857Y-68410714D01*
X114432142Y-68367857D01*
X115117857Y-68367857D02*
X115032142Y-68325000D01*
X114989285Y-68282142D01*
X114946428Y-68196428D01*
X114946428Y-68153571D01*
X114989285Y-68067857D01*
X115032142Y-68025000D01*
X115117857Y-67982142D01*
X115289285Y-67982142D01*
X115375000Y-68025000D01*
X115417857Y-68067857D01*
X115460714Y-68153571D01*
X115460714Y-68196428D01*
X115417857Y-68282142D01*
X115375000Y-68325000D01*
X115289285Y-68367857D01*
X115117857Y-68367857D01*
X115032142Y-68410714D01*
X114989285Y-68453571D01*
X114946428Y-68539285D01*
X114946428Y-68710714D01*
X114989285Y-68796428D01*
X115032142Y-68839285D01*
X115117857Y-68882142D01*
X115289285Y-68882142D01*
X115375000Y-68839285D01*
X115417857Y-68796428D01*
X115460714Y-68710714D01*
X115460714Y-68539285D01*
X115417857Y-68453571D01*
X115375000Y-68410714D01*
X115289285Y-68367857D01*
X113511428Y-73077142D02*
X113211428Y-72648571D01*
X112997142Y-73077142D02*
X112997142Y-72177142D01*
X113340000Y-72177142D01*
X113425714Y-72220000D01*
X113468571Y-72262857D01*
X113511428Y-72348571D01*
X113511428Y-72477142D01*
X113468571Y-72562857D01*
X113425714Y-72605714D01*
X113340000Y-72648571D01*
X112997142Y-72648571D01*
X114025714Y-72562857D02*
X113940000Y-72520000D01*
X113897142Y-72477142D01*
X113854285Y-72391428D01*
X113854285Y-72348571D01*
X113897142Y-72262857D01*
X113940000Y-72220000D01*
X114025714Y-72177142D01*
X114197142Y-72177142D01*
X114282857Y-72220000D01*
X114325714Y-72262857D01*
X114368571Y-72348571D01*
X114368571Y-72391428D01*
X114325714Y-72477142D01*
X114282857Y-72520000D01*
X114197142Y-72562857D01*
X114025714Y-72562857D01*
X113940000Y-72605714D01*
X113897142Y-72648571D01*
X113854285Y-72734285D01*
X113854285Y-72905714D01*
X113897142Y-72991428D01*
X113940000Y-73034285D01*
X114025714Y-73077142D01*
X114197142Y-73077142D01*
X114282857Y-73034285D01*
X114325714Y-72991428D01*
X114368571Y-72905714D01*
X114368571Y-72734285D01*
X114325714Y-72648571D01*
X114282857Y-72605714D01*
X114197142Y-72562857D01*
X114797142Y-73077142D02*
X114968571Y-73077142D01*
X115054285Y-73034285D01*
X115097142Y-72991428D01*
X115182857Y-72862857D01*
X115225714Y-72691428D01*
X115225714Y-72348571D01*
X115182857Y-72262857D01*
X115140000Y-72220000D01*
X115054285Y-72177142D01*
X114882857Y-72177142D01*
X114797142Y-72220000D01*
X114754285Y-72262857D01*
X114711428Y-72348571D01*
X114711428Y-72562857D01*
X114754285Y-72648571D01*
X114797142Y-72691428D01*
X114882857Y-72734285D01*
X115054285Y-72734285D01*
X115140000Y-72691428D01*
X115182857Y-72648571D01*
X115225714Y-72562857D01*
X128111428Y-54577142D02*
X127811428Y-54148571D01*
X127597142Y-54577142D02*
X127597142Y-53677142D01*
X127940000Y-53677142D01*
X128025714Y-53720000D01*
X128068571Y-53762857D01*
X128111428Y-53848571D01*
X128111428Y-53977142D01*
X128068571Y-54062857D01*
X128025714Y-54105714D01*
X127940000Y-54148571D01*
X127597142Y-54148571D01*
X128540000Y-54577142D02*
X128711428Y-54577142D01*
X128797142Y-54534285D01*
X128840000Y-54491428D01*
X128925714Y-54362857D01*
X128968571Y-54191428D01*
X128968571Y-53848571D01*
X128925714Y-53762857D01*
X128882857Y-53720000D01*
X128797142Y-53677142D01*
X128625714Y-53677142D01*
X128540000Y-53720000D01*
X128497142Y-53762857D01*
X128454285Y-53848571D01*
X128454285Y-54062857D01*
X128497142Y-54148571D01*
X128540000Y-54191428D01*
X128625714Y-54234285D01*
X128797142Y-54234285D01*
X128882857Y-54191428D01*
X128925714Y-54148571D01*
X128968571Y-54062857D01*
X129311428Y-53762857D02*
X129354285Y-53720000D01*
X129440000Y-53677142D01*
X129654285Y-53677142D01*
X129740000Y-53720000D01*
X129782857Y-53762857D01*
X129825714Y-53848571D01*
X129825714Y-53934285D01*
X129782857Y-54062857D01*
X129268571Y-54577142D01*
X129825714Y-54577142D01*
X129997142Y-84048571D02*
X129568571Y-84348571D01*
X129997142Y-84562857D02*
X129097142Y-84562857D01*
X129097142Y-84220000D01*
X129140000Y-84134285D01*
X129182857Y-84091428D01*
X129268571Y-84048571D01*
X129397142Y-84048571D01*
X129482857Y-84091428D01*
X129525714Y-84134285D01*
X129568571Y-84220000D01*
X129568571Y-84562857D01*
X129997142Y-83620000D02*
X129997142Y-83448571D01*
X129954285Y-83362857D01*
X129911428Y-83320000D01*
X129782857Y-83234285D01*
X129611428Y-83191428D01*
X129268571Y-83191428D01*
X129182857Y-83234285D01*
X129140000Y-83277142D01*
X129097142Y-83362857D01*
X129097142Y-83534285D01*
X129140000Y-83620000D01*
X129182857Y-83662857D01*
X129268571Y-83705714D01*
X129482857Y-83705714D01*
X129568571Y-83662857D01*
X129611428Y-83620000D01*
X129654285Y-83534285D01*
X129654285Y-83362857D01*
X129611428Y-83277142D01*
X129568571Y-83234285D01*
X129482857Y-83191428D01*
X129397142Y-82420000D02*
X129997142Y-82420000D01*
X129054285Y-82634285D02*
X129697142Y-82848571D01*
X129697142Y-82291428D01*
X124877142Y-83028571D02*
X124448571Y-83328571D01*
X124877142Y-83542857D02*
X123977142Y-83542857D01*
X123977142Y-83200000D01*
X124020000Y-83114285D01*
X124062857Y-83071428D01*
X124148571Y-83028571D01*
X124277142Y-83028571D01*
X124362857Y-83071428D01*
X124405714Y-83114285D01*
X124448571Y-83200000D01*
X124448571Y-83542857D01*
X124877142Y-82600000D02*
X124877142Y-82428571D01*
X124834285Y-82342857D01*
X124791428Y-82300000D01*
X124662857Y-82214285D01*
X124491428Y-82171428D01*
X124148571Y-82171428D01*
X124062857Y-82214285D01*
X124020000Y-82257142D01*
X123977142Y-82342857D01*
X123977142Y-82514285D01*
X124020000Y-82600000D01*
X124062857Y-82642857D01*
X124148571Y-82685714D01*
X124362857Y-82685714D01*
X124448571Y-82642857D01*
X124491428Y-82600000D01*
X124534285Y-82514285D01*
X124534285Y-82342857D01*
X124491428Y-82257142D01*
X124448571Y-82214285D01*
X124362857Y-82171428D01*
X123977142Y-81357142D02*
X123977142Y-81785714D01*
X124405714Y-81828571D01*
X124362857Y-81785714D01*
X124320000Y-81700000D01*
X124320000Y-81485714D01*
X124362857Y-81400000D01*
X124405714Y-81357142D01*
X124491428Y-81314285D01*
X124705714Y-81314285D01*
X124791428Y-81357142D01*
X124834285Y-81400000D01*
X124877142Y-81485714D01*
X124877142Y-81700000D01*
X124834285Y-81785714D01*
X124791428Y-81828571D01*
X121407142Y-83053571D02*
X120978571Y-83353571D01*
X121407142Y-83567857D02*
X120507142Y-83567857D01*
X120507142Y-83225000D01*
X120550000Y-83139285D01*
X120592857Y-83096428D01*
X120678571Y-83053571D01*
X120807142Y-83053571D01*
X120892857Y-83096428D01*
X120935714Y-83139285D01*
X120978571Y-83225000D01*
X120978571Y-83567857D01*
X121407142Y-82625000D02*
X121407142Y-82453571D01*
X121364285Y-82367857D01*
X121321428Y-82325000D01*
X121192857Y-82239285D01*
X121021428Y-82196428D01*
X120678571Y-82196428D01*
X120592857Y-82239285D01*
X120550000Y-82282142D01*
X120507142Y-82367857D01*
X120507142Y-82539285D01*
X120550000Y-82625000D01*
X120592857Y-82667857D01*
X120678571Y-82710714D01*
X120892857Y-82710714D01*
X120978571Y-82667857D01*
X121021428Y-82625000D01*
X121064285Y-82539285D01*
X121064285Y-82367857D01*
X121021428Y-82282142D01*
X120978571Y-82239285D01*
X120892857Y-82196428D01*
X120507142Y-81425000D02*
X120507142Y-81596428D01*
X120550000Y-81682142D01*
X120592857Y-81725000D01*
X120721428Y-81810714D01*
X120892857Y-81853571D01*
X121235714Y-81853571D01*
X121321428Y-81810714D01*
X121364285Y-81767857D01*
X121407142Y-81682142D01*
X121407142Y-81510714D01*
X121364285Y-81425000D01*
X121321428Y-81382142D01*
X121235714Y-81339285D01*
X121021428Y-81339285D01*
X120935714Y-81382142D01*
X120892857Y-81425000D01*
X120850000Y-81510714D01*
X120850000Y-81682142D01*
X120892857Y-81767857D01*
X120935714Y-81810714D01*
X121021428Y-81853571D01*
X117911428Y-81077142D02*
X117611428Y-80648571D01*
X117397142Y-81077142D02*
X117397142Y-80177142D01*
X117740000Y-80177142D01*
X117825714Y-80220000D01*
X117868571Y-80262857D01*
X117911428Y-80348571D01*
X117911428Y-80477142D01*
X117868571Y-80562857D01*
X117825714Y-80605714D01*
X117740000Y-80648571D01*
X117397142Y-80648571D01*
X118340000Y-81077142D02*
X118511428Y-81077142D01*
X118597142Y-81034285D01*
X118640000Y-80991428D01*
X118725714Y-80862857D01*
X118768571Y-80691428D01*
X118768571Y-80348571D01*
X118725714Y-80262857D01*
X118682857Y-80220000D01*
X118597142Y-80177142D01*
X118425714Y-80177142D01*
X118340000Y-80220000D01*
X118297142Y-80262857D01*
X118254285Y-80348571D01*
X118254285Y-80562857D01*
X118297142Y-80648571D01*
X118340000Y-80691428D01*
X118425714Y-80734285D01*
X118597142Y-80734285D01*
X118682857Y-80691428D01*
X118725714Y-80648571D01*
X118768571Y-80562857D01*
X119068571Y-80177142D02*
X119668571Y-80177142D01*
X119282857Y-81077142D01*
X133197142Y-84248571D02*
X132768571Y-84548571D01*
X133197142Y-84762857D02*
X132297142Y-84762857D01*
X132297142Y-84420000D01*
X132340000Y-84334285D01*
X132382857Y-84291428D01*
X132468571Y-84248571D01*
X132597142Y-84248571D01*
X132682857Y-84291428D01*
X132725714Y-84334285D01*
X132768571Y-84420000D01*
X132768571Y-84762857D01*
X133197142Y-83820000D02*
X133197142Y-83648571D01*
X133154285Y-83562857D01*
X133111428Y-83520000D01*
X132982857Y-83434285D01*
X132811428Y-83391428D01*
X132468571Y-83391428D01*
X132382857Y-83434285D01*
X132340000Y-83477142D01*
X132297142Y-83562857D01*
X132297142Y-83734285D01*
X132340000Y-83820000D01*
X132382857Y-83862857D01*
X132468571Y-83905714D01*
X132682857Y-83905714D01*
X132768571Y-83862857D01*
X132811428Y-83820000D01*
X132854285Y-83734285D01*
X132854285Y-83562857D01*
X132811428Y-83477142D01*
X132768571Y-83434285D01*
X132682857Y-83391428D01*
X132682857Y-82877142D02*
X132640000Y-82962857D01*
X132597142Y-83005714D01*
X132511428Y-83048571D01*
X132468571Y-83048571D01*
X132382857Y-83005714D01*
X132340000Y-82962857D01*
X132297142Y-82877142D01*
X132297142Y-82705714D01*
X132340000Y-82620000D01*
X132382857Y-82577142D01*
X132468571Y-82534285D01*
X132511428Y-82534285D01*
X132597142Y-82577142D01*
X132640000Y-82620000D01*
X132682857Y-82705714D01*
X132682857Y-82877142D01*
X132725714Y-82962857D01*
X132768571Y-83005714D01*
X132854285Y-83048571D01*
X133025714Y-83048571D01*
X133111428Y-83005714D01*
X133154285Y-82962857D01*
X133197142Y-82877142D01*
X133197142Y-82705714D01*
X133154285Y-82620000D01*
X133111428Y-82577142D01*
X133025714Y-82534285D01*
X132854285Y-82534285D01*
X132768571Y-82577142D01*
X132725714Y-82620000D01*
X132682857Y-82705714D01*
X126411428Y-85177142D02*
X126111428Y-84748571D01*
X125897142Y-85177142D02*
X125897142Y-84277142D01*
X126240000Y-84277142D01*
X126325714Y-84320000D01*
X126368571Y-84362857D01*
X126411428Y-84448571D01*
X126411428Y-84577142D01*
X126368571Y-84662857D01*
X126325714Y-84705714D01*
X126240000Y-84748571D01*
X125897142Y-84748571D01*
X126840000Y-85177142D02*
X127011428Y-85177142D01*
X127097142Y-85134285D01*
X127140000Y-85091428D01*
X127225714Y-84962857D01*
X127268571Y-84791428D01*
X127268571Y-84448571D01*
X127225714Y-84362857D01*
X127182857Y-84320000D01*
X127097142Y-84277142D01*
X126925714Y-84277142D01*
X126840000Y-84320000D01*
X126797142Y-84362857D01*
X126754285Y-84448571D01*
X126754285Y-84662857D01*
X126797142Y-84748571D01*
X126840000Y-84791428D01*
X126925714Y-84834285D01*
X127097142Y-84834285D01*
X127182857Y-84791428D01*
X127225714Y-84748571D01*
X127268571Y-84662857D01*
X127697142Y-85177142D02*
X127868571Y-85177142D01*
X127954285Y-85134285D01*
X127997142Y-85091428D01*
X128082857Y-84962857D01*
X128125714Y-84791428D01*
X128125714Y-84448571D01*
X128082857Y-84362857D01*
X128040000Y-84320000D01*
X127954285Y-84277142D01*
X127782857Y-84277142D01*
X127697142Y-84320000D01*
X127654285Y-84362857D01*
X127611428Y-84448571D01*
X127611428Y-84662857D01*
X127654285Y-84748571D01*
X127697142Y-84791428D01*
X127782857Y-84834285D01*
X127954285Y-84834285D01*
X128040000Y-84791428D01*
X128082857Y-84748571D01*
X128125714Y-84662857D01*
X121482857Y-84977142D02*
X121182857Y-84548571D01*
X120968571Y-84977142D02*
X120968571Y-84077142D01*
X121311428Y-84077142D01*
X121397142Y-84120000D01*
X121440000Y-84162857D01*
X121482857Y-84248571D01*
X121482857Y-84377142D01*
X121440000Y-84462857D01*
X121397142Y-84505714D01*
X121311428Y-84548571D01*
X120968571Y-84548571D01*
X122340000Y-84977142D02*
X121825714Y-84977142D01*
X122082857Y-84977142D02*
X122082857Y-84077142D01*
X121997142Y-84205714D01*
X121911428Y-84291428D01*
X121825714Y-84334285D01*
X122897142Y-84077142D02*
X122982857Y-84077142D01*
X123068571Y-84120000D01*
X123111428Y-84162857D01*
X123154285Y-84248571D01*
X123197142Y-84420000D01*
X123197142Y-84634285D01*
X123154285Y-84805714D01*
X123111428Y-84891428D01*
X123068571Y-84934285D01*
X122982857Y-84977142D01*
X122897142Y-84977142D01*
X122811428Y-84934285D01*
X122768571Y-84891428D01*
X122725714Y-84805714D01*
X122682857Y-84634285D01*
X122682857Y-84420000D01*
X122725714Y-84248571D01*
X122768571Y-84162857D01*
X122811428Y-84120000D01*
X122897142Y-84077142D01*
X123754285Y-84077142D02*
X123840000Y-84077142D01*
X123925714Y-84120000D01*
X123968571Y-84162857D01*
X124011428Y-84248571D01*
X124054285Y-84420000D01*
X124054285Y-84634285D01*
X124011428Y-84805714D01*
X123968571Y-84891428D01*
X123925714Y-84934285D01*
X123840000Y-84977142D01*
X123754285Y-84977142D01*
X123668571Y-84934285D01*
X123625714Y-84891428D01*
X123582857Y-84805714D01*
X123540000Y-84634285D01*
X123540000Y-84420000D01*
X123582857Y-84248571D01*
X123625714Y-84162857D01*
X123668571Y-84120000D01*
X123754285Y-84077142D01*
X117082857Y-84777142D02*
X116782857Y-84348571D01*
X116568571Y-84777142D02*
X116568571Y-83877142D01*
X116911428Y-83877142D01*
X116997142Y-83920000D01*
X117040000Y-83962857D01*
X117082857Y-84048571D01*
X117082857Y-84177142D01*
X117040000Y-84262857D01*
X116997142Y-84305714D01*
X116911428Y-84348571D01*
X116568571Y-84348571D01*
X117940000Y-84777142D02*
X117425714Y-84777142D01*
X117682857Y-84777142D02*
X117682857Y-83877142D01*
X117597142Y-84005714D01*
X117511428Y-84091428D01*
X117425714Y-84134285D01*
X118497142Y-83877142D02*
X118582857Y-83877142D01*
X118668571Y-83920000D01*
X118711428Y-83962857D01*
X118754285Y-84048571D01*
X118797142Y-84220000D01*
X118797142Y-84434285D01*
X118754285Y-84605714D01*
X118711428Y-84691428D01*
X118668571Y-84734285D01*
X118582857Y-84777142D01*
X118497142Y-84777142D01*
X118411428Y-84734285D01*
X118368571Y-84691428D01*
X118325714Y-84605714D01*
X118282857Y-84434285D01*
X118282857Y-84220000D01*
X118325714Y-84048571D01*
X118368571Y-83962857D01*
X118411428Y-83920000D01*
X118497142Y-83877142D01*
X119654285Y-84777142D02*
X119140000Y-84777142D01*
X119397142Y-84777142D02*
X119397142Y-83877142D01*
X119311428Y-84005714D01*
X119225714Y-84091428D01*
X119140000Y-84134285D01*
X131382857Y-87377142D02*
X131082857Y-86948571D01*
X130868571Y-87377142D02*
X130868571Y-86477142D01*
X131211428Y-86477142D01*
X131297142Y-86520000D01*
X131340000Y-86562857D01*
X131382857Y-86648571D01*
X131382857Y-86777142D01*
X131340000Y-86862857D01*
X131297142Y-86905714D01*
X131211428Y-86948571D01*
X130868571Y-86948571D01*
X132240000Y-87377142D02*
X131725714Y-87377142D01*
X131982857Y-87377142D02*
X131982857Y-86477142D01*
X131897142Y-86605714D01*
X131811428Y-86691428D01*
X131725714Y-86734285D01*
X132797142Y-86477142D02*
X132882857Y-86477142D01*
X132968571Y-86520000D01*
X133011428Y-86562857D01*
X133054285Y-86648571D01*
X133097142Y-86820000D01*
X133097142Y-87034285D01*
X133054285Y-87205714D01*
X133011428Y-87291428D01*
X132968571Y-87334285D01*
X132882857Y-87377142D01*
X132797142Y-87377142D01*
X132711428Y-87334285D01*
X132668571Y-87291428D01*
X132625714Y-87205714D01*
X132582857Y-87034285D01*
X132582857Y-86820000D01*
X132625714Y-86648571D01*
X132668571Y-86562857D01*
X132711428Y-86520000D01*
X132797142Y-86477142D01*
X133440000Y-86562857D02*
X133482857Y-86520000D01*
X133568571Y-86477142D01*
X133782857Y-86477142D01*
X133868571Y-86520000D01*
X133911428Y-86562857D01*
X133954285Y-86648571D01*
X133954285Y-86734285D01*
X133911428Y-86862857D01*
X133397142Y-87377142D01*
X133954285Y-87377142D01*
X126882857Y-88777142D02*
X126582857Y-88348571D01*
X126368571Y-88777142D02*
X126368571Y-87877142D01*
X126711428Y-87877142D01*
X126797142Y-87920000D01*
X126840000Y-87962857D01*
X126882857Y-88048571D01*
X126882857Y-88177142D01*
X126840000Y-88262857D01*
X126797142Y-88305714D01*
X126711428Y-88348571D01*
X126368571Y-88348571D01*
X127740000Y-88777142D02*
X127225714Y-88777142D01*
X127482857Y-88777142D02*
X127482857Y-87877142D01*
X127397142Y-88005714D01*
X127311428Y-88091428D01*
X127225714Y-88134285D01*
X128297142Y-87877142D02*
X128382857Y-87877142D01*
X128468571Y-87920000D01*
X128511428Y-87962857D01*
X128554285Y-88048571D01*
X128597142Y-88220000D01*
X128597142Y-88434285D01*
X128554285Y-88605714D01*
X128511428Y-88691428D01*
X128468571Y-88734285D01*
X128382857Y-88777142D01*
X128297142Y-88777142D01*
X128211428Y-88734285D01*
X128168571Y-88691428D01*
X128125714Y-88605714D01*
X128082857Y-88434285D01*
X128082857Y-88220000D01*
X128125714Y-88048571D01*
X128168571Y-87962857D01*
X128211428Y-87920000D01*
X128297142Y-87877142D01*
X128897142Y-87877142D02*
X129454285Y-87877142D01*
X129154285Y-88220000D01*
X129282857Y-88220000D01*
X129368571Y-88262857D01*
X129411428Y-88305714D01*
X129454285Y-88391428D01*
X129454285Y-88605714D01*
X129411428Y-88691428D01*
X129368571Y-88734285D01*
X129282857Y-88777142D01*
X129025714Y-88777142D01*
X128940000Y-88734285D01*
X128897142Y-88691428D01*
X122682857Y-88877142D02*
X122382857Y-88448571D01*
X122168571Y-88877142D02*
X122168571Y-87977142D01*
X122511428Y-87977142D01*
X122597142Y-88020000D01*
X122640000Y-88062857D01*
X122682857Y-88148571D01*
X122682857Y-88277142D01*
X122640000Y-88362857D01*
X122597142Y-88405714D01*
X122511428Y-88448571D01*
X122168571Y-88448571D01*
X123540000Y-88877142D02*
X123025714Y-88877142D01*
X123282857Y-88877142D02*
X123282857Y-87977142D01*
X123197142Y-88105714D01*
X123111428Y-88191428D01*
X123025714Y-88234285D01*
X124097142Y-87977142D02*
X124182857Y-87977142D01*
X124268571Y-88020000D01*
X124311428Y-88062857D01*
X124354285Y-88148571D01*
X124397142Y-88320000D01*
X124397142Y-88534285D01*
X124354285Y-88705714D01*
X124311428Y-88791428D01*
X124268571Y-88834285D01*
X124182857Y-88877142D01*
X124097142Y-88877142D01*
X124011428Y-88834285D01*
X123968571Y-88791428D01*
X123925714Y-88705714D01*
X123882857Y-88534285D01*
X123882857Y-88320000D01*
X123925714Y-88148571D01*
X123968571Y-88062857D01*
X124011428Y-88020000D01*
X124097142Y-87977142D01*
X125168571Y-88277142D02*
X125168571Y-88877142D01*
X124954285Y-87934285D02*
X124740000Y-88577142D01*
X125297142Y-88577142D01*
X118082857Y-88777142D02*
X117782857Y-88348571D01*
X117568571Y-88777142D02*
X117568571Y-87877142D01*
X117911428Y-87877142D01*
X117997142Y-87920000D01*
X118040000Y-87962857D01*
X118082857Y-88048571D01*
X118082857Y-88177142D01*
X118040000Y-88262857D01*
X117997142Y-88305714D01*
X117911428Y-88348571D01*
X117568571Y-88348571D01*
X118940000Y-88777142D02*
X118425714Y-88777142D01*
X118682857Y-88777142D02*
X118682857Y-87877142D01*
X118597142Y-88005714D01*
X118511428Y-88091428D01*
X118425714Y-88134285D01*
X119497142Y-87877142D02*
X119582857Y-87877142D01*
X119668571Y-87920000D01*
X119711428Y-87962857D01*
X119754285Y-88048571D01*
X119797142Y-88220000D01*
X119797142Y-88434285D01*
X119754285Y-88605714D01*
X119711428Y-88691428D01*
X119668571Y-88734285D01*
X119582857Y-88777142D01*
X119497142Y-88777142D01*
X119411428Y-88734285D01*
X119368571Y-88691428D01*
X119325714Y-88605714D01*
X119282857Y-88434285D01*
X119282857Y-88220000D01*
X119325714Y-88048571D01*
X119368571Y-87962857D01*
X119411428Y-87920000D01*
X119497142Y-87877142D01*
X120611428Y-87877142D02*
X120182857Y-87877142D01*
X120140000Y-88305714D01*
X120182857Y-88262857D01*
X120268571Y-88220000D01*
X120482857Y-88220000D01*
X120568571Y-88262857D01*
X120611428Y-88305714D01*
X120654285Y-88391428D01*
X120654285Y-88605714D01*
X120611428Y-88691428D01*
X120568571Y-88734285D01*
X120482857Y-88777142D01*
X120268571Y-88777142D01*
X120182857Y-88734285D01*
X120140000Y-88691428D01*
X93997142Y-51791428D02*
X93568571Y-52091428D01*
X93997142Y-52305714D02*
X93097142Y-52305714D01*
X93097142Y-51962857D01*
X93140000Y-51877142D01*
X93182857Y-51834285D01*
X93268571Y-51791428D01*
X93397142Y-51791428D01*
X93482857Y-51834285D01*
X93525714Y-51877142D01*
X93568571Y-51962857D01*
X93568571Y-52305714D01*
X93997142Y-51405714D02*
X93097142Y-51405714D01*
X93997142Y-50891428D01*
X93097142Y-50891428D01*
X93997142Y-49991428D02*
X93997142Y-50505714D01*
X93997142Y-50248571D02*
X93097142Y-50248571D01*
X93225714Y-50334285D01*
X93311428Y-50420000D01*
X93354285Y-50505714D01*
X79328571Y-62607142D02*
X79028571Y-62178571D01*
X78814285Y-62607142D02*
X78814285Y-61707142D01*
X79157142Y-61707142D01*
X79242857Y-61750000D01*
X79285714Y-61792857D01*
X79328571Y-61878571D01*
X79328571Y-62007142D01*
X79285714Y-62092857D01*
X79242857Y-62135714D01*
X79157142Y-62178571D01*
X78814285Y-62178571D01*
X79714285Y-62607142D02*
X79714285Y-61707142D01*
X80228571Y-62607142D01*
X80228571Y-61707142D01*
X80614285Y-61792857D02*
X80657142Y-61750000D01*
X80742857Y-61707142D01*
X80957142Y-61707142D01*
X81042857Y-61750000D01*
X81085714Y-61792857D01*
X81128571Y-61878571D01*
X81128571Y-61964285D01*
X81085714Y-62092857D01*
X80571428Y-62607142D01*
X81128571Y-62607142D01*
X92762690Y-53618477D02*
X92853603Y-53103299D01*
X92399035Y-53254822D02*
X93035431Y-52618426D01*
X93277867Y-52860862D01*
X93308172Y-52951776D01*
X93308172Y-53012385D01*
X93277867Y-53103299D01*
X93186954Y-53194213D01*
X93096040Y-53224517D01*
X93035431Y-53224517D01*
X92944517Y-53194213D01*
X92702081Y-52951776D01*
X93035431Y-53891218D02*
X93671827Y-53254822D01*
X93399086Y-54254873D01*
X94035482Y-53618477D01*
X94277918Y-53860913D02*
X94671878Y-54254873D01*
X94217309Y-54285177D01*
X94308223Y-54376091D01*
X94338528Y-54467005D01*
X94338528Y-54527614D01*
X94308223Y-54618528D01*
X94156700Y-54770051D01*
X94065786Y-54800355D01*
X94005177Y-54800355D01*
X93914264Y-54770051D01*
X93732436Y-54588223D01*
X93702132Y-54497309D01*
X93702132Y-54436700D01*
X83768571Y-65877142D02*
X83468571Y-65448571D01*
X83254285Y-65877142D02*
X83254285Y-64977142D01*
X83597142Y-64977142D01*
X83682857Y-65020000D01*
X83725714Y-65062857D01*
X83768571Y-65148571D01*
X83768571Y-65277142D01*
X83725714Y-65362857D01*
X83682857Y-65405714D01*
X83597142Y-65448571D01*
X83254285Y-65448571D01*
X84154285Y-65877142D02*
X84154285Y-64977142D01*
X84668571Y-65877142D01*
X84668571Y-64977142D01*
X85482857Y-65277142D02*
X85482857Y-65877142D01*
X85268571Y-64934285D02*
X85054285Y-65577142D01*
X85611428Y-65577142D01*
X114868571Y-62177142D02*
X114568571Y-61748571D01*
X114354285Y-62177142D02*
X114354285Y-61277142D01*
X114697142Y-61277142D01*
X114782857Y-61320000D01*
X114825714Y-61362857D01*
X114868571Y-61448571D01*
X114868571Y-61577142D01*
X114825714Y-61662857D01*
X114782857Y-61705714D01*
X114697142Y-61748571D01*
X114354285Y-61748571D01*
X115254285Y-62177142D02*
X115254285Y-61277142D01*
X115768571Y-62177142D01*
X115768571Y-61277142D01*
X116625714Y-61277142D02*
X116197142Y-61277142D01*
X116154285Y-61705714D01*
X116197142Y-61662857D01*
X116282857Y-61620000D01*
X116497142Y-61620000D01*
X116582857Y-61662857D01*
X116625714Y-61705714D01*
X116668571Y-61791428D01*
X116668571Y-62005714D01*
X116625714Y-62091428D01*
X116582857Y-62134285D01*
X116497142Y-62177142D01*
X116282857Y-62177142D01*
X116197142Y-62134285D01*
X116154285Y-62091428D01*
X117268571Y-66977142D02*
X116968571Y-66548571D01*
X116754285Y-66977142D02*
X116754285Y-66077142D01*
X117097142Y-66077142D01*
X117182857Y-66120000D01*
X117225714Y-66162857D01*
X117268571Y-66248571D01*
X117268571Y-66377142D01*
X117225714Y-66462857D01*
X117182857Y-66505714D01*
X117097142Y-66548571D01*
X116754285Y-66548571D01*
X117654285Y-66977142D02*
X117654285Y-66077142D01*
X118168571Y-66977142D01*
X118168571Y-66077142D01*
X118982857Y-66077142D02*
X118811428Y-66077142D01*
X118725714Y-66120000D01*
X118682857Y-66162857D01*
X118597142Y-66291428D01*
X118554285Y-66462857D01*
X118554285Y-66805714D01*
X118597142Y-66891428D01*
X118640000Y-66934285D01*
X118725714Y-66977142D01*
X118897142Y-66977142D01*
X118982857Y-66934285D01*
X119025714Y-66891428D01*
X119068571Y-66805714D01*
X119068571Y-66591428D01*
X119025714Y-66505714D01*
X118982857Y-66462857D01*
X118897142Y-66420000D01*
X118725714Y-66420000D01*
X118640000Y-66462857D01*
X118597142Y-66505714D01*
X118554285Y-66591428D01*
X117268571Y-72277142D02*
X116968571Y-71848571D01*
X116754285Y-72277142D02*
X116754285Y-71377142D01*
X117097142Y-71377142D01*
X117182857Y-71420000D01*
X117225714Y-71462857D01*
X117268571Y-71548571D01*
X117268571Y-71677142D01*
X117225714Y-71762857D01*
X117182857Y-71805714D01*
X117097142Y-71848571D01*
X116754285Y-71848571D01*
X117654285Y-72277142D02*
X117654285Y-71377142D01*
X118168571Y-72277142D01*
X118168571Y-71377142D01*
X118511428Y-71377142D02*
X119111428Y-71377142D01*
X118725714Y-72277142D01*
X70325714Y-77677142D02*
X70025714Y-77248571D01*
X69811428Y-77677142D02*
X69811428Y-76777142D01*
X70154285Y-76777142D01*
X70240000Y-76820000D01*
X70282857Y-76862857D01*
X70325714Y-76948571D01*
X70325714Y-77077142D01*
X70282857Y-77162857D01*
X70240000Y-77205714D01*
X70154285Y-77248571D01*
X69811428Y-77248571D01*
X70582857Y-76777142D02*
X70882857Y-77677142D01*
X71182857Y-76777142D01*
X71954285Y-77677142D02*
X71440000Y-77677142D01*
X71697142Y-77677142D02*
X71697142Y-76777142D01*
X71611428Y-76905714D01*
X71525714Y-76991428D01*
X71440000Y-77034285D01*
X72468571Y-77162857D02*
X72382857Y-77120000D01*
X72340000Y-77077142D01*
X72297142Y-76991428D01*
X72297142Y-76948571D01*
X72340000Y-76862857D01*
X72382857Y-76820000D01*
X72468571Y-76777142D01*
X72640000Y-76777142D01*
X72725714Y-76820000D01*
X72768571Y-76862857D01*
X72811428Y-76948571D01*
X72811428Y-76991428D01*
X72768571Y-77077142D01*
X72725714Y-77120000D01*
X72640000Y-77162857D01*
X72468571Y-77162857D01*
X72382857Y-77205714D01*
X72340000Y-77248571D01*
X72297142Y-77334285D01*
X72297142Y-77505714D01*
X72340000Y-77591428D01*
X72382857Y-77634285D01*
X72468571Y-77677142D01*
X72640000Y-77677142D01*
X72725714Y-77634285D01*
X72768571Y-77591428D01*
X72811428Y-77505714D01*
X72811428Y-77334285D01*
X72768571Y-77248571D01*
X72725714Y-77205714D01*
X72640000Y-77162857D01*
X82725714Y-82777142D02*
X82425714Y-82348571D01*
X82211428Y-82777142D02*
X82211428Y-81877142D01*
X82554285Y-81877142D01*
X82640000Y-81920000D01*
X82682857Y-81962857D01*
X82725714Y-82048571D01*
X82725714Y-82177142D01*
X82682857Y-82262857D01*
X82640000Y-82305714D01*
X82554285Y-82348571D01*
X82211428Y-82348571D01*
X82982857Y-81877142D02*
X83282857Y-82777142D01*
X83582857Y-81877142D01*
X83840000Y-81962857D02*
X83882857Y-81920000D01*
X83968571Y-81877142D01*
X84182857Y-81877142D01*
X84268571Y-81920000D01*
X84311428Y-81962857D01*
X84354285Y-82048571D01*
X84354285Y-82134285D01*
X84311428Y-82262857D01*
X83797142Y-82777142D01*
X84354285Y-82777142D01*
X85125714Y-82177142D02*
X85125714Y-82777142D01*
X84911428Y-81834285D02*
X84697142Y-82477142D01*
X85254285Y-82477142D01*
X81553629Y-52636624D02*
X81038451Y-53151801D01*
X81008147Y-53242715D01*
X81008147Y-53303324D01*
X81038451Y-53394238D01*
X81159669Y-53515456D01*
X81250583Y-53545761D01*
X81311192Y-53545761D01*
X81402106Y-53515456D01*
X81917284Y-53000279D01*
X82129416Y-53333629D02*
X82190025Y-53333629D01*
X82280939Y-53363933D01*
X82432462Y-53515456D01*
X82462766Y-53606370D01*
X82462766Y-53666979D01*
X82432462Y-53757893D01*
X82371852Y-53818502D01*
X82250634Y-53879111D01*
X81523324Y-53879111D01*
X81917284Y-54273071D01*
X79004285Y-47377142D02*
X79004285Y-48105714D01*
X79047142Y-48191428D01*
X79090000Y-48234285D01*
X79175714Y-48277142D01*
X79347142Y-48277142D01*
X79432857Y-48234285D01*
X79475714Y-48191428D01*
X79518571Y-48105714D01*
X79518571Y-47377142D01*
X80332857Y-47677142D02*
X80332857Y-48277142D01*
X80118571Y-47334285D02*
X79904285Y-47977142D01*
X80461428Y-47977142D01*
X94304285Y-43477142D02*
X94304285Y-44205714D01*
X94347142Y-44291428D01*
X94390000Y-44334285D01*
X94475714Y-44377142D01*
X94647142Y-44377142D01*
X94732857Y-44334285D01*
X94775714Y-44291428D01*
X94818571Y-44205714D01*
X94818571Y-43477142D01*
X95632857Y-43477142D02*
X95461428Y-43477142D01*
X95375714Y-43520000D01*
X95332857Y-43562857D01*
X95247142Y-43691428D01*
X95204285Y-43862857D01*
X95204285Y-44205714D01*
X95247142Y-44291428D01*
X95290000Y-44334285D01*
X95375714Y-44377142D01*
X95547142Y-44377142D01*
X95632857Y-44334285D01*
X95675714Y-44291428D01*
X95718571Y-44205714D01*
X95718571Y-43991428D01*
X95675714Y-43905714D01*
X95632857Y-43862857D01*
X95547142Y-43820000D01*
X95375714Y-43820000D01*
X95290000Y-43862857D01*
X95247142Y-43905714D01*
X95204285Y-43991428D01*
X111704285Y-81077142D02*
X111704285Y-81805714D01*
X111747142Y-81891428D01*
X111790000Y-81934285D01*
X111875714Y-81977142D01*
X112047142Y-81977142D01*
X112132857Y-81934285D01*
X112175714Y-81891428D01*
X112218571Y-81805714D01*
X112218571Y-81077142D01*
X112561428Y-81077142D02*
X113161428Y-81077142D01*
X112775714Y-81977142D01*
X126904285Y-42477142D02*
X126904285Y-43205714D01*
X126947142Y-43291428D01*
X126990000Y-43334285D01*
X127075714Y-43377142D01*
X127247142Y-43377142D01*
X127332857Y-43334285D01*
X127375714Y-43291428D01*
X127418571Y-43205714D01*
X127418571Y-42477142D01*
X127975714Y-42862857D02*
X127890000Y-42820000D01*
X127847142Y-42777142D01*
X127804285Y-42691428D01*
X127804285Y-42648571D01*
X127847142Y-42562857D01*
X127890000Y-42520000D01*
X127975714Y-42477142D01*
X128147142Y-42477142D01*
X128232857Y-42520000D01*
X128275714Y-42562857D01*
X128318571Y-42648571D01*
X128318571Y-42691428D01*
X128275714Y-42777142D01*
X128232857Y-42820000D01*
X128147142Y-42862857D01*
X127975714Y-42862857D01*
X127890000Y-42905714D01*
X127847142Y-42948571D01*
X127804285Y-43034285D01*
X127804285Y-43205714D01*
X127847142Y-43291428D01*
X127890000Y-43334285D01*
X127975714Y-43377142D01*
X128147142Y-43377142D01*
X128232857Y-43334285D01*
X128275714Y-43291428D01*
X128318571Y-43205714D01*
X128318571Y-43034285D01*
X128275714Y-42948571D01*
X128232857Y-42905714D01*
X128147142Y-42862857D01*
X121904285Y-65877142D02*
X121904285Y-66605714D01*
X121947142Y-66691428D01*
X121990000Y-66734285D01*
X122075714Y-66777142D01*
X122247142Y-66777142D01*
X122332857Y-66734285D01*
X122375714Y-66691428D01*
X122418571Y-66605714D01*
X122418571Y-65877142D01*
X122890000Y-66777142D02*
X123061428Y-66777142D01*
X123147142Y-66734285D01*
X123190000Y-66691428D01*
X123275714Y-66562857D01*
X123318571Y-66391428D01*
X123318571Y-66048571D01*
X123275714Y-65962857D01*
X123232857Y-65920000D01*
X123147142Y-65877142D01*
X122975714Y-65877142D01*
X122890000Y-65920000D01*
X122847142Y-65962857D01*
X122804285Y-66048571D01*
X122804285Y-66262857D01*
X122847142Y-66348571D01*
X122890000Y-66391428D01*
X122975714Y-66434285D01*
X123147142Y-66434285D01*
X123232857Y-66391428D01*
X123275714Y-66348571D01*
X123318571Y-66262857D01*
X111675714Y-43377142D02*
X111675714Y-44105714D01*
X111718571Y-44191428D01*
X111761428Y-44234285D01*
X111847142Y-44277142D01*
X112018571Y-44277142D01*
X112104285Y-44234285D01*
X112147142Y-44191428D01*
X112190000Y-44105714D01*
X112190000Y-43377142D01*
X113090000Y-44277142D02*
X112575714Y-44277142D01*
X112832857Y-44277142D02*
X112832857Y-43377142D01*
X112747142Y-43505714D01*
X112661428Y-43591428D01*
X112575714Y-43634285D01*
X113647142Y-43377142D02*
X113732857Y-43377142D01*
X113818571Y-43420000D01*
X113861428Y-43462857D01*
X113904285Y-43548571D01*
X113947142Y-43720000D01*
X113947142Y-43934285D01*
X113904285Y-44105714D01*
X113861428Y-44191428D01*
X113818571Y-44234285D01*
X113732857Y-44277142D01*
X113647142Y-44277142D01*
X113561428Y-44234285D01*
X113518571Y-44191428D01*
X113475714Y-44105714D01*
X113432857Y-43934285D01*
X113432857Y-43720000D01*
X113475714Y-43548571D01*
X113518571Y-43462857D01*
X113561428Y-43420000D01*
X113647142Y-43377142D01*
X117997142Y-56984285D02*
X118725714Y-56984285D01*
X118811428Y-56941428D01*
X118854285Y-56898571D01*
X118897142Y-56812857D01*
X118897142Y-56641428D01*
X118854285Y-56555714D01*
X118811428Y-56512857D01*
X118725714Y-56470000D01*
X117997142Y-56470000D01*
X118897142Y-55570000D02*
X118897142Y-56084285D01*
X118897142Y-55827142D02*
X117997142Y-55827142D01*
X118125714Y-55912857D01*
X118211428Y-55998571D01*
X118254285Y-56084285D01*
X118897142Y-54712857D02*
X118897142Y-55227142D01*
X118897142Y-54970000D02*
X117997142Y-54970000D01*
X118125714Y-55055714D01*
X118211428Y-55141428D01*
X118254285Y-55227142D01*
M02*
