G04 #@! TF.GenerationSoftware,KiCad,Pcbnew,(2018-01-18 revision 08b15a699)-makepkg*
G04 #@! TF.CreationDate,2018-01-23T16:45:18-05:00*
G04 #@! TF.ProjectId,osa103k,6F73613130336B2E6B696361645F7063,rev?*
G04 #@! TF.SameCoordinates,Original*
G04 #@! TF.FileFunction,Soldermask,Bot*
G04 #@! TF.FilePolarity,Negative*
%FSLAX46Y46*%
G04 Gerber Fmt 4.6, Leading zero omitted, Abs format (unit mm)*
G04 Created by KiCad (PCBNEW (2018-01-18 revision 08b15a699)-makepkg) date 01/23/18 16:45:18*
%MOMM*%
%LPD*%
G01*
G04 APERTURE LIST*
%ADD10C,4.900000*%
%ADD11R,1.400000X1.650000*%
%ADD12R,1.650000X1.400000*%
%ADD13R,1.150000X1.200000*%
%ADD14R,1.200000X1.150000*%
%ADD15R,2.000000X1.400000*%
%ADD16R,5.480000X2.820000*%
%ADD17R,2.100000X2.100000*%
%ADD18O,2.100000X2.100000*%
%ADD19O,1.950000X1.400000*%
%ADD20O,1.350000X1.650000*%
%ADD21R,1.300000X0.900000*%
%ADD22C,0.900000*%
%ADD23C,0.100000*%
%ADD24R,0.900000X1.300000*%
G04 APERTURE END LIST*
D10*
X134590000Y-45020000D03*
X134590000Y-91570000D03*
X61990000Y-45020000D03*
X61990000Y-91520000D03*
D11*
X67450000Y-89770000D03*
X65450000Y-89770000D03*
X69000000Y-82600000D03*
X71000000Y-82600000D03*
D12*
X73660000Y-91932000D03*
X73660000Y-89932000D03*
D13*
X71900000Y-90500000D03*
X71900000Y-92000000D03*
D14*
X78752000Y-80264000D03*
X80252000Y-80264000D03*
X72820000Y-67170000D03*
X71320000Y-67170000D03*
D13*
X105664000Y-56654000D03*
X105664000Y-58154000D03*
D14*
X94990000Y-83420000D03*
X93490000Y-83420000D03*
X95690000Y-81420000D03*
X94190000Y-81420000D03*
X99990000Y-82720000D03*
X101490000Y-82720000D03*
X104140000Y-82804000D03*
X105640000Y-82804000D03*
D13*
X108966000Y-56654000D03*
X108966000Y-58154000D03*
D14*
X112250000Y-83100000D03*
X113750000Y-83100000D03*
D11*
X90694000Y-76962000D03*
X92694000Y-76962000D03*
X90440000Y-65024000D03*
X92440000Y-65024000D03*
D12*
X101850000Y-68350000D03*
X101850000Y-70350000D03*
X106320000Y-62730000D03*
X106320000Y-60730000D03*
X100050000Y-70950000D03*
X100050000Y-72950000D03*
X96460000Y-60710000D03*
X96460000Y-62710000D03*
D13*
X100840000Y-81320000D03*
X100840000Y-79820000D03*
D14*
X109994000Y-73914000D03*
X111494000Y-73914000D03*
X90182000Y-71120000D03*
X91682000Y-71120000D03*
D13*
X98090000Y-79370000D03*
X98090000Y-80870000D03*
D14*
X112510000Y-72136000D03*
X111010000Y-72136000D03*
X109994000Y-69342000D03*
X111494000Y-69342000D03*
D13*
X105156000Y-79768000D03*
X105156000Y-81268000D03*
D15*
X117856000Y-47982000D03*
X117856000Y-44982000D03*
D13*
X98650000Y-62460000D03*
X98650000Y-60960000D03*
X102040000Y-61722000D03*
X102040000Y-60222000D03*
X102616000Y-79756000D03*
X102616000Y-81256000D03*
D15*
X115570000Y-47982000D03*
X115570000Y-44982000D03*
D13*
X93490000Y-62440000D03*
X93490000Y-60940000D03*
D15*
X113284000Y-47982000D03*
X113284000Y-44982000D03*
D13*
X109510000Y-62620000D03*
X109510000Y-61120000D03*
D15*
X110998000Y-44982000D03*
X110998000Y-47982000D03*
D13*
X92710000Y-80010000D03*
X92710000Y-81510000D03*
D15*
X108712000Y-44982000D03*
X108712000Y-47982000D03*
D13*
X104480000Y-61150000D03*
X104480000Y-62650000D03*
D14*
X111494000Y-75692000D03*
X109994000Y-75692000D03*
D13*
X107696000Y-81522000D03*
X107696000Y-80022000D03*
D14*
X91000000Y-69000000D03*
X92500000Y-69000000D03*
X90944000Y-73914000D03*
X92444000Y-73914000D03*
X109994000Y-65278000D03*
X111494000Y-65278000D03*
X90944000Y-66802000D03*
X92444000Y-66802000D03*
X114554000Y-66802000D03*
X113054000Y-66802000D03*
X114530000Y-70612000D03*
X113030000Y-70612000D03*
D13*
X121920000Y-72632000D03*
X121920000Y-71132000D03*
X121158000Y-74688000D03*
X121158000Y-76188000D03*
X122174000Y-55892000D03*
X122174000Y-57392000D03*
X120000000Y-57600000D03*
X120000000Y-56100000D03*
D12*
X131140000Y-85074000D03*
X131140000Y-83074000D03*
X127640000Y-83720000D03*
X127640000Y-85720000D03*
X124140000Y-83720000D03*
X124140000Y-85720000D03*
X120590000Y-85670000D03*
X120590000Y-83670000D03*
D14*
X130060000Y-52832000D03*
X131560000Y-52832000D03*
D16*
X58380000Y-58880000D03*
X58380000Y-50120000D03*
X58380000Y-77720000D03*
X58380000Y-86480000D03*
D17*
X67000000Y-57600000D03*
D18*
X67000000Y-60140000D03*
X67000000Y-62680000D03*
X67000000Y-75280000D03*
X67000000Y-72740000D03*
D17*
X67000000Y-70200000D03*
D18*
X128040000Y-90600000D03*
X125500000Y-90600000D03*
X122960000Y-90600000D03*
X120420000Y-90600000D03*
X117880000Y-90600000D03*
X115340000Y-90600000D03*
D17*
X112800000Y-90600000D03*
D19*
X135490000Y-52820000D03*
X135490000Y-59820000D03*
D20*
X132790000Y-53820000D03*
X132790000Y-58820000D03*
D21*
X69460000Y-56660000D03*
X69460000Y-58160000D03*
X69150000Y-73130000D03*
X69150000Y-74630000D03*
D22*
X69269670Y-85649670D03*
D23*
G36*
X70047487Y-85508249D02*
X69128249Y-86427487D01*
X68491853Y-85791091D01*
X69411091Y-84871853D01*
X70047487Y-85508249D01*
X70047487Y-85508249D01*
G37*
D22*
X70330330Y-86710330D03*
D23*
G36*
X71108147Y-86568909D02*
X70188909Y-87488147D01*
X69552513Y-86851751D01*
X70471751Y-85932513D01*
X71108147Y-86568909D01*
X71108147Y-86568909D01*
G37*
D21*
X73390000Y-87020000D03*
X73390000Y-88520000D03*
X71860000Y-89250000D03*
X71860000Y-87750000D03*
D24*
X80230000Y-81850000D03*
X78730000Y-81850000D03*
D21*
X111760000Y-49542000D03*
X111760000Y-51042000D03*
X110236000Y-51042000D03*
X110236000Y-49542000D03*
X108712000Y-49542000D03*
X108712000Y-51042000D03*
X116900000Y-56650000D03*
X116900000Y-55150000D03*
D24*
X118860000Y-67818000D03*
X117360000Y-67818000D03*
X118352000Y-72644000D03*
X116852000Y-72644000D03*
M02*
