G04 #@! TF.GenerationSoftware,KiCad,Pcbnew,(2018-01-26 revision 0d532b43d)-makepkg*
G04 #@! TF.CreationDate,2018-03-25T21:58:59-04:00*
G04 #@! TF.ProjectId,osa103k,6F73613130336B2E6B696361645F7063,rev?*
G04 #@! TF.SameCoordinates,PX38974e0PY5c3d480*
G04 #@! TF.FileFunction,Legend,Bot*
G04 #@! TF.FilePolarity,Positive*
%FSLAX46Y46*%
G04 Gerber Fmt 4.6, Leading zero omitted, Abs format (unit mm)*
G04 Created by KiCad (PCBNEW (2018-01-26 revision 0d532b43d)-makepkg) date 03/25/18 21:58:59*
%MOMM*%
%LPD*%
G01*
G04 APERTURE LIST*
%ADD10C,0.300000*%
%ADD11C,0.120000*%
%ADD12C,0.150000*%
G04 APERTURE END LIST*
D10*
X43578571Y41842858D02*
X43721428Y41771429D01*
X44007142Y41771429D01*
X44150000Y41842858D01*
X44221428Y41914286D01*
X44292857Y42057143D01*
X44292857Y42485715D01*
X44221428Y42628572D01*
X44150000Y42700000D01*
X44007142Y42771429D01*
X43721428Y42771429D01*
X43578571Y42700000D01*
X42292857Y42771429D02*
X42292857Y41271429D01*
X42292857Y41842858D02*
X42435714Y41771429D01*
X42721428Y41771429D01*
X42864285Y41842858D01*
X42935714Y41914286D01*
X43007142Y42057143D01*
X43007142Y42485715D01*
X42935714Y42628572D01*
X42864285Y42700000D01*
X42721428Y42771429D01*
X42435714Y42771429D01*
X42292857Y42700000D01*
X41578571Y41771429D02*
X41578571Y43271429D01*
X40935714Y41771429D02*
X40935714Y42557143D01*
X41007142Y42700000D01*
X41150000Y42771429D01*
X41364285Y42771429D01*
X41507142Y42700000D01*
X41578571Y42628572D01*
X39578571Y41771429D02*
X39578571Y42557143D01*
X39650000Y42700000D01*
X39792857Y42771429D01*
X40078571Y42771429D01*
X40221428Y42700000D01*
X39578571Y41842858D02*
X39721428Y41771429D01*
X40078571Y41771429D01*
X40221428Y41842858D01*
X40292857Y41985715D01*
X40292857Y42128572D01*
X40221428Y42271429D01*
X40078571Y42342858D01*
X39721428Y42342858D01*
X39578571Y42414286D01*
X38864285Y41771429D02*
X38864285Y42771429D01*
X38864285Y42628572D02*
X38792857Y42700000D01*
X38650000Y42771429D01*
X38435714Y42771429D01*
X38292857Y42700000D01*
X38221428Y42557143D01*
X38221428Y41771429D01*
X38221428Y42557143D02*
X38150000Y42700000D01*
X38007142Y42771429D01*
X37792857Y42771429D01*
X37650000Y42700000D01*
X37578571Y42557143D01*
X37578571Y41771429D01*
X36864285Y41914286D02*
X36792857Y41842858D01*
X36864285Y41771429D01*
X36935714Y41842858D01*
X36864285Y41914286D01*
X36864285Y41771429D01*
X36150000Y41771429D02*
X36150000Y42771429D01*
X36150000Y42485715D02*
X36078571Y42628572D01*
X36007142Y42700000D01*
X35864285Y42771429D01*
X35721428Y42771429D01*
X34578571Y42771429D02*
X34578571Y41771429D01*
X35221428Y42771429D02*
X35221428Y41985715D01*
X35150000Y41842858D01*
X35007142Y41771429D01*
X34792857Y41771429D01*
X34650000Y41842858D01*
X34578571Y41914286D01*
X32792857Y43342858D02*
X34078571Y41414286D01*
X32507142Y42771429D02*
X31935714Y42771429D01*
X32292857Y41771429D02*
X32292857Y43057143D01*
X32221428Y43200000D01*
X32078571Y43271429D01*
X31935714Y43271429D01*
X31221428Y41771429D02*
X31364285Y41842858D01*
X31435714Y41914286D01*
X31507142Y42057143D01*
X31507142Y42485715D01*
X31435714Y42628572D01*
X31364285Y42700000D01*
X31221428Y42771429D01*
X31007142Y42771429D01*
X30864285Y42700000D01*
X30792857Y42628572D01*
X30721428Y42485715D01*
X30721428Y42057143D01*
X30792857Y41914286D01*
X30864285Y41842858D01*
X31007142Y41771429D01*
X31221428Y41771429D01*
X30078571Y41771429D02*
X30078571Y42771429D01*
X30078571Y42485715D02*
X30007142Y42628572D01*
X29935714Y42700000D01*
X29792857Y42771429D01*
X29650000Y42771429D01*
X28507142Y42771429D02*
X28507142Y41771429D01*
X29150000Y42771429D02*
X29150000Y41985715D01*
X29078571Y41842858D01*
X28935714Y41771429D01*
X28721428Y41771429D01*
X28578571Y41842858D01*
X28507142Y41914286D01*
X27792857Y41771429D02*
X27792857Y42771429D01*
X27792857Y42628572D02*
X27721428Y42700000D01*
X27578571Y42771429D01*
X27364285Y42771429D01*
X27221428Y42700000D01*
X27150000Y42557143D01*
X27150000Y41771429D01*
X27150000Y42557143D02*
X27078571Y42700000D01*
X26935714Y42771429D01*
X26721428Y42771429D01*
X26578571Y42700000D01*
X26507142Y42557143D01*
X26507142Y41771429D01*
X24721428Y43342858D02*
X26007142Y41414286D01*
X24292857Y41842858D02*
X24150000Y41771429D01*
X23864285Y41771429D01*
X23721428Y41842858D01*
X23650000Y41985715D01*
X23650000Y42057143D01*
X23721428Y42200000D01*
X23864285Y42271429D01*
X24078571Y42271429D01*
X24221428Y42342858D01*
X24292857Y42485715D01*
X24292857Y42557143D01*
X24221428Y42700000D01*
X24078571Y42771429D01*
X23864285Y42771429D01*
X23721428Y42700000D01*
X23007142Y41771429D02*
X23007142Y43271429D01*
X22364285Y41771429D02*
X22364285Y42557143D01*
X22435714Y42700000D01*
X22578571Y42771429D01*
X22792857Y42771429D01*
X22935714Y42700000D01*
X23007142Y42628572D01*
X21435714Y41771429D02*
X21578571Y41842858D01*
X21650000Y41914286D01*
X21721428Y42057143D01*
X21721428Y42485715D01*
X21650000Y42628572D01*
X21578571Y42700000D01*
X21435714Y42771429D01*
X21221428Y42771429D01*
X21078571Y42700000D01*
X21007142Y42628572D01*
X20935714Y42485715D01*
X20935714Y42057143D01*
X21007142Y41914286D01*
X21078571Y41842858D01*
X21221428Y41771429D01*
X21435714Y41771429D01*
X20435714Y42771429D02*
X20150000Y41771429D01*
X19864285Y42485715D01*
X19578571Y41771429D01*
X19292857Y42771429D01*
X18935714Y42771429D02*
X18364285Y42771429D01*
X18721428Y43271429D02*
X18721428Y41985715D01*
X18650000Y41842858D01*
X18507142Y41771429D01*
X18364285Y41771429D01*
X17864285Y41771429D02*
X17864285Y43271429D01*
X17221428Y41771429D02*
X17221428Y42557143D01*
X17292857Y42700000D01*
X17435714Y42771429D01*
X17650000Y42771429D01*
X17792857Y42700000D01*
X17864285Y42628572D01*
X16507142Y41771429D02*
X16507142Y42771429D01*
X16507142Y42485715D02*
X16435714Y42628572D01*
X16364285Y42700000D01*
X16221428Y42771429D01*
X16078571Y42771429D01*
X15007142Y41842858D02*
X15150000Y41771429D01*
X15435714Y41771429D01*
X15578571Y41842858D01*
X15650000Y41985715D01*
X15650000Y42557143D01*
X15578571Y42700000D01*
X15435714Y42771429D01*
X15150000Y42771429D01*
X15007142Y42700000D01*
X14935714Y42557143D01*
X14935714Y42414286D01*
X15650000Y42271429D01*
X13650000Y41771429D02*
X13650000Y42557143D01*
X13721428Y42700000D01*
X13864285Y42771429D01*
X14150000Y42771429D01*
X14292857Y42700000D01*
X13650000Y41842858D02*
X13792857Y41771429D01*
X14150000Y41771429D01*
X14292857Y41842858D01*
X14364285Y41985715D01*
X14364285Y42128572D01*
X14292857Y42271429D01*
X14150000Y42342858D01*
X13792857Y42342858D01*
X13650000Y42414286D01*
X12292857Y41771429D02*
X12292857Y43271429D01*
X12292857Y41842858D02*
X12435714Y41771429D01*
X12721428Y41771429D01*
X12864285Y41842858D01*
X12935714Y41914286D01*
X13007142Y42057143D01*
X13007142Y42485715D01*
X12935714Y42628572D01*
X12864285Y42700000D01*
X12721428Y42771429D01*
X12435714Y42771429D01*
X12292857Y42700000D01*
X11578571Y41914286D02*
X11507142Y41842858D01*
X11578571Y41771429D01*
X11650000Y41842858D01*
X11578571Y41914286D01*
X11578571Y41771429D01*
X10864285Y42771429D02*
X10864285Y41271429D01*
X10864285Y42700000D02*
X10721428Y42771429D01*
X10435714Y42771429D01*
X10292857Y42700000D01*
X10221428Y42628572D01*
X10150000Y42485715D01*
X10150000Y42057143D01*
X10221428Y41914286D01*
X10292857Y41842858D01*
X10435714Y41771429D01*
X10721428Y41771429D01*
X10864285Y41842858D01*
X9507142Y41771429D02*
X9507142Y43271429D01*
X8864285Y41771429D02*
X8864285Y42557143D01*
X8935714Y42700000D01*
X9078571Y42771429D01*
X9292857Y42771429D01*
X9435714Y42700000D01*
X9507142Y42628572D01*
X8150000Y42771429D02*
X8150000Y41271429D01*
X8150000Y42700000D02*
X8007142Y42771429D01*
X7721428Y42771429D01*
X7578571Y42700000D01*
X7507142Y42628572D01*
X7435714Y42485715D01*
X7435714Y42057143D01*
X7507142Y41914286D01*
X7578571Y41842858D01*
X7721428Y41771429D01*
X8007142Y41771429D01*
X8150000Y41842858D01*
X6578571Y41914286D02*
X6507142Y41842858D01*
X6578571Y41771429D01*
X6650000Y41842858D01*
X6578571Y41914286D01*
X6578571Y41771429D01*
X6864285Y43200000D02*
X6721428Y43271429D01*
X6364285Y43271429D01*
X6221428Y43200000D01*
X6150000Y43057143D01*
X6150000Y42914286D01*
X6221428Y42771429D01*
X6292857Y42700000D01*
X6435714Y42628572D01*
X6507142Y42557143D01*
X6578571Y42414286D01*
X6578571Y42342858D01*
X5650000Y43271429D02*
X4721428Y43271429D01*
X5221428Y42700000D01*
X5007142Y42700000D01*
X4864285Y42628572D01*
X4792857Y42557143D01*
X4721428Y42414286D01*
X4721428Y42057143D01*
X4792857Y41914286D01*
X4864285Y41842858D01*
X5007142Y41771429D01*
X5435714Y41771429D01*
X5578571Y41842858D01*
X5650000Y41914286D01*
X3435714Y42771429D02*
X3435714Y41771429D01*
X3792857Y43342858D02*
X4150000Y42271429D01*
X3221428Y42271429D01*
X2364285Y43271429D02*
X2221428Y43271429D01*
X2078571Y43200000D01*
X2007142Y43128572D01*
X1935714Y42985715D01*
X1864285Y42700000D01*
X1864285Y42342858D01*
X1935714Y42057143D01*
X2007142Y41914286D01*
X2078571Y41842858D01*
X2221428Y41771429D01*
X2364285Y41771429D01*
X2507142Y41842858D01*
X2578571Y41914286D01*
X2650000Y42057143D01*
X2721428Y42342858D01*
X2721428Y42700000D01*
X2650000Y42985715D01*
X2578571Y43128572D01*
X2507142Y43200000D01*
X2364285Y43271429D01*
X1364285Y43271429D02*
X364285Y43271429D01*
X1007142Y41771429D01*
X-421429Y42628572D02*
X-278572Y42700000D01*
X-207143Y42771429D01*
X-135715Y42914286D01*
X-135715Y42985715D01*
X-207143Y43128572D01*
X-278572Y43200000D01*
X-421429Y43271429D01*
X-707143Y43271429D01*
X-850000Y43200000D01*
X-921429Y43128572D01*
X-992858Y42985715D01*
X-992858Y42914286D01*
X-921429Y42771429D01*
X-850000Y42700000D01*
X-707143Y42628572D01*
X-421429Y42628572D01*
X-278572Y42557143D01*
X-207143Y42485715D01*
X-135715Y42342858D01*
X-135715Y42057143D01*
X-207143Y41914286D01*
X-278572Y41842858D01*
X-421429Y41771429D01*
X-707143Y41771429D01*
X-850000Y41842858D01*
X-921429Y41914286D01*
X-992858Y42057143D01*
X-992858Y42342858D01*
X-921429Y42485715D01*
X-850000Y42557143D01*
X-707143Y42628572D01*
X69635714Y20192858D02*
X67835714Y20192858D01*
X69635714Y21221429D01*
X67835714Y21221429D01*
X68435714Y22250000D02*
X68435714Y22421429D01*
X68950000Y21907143D02*
X69035714Y22078572D01*
X69035714Y22421429D01*
X68950000Y22592858D01*
X68778571Y22678572D01*
X68692857Y22678572D01*
X68521428Y22592858D01*
X68435714Y22421429D01*
X68350000Y22592858D01*
X68178571Y22678572D01*
X68092857Y22678572D01*
X67921428Y22592858D01*
X67835714Y22421429D01*
X67835714Y22078572D01*
X67921428Y21907143D01*
X67835714Y23450000D02*
X69035714Y23450000D01*
X68092857Y23964286D01*
X69035714Y24478572D01*
X67835714Y24478572D01*
X67921428Y26021429D02*
X67835714Y25850000D01*
X67835714Y25507143D01*
X67921428Y25335715D01*
X68092857Y25250000D01*
X68778571Y25250000D01*
X68950000Y25335715D01*
X69035714Y25507143D01*
X69035714Y25850000D01*
X68950000Y26021429D01*
X68778571Y26107143D01*
X68607142Y26107143D01*
X68435714Y25250000D01*
X69035714Y26878572D02*
X67235714Y26878572D01*
X68950000Y26878572D02*
X69035714Y27050000D01*
X69035714Y27392858D01*
X68950000Y27564286D01*
X68864285Y27650000D01*
X68692857Y27735715D01*
X68178571Y27735715D01*
X68007142Y27650000D01*
X67921428Y27564286D01*
X67835714Y27392858D01*
X67835714Y27050000D01*
X67921428Y26878572D01*
X69035714Y28507143D02*
X67835714Y28507143D01*
X69035714Y29364286D01*
X67835714Y29364286D01*
X69035714Y29964286D02*
X69035714Y30821429D01*
X69035714Y30392858D02*
X67835714Y30392858D01*
X67921428Y32107143D02*
X67835714Y31935715D01*
X67835714Y31592858D01*
X67921428Y31421429D01*
X68092857Y31335715D01*
X68778571Y31335715D01*
X68950000Y31421429D01*
X69035714Y31592858D01*
X69035714Y31935715D01*
X68950000Y32107143D01*
X68778571Y32192858D01*
X68607142Y32192858D01*
X68435714Y31335715D01*
X67835714Y33650000D02*
X69035714Y33650000D01*
X69035714Y33392858D01*
X68950000Y33221429D01*
X68778571Y33135715D01*
X68092857Y33050000D01*
X67921428Y32964286D01*
X67835714Y32792858D01*
X69035714Y34507143D02*
X67835714Y34507143D01*
X67835714Y34935715D01*
X67921428Y35107143D01*
X68092857Y35192858D01*
X68350000Y35192858D01*
X68521428Y35107143D01*
X68607142Y34935715D01*
X68607142Y34507143D01*
X68435714Y35964286D02*
X68435714Y36735715D01*
X69035714Y35964286D02*
X67835714Y35964286D01*
X69035714Y36735715D02*
X67835714Y36735715D01*
X69035714Y38792858D02*
X67835714Y38792858D01*
X69035714Y37592858D02*
X67835714Y37592858D01*
X67835714Y38021429D01*
X67921428Y38192858D01*
X68092857Y38278572D01*
X68350000Y38278572D01*
X68521428Y38192858D01*
X68607142Y38021429D01*
X68607142Y37592858D01*
X69035714Y39650000D02*
X67835714Y39650000D01*
X69035714Y40507143D01*
X67835714Y40507143D01*
X69721428Y39735715D02*
X69550000Y39821429D01*
X69464285Y39992858D01*
X69464285Y40164286D01*
X69550000Y40335715D01*
X69721428Y40421429D01*
X67835714Y42735715D02*
X69035714Y42735715D01*
X69035714Y43507143D01*
X67835714Y43507143D01*
X69035714Y44364286D02*
X67235714Y44364286D01*
X68950000Y44364286D02*
X69035714Y44535715D01*
X69035714Y44878572D01*
X68950000Y45050000D01*
X68864285Y45135715D01*
X68692857Y45221429D01*
X68178571Y45221429D01*
X68007142Y45135715D01*
X67921428Y45050000D01*
X67835714Y44878572D01*
X67835714Y44535715D01*
X67921428Y44364286D01*
X69035714Y45992858D02*
X67835714Y45992858D01*
X69035714Y46850000D01*
X67835714Y46850000D01*
X69721428Y48564286D02*
X69635714Y48478572D01*
X69550000Y48307143D01*
X69550000Y47964286D01*
X69464285Y47792858D01*
X69378571Y47707143D01*
X69207142Y47621429D01*
X68178571Y47621429D01*
X68007142Y47707143D01*
X67921428Y47792858D01*
X67835714Y47964286D01*
X67835714Y48221429D01*
X67921428Y48392858D01*
X68007142Y48478572D01*
X68178571Y48564286D01*
X68692857Y48564286D01*
X68864285Y48478572D01*
X68950000Y48392858D01*
X69035714Y48221429D01*
X69035714Y47878572D01*
X68950000Y47707143D01*
X68864285Y47621429D01*
X67835714Y49592858D02*
X67921428Y49421429D01*
X68007142Y49335715D01*
X68178571Y49250000D01*
X68692857Y49250000D01*
X68864285Y49335715D01*
X68950000Y49421429D01*
X69035714Y49592858D01*
X69035714Y49850000D01*
X68950000Y50021429D01*
X68864285Y50107143D01*
X68692857Y50192858D01*
X68178571Y50192858D01*
X68007142Y50107143D01*
X67921428Y50021429D01*
X67835714Y49850000D01*
X67835714Y49592858D01*
X69035714Y50964286D02*
X67235714Y50964286D01*
X68950000Y50964286D02*
X69035714Y51135715D01*
X69035714Y51478572D01*
X68950000Y51650000D01*
X68864285Y51735715D01*
X68692857Y51821429D01*
X68178571Y51821429D01*
X68007142Y51735715D01*
X67921428Y51650000D01*
X67835714Y51478572D01*
X67835714Y51135715D01*
X67921428Y50964286D01*
X66635714Y28892858D02*
X66635714Y29235715D01*
X66550000Y29407143D01*
X66378571Y29578572D01*
X66035714Y29664286D01*
X65435714Y29664286D01*
X65092857Y29578572D01*
X64921428Y29407143D01*
X64835714Y29235715D01*
X64835714Y28892858D01*
X64921428Y28721429D01*
X65092857Y28550000D01*
X65435714Y28464286D01*
X66035714Y28464286D01*
X66378571Y28550000D01*
X66550000Y28721429D01*
X66635714Y28892858D01*
X64921428Y30350000D02*
X64835714Y30607143D01*
X64835714Y31035715D01*
X64921428Y31207143D01*
X65007142Y31292858D01*
X65178571Y31378572D01*
X65350000Y31378572D01*
X65521428Y31292858D01*
X65607142Y31207143D01*
X65692857Y31035715D01*
X65778571Y30692858D01*
X65864285Y30521429D01*
X65950000Y30435715D01*
X66121428Y30350000D01*
X66292857Y30350000D01*
X66464285Y30435715D01*
X66550000Y30521429D01*
X66635714Y30692858D01*
X66635714Y31121429D01*
X66550000Y31378572D01*
X65350000Y32064286D02*
X65350000Y32921429D01*
X64835714Y31892858D02*
X66635714Y32492858D01*
X64835714Y33092858D01*
X64835714Y34635715D02*
X64835714Y33607143D01*
X64835714Y34121429D02*
X66635714Y34121429D01*
X66378571Y33950000D01*
X66207142Y33778572D01*
X66121428Y33607143D01*
X66635714Y35750000D02*
X66635714Y35921429D01*
X66550000Y36092858D01*
X66464285Y36178572D01*
X66292857Y36264286D01*
X65950000Y36350000D01*
X65521428Y36350000D01*
X65178571Y36264286D01*
X65007142Y36178572D01*
X64921428Y36092858D01*
X64835714Y35921429D01*
X64835714Y35750000D01*
X64921428Y35578572D01*
X65007142Y35492858D01*
X65178571Y35407143D01*
X65521428Y35321429D01*
X65950000Y35321429D01*
X66292857Y35407143D01*
X66464285Y35492858D01*
X66550000Y35578572D01*
X66635714Y35750000D01*
X66635714Y36950000D02*
X66635714Y38064286D01*
X65950000Y37464286D01*
X65950000Y37721429D01*
X65864285Y37892858D01*
X65778571Y37978572D01*
X65607142Y38064286D01*
X65178571Y38064286D01*
X65007142Y37978572D01*
X64921428Y37892858D01*
X64835714Y37721429D01*
X64835714Y37207143D01*
X64921428Y37035715D01*
X65007142Y36950000D01*
X64835714Y40207143D02*
X66635714Y40207143D01*
X65350000Y40807143D01*
X66635714Y41407143D01*
X64835714Y41407143D01*
X64835714Y42264286D02*
X66035714Y42264286D01*
X66635714Y42264286D02*
X66550000Y42178572D01*
X66464285Y42264286D01*
X66550000Y42350000D01*
X66635714Y42264286D01*
X66464285Y42264286D01*
X66035714Y43121429D02*
X64835714Y43121429D01*
X65864285Y43121429D02*
X65950000Y43207143D01*
X66035714Y43378572D01*
X66035714Y43635715D01*
X65950000Y43807143D01*
X65778571Y43892858D01*
X64835714Y43892858D01*
X64835714Y44750000D02*
X66035714Y44750000D01*
X66635714Y44750000D02*
X66550000Y44664286D01*
X66464285Y44750000D01*
X66550000Y44835715D01*
X66635714Y44750000D01*
X66464285Y44750000D01*
D11*
X6610000Y7800000D02*
X7610000Y7800000D01*
X7610000Y6100000D02*
X6610000Y6100000D01*
X11160000Y13270000D02*
X10160000Y13270000D01*
X10160000Y14970000D02*
X11160000Y14970000D01*
X15170000Y6288000D02*
X15170000Y5288000D01*
X13470000Y5288000D02*
X13470000Y6288000D01*
X11960000Y5820000D02*
X11960000Y5120000D01*
X13160000Y5120000D02*
X13160000Y5820000D01*
X19812000Y15856000D02*
X20512000Y15856000D01*
X20512000Y17056000D02*
X19812000Y17056000D01*
X13080000Y30150000D02*
X12380000Y30150000D01*
X12380000Y28950000D02*
X13080000Y28950000D01*
X45724000Y39666000D02*
X45724000Y38966000D01*
X46924000Y38966000D02*
X46924000Y39666000D01*
X35250000Y13900000D02*
X34550000Y13900000D01*
X34550000Y12700000D02*
X35250000Y12700000D01*
X35950000Y15900000D02*
X35250000Y15900000D01*
X35250000Y14700000D02*
X35950000Y14700000D01*
X41050000Y13400000D02*
X41750000Y13400000D01*
X41750000Y14600000D02*
X41050000Y14600000D01*
X45200000Y13316000D02*
X45900000Y13316000D01*
X45900000Y14516000D02*
X45200000Y14516000D01*
X49026000Y39666000D02*
X49026000Y38966000D01*
X50226000Y38966000D02*
X50226000Y39666000D01*
X53310000Y13020000D02*
X54010000Y13020000D01*
X54010000Y14220000D02*
X53310000Y14220000D01*
X32854000Y18908000D02*
X31854000Y18908000D01*
X31854000Y20608000D02*
X32854000Y20608000D01*
X32600000Y30846000D02*
X31600000Y30846000D01*
X31600000Y32546000D02*
X32600000Y32546000D01*
X41660000Y26870000D02*
X41660000Y27870000D01*
X43360000Y27870000D02*
X43360000Y26870000D01*
X47830000Y35490000D02*
X47830000Y34490000D01*
X46130000Y34490000D02*
X46130000Y35490000D01*
X39860000Y24270000D02*
X39860000Y25270000D01*
X41560000Y25270000D02*
X41560000Y24270000D01*
X36270000Y34510000D02*
X36270000Y35510000D01*
X37970000Y35510000D02*
X37970000Y34510000D01*
X42100000Y15800000D02*
X42100000Y16500000D01*
X40900000Y16500000D02*
X40900000Y15800000D01*
X51054000Y22206000D02*
X51754000Y22206000D01*
X51754000Y23406000D02*
X51054000Y23406000D01*
X31242000Y25000000D02*
X31942000Y25000000D01*
X31942000Y26200000D02*
X31242000Y26200000D01*
X38150000Y16950000D02*
X38150000Y16250000D01*
X39350000Y16250000D02*
X39350000Y16950000D01*
X52770000Y25184000D02*
X52070000Y25184000D01*
X52070000Y23984000D02*
X52770000Y23984000D01*
X51054000Y26778000D02*
X51754000Y26778000D01*
X51754000Y27978000D02*
X51054000Y27978000D01*
X45216000Y16552000D02*
X45216000Y15852000D01*
X46416000Y15852000D02*
X46416000Y16552000D01*
X59536000Y51238000D02*
X59536000Y49238000D01*
X57496000Y49238000D02*
X57496000Y51238000D01*
X39910000Y34660000D02*
X39910000Y35360000D01*
X38710000Y35360000D02*
X38710000Y34660000D01*
X43300000Y35398000D02*
X43300000Y36098000D01*
X42100000Y36098000D02*
X42100000Y35398000D01*
X42676000Y16564000D02*
X42676000Y15864000D01*
X43876000Y15864000D02*
X43876000Y16564000D01*
X57250000Y51238000D02*
X57250000Y49238000D01*
X55210000Y49238000D02*
X55210000Y51238000D01*
X34750000Y34680000D02*
X34750000Y35380000D01*
X33550000Y35380000D02*
X33550000Y34680000D01*
X54964000Y51238000D02*
X54964000Y49238000D01*
X52924000Y49238000D02*
X52924000Y51238000D01*
X50770000Y34500000D02*
X50770000Y35200000D01*
X49570000Y35200000D02*
X49570000Y34500000D01*
X50638000Y49238000D02*
X50638000Y51238000D01*
X52678000Y51238000D02*
X52678000Y49238000D01*
X32770000Y16310000D02*
X32770000Y15610000D01*
X33970000Y15610000D02*
X33970000Y16310000D01*
X48352000Y49238000D02*
X48352000Y51238000D01*
X50392000Y51238000D02*
X50392000Y49238000D01*
X44540000Y35170000D02*
X44540000Y34470000D01*
X45740000Y34470000D02*
X45740000Y35170000D01*
X51754000Y21628000D02*
X51054000Y21628000D01*
X51054000Y20428000D02*
X51754000Y20428000D01*
X48956000Y15598000D02*
X48956000Y16298000D01*
X47756000Y16298000D02*
X47756000Y15598000D01*
X32060000Y27120000D02*
X32760000Y27120000D01*
X32760000Y28320000D02*
X32060000Y28320000D01*
X32004000Y22206000D02*
X32704000Y22206000D01*
X32704000Y23406000D02*
X32004000Y23406000D01*
X51054000Y30842000D02*
X51754000Y30842000D01*
X51754000Y32042000D02*
X51054000Y32042000D01*
X32004000Y29318000D02*
X32704000Y29318000D01*
X32704000Y30518000D02*
X32004000Y30518000D01*
X54814000Y30518000D02*
X54114000Y30518000D01*
X54114000Y29318000D02*
X54814000Y29318000D01*
X54790000Y26708000D02*
X54090000Y26708000D01*
X54090000Y25508000D02*
X54790000Y25508000D01*
X63180000Y24488000D02*
X63180000Y25188000D01*
X61980000Y25188000D02*
X61980000Y24488000D01*
X61218000Y21632000D02*
X61218000Y20932000D01*
X62418000Y20932000D02*
X62418000Y21632000D01*
X62234000Y40428000D02*
X62234000Y39728000D01*
X63434000Y39728000D02*
X63434000Y40428000D01*
X61260000Y39520000D02*
X61260000Y40220000D01*
X60060000Y40220000D02*
X60060000Y39520000D01*
X72650000Y13146000D02*
X72650000Y12146000D01*
X70950000Y12146000D02*
X70950000Y13146000D01*
X67450000Y11500000D02*
X67450000Y12500000D01*
X69150000Y12500000D02*
X69150000Y11500000D01*
X63950000Y11500000D02*
X63950000Y12500000D01*
X65650000Y12500000D02*
X65650000Y11500000D01*
X62100000Y12550000D02*
X62100000Y11550000D01*
X60400000Y11550000D02*
X60400000Y12550000D01*
X71120000Y43288000D02*
X71820000Y43288000D01*
X71820000Y44488000D02*
X71120000Y44488000D01*
X10800000Y38810000D02*
X10800000Y39810000D01*
X9440000Y39810000D02*
X9440000Y38810000D01*
X10490000Y22340000D02*
X10490000Y23340000D01*
X9130000Y23340000D02*
X9130000Y22340000D01*
X11294386Y10667279D02*
X10587279Y11374386D01*
X9625614Y10412721D02*
X10332721Y9705614D01*
X14730000Y8450000D02*
X14730000Y9450000D01*
X13370000Y9450000D02*
X13370000Y8450000D01*
X11840000Y8720000D02*
X11840000Y7720000D01*
X13200000Y7720000D02*
X13200000Y8720000D01*
X19640000Y14190000D02*
X20640000Y14190000D01*
X20640000Y15550000D02*
X19640000Y15550000D01*
X53100000Y45928000D02*
X53100000Y46928000D01*
X51740000Y46928000D02*
X51740000Y45928000D01*
X50216000Y46928000D02*
X50216000Y45928000D01*
X51576000Y45928000D02*
X51576000Y46928000D01*
X50052000Y45928000D02*
X50052000Y46928000D01*
X48692000Y46928000D02*
X48692000Y45928000D01*
X56880000Y41320000D02*
X56880000Y40320000D01*
X58240000Y40320000D02*
X58240000Y41320000D01*
X58270000Y28222000D02*
X59270000Y28222000D01*
X59270000Y29582000D02*
X58270000Y29582000D01*
X57762000Y23396000D02*
X58762000Y23396000D01*
X58762000Y24756000D02*
X57762000Y24756000D01*
D12*
X7688571Y8128572D02*
X7731428Y8085715D01*
X7860000Y8042858D01*
X7945714Y8042858D01*
X8074285Y8085715D01*
X8160000Y8171429D01*
X8202857Y8257143D01*
X8245714Y8428572D01*
X8245714Y8557143D01*
X8202857Y8728572D01*
X8160000Y8814286D01*
X8074285Y8900000D01*
X7945714Y8942858D01*
X7860000Y8942858D01*
X7731428Y8900000D01*
X7688571Y8857143D01*
X6831428Y8042858D02*
X7345714Y8042858D01*
X7088571Y8042858D02*
X7088571Y8942858D01*
X7174285Y8814286D01*
X7260000Y8728572D01*
X7345714Y8685715D01*
X6274285Y8942858D02*
X6188571Y8942858D01*
X6102857Y8900000D01*
X6060000Y8857143D01*
X6017142Y8771429D01*
X5974285Y8600000D01*
X5974285Y8385715D01*
X6017142Y8214286D01*
X6060000Y8128572D01*
X6102857Y8085715D01*
X6188571Y8042858D01*
X6274285Y8042858D01*
X6360000Y8085715D01*
X6402857Y8128572D01*
X6445714Y8214286D01*
X6488571Y8385715D01*
X6488571Y8600000D01*
X6445714Y8771429D01*
X6402857Y8857143D01*
X6360000Y8900000D01*
X6274285Y8942858D01*
X11238571Y15298572D02*
X11281428Y15255715D01*
X11410000Y15212858D01*
X11495714Y15212858D01*
X11624285Y15255715D01*
X11710000Y15341429D01*
X11752857Y15427143D01*
X11795714Y15598572D01*
X11795714Y15727143D01*
X11752857Y15898572D01*
X11710000Y15984286D01*
X11624285Y16070000D01*
X11495714Y16112858D01*
X11410000Y16112858D01*
X11281428Y16070000D01*
X11238571Y16027143D01*
X10381428Y15212858D02*
X10895714Y15212858D01*
X10638571Y15212858D02*
X10638571Y16112858D01*
X10724285Y15984286D01*
X10810000Y15898572D01*
X10895714Y15855715D01*
X10081428Y16112858D02*
X9524285Y16112858D01*
X9824285Y15770000D01*
X9695714Y15770000D01*
X9610000Y15727143D01*
X9567142Y15684286D01*
X9524285Y15598572D01*
X9524285Y15384286D01*
X9567142Y15298572D01*
X9610000Y15255715D01*
X9695714Y15212858D01*
X9952857Y15212858D01*
X10038571Y15255715D01*
X10081428Y15298572D01*
X16371428Y6028572D02*
X16414285Y6071429D01*
X16457142Y6200000D01*
X16457142Y6285715D01*
X16414285Y6414286D01*
X16328571Y6500000D01*
X16242857Y6542858D01*
X16071428Y6585715D01*
X15942857Y6585715D01*
X15771428Y6542858D01*
X15685714Y6500000D01*
X15600000Y6414286D01*
X15557142Y6285715D01*
X15557142Y6200000D01*
X15600000Y6071429D01*
X15642857Y6028572D01*
X16457142Y5171429D02*
X16457142Y5685715D01*
X16457142Y5428572D02*
X15557142Y5428572D01*
X15685714Y5514286D01*
X15771428Y5600000D01*
X15814285Y5685715D01*
X15857142Y4400000D02*
X16457142Y4400000D01*
X15514285Y4614286D02*
X16157142Y4828572D01*
X16157142Y4271429D01*
X11381428Y6048572D02*
X11424285Y6091429D01*
X11467142Y6220000D01*
X11467142Y6305715D01*
X11424285Y6434286D01*
X11338571Y6520000D01*
X11252857Y6562858D01*
X11081428Y6605715D01*
X10952857Y6605715D01*
X10781428Y6562858D01*
X10695714Y6520000D01*
X10610000Y6434286D01*
X10567142Y6305715D01*
X10567142Y6220000D01*
X10610000Y6091429D01*
X10652857Y6048572D01*
X11467142Y5191429D02*
X11467142Y5705715D01*
X11467142Y5448572D02*
X10567142Y5448572D01*
X10695714Y5534286D01*
X10781428Y5620000D01*
X10824285Y5705715D01*
X10567142Y4420000D02*
X10567142Y4591429D01*
X10610000Y4677143D01*
X10652857Y4720000D01*
X10781428Y4805715D01*
X10952857Y4848572D01*
X11295714Y4848572D01*
X11381428Y4805715D01*
X11424285Y4762858D01*
X11467142Y4677143D01*
X11467142Y4505715D01*
X11424285Y4420000D01*
X11381428Y4377143D01*
X11295714Y4334286D01*
X11081428Y4334286D01*
X10995714Y4377143D01*
X10952857Y4420000D01*
X10910000Y4505715D01*
X10910000Y4677143D01*
X10952857Y4762858D01*
X10995714Y4805715D01*
X11081428Y4848572D01*
X20628571Y17928572D02*
X20671428Y17885715D01*
X20800000Y17842858D01*
X20885714Y17842858D01*
X21014285Y17885715D01*
X21100000Y17971429D01*
X21142857Y18057143D01*
X21185714Y18228572D01*
X21185714Y18357143D01*
X21142857Y18528572D01*
X21100000Y18614286D01*
X21014285Y18700000D01*
X20885714Y18742858D01*
X20800000Y18742858D01*
X20671428Y18700000D01*
X20628571Y18657143D01*
X20285714Y18657143D02*
X20242857Y18700000D01*
X20157142Y18742858D01*
X19942857Y18742858D01*
X19857142Y18700000D01*
X19814285Y18657143D01*
X19771428Y18571429D01*
X19771428Y18485715D01*
X19814285Y18357143D01*
X20328571Y17842858D01*
X19771428Y17842858D01*
X18914285Y17842858D02*
X19428571Y17842858D01*
X19171428Y17842858D02*
X19171428Y18742858D01*
X19257142Y18614286D01*
X19342857Y18528572D01*
X19428571Y18485715D01*
X13308571Y27728572D02*
X13351428Y27685715D01*
X13480000Y27642858D01*
X13565714Y27642858D01*
X13694285Y27685715D01*
X13780000Y27771429D01*
X13822857Y27857143D01*
X13865714Y28028572D01*
X13865714Y28157143D01*
X13822857Y28328572D01*
X13780000Y28414286D01*
X13694285Y28500000D01*
X13565714Y28542858D01*
X13480000Y28542858D01*
X13351428Y28500000D01*
X13308571Y28457143D01*
X13008571Y28542858D02*
X12451428Y28542858D01*
X12751428Y28200000D01*
X12622857Y28200000D01*
X12537142Y28157143D01*
X12494285Y28114286D01*
X12451428Y28028572D01*
X12451428Y27814286D01*
X12494285Y27728572D01*
X12537142Y27685715D01*
X12622857Y27642858D01*
X12880000Y27642858D01*
X12965714Y27685715D01*
X13008571Y27728572D01*
X12151428Y28542858D02*
X11551428Y28542858D01*
X11937142Y27642858D01*
X45371428Y40728572D02*
X45414285Y40771429D01*
X45457142Y40900000D01*
X45457142Y40985715D01*
X45414285Y41114286D01*
X45328571Y41200000D01*
X45242857Y41242858D01*
X45071428Y41285715D01*
X44942857Y41285715D01*
X44771428Y41242858D01*
X44685714Y41200000D01*
X44600000Y41114286D01*
X44557142Y40985715D01*
X44557142Y40900000D01*
X44600000Y40771429D01*
X44642857Y40728572D01*
X44857142Y39957143D02*
X45457142Y39957143D01*
X44514285Y40171429D02*
X45157142Y40385715D01*
X45157142Y39828572D01*
X45457142Y39014286D02*
X45457142Y39528572D01*
X45457142Y39271429D02*
X44557142Y39271429D01*
X44685714Y39357143D01*
X44771428Y39442858D01*
X44814285Y39528572D01*
X35478571Y11478572D02*
X35521428Y11435715D01*
X35650000Y11392858D01*
X35735714Y11392858D01*
X35864285Y11435715D01*
X35950000Y11521429D01*
X35992857Y11607143D01*
X36035714Y11778572D01*
X36035714Y11907143D01*
X35992857Y12078572D01*
X35950000Y12164286D01*
X35864285Y12250000D01*
X35735714Y12292858D01*
X35650000Y12292858D01*
X35521428Y12250000D01*
X35478571Y12207143D01*
X34707142Y11992858D02*
X34707142Y11392858D01*
X34921428Y12335715D02*
X35135714Y11692858D01*
X34578571Y11692858D01*
X34321428Y12292858D02*
X33721428Y12292858D01*
X34107142Y11392858D01*
X36128571Y16428572D02*
X36171428Y16385715D01*
X36300000Y16342858D01*
X36385714Y16342858D01*
X36514285Y16385715D01*
X36600000Y16471429D01*
X36642857Y16557143D01*
X36685714Y16728572D01*
X36685714Y16857143D01*
X36642857Y17028572D01*
X36600000Y17114286D01*
X36514285Y17200000D01*
X36385714Y17242858D01*
X36300000Y17242858D01*
X36171428Y17200000D01*
X36128571Y17157143D01*
X35357142Y16942858D02*
X35357142Y16342858D01*
X35571428Y17285715D02*
X35785714Y16642858D01*
X35228571Y16642858D01*
X34757142Y16857143D02*
X34842857Y16900000D01*
X34885714Y16942858D01*
X34928571Y17028572D01*
X34928571Y17071429D01*
X34885714Y17157143D01*
X34842857Y17200000D01*
X34757142Y17242858D01*
X34585714Y17242858D01*
X34500000Y17200000D01*
X34457142Y17157143D01*
X34414285Y17071429D01*
X34414285Y17028572D01*
X34457142Y16942858D01*
X34500000Y16900000D01*
X34585714Y16857143D01*
X34757142Y16857143D01*
X34842857Y16814286D01*
X34885714Y16771429D01*
X34928571Y16685715D01*
X34928571Y16514286D01*
X34885714Y16428572D01*
X34842857Y16385715D01*
X34757142Y16342858D01*
X34585714Y16342858D01*
X34500000Y16385715D01*
X34457142Y16428572D01*
X34414285Y16514286D01*
X34414285Y16685715D01*
X34457142Y16771429D01*
X34500000Y16814286D01*
X34585714Y16857143D01*
X41978571Y12178572D02*
X42021428Y12135715D01*
X42150000Y12092858D01*
X42235714Y12092858D01*
X42364285Y12135715D01*
X42450000Y12221429D01*
X42492857Y12307143D01*
X42535714Y12478572D01*
X42535714Y12607143D01*
X42492857Y12778572D01*
X42450000Y12864286D01*
X42364285Y12950000D01*
X42235714Y12992858D01*
X42150000Y12992858D01*
X42021428Y12950000D01*
X41978571Y12907143D01*
X41207142Y12692858D02*
X41207142Y12092858D01*
X41421428Y13035715D02*
X41635714Y12392858D01*
X41078571Y12392858D01*
X40692857Y12092858D02*
X40521428Y12092858D01*
X40435714Y12135715D01*
X40392857Y12178572D01*
X40307142Y12307143D01*
X40264285Y12478572D01*
X40264285Y12821429D01*
X40307142Y12907143D01*
X40350000Y12950000D01*
X40435714Y12992858D01*
X40607142Y12992858D01*
X40692857Y12950000D01*
X40735714Y12907143D01*
X40778571Y12821429D01*
X40778571Y12607143D01*
X40735714Y12521429D01*
X40692857Y12478572D01*
X40607142Y12435715D01*
X40435714Y12435715D01*
X40350000Y12478572D01*
X40307142Y12521429D01*
X40264285Y12607143D01*
X46128571Y12094572D02*
X46171428Y12051715D01*
X46300000Y12008858D01*
X46385714Y12008858D01*
X46514285Y12051715D01*
X46600000Y12137429D01*
X46642857Y12223143D01*
X46685714Y12394572D01*
X46685714Y12523143D01*
X46642857Y12694572D01*
X46600000Y12780286D01*
X46514285Y12866000D01*
X46385714Y12908858D01*
X46300000Y12908858D01*
X46171428Y12866000D01*
X46128571Y12823143D01*
X45314285Y12908858D02*
X45742857Y12908858D01*
X45785714Y12480286D01*
X45742857Y12523143D01*
X45657142Y12566000D01*
X45442857Y12566000D01*
X45357142Y12523143D01*
X45314285Y12480286D01*
X45271428Y12394572D01*
X45271428Y12180286D01*
X45314285Y12094572D01*
X45357142Y12051715D01*
X45442857Y12008858D01*
X45657142Y12008858D01*
X45742857Y12051715D01*
X45785714Y12094572D01*
X44414285Y12008858D02*
X44928571Y12008858D01*
X44671428Y12008858D02*
X44671428Y12908858D01*
X44757142Y12780286D01*
X44842857Y12694572D01*
X44928571Y12651715D01*
X51447428Y39894572D02*
X51490285Y39937429D01*
X51533142Y40066000D01*
X51533142Y40151715D01*
X51490285Y40280286D01*
X51404571Y40366000D01*
X51318857Y40408858D01*
X51147428Y40451715D01*
X51018857Y40451715D01*
X50847428Y40408858D01*
X50761714Y40366000D01*
X50676000Y40280286D01*
X50633142Y40151715D01*
X50633142Y40066000D01*
X50676000Y39937429D01*
X50718857Y39894572D01*
X50633142Y39080286D02*
X50633142Y39508858D01*
X51061714Y39551715D01*
X51018857Y39508858D01*
X50976000Y39423143D01*
X50976000Y39208858D01*
X51018857Y39123143D01*
X51061714Y39080286D01*
X51147428Y39037429D01*
X51361714Y39037429D01*
X51447428Y39080286D01*
X51490285Y39123143D01*
X51533142Y39208858D01*
X51533142Y39423143D01*
X51490285Y39508858D01*
X51447428Y39551715D01*
X50718857Y38694572D02*
X50676000Y38651715D01*
X50633142Y38566000D01*
X50633142Y38351715D01*
X50676000Y38266000D01*
X50718857Y38223143D01*
X50804571Y38180286D01*
X50890285Y38180286D01*
X51018857Y38223143D01*
X51533142Y38737429D01*
X51533142Y38180286D01*
X54238571Y14798572D02*
X54281428Y14755715D01*
X54410000Y14712858D01*
X54495714Y14712858D01*
X54624285Y14755715D01*
X54710000Y14841429D01*
X54752857Y14927143D01*
X54795714Y15098572D01*
X54795714Y15227143D01*
X54752857Y15398572D01*
X54710000Y15484286D01*
X54624285Y15570000D01*
X54495714Y15612858D01*
X54410000Y15612858D01*
X54281428Y15570000D01*
X54238571Y15527143D01*
X53424285Y15612858D02*
X53852857Y15612858D01*
X53895714Y15184286D01*
X53852857Y15227143D01*
X53767142Y15270000D01*
X53552857Y15270000D01*
X53467142Y15227143D01*
X53424285Y15184286D01*
X53381428Y15098572D01*
X53381428Y14884286D01*
X53424285Y14798572D01*
X53467142Y14755715D01*
X53552857Y14712858D01*
X53767142Y14712858D01*
X53852857Y14755715D01*
X53895714Y14798572D01*
X52610000Y15312858D02*
X52610000Y14712858D01*
X52824285Y15655715D02*
X53038571Y15012858D01*
X52481428Y15012858D01*
X36128571Y19428572D02*
X36171428Y19385715D01*
X36300000Y19342858D01*
X36385714Y19342858D01*
X36514285Y19385715D01*
X36600000Y19471429D01*
X36642857Y19557143D01*
X36685714Y19728572D01*
X36685714Y19857143D01*
X36642857Y20028572D01*
X36600000Y20114286D01*
X36514285Y20200000D01*
X36385714Y20242858D01*
X36300000Y20242858D01*
X36171428Y20200000D01*
X36128571Y20157143D01*
X35314285Y20242858D02*
X35742857Y20242858D01*
X35785714Y19814286D01*
X35742857Y19857143D01*
X35657142Y19900000D01*
X35442857Y19900000D01*
X35357142Y19857143D01*
X35314285Y19814286D01*
X35271428Y19728572D01*
X35271428Y19514286D01*
X35314285Y19428572D01*
X35357142Y19385715D01*
X35442857Y19342858D01*
X35657142Y19342858D01*
X35742857Y19385715D01*
X35785714Y19428572D01*
X34457142Y20242858D02*
X34885714Y20242858D01*
X34928571Y19814286D01*
X34885714Y19857143D01*
X34800000Y19900000D01*
X34585714Y19900000D01*
X34500000Y19857143D01*
X34457142Y19814286D01*
X34414285Y19728572D01*
X34414285Y19514286D01*
X34457142Y19428572D01*
X34500000Y19385715D01*
X34585714Y19342858D01*
X34800000Y19342858D01*
X34885714Y19385715D01*
X34928571Y19428572D01*
X29528571Y31328572D02*
X29571428Y31285715D01*
X29700000Y31242858D01*
X29785714Y31242858D01*
X29914285Y31285715D01*
X30000000Y31371429D01*
X30042857Y31457143D01*
X30085714Y31628572D01*
X30085714Y31757143D01*
X30042857Y31928572D01*
X30000000Y32014286D01*
X29914285Y32100000D01*
X29785714Y32142858D01*
X29700000Y32142858D01*
X29571428Y32100000D01*
X29528571Y32057143D01*
X28714285Y32142858D02*
X29142857Y32142858D01*
X29185714Y31714286D01*
X29142857Y31757143D01*
X29057142Y31800000D01*
X28842857Y31800000D01*
X28757142Y31757143D01*
X28714285Y31714286D01*
X28671428Y31628572D01*
X28671428Y31414286D01*
X28714285Y31328572D01*
X28757142Y31285715D01*
X28842857Y31242858D01*
X29057142Y31242858D01*
X29142857Y31285715D01*
X29185714Y31328572D01*
X28371428Y32142858D02*
X27771428Y32142858D01*
X28157142Y31242858D01*
X44571428Y28428572D02*
X44614285Y28471429D01*
X44657142Y28600000D01*
X44657142Y28685715D01*
X44614285Y28814286D01*
X44528571Y28900000D01*
X44442857Y28942858D01*
X44271428Y28985715D01*
X44142857Y28985715D01*
X43971428Y28942858D01*
X43885714Y28900000D01*
X43800000Y28814286D01*
X43757142Y28685715D01*
X43757142Y28600000D01*
X43800000Y28471429D01*
X43842857Y28428572D01*
X43757142Y27614286D02*
X43757142Y28042858D01*
X44185714Y28085715D01*
X44142857Y28042858D01*
X44100000Y27957143D01*
X44100000Y27742858D01*
X44142857Y27657143D01*
X44185714Y27614286D01*
X44271428Y27571429D01*
X44485714Y27571429D01*
X44571428Y27614286D01*
X44614285Y27657143D01*
X44657142Y27742858D01*
X44657142Y27957143D01*
X44614285Y28042858D01*
X44571428Y28085715D01*
X44142857Y27057143D02*
X44100000Y27142858D01*
X44057142Y27185715D01*
X43971428Y27228572D01*
X43928571Y27228572D01*
X43842857Y27185715D01*
X43800000Y27142858D01*
X43757142Y27057143D01*
X43757142Y26885715D01*
X43800000Y26800000D01*
X43842857Y26757143D01*
X43928571Y26714286D01*
X43971428Y26714286D01*
X44057142Y26757143D01*
X44100000Y26800000D01*
X44142857Y26885715D01*
X44142857Y27057143D01*
X44185714Y27142858D01*
X44228571Y27185715D01*
X44314285Y27228572D01*
X44485714Y27228572D01*
X44571428Y27185715D01*
X44614285Y27142858D01*
X44657142Y27057143D01*
X44657142Y26885715D01*
X44614285Y26800000D01*
X44571428Y26757143D01*
X44485714Y26714286D01*
X44314285Y26714286D01*
X44228571Y26757143D01*
X44185714Y26800000D01*
X44142857Y26885715D01*
X48371428Y38728572D02*
X48414285Y38771429D01*
X48457142Y38900000D01*
X48457142Y38985715D01*
X48414285Y39114286D01*
X48328571Y39200000D01*
X48242857Y39242858D01*
X48071428Y39285715D01*
X47942857Y39285715D01*
X47771428Y39242858D01*
X47685714Y39200000D01*
X47600000Y39114286D01*
X47557142Y38985715D01*
X47557142Y38900000D01*
X47600000Y38771429D01*
X47642857Y38728572D01*
X47557142Y37914286D02*
X47557142Y38342858D01*
X47985714Y38385715D01*
X47942857Y38342858D01*
X47900000Y38257143D01*
X47900000Y38042858D01*
X47942857Y37957143D01*
X47985714Y37914286D01*
X48071428Y37871429D01*
X48285714Y37871429D01*
X48371428Y37914286D01*
X48414285Y37957143D01*
X48457142Y38042858D01*
X48457142Y38257143D01*
X48414285Y38342858D01*
X48371428Y38385715D01*
X48457142Y37442858D02*
X48457142Y37271429D01*
X48414285Y37185715D01*
X48371428Y37142858D01*
X48242857Y37057143D01*
X48071428Y37014286D01*
X47728571Y37014286D01*
X47642857Y37057143D01*
X47600000Y37100000D01*
X47557142Y37185715D01*
X47557142Y37357143D01*
X47600000Y37442858D01*
X47642857Y37485715D01*
X47728571Y37528572D01*
X47942857Y37528572D01*
X48028571Y37485715D01*
X48071428Y37442858D01*
X48114285Y37357143D01*
X48114285Y37185715D01*
X48071428Y37100000D01*
X48028571Y37057143D01*
X47942857Y37014286D01*
X42871428Y24728572D02*
X42914285Y24771429D01*
X42957142Y24900000D01*
X42957142Y24985715D01*
X42914285Y25114286D01*
X42828571Y25200000D01*
X42742857Y25242858D01*
X42571428Y25285715D01*
X42442857Y25285715D01*
X42271428Y25242858D01*
X42185714Y25200000D01*
X42100000Y25114286D01*
X42057142Y24985715D01*
X42057142Y24900000D01*
X42100000Y24771429D01*
X42142857Y24728572D01*
X42057142Y23957143D02*
X42057142Y24128572D01*
X42100000Y24214286D01*
X42142857Y24257143D01*
X42271428Y24342858D01*
X42442857Y24385715D01*
X42785714Y24385715D01*
X42871428Y24342858D01*
X42914285Y24300000D01*
X42957142Y24214286D01*
X42957142Y24042858D01*
X42914285Y23957143D01*
X42871428Y23914286D01*
X42785714Y23871429D01*
X42571428Y23871429D01*
X42485714Y23914286D01*
X42442857Y23957143D01*
X42400000Y24042858D01*
X42400000Y24214286D01*
X42442857Y24300000D01*
X42485714Y24342858D01*
X42571428Y24385715D01*
X42057142Y23314286D02*
X42057142Y23228572D01*
X42100000Y23142858D01*
X42142857Y23100000D01*
X42228571Y23057143D01*
X42400000Y23014286D01*
X42614285Y23014286D01*
X42785714Y23057143D01*
X42871428Y23100000D01*
X42914285Y23142858D01*
X42957142Y23228572D01*
X42957142Y23314286D01*
X42914285Y23400000D01*
X42871428Y23442858D01*
X42785714Y23485715D01*
X42614285Y23528572D01*
X42400000Y23528572D01*
X42228571Y23485715D01*
X42142857Y23442858D01*
X42100000Y23400000D01*
X42057142Y23314286D01*
X37371428Y32328572D02*
X37414285Y32371429D01*
X37457142Y32500000D01*
X37457142Y32585715D01*
X37414285Y32714286D01*
X37328571Y32800000D01*
X37242857Y32842858D01*
X37071428Y32885715D01*
X36942857Y32885715D01*
X36771428Y32842858D01*
X36685714Y32800000D01*
X36600000Y32714286D01*
X36557142Y32585715D01*
X36557142Y32500000D01*
X36600000Y32371429D01*
X36642857Y32328572D01*
X36557142Y31557143D02*
X36557142Y31728572D01*
X36600000Y31814286D01*
X36642857Y31857143D01*
X36771428Y31942858D01*
X36942857Y31985715D01*
X37285714Y31985715D01*
X37371428Y31942858D01*
X37414285Y31900000D01*
X37457142Y31814286D01*
X37457142Y31642858D01*
X37414285Y31557143D01*
X37371428Y31514286D01*
X37285714Y31471429D01*
X37071428Y31471429D01*
X36985714Y31514286D01*
X36942857Y31557143D01*
X36900000Y31642858D01*
X36900000Y31814286D01*
X36942857Y31900000D01*
X36985714Y31942858D01*
X37071428Y31985715D01*
X37457142Y30614286D02*
X37457142Y31128572D01*
X37457142Y30871429D02*
X36557142Y30871429D01*
X36685714Y30957143D01*
X36771428Y31042858D01*
X36814285Y31128572D01*
X41871428Y19628572D02*
X41914285Y19671429D01*
X41957142Y19800000D01*
X41957142Y19885715D01*
X41914285Y20014286D01*
X41828571Y20100000D01*
X41742857Y20142858D01*
X41571428Y20185715D01*
X41442857Y20185715D01*
X41271428Y20142858D01*
X41185714Y20100000D01*
X41100000Y20014286D01*
X41057142Y19885715D01*
X41057142Y19800000D01*
X41100000Y19671429D01*
X41142857Y19628572D01*
X41057142Y18857143D02*
X41057142Y19028572D01*
X41100000Y19114286D01*
X41142857Y19157143D01*
X41271428Y19242858D01*
X41442857Y19285715D01*
X41785714Y19285715D01*
X41871428Y19242858D01*
X41914285Y19200000D01*
X41957142Y19114286D01*
X41957142Y18942858D01*
X41914285Y18857143D01*
X41871428Y18814286D01*
X41785714Y18771429D01*
X41571428Y18771429D01*
X41485714Y18814286D01*
X41442857Y18857143D01*
X41400000Y18942858D01*
X41400000Y19114286D01*
X41442857Y19200000D01*
X41485714Y19242858D01*
X41571428Y19285715D01*
X41057142Y18471429D02*
X41057142Y17914286D01*
X41400000Y18214286D01*
X41400000Y18085715D01*
X41442857Y18000000D01*
X41485714Y17957143D01*
X41571428Y17914286D01*
X41785714Y17914286D01*
X41871428Y17957143D01*
X41914285Y18000000D01*
X41957142Y18085715D01*
X41957142Y18342858D01*
X41914285Y18428572D01*
X41871428Y18471429D01*
X48928571Y22528572D02*
X48971428Y22485715D01*
X49100000Y22442858D01*
X49185714Y22442858D01*
X49314285Y22485715D01*
X49400000Y22571429D01*
X49442857Y22657143D01*
X49485714Y22828572D01*
X49485714Y22957143D01*
X49442857Y23128572D01*
X49400000Y23214286D01*
X49314285Y23300000D01*
X49185714Y23342858D01*
X49100000Y23342858D01*
X48971428Y23300000D01*
X48928571Y23257143D01*
X48157142Y23342858D02*
X48328571Y23342858D01*
X48414285Y23300000D01*
X48457142Y23257143D01*
X48542857Y23128572D01*
X48585714Y22957143D01*
X48585714Y22614286D01*
X48542857Y22528572D01*
X48500000Y22485715D01*
X48414285Y22442858D01*
X48242857Y22442858D01*
X48157142Y22485715D01*
X48114285Y22528572D01*
X48071428Y22614286D01*
X48071428Y22828572D01*
X48114285Y22914286D01*
X48157142Y22957143D01*
X48242857Y23000000D01*
X48414285Y23000000D01*
X48500000Y22957143D01*
X48542857Y22914286D01*
X48585714Y22828572D01*
X47300000Y23042858D02*
X47300000Y22442858D01*
X47514285Y23385715D02*
X47728571Y22742858D01*
X47171428Y22742858D01*
X35528571Y25228572D02*
X35571428Y25185715D01*
X35700000Y25142858D01*
X35785714Y25142858D01*
X35914285Y25185715D01*
X36000000Y25271429D01*
X36042857Y25357143D01*
X36085714Y25528572D01*
X36085714Y25657143D01*
X36042857Y25828572D01*
X36000000Y25914286D01*
X35914285Y26000000D01*
X35785714Y26042858D01*
X35700000Y26042858D01*
X35571428Y26000000D01*
X35528571Y25957143D01*
X34757142Y26042858D02*
X34928571Y26042858D01*
X35014285Y26000000D01*
X35057142Y25957143D01*
X35142857Y25828572D01*
X35185714Y25657143D01*
X35185714Y25314286D01*
X35142857Y25228572D01*
X35100000Y25185715D01*
X35014285Y25142858D01*
X34842857Y25142858D01*
X34757142Y25185715D01*
X34714285Y25228572D01*
X34671428Y25314286D01*
X34671428Y25528572D01*
X34714285Y25614286D01*
X34757142Y25657143D01*
X34842857Y25700000D01*
X35014285Y25700000D01*
X35100000Y25657143D01*
X35142857Y25614286D01*
X35185714Y25528572D01*
X33857142Y26042858D02*
X34285714Y26042858D01*
X34328571Y25614286D01*
X34285714Y25657143D01*
X34200000Y25700000D01*
X33985714Y25700000D01*
X33900000Y25657143D01*
X33857142Y25614286D01*
X33814285Y25528572D01*
X33814285Y25314286D01*
X33857142Y25228572D01*
X33900000Y25185715D01*
X33985714Y25142858D01*
X34200000Y25142858D01*
X34285714Y25185715D01*
X34328571Y25228572D01*
X39071428Y20028572D02*
X39114285Y20071429D01*
X39157142Y20200000D01*
X39157142Y20285715D01*
X39114285Y20414286D01*
X39028571Y20500000D01*
X38942857Y20542858D01*
X38771428Y20585715D01*
X38642857Y20585715D01*
X38471428Y20542858D01*
X38385714Y20500000D01*
X38300000Y20414286D01*
X38257142Y20285715D01*
X38257142Y20200000D01*
X38300000Y20071429D01*
X38342857Y20028572D01*
X38257142Y19257143D02*
X38257142Y19428572D01*
X38300000Y19514286D01*
X38342857Y19557143D01*
X38471428Y19642858D01*
X38642857Y19685715D01*
X38985714Y19685715D01*
X39071428Y19642858D01*
X39114285Y19600000D01*
X39157142Y19514286D01*
X39157142Y19342858D01*
X39114285Y19257143D01*
X39071428Y19214286D01*
X38985714Y19171429D01*
X38771428Y19171429D01*
X38685714Y19214286D01*
X38642857Y19257143D01*
X38600000Y19342858D01*
X38600000Y19514286D01*
X38642857Y19600000D01*
X38685714Y19642858D01*
X38771428Y19685715D01*
X38257142Y18400000D02*
X38257142Y18571429D01*
X38300000Y18657143D01*
X38342857Y18700000D01*
X38471428Y18785715D01*
X38642857Y18828572D01*
X38985714Y18828572D01*
X39071428Y18785715D01*
X39114285Y18742858D01*
X39157142Y18657143D01*
X39157142Y18485715D01*
X39114285Y18400000D01*
X39071428Y18357143D01*
X38985714Y18314286D01*
X38771428Y18314286D01*
X38685714Y18357143D01*
X38642857Y18400000D01*
X38600000Y18485715D01*
X38600000Y18657143D01*
X38642857Y18742858D01*
X38685714Y18785715D01*
X38771428Y18828572D01*
X49928571Y24228572D02*
X49971428Y24185715D01*
X50100000Y24142858D01*
X50185714Y24142858D01*
X50314285Y24185715D01*
X50400000Y24271429D01*
X50442857Y24357143D01*
X50485714Y24528572D01*
X50485714Y24657143D01*
X50442857Y24828572D01*
X50400000Y24914286D01*
X50314285Y25000000D01*
X50185714Y25042858D01*
X50100000Y25042858D01*
X49971428Y25000000D01*
X49928571Y24957143D01*
X49157142Y25042858D02*
X49328571Y25042858D01*
X49414285Y25000000D01*
X49457142Y24957143D01*
X49542857Y24828572D01*
X49585714Y24657143D01*
X49585714Y24314286D01*
X49542857Y24228572D01*
X49500000Y24185715D01*
X49414285Y24142858D01*
X49242857Y24142858D01*
X49157142Y24185715D01*
X49114285Y24228572D01*
X49071428Y24314286D01*
X49071428Y24528572D01*
X49114285Y24614286D01*
X49157142Y24657143D01*
X49242857Y24700000D01*
X49414285Y24700000D01*
X49500000Y24657143D01*
X49542857Y24614286D01*
X49585714Y24528572D01*
X48771428Y25042858D02*
X48171428Y25042858D01*
X48557142Y24142858D01*
X49228571Y26928572D02*
X49271428Y26885715D01*
X49400000Y26842858D01*
X49485714Y26842858D01*
X49614285Y26885715D01*
X49700000Y26971429D01*
X49742857Y27057143D01*
X49785714Y27228572D01*
X49785714Y27357143D01*
X49742857Y27528572D01*
X49700000Y27614286D01*
X49614285Y27700000D01*
X49485714Y27742858D01*
X49400000Y27742858D01*
X49271428Y27700000D01*
X49228571Y27657143D01*
X48457142Y27742858D02*
X48628571Y27742858D01*
X48714285Y27700000D01*
X48757142Y27657143D01*
X48842857Y27528572D01*
X48885714Y27357143D01*
X48885714Y27014286D01*
X48842857Y26928572D01*
X48800000Y26885715D01*
X48714285Y26842858D01*
X48542857Y26842858D01*
X48457142Y26885715D01*
X48414285Y26928572D01*
X48371428Y27014286D01*
X48371428Y27228572D01*
X48414285Y27314286D01*
X48457142Y27357143D01*
X48542857Y27400000D01*
X48714285Y27400000D01*
X48800000Y27357143D01*
X48842857Y27314286D01*
X48885714Y27228572D01*
X47857142Y27357143D02*
X47942857Y27400000D01*
X47985714Y27442858D01*
X48028571Y27528572D01*
X48028571Y27571429D01*
X47985714Y27657143D01*
X47942857Y27700000D01*
X47857142Y27742858D01*
X47685714Y27742858D01*
X47600000Y27700000D01*
X47557142Y27657143D01*
X47514285Y27571429D01*
X47514285Y27528572D01*
X47557142Y27442858D01*
X47600000Y27400000D01*
X47685714Y27357143D01*
X47857142Y27357143D01*
X47942857Y27314286D01*
X47985714Y27271429D01*
X48028571Y27185715D01*
X48028571Y27014286D01*
X47985714Y26928572D01*
X47942857Y26885715D01*
X47857142Y26842858D01*
X47685714Y26842858D01*
X47600000Y26885715D01*
X47557142Y26928572D01*
X47514285Y27014286D01*
X47514285Y27185715D01*
X47557142Y27271429D01*
X47600000Y27314286D01*
X47685714Y27357143D01*
X46171428Y19628572D02*
X46214285Y19671429D01*
X46257142Y19800000D01*
X46257142Y19885715D01*
X46214285Y20014286D01*
X46128571Y20100000D01*
X46042857Y20142858D01*
X45871428Y20185715D01*
X45742857Y20185715D01*
X45571428Y20142858D01*
X45485714Y20100000D01*
X45400000Y20014286D01*
X45357142Y19885715D01*
X45357142Y19800000D01*
X45400000Y19671429D01*
X45442857Y19628572D01*
X45357142Y18857143D02*
X45357142Y19028572D01*
X45400000Y19114286D01*
X45442857Y19157143D01*
X45571428Y19242858D01*
X45742857Y19285715D01*
X46085714Y19285715D01*
X46171428Y19242858D01*
X46214285Y19200000D01*
X46257142Y19114286D01*
X46257142Y18942858D01*
X46214285Y18857143D01*
X46171428Y18814286D01*
X46085714Y18771429D01*
X45871428Y18771429D01*
X45785714Y18814286D01*
X45742857Y18857143D01*
X45700000Y18942858D01*
X45700000Y19114286D01*
X45742857Y19200000D01*
X45785714Y19242858D01*
X45871428Y19285715D01*
X46257142Y18342858D02*
X46257142Y18171429D01*
X46214285Y18085715D01*
X46171428Y18042858D01*
X46042857Y17957143D01*
X45871428Y17914286D01*
X45528571Y17914286D01*
X45442857Y17957143D01*
X45400000Y18000000D01*
X45357142Y18085715D01*
X45357142Y18257143D01*
X45400000Y18342858D01*
X45442857Y18385715D01*
X45528571Y18428572D01*
X45742857Y18428572D01*
X45828571Y18385715D01*
X45871428Y18342858D01*
X45914285Y18257143D01*
X45914285Y18085715D01*
X45871428Y18000000D01*
X45828571Y17957143D01*
X45742857Y17914286D01*
X60587428Y50816572D02*
X60630285Y50859429D01*
X60673142Y50988000D01*
X60673142Y51073715D01*
X60630285Y51202286D01*
X60544571Y51288000D01*
X60458857Y51330858D01*
X60287428Y51373715D01*
X60158857Y51373715D01*
X59987428Y51330858D01*
X59901714Y51288000D01*
X59816000Y51202286D01*
X59773142Y51073715D01*
X59773142Y50988000D01*
X59816000Y50859429D01*
X59858857Y50816572D01*
X59773142Y50516572D02*
X59773142Y49916572D01*
X60673142Y50302286D01*
X60673142Y49102286D02*
X60673142Y49616572D01*
X60673142Y49359429D02*
X59773142Y49359429D01*
X59901714Y49445143D01*
X59987428Y49530858D01*
X60030285Y49616572D01*
X39671428Y32728572D02*
X39714285Y32771429D01*
X39757142Y32900000D01*
X39757142Y32985715D01*
X39714285Y33114286D01*
X39628571Y33200000D01*
X39542857Y33242858D01*
X39371428Y33285715D01*
X39242857Y33285715D01*
X39071428Y33242858D01*
X38985714Y33200000D01*
X38900000Y33114286D01*
X38857142Y32985715D01*
X38857142Y32900000D01*
X38900000Y32771429D01*
X38942857Y32728572D01*
X38857142Y32428572D02*
X38857142Y31828572D01*
X39757142Y32214286D01*
X38942857Y31528572D02*
X38900000Y31485715D01*
X38857142Y31400000D01*
X38857142Y31185715D01*
X38900000Y31100000D01*
X38942857Y31057143D01*
X39028571Y31014286D01*
X39114285Y31014286D01*
X39242857Y31057143D01*
X39757142Y31571429D01*
X39757142Y31014286D01*
X43071428Y39228572D02*
X43114285Y39271429D01*
X43157142Y39400000D01*
X43157142Y39485715D01*
X43114285Y39614286D01*
X43028571Y39700000D01*
X42942857Y39742858D01*
X42771428Y39785715D01*
X42642857Y39785715D01*
X42471428Y39742858D01*
X42385714Y39700000D01*
X42300000Y39614286D01*
X42257142Y39485715D01*
X42257142Y39400000D01*
X42300000Y39271429D01*
X42342857Y39228572D01*
X42257142Y38928572D02*
X42257142Y38328572D01*
X43157142Y38714286D01*
X42257142Y38071429D02*
X42257142Y37514286D01*
X42600000Y37814286D01*
X42600000Y37685715D01*
X42642857Y37600000D01*
X42685714Y37557143D01*
X42771428Y37514286D01*
X42985714Y37514286D01*
X43071428Y37557143D01*
X43114285Y37600000D01*
X43157142Y37685715D01*
X43157142Y37942858D01*
X43114285Y38028572D01*
X43071428Y38071429D01*
X43571428Y19628572D02*
X43614285Y19671429D01*
X43657142Y19800000D01*
X43657142Y19885715D01*
X43614285Y20014286D01*
X43528571Y20100000D01*
X43442857Y20142858D01*
X43271428Y20185715D01*
X43142857Y20185715D01*
X42971428Y20142858D01*
X42885714Y20100000D01*
X42800000Y20014286D01*
X42757142Y19885715D01*
X42757142Y19800000D01*
X42800000Y19671429D01*
X42842857Y19628572D01*
X42757142Y19328572D02*
X42757142Y18728572D01*
X43657142Y19114286D01*
X43057142Y18000000D02*
X43657142Y18000000D01*
X42714285Y18214286D02*
X43357142Y18428572D01*
X43357142Y17871429D01*
X58128571Y52928572D02*
X58171428Y52885715D01*
X58300000Y52842858D01*
X58385714Y52842858D01*
X58514285Y52885715D01*
X58600000Y52971429D01*
X58642857Y53057143D01*
X58685714Y53228572D01*
X58685714Y53357143D01*
X58642857Y53528572D01*
X58600000Y53614286D01*
X58514285Y53700000D01*
X58385714Y53742858D01*
X58300000Y53742858D01*
X58171428Y53700000D01*
X58128571Y53657143D01*
X57828571Y53742858D02*
X57228571Y53742858D01*
X57614285Y52842858D01*
X56500000Y53742858D02*
X56671428Y53742858D01*
X56757142Y53700000D01*
X56800000Y53657143D01*
X56885714Y53528572D01*
X56928571Y53357143D01*
X56928571Y53014286D01*
X56885714Y52928572D01*
X56842857Y52885715D01*
X56757142Y52842858D01*
X56585714Y52842858D01*
X56500000Y52885715D01*
X56457142Y52928572D01*
X56414285Y53014286D01*
X56414285Y53228572D01*
X56457142Y53314286D01*
X56500000Y53357143D01*
X56585714Y53400000D01*
X56757142Y53400000D01*
X56842857Y53357143D01*
X56885714Y53314286D01*
X56928571Y53228572D01*
X35971428Y35608572D02*
X36014285Y35651429D01*
X36057142Y35780000D01*
X36057142Y35865715D01*
X36014285Y35994286D01*
X35928571Y36080000D01*
X35842857Y36122858D01*
X35671428Y36165715D01*
X35542857Y36165715D01*
X35371428Y36122858D01*
X35285714Y36080000D01*
X35200000Y35994286D01*
X35157142Y35865715D01*
X35157142Y35780000D01*
X35200000Y35651429D01*
X35242857Y35608572D01*
X35157142Y35308572D02*
X35157142Y34708572D01*
X36057142Y35094286D01*
X35157142Y34451429D02*
X35157142Y33851429D01*
X36057142Y34237143D01*
X55328571Y52928572D02*
X55371428Y52885715D01*
X55500000Y52842858D01*
X55585714Y52842858D01*
X55714285Y52885715D01*
X55800000Y52971429D01*
X55842857Y53057143D01*
X55885714Y53228572D01*
X55885714Y53357143D01*
X55842857Y53528572D01*
X55800000Y53614286D01*
X55714285Y53700000D01*
X55585714Y53742858D01*
X55500000Y53742858D01*
X55371428Y53700000D01*
X55328571Y53657143D01*
X55028571Y53742858D02*
X54428571Y53742858D01*
X54814285Y52842858D01*
X53957142Y53357143D02*
X54042857Y53400000D01*
X54085714Y53442858D01*
X54128571Y53528572D01*
X54128571Y53571429D01*
X54085714Y53657143D01*
X54042857Y53700000D01*
X53957142Y53742858D01*
X53785714Y53742858D01*
X53700000Y53700000D01*
X53657142Y53657143D01*
X53614285Y53571429D01*
X53614285Y53528572D01*
X53657142Y53442858D01*
X53700000Y53400000D01*
X53785714Y53357143D01*
X53957142Y53357143D01*
X54042857Y53314286D01*
X54085714Y53271429D01*
X54128571Y53185715D01*
X54128571Y53014286D01*
X54085714Y52928572D01*
X54042857Y52885715D01*
X53957142Y52842858D01*
X53785714Y52842858D01*
X53700000Y52885715D01*
X53657142Y52928572D01*
X53614285Y53014286D01*
X53614285Y53185715D01*
X53657142Y53271429D01*
X53700000Y53314286D01*
X53785714Y53357143D01*
X51991428Y35428572D02*
X52034285Y35471429D01*
X52077142Y35600000D01*
X52077142Y35685715D01*
X52034285Y35814286D01*
X51948571Y35900000D01*
X51862857Y35942858D01*
X51691428Y35985715D01*
X51562857Y35985715D01*
X51391428Y35942858D01*
X51305714Y35900000D01*
X51220000Y35814286D01*
X51177142Y35685715D01*
X51177142Y35600000D01*
X51220000Y35471429D01*
X51262857Y35428572D01*
X51562857Y34914286D02*
X51520000Y35000000D01*
X51477142Y35042858D01*
X51391428Y35085715D01*
X51348571Y35085715D01*
X51262857Y35042858D01*
X51220000Y35000000D01*
X51177142Y34914286D01*
X51177142Y34742858D01*
X51220000Y34657143D01*
X51262857Y34614286D01*
X51348571Y34571429D01*
X51391428Y34571429D01*
X51477142Y34614286D01*
X51520000Y34657143D01*
X51562857Y34742858D01*
X51562857Y34914286D01*
X51605714Y35000000D01*
X51648571Y35042858D01*
X51734285Y35085715D01*
X51905714Y35085715D01*
X51991428Y35042858D01*
X52034285Y35000000D01*
X52077142Y34914286D01*
X52077142Y34742858D01*
X52034285Y34657143D01*
X51991428Y34614286D01*
X51905714Y34571429D01*
X51734285Y34571429D01*
X51648571Y34614286D01*
X51605714Y34657143D01*
X51562857Y34742858D01*
X51177142Y34014286D02*
X51177142Y33928572D01*
X51220000Y33842858D01*
X51262857Y33800000D01*
X51348571Y33757143D01*
X51520000Y33714286D01*
X51734285Y33714286D01*
X51905714Y33757143D01*
X51991428Y33800000D01*
X52034285Y33842858D01*
X52077142Y33928572D01*
X52077142Y34014286D01*
X52034285Y34100000D01*
X51991428Y34142858D01*
X51905714Y34185715D01*
X51734285Y34228572D01*
X51520000Y34228572D01*
X51348571Y34185715D01*
X51262857Y34142858D01*
X51220000Y34100000D01*
X51177142Y34014286D01*
X52528571Y52928572D02*
X52571428Y52885715D01*
X52700000Y52842858D01*
X52785714Y52842858D01*
X52914285Y52885715D01*
X53000000Y52971429D01*
X53042857Y53057143D01*
X53085714Y53228572D01*
X53085714Y53357143D01*
X53042857Y53528572D01*
X53000000Y53614286D01*
X52914285Y53700000D01*
X52785714Y53742858D01*
X52700000Y53742858D01*
X52571428Y53700000D01*
X52528571Y53657143D01*
X52014285Y53357143D02*
X52100000Y53400000D01*
X52142857Y53442858D01*
X52185714Y53528572D01*
X52185714Y53571429D01*
X52142857Y53657143D01*
X52100000Y53700000D01*
X52014285Y53742858D01*
X51842857Y53742858D01*
X51757142Y53700000D01*
X51714285Y53657143D01*
X51671428Y53571429D01*
X51671428Y53528572D01*
X51714285Y53442858D01*
X51757142Y53400000D01*
X51842857Y53357143D01*
X52014285Y53357143D01*
X52100000Y53314286D01*
X52142857Y53271429D01*
X52185714Y53185715D01*
X52185714Y53014286D01*
X52142857Y52928572D01*
X52100000Y52885715D01*
X52014285Y52842858D01*
X51842857Y52842858D01*
X51757142Y52885715D01*
X51714285Y52928572D01*
X51671428Y53014286D01*
X51671428Y53185715D01*
X51714285Y53271429D01*
X51757142Y53314286D01*
X51842857Y53357143D01*
X50814285Y52842858D02*
X51328571Y52842858D01*
X51071428Y52842858D02*
X51071428Y53742858D01*
X51157142Y53614286D01*
X51242857Y53528572D01*
X51328571Y53485715D01*
X32371428Y15628572D02*
X32414285Y15671429D01*
X32457142Y15800000D01*
X32457142Y15885715D01*
X32414285Y16014286D01*
X32328571Y16100000D01*
X32242857Y16142858D01*
X32071428Y16185715D01*
X31942857Y16185715D01*
X31771428Y16142858D01*
X31685714Y16100000D01*
X31600000Y16014286D01*
X31557142Y15885715D01*
X31557142Y15800000D01*
X31600000Y15671429D01*
X31642857Y15628572D01*
X31942857Y15114286D02*
X31900000Y15200000D01*
X31857142Y15242858D01*
X31771428Y15285715D01*
X31728571Y15285715D01*
X31642857Y15242858D01*
X31600000Y15200000D01*
X31557142Y15114286D01*
X31557142Y14942858D01*
X31600000Y14857143D01*
X31642857Y14814286D01*
X31728571Y14771429D01*
X31771428Y14771429D01*
X31857142Y14814286D01*
X31900000Y14857143D01*
X31942857Y14942858D01*
X31942857Y15114286D01*
X31985714Y15200000D01*
X32028571Y15242858D01*
X32114285Y15285715D01*
X32285714Y15285715D01*
X32371428Y15242858D01*
X32414285Y15200000D01*
X32457142Y15114286D01*
X32457142Y14942858D01*
X32414285Y14857143D01*
X32371428Y14814286D01*
X32285714Y14771429D01*
X32114285Y14771429D01*
X32028571Y14814286D01*
X31985714Y14857143D01*
X31942857Y14942858D01*
X31642857Y14428572D02*
X31600000Y14385715D01*
X31557142Y14300000D01*
X31557142Y14085715D01*
X31600000Y14000000D01*
X31642857Y13957143D01*
X31728571Y13914286D01*
X31814285Y13914286D01*
X31942857Y13957143D01*
X32457142Y14471429D01*
X32457142Y13914286D01*
X49728571Y52828572D02*
X49771428Y52785715D01*
X49900000Y52742858D01*
X49985714Y52742858D01*
X50114285Y52785715D01*
X50200000Y52871429D01*
X50242857Y52957143D01*
X50285714Y53128572D01*
X50285714Y53257143D01*
X50242857Y53428572D01*
X50200000Y53514286D01*
X50114285Y53600000D01*
X49985714Y53642858D01*
X49900000Y53642858D01*
X49771428Y53600000D01*
X49728571Y53557143D01*
X49214285Y53257143D02*
X49300000Y53300000D01*
X49342857Y53342858D01*
X49385714Y53428572D01*
X49385714Y53471429D01*
X49342857Y53557143D01*
X49300000Y53600000D01*
X49214285Y53642858D01*
X49042857Y53642858D01*
X48957142Y53600000D01*
X48914285Y53557143D01*
X48871428Y53471429D01*
X48871428Y53428572D01*
X48914285Y53342858D01*
X48957142Y53300000D01*
X49042857Y53257143D01*
X49214285Y53257143D01*
X49300000Y53214286D01*
X49342857Y53171429D01*
X49385714Y53085715D01*
X49385714Y52914286D01*
X49342857Y52828572D01*
X49300000Y52785715D01*
X49214285Y52742858D01*
X49042857Y52742858D01*
X48957142Y52785715D01*
X48914285Y52828572D01*
X48871428Y52914286D01*
X48871428Y53085715D01*
X48914285Y53171429D01*
X48957142Y53214286D01*
X49042857Y53257143D01*
X48100000Y53342858D02*
X48100000Y52742858D01*
X48314285Y53685715D02*
X48528571Y53042858D01*
X47971428Y53042858D01*
X45471428Y32528572D02*
X45514285Y32571429D01*
X45557142Y32700000D01*
X45557142Y32785715D01*
X45514285Y32914286D01*
X45428571Y33000000D01*
X45342857Y33042858D01*
X45171428Y33085715D01*
X45042857Y33085715D01*
X44871428Y33042858D01*
X44785714Y33000000D01*
X44700000Y32914286D01*
X44657142Y32785715D01*
X44657142Y32700000D01*
X44700000Y32571429D01*
X44742857Y32528572D01*
X45042857Y32014286D02*
X45000000Y32100000D01*
X44957142Y32142858D01*
X44871428Y32185715D01*
X44828571Y32185715D01*
X44742857Y32142858D01*
X44700000Y32100000D01*
X44657142Y32014286D01*
X44657142Y31842858D01*
X44700000Y31757143D01*
X44742857Y31714286D01*
X44828571Y31671429D01*
X44871428Y31671429D01*
X44957142Y31714286D01*
X45000000Y31757143D01*
X45042857Y31842858D01*
X45042857Y32014286D01*
X45085714Y32100000D01*
X45128571Y32142858D01*
X45214285Y32185715D01*
X45385714Y32185715D01*
X45471428Y32142858D01*
X45514285Y32100000D01*
X45557142Y32014286D01*
X45557142Y31842858D01*
X45514285Y31757143D01*
X45471428Y31714286D01*
X45385714Y31671429D01*
X45214285Y31671429D01*
X45128571Y31714286D01*
X45085714Y31757143D01*
X45042857Y31842858D01*
X44657142Y30857143D02*
X44657142Y31285715D01*
X45085714Y31328572D01*
X45042857Y31285715D01*
X45000000Y31200000D01*
X45000000Y30985715D01*
X45042857Y30900000D01*
X45085714Y30857143D01*
X45171428Y30814286D01*
X45385714Y30814286D01*
X45471428Y30857143D01*
X45514285Y30900000D01*
X45557142Y30985715D01*
X45557142Y31200000D01*
X45514285Y31285715D01*
X45471428Y31328572D01*
X49128571Y20728572D02*
X49171428Y20685715D01*
X49300000Y20642858D01*
X49385714Y20642858D01*
X49514285Y20685715D01*
X49600000Y20771429D01*
X49642857Y20857143D01*
X49685714Y21028572D01*
X49685714Y21157143D01*
X49642857Y21328572D01*
X49600000Y21414286D01*
X49514285Y21500000D01*
X49385714Y21542858D01*
X49300000Y21542858D01*
X49171428Y21500000D01*
X49128571Y21457143D01*
X48614285Y21157143D02*
X48700000Y21200000D01*
X48742857Y21242858D01*
X48785714Y21328572D01*
X48785714Y21371429D01*
X48742857Y21457143D01*
X48700000Y21500000D01*
X48614285Y21542858D01*
X48442857Y21542858D01*
X48357142Y21500000D01*
X48314285Y21457143D01*
X48271428Y21371429D01*
X48271428Y21328572D01*
X48314285Y21242858D01*
X48357142Y21200000D01*
X48442857Y21157143D01*
X48614285Y21157143D01*
X48700000Y21114286D01*
X48742857Y21071429D01*
X48785714Y20985715D01*
X48785714Y20814286D01*
X48742857Y20728572D01*
X48700000Y20685715D01*
X48614285Y20642858D01*
X48442857Y20642858D01*
X48357142Y20685715D01*
X48314285Y20728572D01*
X48271428Y20814286D01*
X48271428Y20985715D01*
X48314285Y21071429D01*
X48357142Y21114286D01*
X48442857Y21157143D01*
X47500000Y21542858D02*
X47671428Y21542858D01*
X47757142Y21500000D01*
X47800000Y21457143D01*
X47885714Y21328572D01*
X47928571Y21157143D01*
X47928571Y20814286D01*
X47885714Y20728572D01*
X47842857Y20685715D01*
X47757142Y20642858D01*
X47585714Y20642858D01*
X47500000Y20685715D01*
X47457142Y20728572D01*
X47414285Y20814286D01*
X47414285Y21028572D01*
X47457142Y21114286D01*
X47500000Y21157143D01*
X47585714Y21200000D01*
X47757142Y21200000D01*
X47842857Y21157143D01*
X47885714Y21114286D01*
X47928571Y21028572D01*
X48671428Y13728572D02*
X48714285Y13771429D01*
X48757142Y13900000D01*
X48757142Y13985715D01*
X48714285Y14114286D01*
X48628571Y14200000D01*
X48542857Y14242858D01*
X48371428Y14285715D01*
X48242857Y14285715D01*
X48071428Y14242858D01*
X47985714Y14200000D01*
X47900000Y14114286D01*
X47857142Y13985715D01*
X47857142Y13900000D01*
X47900000Y13771429D01*
X47942857Y13728572D01*
X48242857Y13214286D02*
X48200000Y13300000D01*
X48157142Y13342858D01*
X48071428Y13385715D01*
X48028571Y13385715D01*
X47942857Y13342858D01*
X47900000Y13300000D01*
X47857142Y13214286D01*
X47857142Y13042858D01*
X47900000Y12957143D01*
X47942857Y12914286D01*
X48028571Y12871429D01*
X48071428Y12871429D01*
X48157142Y12914286D01*
X48200000Y12957143D01*
X48242857Y13042858D01*
X48242857Y13214286D01*
X48285714Y13300000D01*
X48328571Y13342858D01*
X48414285Y13385715D01*
X48585714Y13385715D01*
X48671428Y13342858D01*
X48714285Y13300000D01*
X48757142Y13214286D01*
X48757142Y13042858D01*
X48714285Y12957143D01*
X48671428Y12914286D01*
X48585714Y12871429D01*
X48414285Y12871429D01*
X48328571Y12914286D01*
X48285714Y12957143D01*
X48242857Y13042858D01*
X47857142Y12571429D02*
X47857142Y11971429D01*
X48757142Y12357143D01*
X35928571Y27328572D02*
X35971428Y27285715D01*
X36100000Y27242858D01*
X36185714Y27242858D01*
X36314285Y27285715D01*
X36400000Y27371429D01*
X36442857Y27457143D01*
X36485714Y27628572D01*
X36485714Y27757143D01*
X36442857Y27928572D01*
X36400000Y28014286D01*
X36314285Y28100000D01*
X36185714Y28142858D01*
X36100000Y28142858D01*
X35971428Y28100000D01*
X35928571Y28057143D01*
X35414285Y27757143D02*
X35500000Y27800000D01*
X35542857Y27842858D01*
X35585714Y27928572D01*
X35585714Y27971429D01*
X35542857Y28057143D01*
X35500000Y28100000D01*
X35414285Y28142858D01*
X35242857Y28142858D01*
X35157142Y28100000D01*
X35114285Y28057143D01*
X35071428Y27971429D01*
X35071428Y27928572D01*
X35114285Y27842858D01*
X35157142Y27800000D01*
X35242857Y27757143D01*
X35414285Y27757143D01*
X35500000Y27714286D01*
X35542857Y27671429D01*
X35585714Y27585715D01*
X35585714Y27414286D01*
X35542857Y27328572D01*
X35500000Y27285715D01*
X35414285Y27242858D01*
X35242857Y27242858D01*
X35157142Y27285715D01*
X35114285Y27328572D01*
X35071428Y27414286D01*
X35071428Y27585715D01*
X35114285Y27671429D01*
X35157142Y27714286D01*
X35242857Y27757143D01*
X34557142Y27757143D02*
X34642857Y27800000D01*
X34685714Y27842858D01*
X34728571Y27928572D01*
X34728571Y27971429D01*
X34685714Y28057143D01*
X34642857Y28100000D01*
X34557142Y28142858D01*
X34385714Y28142858D01*
X34300000Y28100000D01*
X34257142Y28057143D01*
X34214285Y27971429D01*
X34214285Y27928572D01*
X34257142Y27842858D01*
X34300000Y27800000D01*
X34385714Y27757143D01*
X34557142Y27757143D01*
X34642857Y27714286D01*
X34685714Y27671429D01*
X34728571Y27585715D01*
X34728571Y27414286D01*
X34685714Y27328572D01*
X34642857Y27285715D01*
X34557142Y27242858D01*
X34385714Y27242858D01*
X34300000Y27285715D01*
X34257142Y27328572D01*
X34214285Y27414286D01*
X34214285Y27585715D01*
X34257142Y27671429D01*
X34300000Y27714286D01*
X34385714Y27757143D01*
X35828571Y22328572D02*
X35871428Y22285715D01*
X36000000Y22242858D01*
X36085714Y22242858D01*
X36214285Y22285715D01*
X36300000Y22371429D01*
X36342857Y22457143D01*
X36385714Y22628572D01*
X36385714Y22757143D01*
X36342857Y22928572D01*
X36300000Y23014286D01*
X36214285Y23100000D01*
X36085714Y23142858D01*
X36000000Y23142858D01*
X35871428Y23100000D01*
X35828571Y23057143D01*
X35314285Y22757143D02*
X35400000Y22800000D01*
X35442857Y22842858D01*
X35485714Y22928572D01*
X35485714Y22971429D01*
X35442857Y23057143D01*
X35400000Y23100000D01*
X35314285Y23142858D01*
X35142857Y23142858D01*
X35057142Y23100000D01*
X35014285Y23057143D01*
X34971428Y22971429D01*
X34971428Y22928572D01*
X35014285Y22842858D01*
X35057142Y22800000D01*
X35142857Y22757143D01*
X35314285Y22757143D01*
X35400000Y22714286D01*
X35442857Y22671429D01*
X35485714Y22585715D01*
X35485714Y22414286D01*
X35442857Y22328572D01*
X35400000Y22285715D01*
X35314285Y22242858D01*
X35142857Y22242858D01*
X35057142Y22285715D01*
X35014285Y22328572D01*
X34971428Y22414286D01*
X34971428Y22585715D01*
X35014285Y22671429D01*
X35057142Y22714286D01*
X35142857Y22757143D01*
X34542857Y22242858D02*
X34371428Y22242858D01*
X34285714Y22285715D01*
X34242857Y22328572D01*
X34157142Y22457143D01*
X34114285Y22628572D01*
X34114285Y22971429D01*
X34157142Y23057143D01*
X34200000Y23100000D01*
X34285714Y23142858D01*
X34457142Y23142858D01*
X34542857Y23100000D01*
X34585714Y23057143D01*
X34628571Y22971429D01*
X34628571Y22757143D01*
X34585714Y22671429D01*
X34542857Y22628572D01*
X34457142Y22585715D01*
X34285714Y22585715D01*
X34200000Y22628572D01*
X34157142Y22671429D01*
X34114285Y22757143D01*
X49128571Y31028572D02*
X49171428Y30985715D01*
X49300000Y30942858D01*
X49385714Y30942858D01*
X49514285Y30985715D01*
X49600000Y31071429D01*
X49642857Y31157143D01*
X49685714Y31328572D01*
X49685714Y31457143D01*
X49642857Y31628572D01*
X49600000Y31714286D01*
X49514285Y31800000D01*
X49385714Y31842858D01*
X49300000Y31842858D01*
X49171428Y31800000D01*
X49128571Y31757143D01*
X48700000Y30942858D02*
X48528571Y30942858D01*
X48442857Y30985715D01*
X48400000Y31028572D01*
X48314285Y31157143D01*
X48271428Y31328572D01*
X48271428Y31671429D01*
X48314285Y31757143D01*
X48357142Y31800000D01*
X48442857Y31842858D01*
X48614285Y31842858D01*
X48700000Y31800000D01*
X48742857Y31757143D01*
X48785714Y31671429D01*
X48785714Y31457143D01*
X48742857Y31371429D01*
X48700000Y31328572D01*
X48614285Y31285715D01*
X48442857Y31285715D01*
X48357142Y31328572D01*
X48314285Y31371429D01*
X48271428Y31457143D01*
X47928571Y31757143D02*
X47885714Y31800000D01*
X47800000Y31842858D01*
X47585714Y31842858D01*
X47500000Y31800000D01*
X47457142Y31757143D01*
X47414285Y31671429D01*
X47414285Y31585715D01*
X47457142Y31457143D01*
X47971428Y30942858D01*
X47414285Y30942858D01*
X35828571Y29628572D02*
X35871428Y29585715D01*
X36000000Y29542858D01*
X36085714Y29542858D01*
X36214285Y29585715D01*
X36300000Y29671429D01*
X36342857Y29757143D01*
X36385714Y29928572D01*
X36385714Y30057143D01*
X36342857Y30228572D01*
X36300000Y30314286D01*
X36214285Y30400000D01*
X36085714Y30442858D01*
X36000000Y30442858D01*
X35871428Y30400000D01*
X35828571Y30357143D01*
X35400000Y29542858D02*
X35228571Y29542858D01*
X35142857Y29585715D01*
X35100000Y29628572D01*
X35014285Y29757143D01*
X34971428Y29928572D01*
X34971428Y30271429D01*
X35014285Y30357143D01*
X35057142Y30400000D01*
X35142857Y30442858D01*
X35314285Y30442858D01*
X35400000Y30400000D01*
X35442857Y30357143D01*
X35485714Y30271429D01*
X35485714Y30057143D01*
X35442857Y29971429D01*
X35400000Y29928572D01*
X35314285Y29885715D01*
X35142857Y29885715D01*
X35057142Y29928572D01*
X35014285Y29971429D01*
X34971428Y30057143D01*
X34671428Y30442858D02*
X34114285Y30442858D01*
X34414285Y30100000D01*
X34285714Y30100000D01*
X34200000Y30057143D01*
X34157142Y30014286D01*
X34114285Y29928572D01*
X34114285Y29714286D01*
X34157142Y29628572D01*
X34200000Y29585715D01*
X34285714Y29542858D01*
X34542857Y29542858D01*
X34628571Y29585715D01*
X34671428Y29628572D01*
X55428571Y30828572D02*
X55471428Y30785715D01*
X55600000Y30742858D01*
X55685714Y30742858D01*
X55814285Y30785715D01*
X55900000Y30871429D01*
X55942857Y30957143D01*
X55985714Y31128572D01*
X55985714Y31257143D01*
X55942857Y31428572D01*
X55900000Y31514286D01*
X55814285Y31600000D01*
X55685714Y31642858D01*
X55600000Y31642858D01*
X55471428Y31600000D01*
X55428571Y31557143D01*
X55000000Y30742858D02*
X54828571Y30742858D01*
X54742857Y30785715D01*
X54700000Y30828572D01*
X54614285Y30957143D01*
X54571428Y31128572D01*
X54571428Y31471429D01*
X54614285Y31557143D01*
X54657142Y31600000D01*
X54742857Y31642858D01*
X54914285Y31642858D01*
X55000000Y31600000D01*
X55042857Y31557143D01*
X55085714Y31471429D01*
X55085714Y31257143D01*
X55042857Y31171429D01*
X55000000Y31128572D01*
X54914285Y31085715D01*
X54742857Y31085715D01*
X54657142Y31128572D01*
X54614285Y31171429D01*
X54571428Y31257143D01*
X54057142Y31257143D02*
X54142857Y31300000D01*
X54185714Y31342858D01*
X54228571Y31428572D01*
X54228571Y31471429D01*
X54185714Y31557143D01*
X54142857Y31600000D01*
X54057142Y31642858D01*
X53885714Y31642858D01*
X53800000Y31600000D01*
X53757142Y31557143D01*
X53714285Y31471429D01*
X53714285Y31428572D01*
X53757142Y31342858D01*
X53800000Y31300000D01*
X53885714Y31257143D01*
X54057142Y31257143D01*
X54142857Y31214286D01*
X54185714Y31171429D01*
X54228571Y31085715D01*
X54228571Y30914286D01*
X54185714Y30828572D01*
X54142857Y30785715D01*
X54057142Y30742858D01*
X53885714Y30742858D01*
X53800000Y30785715D01*
X53757142Y30828572D01*
X53714285Y30914286D01*
X53714285Y31085715D01*
X53757142Y31171429D01*
X53800000Y31214286D01*
X53885714Y31257143D01*
X55928571Y27028572D02*
X55971428Y26985715D01*
X56100000Y26942858D01*
X56185714Y26942858D01*
X56314285Y26985715D01*
X56400000Y27071429D01*
X56442857Y27157143D01*
X56485714Y27328572D01*
X56485714Y27457143D01*
X56442857Y27628572D01*
X56400000Y27714286D01*
X56314285Y27800000D01*
X56185714Y27842858D01*
X56100000Y27842858D01*
X55971428Y27800000D01*
X55928571Y27757143D01*
X55500000Y26942858D02*
X55328571Y26942858D01*
X55242857Y26985715D01*
X55200000Y27028572D01*
X55114285Y27157143D01*
X55071428Y27328572D01*
X55071428Y27671429D01*
X55114285Y27757143D01*
X55157142Y27800000D01*
X55242857Y27842858D01*
X55414285Y27842858D01*
X55500000Y27800000D01*
X55542857Y27757143D01*
X55585714Y27671429D01*
X55585714Y27457143D01*
X55542857Y27371429D01*
X55500000Y27328572D01*
X55414285Y27285715D01*
X55242857Y27285715D01*
X55157142Y27328572D01*
X55114285Y27371429D01*
X55071428Y27457143D01*
X54642857Y26942858D02*
X54471428Y26942858D01*
X54385714Y26985715D01*
X54342857Y27028572D01*
X54257142Y27157143D01*
X54214285Y27328572D01*
X54214285Y27671429D01*
X54257142Y27757143D01*
X54300000Y27800000D01*
X54385714Y27842858D01*
X54557142Y27842858D01*
X54642857Y27800000D01*
X54685714Y27757143D01*
X54728571Y27671429D01*
X54728571Y27457143D01*
X54685714Y27371429D01*
X54642857Y27328572D01*
X54557142Y27285715D01*
X54385714Y27285715D01*
X54300000Y27328572D01*
X54257142Y27371429D01*
X54214285Y27457143D01*
X61401428Y25845143D02*
X61444285Y25888000D01*
X61487142Y26016572D01*
X61487142Y26102286D01*
X61444285Y26230858D01*
X61358571Y26316572D01*
X61272857Y26359429D01*
X61101428Y26402286D01*
X60972857Y26402286D01*
X60801428Y26359429D01*
X60715714Y26316572D01*
X60630000Y26230858D01*
X60587142Y26102286D01*
X60587142Y26016572D01*
X60630000Y25888000D01*
X60672857Y25845143D01*
X61487142Y24988000D02*
X61487142Y25502286D01*
X61487142Y25245143D02*
X60587142Y25245143D01*
X60715714Y25330858D01*
X60801428Y25416572D01*
X60844285Y25502286D01*
X60587142Y24430858D02*
X60587142Y24345143D01*
X60630000Y24259429D01*
X60672857Y24216572D01*
X60758571Y24173715D01*
X60930000Y24130858D01*
X61144285Y24130858D01*
X61315714Y24173715D01*
X61401428Y24216572D01*
X61444285Y24259429D01*
X61487142Y24345143D01*
X61487142Y24430858D01*
X61444285Y24516572D01*
X61401428Y24559429D01*
X61315714Y24602286D01*
X61144285Y24645143D01*
X60930000Y24645143D01*
X60758571Y24602286D01*
X60672857Y24559429D01*
X60630000Y24516572D01*
X60587142Y24430858D01*
X60587142Y23573715D02*
X60587142Y23488000D01*
X60630000Y23402286D01*
X60672857Y23359429D01*
X60758571Y23316572D01*
X60930000Y23273715D01*
X61144285Y23273715D01*
X61315714Y23316572D01*
X61401428Y23359429D01*
X61444285Y23402286D01*
X61487142Y23488000D01*
X61487142Y23573715D01*
X61444285Y23659429D01*
X61401428Y23702286D01*
X61315714Y23745143D01*
X61144285Y23788000D01*
X60930000Y23788000D01*
X60758571Y23745143D01*
X60672857Y23702286D01*
X60630000Y23659429D01*
X60587142Y23573715D01*
X63639428Y22289143D02*
X63682285Y22332000D01*
X63725142Y22460572D01*
X63725142Y22546286D01*
X63682285Y22674858D01*
X63596571Y22760572D01*
X63510857Y22803429D01*
X63339428Y22846286D01*
X63210857Y22846286D01*
X63039428Y22803429D01*
X62953714Y22760572D01*
X62868000Y22674858D01*
X62825142Y22546286D01*
X62825142Y22460572D01*
X62868000Y22332000D01*
X62910857Y22289143D01*
X63725142Y21432000D02*
X63725142Y21946286D01*
X63725142Y21689143D02*
X62825142Y21689143D01*
X62953714Y21774858D01*
X63039428Y21860572D01*
X63082285Y21946286D01*
X62825142Y20874858D02*
X62825142Y20789143D01*
X62868000Y20703429D01*
X62910857Y20660572D01*
X62996571Y20617715D01*
X63168000Y20574858D01*
X63382285Y20574858D01*
X63553714Y20617715D01*
X63639428Y20660572D01*
X63682285Y20703429D01*
X63725142Y20789143D01*
X63725142Y20874858D01*
X63682285Y20960572D01*
X63639428Y21003429D01*
X63553714Y21046286D01*
X63382285Y21089143D01*
X63168000Y21089143D01*
X62996571Y21046286D01*
X62910857Y21003429D01*
X62868000Y20960572D01*
X62825142Y20874858D01*
X63725142Y19717715D02*
X63725142Y20232000D01*
X63725142Y19974858D02*
X62825142Y19974858D01*
X62953714Y20060572D01*
X63039428Y20146286D01*
X63082285Y20232000D01*
X63171428Y44357143D02*
X63214285Y44400000D01*
X63257142Y44528572D01*
X63257142Y44614286D01*
X63214285Y44742858D01*
X63128571Y44828572D01*
X63042857Y44871429D01*
X62871428Y44914286D01*
X62742857Y44914286D01*
X62571428Y44871429D01*
X62485714Y44828572D01*
X62400000Y44742858D01*
X62357142Y44614286D01*
X62357142Y44528572D01*
X62400000Y44400000D01*
X62442857Y44357143D01*
X63257142Y43500000D02*
X63257142Y44014286D01*
X63257142Y43757143D02*
X62357142Y43757143D01*
X62485714Y43842858D01*
X62571428Y43928572D01*
X62614285Y44014286D01*
X62357142Y42942858D02*
X62357142Y42857143D01*
X62400000Y42771429D01*
X62442857Y42728572D01*
X62528571Y42685715D01*
X62700000Y42642858D01*
X62914285Y42642858D01*
X63085714Y42685715D01*
X63171428Y42728572D01*
X63214285Y42771429D01*
X63257142Y42857143D01*
X63257142Y42942858D01*
X63214285Y43028572D01*
X63171428Y43071429D01*
X63085714Y43114286D01*
X62914285Y43157143D01*
X62700000Y43157143D01*
X62528571Y43114286D01*
X62442857Y43071429D01*
X62400000Y43028572D01*
X62357142Y42942858D01*
X62442857Y42300000D02*
X62400000Y42257143D01*
X62357142Y42171429D01*
X62357142Y41957143D01*
X62400000Y41871429D01*
X62442857Y41828572D01*
X62528571Y41785715D01*
X62614285Y41785715D01*
X62742857Y41828572D01*
X63257142Y42342858D01*
X63257142Y41785715D01*
X61071428Y44157143D02*
X61114285Y44200000D01*
X61157142Y44328572D01*
X61157142Y44414286D01*
X61114285Y44542858D01*
X61028571Y44628572D01*
X60942857Y44671429D01*
X60771428Y44714286D01*
X60642857Y44714286D01*
X60471428Y44671429D01*
X60385714Y44628572D01*
X60300000Y44542858D01*
X60257142Y44414286D01*
X60257142Y44328572D01*
X60300000Y44200000D01*
X60342857Y44157143D01*
X61157142Y43300000D02*
X61157142Y43814286D01*
X61157142Y43557143D02*
X60257142Y43557143D01*
X60385714Y43642858D01*
X60471428Y43728572D01*
X60514285Y43814286D01*
X60257142Y42742858D02*
X60257142Y42657143D01*
X60300000Y42571429D01*
X60342857Y42528572D01*
X60428571Y42485715D01*
X60600000Y42442858D01*
X60814285Y42442858D01*
X60985714Y42485715D01*
X61071428Y42528572D01*
X61114285Y42571429D01*
X61157142Y42657143D01*
X61157142Y42742858D01*
X61114285Y42828572D01*
X61071428Y42871429D01*
X60985714Y42914286D01*
X60814285Y42957143D01*
X60600000Y42957143D01*
X60428571Y42914286D01*
X60342857Y42871429D01*
X60300000Y42828572D01*
X60257142Y42742858D01*
X60557142Y41671429D02*
X61157142Y41671429D01*
X60214285Y41885715D02*
X60857142Y42100000D01*
X60857142Y41542858D01*
X70621428Y13653143D02*
X70664285Y13696000D01*
X70707142Y13824572D01*
X70707142Y13910286D01*
X70664285Y14038858D01*
X70578571Y14124572D01*
X70492857Y14167429D01*
X70321428Y14210286D01*
X70192857Y14210286D01*
X70021428Y14167429D01*
X69935714Y14124572D01*
X69850000Y14038858D01*
X69807142Y13910286D01*
X69807142Y13824572D01*
X69850000Y13696000D01*
X69892857Y13653143D01*
X70707142Y12796000D02*
X70707142Y13310286D01*
X70707142Y13053143D02*
X69807142Y13053143D01*
X69935714Y13138858D01*
X70021428Y13224572D01*
X70064285Y13310286D01*
X69807142Y12238858D02*
X69807142Y12153143D01*
X69850000Y12067429D01*
X69892857Y12024572D01*
X69978571Y11981715D01*
X70150000Y11938858D01*
X70364285Y11938858D01*
X70535714Y11981715D01*
X70621428Y12024572D01*
X70664285Y12067429D01*
X70707142Y12153143D01*
X70707142Y12238858D01*
X70664285Y12324572D01*
X70621428Y12367429D01*
X70535714Y12410286D01*
X70364285Y12453143D01*
X70150000Y12453143D01*
X69978571Y12410286D01*
X69892857Y12367429D01*
X69850000Y12324572D01*
X69807142Y12238858D01*
X69807142Y11167429D02*
X69807142Y11338858D01*
X69850000Y11424572D01*
X69892857Y11467429D01*
X70021428Y11553143D01*
X70192857Y11596000D01*
X70535714Y11596000D01*
X70621428Y11553143D01*
X70664285Y11510286D01*
X70707142Y11424572D01*
X70707142Y11253143D01*
X70664285Y11167429D01*
X70621428Y11124572D01*
X70535714Y11081715D01*
X70321428Y11081715D01*
X70235714Y11124572D01*
X70192857Y11167429D01*
X70150000Y11253143D01*
X70150000Y11424572D01*
X70192857Y11510286D01*
X70235714Y11553143D01*
X70321428Y11596000D01*
X67121428Y13007143D02*
X67164285Y13050000D01*
X67207142Y13178572D01*
X67207142Y13264286D01*
X67164285Y13392858D01*
X67078571Y13478572D01*
X66992857Y13521429D01*
X66821428Y13564286D01*
X66692857Y13564286D01*
X66521428Y13521429D01*
X66435714Y13478572D01*
X66350000Y13392858D01*
X66307142Y13264286D01*
X66307142Y13178572D01*
X66350000Y13050000D01*
X66392857Y13007143D01*
X67207142Y12150000D02*
X67207142Y12664286D01*
X67207142Y12407143D02*
X66307142Y12407143D01*
X66435714Y12492858D01*
X66521428Y12578572D01*
X66564285Y12664286D01*
X66307142Y11592858D02*
X66307142Y11507143D01*
X66350000Y11421429D01*
X66392857Y11378572D01*
X66478571Y11335715D01*
X66650000Y11292858D01*
X66864285Y11292858D01*
X67035714Y11335715D01*
X67121428Y11378572D01*
X67164285Y11421429D01*
X67207142Y11507143D01*
X67207142Y11592858D01*
X67164285Y11678572D01*
X67121428Y11721429D01*
X67035714Y11764286D01*
X66864285Y11807143D01*
X66650000Y11807143D01*
X66478571Y11764286D01*
X66392857Y11721429D01*
X66350000Y11678572D01*
X66307142Y11592858D01*
X66307142Y10992858D02*
X66307142Y10392858D01*
X67207142Y10778572D01*
X63621428Y13007143D02*
X63664285Y13050000D01*
X63707142Y13178572D01*
X63707142Y13264286D01*
X63664285Y13392858D01*
X63578571Y13478572D01*
X63492857Y13521429D01*
X63321428Y13564286D01*
X63192857Y13564286D01*
X63021428Y13521429D01*
X62935714Y13478572D01*
X62850000Y13392858D01*
X62807142Y13264286D01*
X62807142Y13178572D01*
X62850000Y13050000D01*
X62892857Y13007143D01*
X63707142Y12150000D02*
X63707142Y12664286D01*
X63707142Y12407143D02*
X62807142Y12407143D01*
X62935714Y12492858D01*
X63021428Y12578572D01*
X63064285Y12664286D01*
X62807142Y11592858D02*
X62807142Y11507143D01*
X62850000Y11421429D01*
X62892857Y11378572D01*
X62978571Y11335715D01*
X63150000Y11292858D01*
X63364285Y11292858D01*
X63535714Y11335715D01*
X63621428Y11378572D01*
X63664285Y11421429D01*
X63707142Y11507143D01*
X63707142Y11592858D01*
X63664285Y11678572D01*
X63621428Y11721429D01*
X63535714Y11764286D01*
X63364285Y11807143D01*
X63150000Y11807143D01*
X62978571Y11764286D01*
X62892857Y11721429D01*
X62850000Y11678572D01*
X62807142Y11592858D01*
X63192857Y10778572D02*
X63150000Y10864286D01*
X63107142Y10907143D01*
X63021428Y10950000D01*
X62978571Y10950000D01*
X62892857Y10907143D01*
X62850000Y10864286D01*
X62807142Y10778572D01*
X62807142Y10607143D01*
X62850000Y10521429D01*
X62892857Y10478572D01*
X62978571Y10435715D01*
X63021428Y10435715D01*
X63107142Y10478572D01*
X63150000Y10521429D01*
X63192857Y10607143D01*
X63192857Y10778572D01*
X63235714Y10864286D01*
X63278571Y10907143D01*
X63364285Y10950000D01*
X63535714Y10950000D01*
X63621428Y10907143D01*
X63664285Y10864286D01*
X63707142Y10778572D01*
X63707142Y10607143D01*
X63664285Y10521429D01*
X63621428Y10478572D01*
X63535714Y10435715D01*
X63364285Y10435715D01*
X63278571Y10478572D01*
X63235714Y10521429D01*
X63192857Y10607143D01*
X60071428Y13057143D02*
X60114285Y13100000D01*
X60157142Y13228572D01*
X60157142Y13314286D01*
X60114285Y13442858D01*
X60028571Y13528572D01*
X59942857Y13571429D01*
X59771428Y13614286D01*
X59642857Y13614286D01*
X59471428Y13571429D01*
X59385714Y13528572D01*
X59300000Y13442858D01*
X59257142Y13314286D01*
X59257142Y13228572D01*
X59300000Y13100000D01*
X59342857Y13057143D01*
X60157142Y12200000D02*
X60157142Y12714286D01*
X60157142Y12457143D02*
X59257142Y12457143D01*
X59385714Y12542858D01*
X59471428Y12628572D01*
X59514285Y12714286D01*
X59257142Y11642858D02*
X59257142Y11557143D01*
X59300000Y11471429D01*
X59342857Y11428572D01*
X59428571Y11385715D01*
X59600000Y11342858D01*
X59814285Y11342858D01*
X59985714Y11385715D01*
X60071428Y11428572D01*
X60114285Y11471429D01*
X60157142Y11557143D01*
X60157142Y11642858D01*
X60114285Y11728572D01*
X60071428Y11771429D01*
X59985714Y11814286D01*
X59814285Y11857143D01*
X59600000Y11857143D01*
X59428571Y11814286D01*
X59342857Y11771429D01*
X59300000Y11728572D01*
X59257142Y11642858D01*
X60157142Y10914286D02*
X60157142Y10742858D01*
X60114285Y10657143D01*
X60071428Y10614286D01*
X59942857Y10528572D01*
X59771428Y10485715D01*
X59428571Y10485715D01*
X59342857Y10528572D01*
X59300000Y10571429D01*
X59257142Y10657143D01*
X59257142Y10828572D01*
X59300000Y10914286D01*
X59342857Y10957143D01*
X59428571Y11000000D01*
X59642857Y11000000D01*
X59728571Y10957143D01*
X59771428Y10914286D01*
X59814285Y10828572D01*
X59814285Y10657143D01*
X59771428Y10571429D01*
X59728571Y10528572D01*
X59642857Y10485715D01*
X72477142Y45066572D02*
X72520000Y45023715D01*
X72648571Y44980858D01*
X72734285Y44980858D01*
X72862857Y45023715D01*
X72948571Y45109429D01*
X72991428Y45195143D01*
X73034285Y45366572D01*
X73034285Y45495143D01*
X72991428Y45666572D01*
X72948571Y45752286D01*
X72862857Y45838000D01*
X72734285Y45880858D01*
X72648571Y45880858D01*
X72520000Y45838000D01*
X72477142Y45795143D01*
X71620000Y44980858D02*
X72134285Y44980858D01*
X71877142Y44980858D02*
X71877142Y45880858D01*
X71962857Y45752286D01*
X72048571Y45666572D01*
X72134285Y45623715D01*
X70762857Y44980858D02*
X71277142Y44980858D01*
X71020000Y44980858D02*
X71020000Y45880858D01*
X71105714Y45752286D01*
X71191428Y45666572D01*
X71277142Y45623715D01*
X70205714Y45880858D02*
X70120000Y45880858D01*
X70034285Y45838000D01*
X69991428Y45795143D01*
X69948571Y45709429D01*
X69905714Y45538000D01*
X69905714Y45323715D01*
X69948571Y45152286D01*
X69991428Y45066572D01*
X70034285Y45023715D01*
X70120000Y44980858D01*
X70205714Y44980858D01*
X70291428Y45023715D01*
X70334285Y45066572D01*
X70377142Y45152286D01*
X70420000Y45323715D01*
X70420000Y45538000D01*
X70377142Y45709429D01*
X70334285Y45795143D01*
X70291428Y45838000D01*
X70205714Y45880858D01*
X12257142Y39400000D02*
X11828571Y39700000D01*
X12257142Y39914286D02*
X11357142Y39914286D01*
X11357142Y39571429D01*
X11400000Y39485715D01*
X11442857Y39442858D01*
X11528571Y39400000D01*
X11657142Y39400000D01*
X11742857Y39442858D01*
X11785714Y39485715D01*
X11828571Y39571429D01*
X11828571Y39914286D01*
X11357142Y39100000D02*
X11357142Y38542858D01*
X11700000Y38842858D01*
X11700000Y38714286D01*
X11742857Y38628572D01*
X11785714Y38585715D01*
X11871428Y38542858D01*
X12085714Y38542858D01*
X12171428Y38585715D01*
X12214285Y38628572D01*
X12257142Y38714286D01*
X12257142Y38971429D01*
X12214285Y39057143D01*
X12171428Y39100000D01*
X11667142Y22990000D02*
X11238571Y23290000D01*
X11667142Y23504286D02*
X10767142Y23504286D01*
X10767142Y23161429D01*
X10810000Y23075715D01*
X10852857Y23032858D01*
X10938571Y22990000D01*
X11067142Y22990000D01*
X11152857Y23032858D01*
X11195714Y23075715D01*
X11238571Y23161429D01*
X11238571Y23504286D01*
X11067142Y22218572D02*
X11667142Y22218572D01*
X10724285Y22432858D02*
X11367142Y22647143D01*
X11367142Y22090000D01*
X11606523Y10868300D02*
X12121701Y10959214D01*
X11970178Y10504645D02*
X12606574Y11141041D01*
X12364137Y11383478D01*
X12273223Y11413783D01*
X12212614Y11413783D01*
X12121701Y11383478D01*
X12030787Y11292564D01*
X12000482Y11201651D01*
X12000482Y11141041D01*
X12030787Y11050128D01*
X12273223Y10807691D01*
X11000431Y11474392D02*
X11364086Y11110737D01*
X11182259Y11292564D02*
X11818655Y11928960D01*
X11788350Y11777438D01*
X11788350Y11656219D01*
X11818655Y11565305D01*
X11333782Y12292615D02*
X11333782Y12353224D01*
X11303477Y12444138D01*
X11151954Y12595661D01*
X11061040Y12625966D01*
X11000431Y12625966D01*
X10909518Y12595661D01*
X10848908Y12535052D01*
X10788299Y12413834D01*
X10788299Y11686524D01*
X10394340Y12080483D01*
X15907142Y9528572D02*
X15478571Y9828572D01*
X15907142Y10042858D02*
X15007142Y10042858D01*
X15007142Y9700000D01*
X15050000Y9614286D01*
X15092857Y9571429D01*
X15178571Y9528572D01*
X15307142Y9528572D01*
X15392857Y9571429D01*
X15435714Y9614286D01*
X15478571Y9700000D01*
X15478571Y10042858D01*
X15907142Y8671429D02*
X15907142Y9185715D01*
X15907142Y8928572D02*
X15007142Y8928572D01*
X15135714Y9014286D01*
X15221428Y9100000D01*
X15264285Y9185715D01*
X15007142Y8371429D02*
X15007142Y7771429D01*
X15907142Y8157143D01*
X11557142Y8798572D02*
X11128571Y9098572D01*
X11557142Y9312858D02*
X10657142Y9312858D01*
X10657142Y8970000D01*
X10700000Y8884286D01*
X10742857Y8841429D01*
X10828571Y8798572D01*
X10957142Y8798572D01*
X11042857Y8841429D01*
X11085714Y8884286D01*
X11128571Y8970000D01*
X11128571Y9312858D01*
X11557142Y7941429D02*
X11557142Y8455715D01*
X11557142Y8198572D02*
X10657142Y8198572D01*
X10785714Y8284286D01*
X10871428Y8370000D01*
X10914285Y8455715D01*
X11557142Y7512858D02*
X11557142Y7341429D01*
X11514285Y7255715D01*
X11471428Y7212858D01*
X11342857Y7127143D01*
X11171428Y7084286D01*
X10828571Y7084286D01*
X10742857Y7127143D01*
X10700000Y7170000D01*
X10657142Y7255715D01*
X10657142Y7427143D01*
X10700000Y7512858D01*
X10742857Y7555715D01*
X10828571Y7598572D01*
X11042857Y7598572D01*
X11128571Y7555715D01*
X11171428Y7512858D01*
X11214285Y7427143D01*
X11214285Y7255715D01*
X11171428Y7170000D01*
X11128571Y7127143D01*
X11042857Y7084286D01*
X20728571Y13042858D02*
X21028571Y13471429D01*
X21242857Y13042858D02*
X21242857Y13942858D01*
X20900000Y13942858D01*
X20814285Y13900000D01*
X20771428Y13857143D01*
X20728571Y13771429D01*
X20728571Y13642858D01*
X20771428Y13557143D01*
X20814285Y13514286D01*
X20900000Y13471429D01*
X21242857Y13471429D01*
X20385714Y13857143D02*
X20342857Y13900000D01*
X20257142Y13942858D01*
X20042857Y13942858D01*
X19957142Y13900000D01*
X19914285Y13857143D01*
X19871428Y13771429D01*
X19871428Y13685715D01*
X19914285Y13557143D01*
X20428571Y13042858D01*
X19871428Y13042858D01*
X19357142Y13557143D02*
X19442857Y13600000D01*
X19485714Y13642858D01*
X19528571Y13728572D01*
X19528571Y13771429D01*
X19485714Y13857143D01*
X19442857Y13900000D01*
X19357142Y13942858D01*
X19185714Y13942858D01*
X19100000Y13900000D01*
X19057142Y13857143D01*
X19014285Y13771429D01*
X19014285Y13728572D01*
X19057142Y13642858D01*
X19100000Y13600000D01*
X19185714Y13557143D01*
X19357142Y13557143D01*
X19442857Y13514286D01*
X19485714Y13471429D01*
X19528571Y13385715D01*
X19528571Y13214286D01*
X19485714Y13128572D01*
X19442857Y13085715D01*
X19357142Y13042858D01*
X19185714Y13042858D01*
X19100000Y13085715D01*
X19057142Y13128572D01*
X19014285Y13214286D01*
X19014285Y13385715D01*
X19057142Y13471429D01*
X19100000Y13514286D01*
X19185714Y13557143D01*
X53057142Y44228572D02*
X52628571Y44528572D01*
X53057142Y44742858D02*
X52157142Y44742858D01*
X52157142Y44400000D01*
X52200000Y44314286D01*
X52242857Y44271429D01*
X52328571Y44228572D01*
X52457142Y44228572D01*
X52542857Y44271429D01*
X52585714Y44314286D01*
X52628571Y44400000D01*
X52628571Y44742858D01*
X52157142Y43928572D02*
X52157142Y43328572D01*
X53057142Y43714286D01*
X52542857Y42857143D02*
X52500000Y42942858D01*
X52457142Y42985715D01*
X52371428Y43028572D01*
X52328571Y43028572D01*
X52242857Y42985715D01*
X52200000Y42942858D01*
X52157142Y42857143D01*
X52157142Y42685715D01*
X52200000Y42600000D01*
X52242857Y42557143D01*
X52328571Y42514286D01*
X52371428Y42514286D01*
X52457142Y42557143D01*
X52500000Y42600000D01*
X52542857Y42685715D01*
X52542857Y42857143D01*
X52585714Y42942858D01*
X52628571Y42985715D01*
X52714285Y43028572D01*
X52885714Y43028572D01*
X52971428Y42985715D01*
X53014285Y42942858D01*
X53057142Y42857143D01*
X53057142Y42685715D01*
X53014285Y42600000D01*
X52971428Y42557143D01*
X52885714Y42514286D01*
X52714285Y42514286D01*
X52628571Y42557143D01*
X52585714Y42600000D01*
X52542857Y42685715D01*
X51457142Y44228572D02*
X51028571Y44528572D01*
X51457142Y44742858D02*
X50557142Y44742858D01*
X50557142Y44400000D01*
X50600000Y44314286D01*
X50642857Y44271429D01*
X50728571Y44228572D01*
X50857142Y44228572D01*
X50942857Y44271429D01*
X50985714Y44314286D01*
X51028571Y44400000D01*
X51028571Y44742858D01*
X50557142Y43928572D02*
X50557142Y43328572D01*
X51457142Y43714286D01*
X51457142Y42942858D02*
X51457142Y42771429D01*
X51414285Y42685715D01*
X51371428Y42642858D01*
X51242857Y42557143D01*
X51071428Y42514286D01*
X50728571Y42514286D01*
X50642857Y42557143D01*
X50600000Y42600000D01*
X50557142Y42685715D01*
X50557142Y42857143D01*
X50600000Y42942858D01*
X50642857Y42985715D01*
X50728571Y43028572D01*
X50942857Y43028572D01*
X51028571Y42985715D01*
X51071428Y42942858D01*
X51114285Y42857143D01*
X51114285Y42685715D01*
X51071428Y42600000D01*
X51028571Y42557143D01*
X50942857Y42514286D01*
X49857142Y44228572D02*
X49428571Y44528572D01*
X49857142Y44742858D02*
X48957142Y44742858D01*
X48957142Y44400000D01*
X49000000Y44314286D01*
X49042857Y44271429D01*
X49128571Y44228572D01*
X49257142Y44228572D01*
X49342857Y44271429D01*
X49385714Y44314286D01*
X49428571Y44400000D01*
X49428571Y44742858D01*
X49342857Y43714286D02*
X49300000Y43800000D01*
X49257142Y43842858D01*
X49171428Y43885715D01*
X49128571Y43885715D01*
X49042857Y43842858D01*
X49000000Y43800000D01*
X48957142Y43714286D01*
X48957142Y43542858D01*
X49000000Y43457143D01*
X49042857Y43414286D01*
X49128571Y43371429D01*
X49171428Y43371429D01*
X49257142Y43414286D01*
X49300000Y43457143D01*
X49342857Y43542858D01*
X49342857Y43714286D01*
X49385714Y43800000D01*
X49428571Y43842858D01*
X49514285Y43885715D01*
X49685714Y43885715D01*
X49771428Y43842858D01*
X49814285Y43800000D01*
X49857142Y43714286D01*
X49857142Y43542858D01*
X49814285Y43457143D01*
X49771428Y43414286D01*
X49685714Y43371429D01*
X49514285Y43371429D01*
X49428571Y43414286D01*
X49385714Y43457143D01*
X49342857Y43542858D01*
X48957142Y42814286D02*
X48957142Y42728572D01*
X49000000Y42642858D01*
X49042857Y42600000D01*
X49128571Y42557143D01*
X49300000Y42514286D01*
X49514285Y42514286D01*
X49685714Y42557143D01*
X49771428Y42600000D01*
X49814285Y42642858D01*
X49857142Y42728572D01*
X49857142Y42814286D01*
X49814285Y42900000D01*
X49771428Y42942858D01*
X49685714Y42985715D01*
X49514285Y43028572D01*
X49300000Y43028572D01*
X49128571Y42985715D01*
X49042857Y42942858D01*
X49000000Y42900000D01*
X48957142Y42814286D01*
X59417142Y41398572D02*
X58988571Y41698572D01*
X59417142Y41912858D02*
X58517142Y41912858D01*
X58517142Y41570000D01*
X58560000Y41484286D01*
X58602857Y41441429D01*
X58688571Y41398572D01*
X58817142Y41398572D01*
X58902857Y41441429D01*
X58945714Y41484286D01*
X58988571Y41570000D01*
X58988571Y41912858D01*
X58902857Y40884286D02*
X58860000Y40970000D01*
X58817142Y41012858D01*
X58731428Y41055715D01*
X58688571Y41055715D01*
X58602857Y41012858D01*
X58560000Y40970000D01*
X58517142Y40884286D01*
X58517142Y40712858D01*
X58560000Y40627143D01*
X58602857Y40584286D01*
X58688571Y40541429D01*
X58731428Y40541429D01*
X58817142Y40584286D01*
X58860000Y40627143D01*
X58902857Y40712858D01*
X58902857Y40884286D01*
X58945714Y40970000D01*
X58988571Y41012858D01*
X59074285Y41055715D01*
X59245714Y41055715D01*
X59331428Y41012858D01*
X59374285Y40970000D01*
X59417142Y40884286D01*
X59417142Y40712858D01*
X59374285Y40627143D01*
X59331428Y40584286D01*
X59245714Y40541429D01*
X59074285Y40541429D01*
X58988571Y40584286D01*
X58945714Y40627143D01*
X58902857Y40712858D01*
X58517142Y39770000D02*
X58517142Y39941429D01*
X58560000Y40027143D01*
X58602857Y40070000D01*
X58731428Y40155715D01*
X58902857Y40198572D01*
X59245714Y40198572D01*
X59331428Y40155715D01*
X59374285Y40112858D01*
X59417142Y40027143D01*
X59417142Y39855715D01*
X59374285Y39770000D01*
X59331428Y39727143D01*
X59245714Y39684286D01*
X59031428Y39684286D01*
X58945714Y39727143D01*
X58902857Y39770000D01*
X58860000Y39855715D01*
X58860000Y40027143D01*
X58902857Y40112858D01*
X58945714Y40155715D01*
X59031428Y40198572D01*
X59348571Y29944858D02*
X59648571Y30373429D01*
X59862857Y29944858D02*
X59862857Y30844858D01*
X59520000Y30844858D01*
X59434285Y30802000D01*
X59391428Y30759143D01*
X59348571Y30673429D01*
X59348571Y30544858D01*
X59391428Y30459143D01*
X59434285Y30416286D01*
X59520000Y30373429D01*
X59862857Y30373429D01*
X58920000Y29944858D02*
X58748571Y29944858D01*
X58662857Y29987715D01*
X58620000Y30030572D01*
X58534285Y30159143D01*
X58491428Y30330572D01*
X58491428Y30673429D01*
X58534285Y30759143D01*
X58577142Y30802000D01*
X58662857Y30844858D01*
X58834285Y30844858D01*
X58920000Y30802000D01*
X58962857Y30759143D01*
X59005714Y30673429D01*
X59005714Y30459143D01*
X58962857Y30373429D01*
X58920000Y30330572D01*
X58834285Y30287715D01*
X58662857Y30287715D01*
X58577142Y30330572D01*
X58534285Y30373429D01*
X58491428Y30459143D01*
X57934285Y30844858D02*
X57848571Y30844858D01*
X57762857Y30802000D01*
X57720000Y30759143D01*
X57677142Y30673429D01*
X57634285Y30502000D01*
X57634285Y30287715D01*
X57677142Y30116286D01*
X57720000Y30030572D01*
X57762857Y29987715D01*
X57848571Y29944858D01*
X57934285Y29944858D01*
X58020000Y29987715D01*
X58062857Y30030572D01*
X58105714Y30116286D01*
X58148571Y30287715D01*
X58148571Y30502000D01*
X58105714Y30673429D01*
X58062857Y30759143D01*
X58020000Y30802000D01*
X57934285Y30844858D01*
X58840571Y25118858D02*
X59140571Y25547429D01*
X59354857Y25118858D02*
X59354857Y26018858D01*
X59012000Y26018858D01*
X58926285Y25976000D01*
X58883428Y25933143D01*
X58840571Y25847429D01*
X58840571Y25718858D01*
X58883428Y25633143D01*
X58926285Y25590286D01*
X59012000Y25547429D01*
X59354857Y25547429D01*
X58412000Y25118858D02*
X58240571Y25118858D01*
X58154857Y25161715D01*
X58112000Y25204572D01*
X58026285Y25333143D01*
X57983428Y25504572D01*
X57983428Y25847429D01*
X58026285Y25933143D01*
X58069142Y25976000D01*
X58154857Y26018858D01*
X58326285Y26018858D01*
X58412000Y25976000D01*
X58454857Y25933143D01*
X58497714Y25847429D01*
X58497714Y25633143D01*
X58454857Y25547429D01*
X58412000Y25504572D01*
X58326285Y25461715D01*
X58154857Y25461715D01*
X58069142Y25504572D01*
X58026285Y25547429D01*
X57983428Y25633143D01*
X57126285Y25118858D02*
X57640571Y25118858D01*
X57383428Y25118858D02*
X57383428Y26018858D01*
X57469142Y25890286D01*
X57554857Y25804572D01*
X57640571Y25761715D01*
M02*
