G04 #@! TF.GenerationSoftware,KiCad,Pcbnew,(2018-01-26 revision 0d532b43d)-makepkg*
G04 #@! TF.CreationDate,2018-03-25T21:58:59-04:00*
G04 #@! TF.ProjectId,osa103k,6F73613130336B2E6B696361645F7063,rev?*
G04 #@! TF.SameCoordinates,PX38974e0PY5c3d480*
G04 #@! TF.FileFunction,Copper,L2,Bot,Signal*
G04 #@! TF.FilePolarity,Positive*
%FSLAX46Y46*%
G04 Gerber Fmt 4.6, Leading zero omitted, Abs format (unit mm)*
G04 Created by KiCad (PCBNEW (2018-01-26 revision 0d532b43d)-makepkg) date 03/25/18 21:58:59*
%MOMM*%
%LPD*%
G01*
G04 APERTURE LIST*
%ADD10C,0.600000*%
%ADD11C,4.500000*%
%ADD12R,1.000000X1.250000*%
%ADD13R,1.250000X1.000000*%
%ADD14R,0.750000X0.800000*%
%ADD15R,0.800000X0.750000*%
%ADD16R,1.600000X1.000000*%
%ADD17R,0.890000X0.460000*%
%ADD18C,0.970000*%
%ADD19R,5.080000X2.420000*%
%ADD20R,1.700000X1.700000*%
%ADD21O,1.700000X1.700000*%
%ADD22O,1.550000X1.000000*%
%ADD23O,0.950000X1.250000*%
%ADD24R,0.900000X0.500000*%
%ADD25C,0.500000*%
%ADD26C,0.100000*%
%ADD27R,0.500000X0.900000*%
%ADD28C,0.800000*%
%ADD29C,0.200000*%
%ADD30C,0.300000*%
%ADD31C,0.750000*%
%ADD32C,0.400000*%
%ADD33C,0.254000*%
G04 APERTURE END LIST*
D10*
X27050000Y24650000D03*
X35150000Y43450000D03*
X63950000Y35350000D03*
X33550000Y37450000D03*
X60450000Y25250000D03*
X33900000Y50250000D03*
X29050000Y51550000D03*
X27950000Y47700000D03*
X10250000Y19550000D03*
X23450000Y24550000D03*
X27750000Y22550000D03*
X73350000Y27300000D03*
X6150000Y28850000D03*
X9800000Y33600000D03*
X4900000Y38400000D03*
D11*
X75250000Y51700000D03*
X75250000Y5150000D03*
X2650000Y51700000D03*
D10*
X17350000Y24190000D03*
X28040000Y19250000D03*
X13010000Y31620000D03*
X10690000Y26900000D03*
X58310000Y19710000D03*
X51850000Y43820000D03*
X41530000Y46840000D03*
X35070000Y45960000D03*
X41040000Y39910000D03*
X27820000Y42490000D03*
X22110000Y47800000D03*
X16730000Y42420000D03*
X52870000Y11950000D03*
X37100000Y44370000D03*
X30000000Y39740000D03*
X21550000Y35830000D03*
X16970000Y35780000D03*
X16910000Y33210000D03*
X14070000Y35120000D03*
X25800000Y28050000D03*
X21350000Y28000000D03*
X16650000Y28300000D03*
X76200000Y8950000D03*
X77510000Y14610000D03*
X77510000Y19610000D03*
X77510000Y24610000D03*
X77510000Y29610000D03*
X75850000Y34400000D03*
X75700000Y46800000D03*
X70500000Y53190000D03*
X59370000Y53210000D03*
X54370000Y53210000D03*
X49370000Y53210000D03*
X59470000Y47290000D03*
X54130000Y35200000D03*
X54770000Y41070000D03*
X66410000Y37600000D03*
X68920000Y33940000D03*
X72490000Y31560000D03*
X61550000Y30870000D03*
X63410000Y28190000D03*
X68660000Y23230000D03*
X70780000Y21510000D03*
X72610000Y19520000D03*
X63160000Y22800000D03*
X65330000Y20220000D03*
X67660000Y20260000D03*
X62800000Y16240000D03*
X70060000Y12530000D03*
X66570000Y12300000D03*
X63070000Y12280000D03*
X58010000Y11460000D03*
X58130000Y8320000D03*
X58030000Y14900000D03*
X50080000Y5950000D03*
X45500000Y5980000D03*
X40500000Y5980000D03*
X35500000Y5980000D03*
X30500000Y5980000D03*
X31290000Y8610000D03*
X23320000Y8590000D03*
X21730000Y6040000D03*
X22700000Y17880000D03*
X21580000Y21040000D03*
X15700000Y19060000D03*
X12440000Y47950000D03*
X9270000Y44420000D03*
X26240000Y50230000D03*
X27840000Y53870000D03*
X20340000Y53850000D03*
X6600000Y52700000D03*
X-1620000Y53120000D03*
X12090000Y53610000D03*
X-1620000Y49650000D03*
X5000000Y47980000D03*
X3100000Y44220000D03*
X60000Y21420000D03*
X10910000Y3220000D03*
X6490000Y3280000D03*
X-2260000Y3480000D03*
X-830000Y7060000D03*
X4860000Y9240000D03*
X3070000Y12420000D03*
X4070000Y16660000D03*
X4550000Y21330000D03*
X2910000Y24990000D03*
X-2090000Y24990000D03*
X2910000Y29990000D03*
X-2090000Y29990000D03*
X2910000Y34990000D03*
D11*
X2650000Y5200000D03*
D12*
X8110000Y6950000D03*
X6110000Y6950000D03*
X9660000Y14120000D03*
X11660000Y14120000D03*
D13*
X14320000Y4788000D03*
X14320000Y6788000D03*
D14*
X12560000Y6220000D03*
X12560000Y4720000D03*
D15*
X19412000Y16456000D03*
X20912000Y16456000D03*
X13480000Y29550000D03*
X11980000Y29550000D03*
D14*
X46324000Y40066000D03*
X46324000Y38566000D03*
D15*
X35650000Y13300000D03*
X34150000Y13300000D03*
X36350000Y15300000D03*
X34850000Y15300000D03*
X40650000Y14000000D03*
X42150000Y14000000D03*
X44800000Y13916000D03*
X46300000Y13916000D03*
D14*
X49626000Y40066000D03*
X49626000Y38566000D03*
D15*
X52910000Y13620000D03*
X54410000Y13620000D03*
D12*
X31354000Y19758000D03*
X33354000Y19758000D03*
X31100000Y31696000D03*
X33100000Y31696000D03*
D13*
X42510000Y28370000D03*
X42510000Y26370000D03*
X46980000Y33990000D03*
X46980000Y35990000D03*
X40710000Y25770000D03*
X40710000Y23770000D03*
X37120000Y36010000D03*
X37120000Y34010000D03*
D14*
X41500000Y15400000D03*
X41500000Y16900000D03*
D15*
X50654000Y22806000D03*
X52154000Y22806000D03*
X30842000Y25600000D03*
X32342000Y25600000D03*
D14*
X38750000Y17350000D03*
X38750000Y15850000D03*
D15*
X53170000Y24584000D03*
X51670000Y24584000D03*
X50654000Y27378000D03*
X52154000Y27378000D03*
D14*
X45816000Y16952000D03*
X45816000Y15452000D03*
D16*
X58516000Y48738000D03*
X58516000Y51738000D03*
D14*
X39310000Y34260000D03*
X39310000Y35760000D03*
X42700000Y34998000D03*
X42700000Y36498000D03*
X43276000Y16964000D03*
X43276000Y15464000D03*
D16*
X56230000Y48738000D03*
X56230000Y51738000D03*
D14*
X34150000Y34280000D03*
X34150000Y35780000D03*
D16*
X53944000Y48738000D03*
X53944000Y51738000D03*
D14*
X50170000Y34100000D03*
X50170000Y35600000D03*
D16*
X51658000Y51738000D03*
X51658000Y48738000D03*
D14*
X33370000Y16710000D03*
X33370000Y15210000D03*
D16*
X49372000Y51738000D03*
X49372000Y48738000D03*
D14*
X45140000Y35570000D03*
X45140000Y34070000D03*
D15*
X52154000Y21028000D03*
X50654000Y21028000D03*
D14*
X48356000Y15198000D03*
X48356000Y16698000D03*
D15*
X31660000Y27720000D03*
X33160000Y27720000D03*
X31604000Y22806000D03*
X33104000Y22806000D03*
X50654000Y31442000D03*
X52154000Y31442000D03*
X31604000Y29918000D03*
X33104000Y29918000D03*
X55214000Y29918000D03*
X53714000Y29918000D03*
X55190000Y26108000D03*
X53690000Y26108000D03*
D14*
X62580000Y24088000D03*
X62580000Y25588000D03*
X61818000Y22032000D03*
X61818000Y20532000D03*
X62834000Y40828000D03*
X62834000Y39328000D03*
X60660000Y39120000D03*
X60660000Y40620000D03*
D13*
X71800000Y11646000D03*
X71800000Y13646000D03*
X68300000Y13000000D03*
X68300000Y11000000D03*
X64800000Y13000000D03*
X64800000Y11000000D03*
X61250000Y11050000D03*
X61250000Y13050000D03*
D15*
X70720000Y43888000D03*
X72220000Y43888000D03*
D17*
X2030000Y37840000D03*
X2030000Y46600000D03*
D18*
X2480000Y37840000D03*
X2480000Y46600000D03*
D19*
X-960000Y37840000D03*
X-960000Y46600000D03*
X-960000Y19000000D03*
X-960000Y10240000D03*
D18*
X2480000Y19000000D03*
X2480000Y10240000D03*
D17*
X2030000Y19000000D03*
X2030000Y10240000D03*
D20*
X7660000Y39120000D03*
D21*
X7660000Y36580000D03*
X7660000Y34040000D03*
X7660000Y21440000D03*
X7660000Y23980000D03*
D20*
X7660000Y26520000D03*
D21*
X68700000Y6120000D03*
X66160000Y6120000D03*
X63620000Y6120000D03*
X61080000Y6120000D03*
X58540000Y6120000D03*
X56000000Y6120000D03*
D20*
X53460000Y6120000D03*
D22*
X76150000Y43900000D03*
X76150000Y36900000D03*
D23*
X73450000Y42900000D03*
X73450000Y37900000D03*
D24*
X10120000Y40060000D03*
X10120000Y38560000D03*
X9810000Y23590000D03*
X9810000Y22090000D03*
D25*
X9929670Y11070330D03*
D26*
G36*
X10424645Y11211751D02*
X9788249Y10575355D01*
X9434695Y10928909D01*
X10071091Y11565305D01*
X10424645Y11211751D01*
X10424645Y11211751D01*
G37*
D25*
X10990330Y10009670D03*
D26*
G36*
X11485305Y10151091D02*
X10848909Y9514695D01*
X10495355Y9868249D01*
X11131751Y10504645D01*
X11485305Y10151091D01*
X11485305Y10151091D01*
G37*
D24*
X14050000Y9700000D03*
X14050000Y8200000D03*
X12520000Y7470000D03*
X12520000Y8970000D03*
D27*
X20890000Y14870000D03*
X19390000Y14870000D03*
D24*
X52420000Y47178000D03*
X52420000Y45678000D03*
X50896000Y45678000D03*
X50896000Y47178000D03*
X49372000Y47178000D03*
X49372000Y45678000D03*
X57560000Y40070000D03*
X57560000Y41570000D03*
D27*
X59520000Y28902000D03*
X58020000Y28902000D03*
X59012000Y24076000D03*
X57512000Y24076000D03*
D10*
X-2090000Y34990000D03*
D28*
X54047470Y23838330D03*
X71460000Y27445000D03*
X29916091Y17939372D03*
X55110000Y14830000D03*
X61909098Y42428011D03*
X27650469Y34775863D03*
X71800000Y42650000D03*
X51300000Y50050000D03*
X53709985Y15150000D03*
X54644010Y18069979D03*
X40736000Y26616000D03*
X42514000Y25346000D03*
X67485000Y31095000D03*
X13035000Y31695000D03*
X51285000Y36520000D03*
X31385000Y13295000D03*
X57260000Y46570000D03*
X66610000Y48470000D03*
X41060000Y51020000D03*
X48310000Y40620000D03*
X42760000Y42220000D03*
X44910000Y42120000D03*
X35660000Y50120000D03*
X45160000Y51170000D03*
X38210000Y51970000D03*
X36510000Y47170000D03*
X14260000Y39070000D03*
X17328453Y45797947D03*
X15410000Y43470000D03*
X11060000Y15570000D03*
X21810000Y11970000D03*
X29760000Y12220000D03*
X24910000Y51520000D03*
X19760000Y49070000D03*
X20510000Y44870000D03*
X20810000Y40120000D03*
X24360000Y44070000D03*
X25260000Y42820000D03*
X24060000Y41770000D03*
X22910000Y40720000D03*
X21810000Y39670000D03*
X9410000Y11330000D03*
X9410000Y7995000D03*
X11260000Y11720000D03*
X18550000Y15345000D03*
X21590000Y15700000D03*
X20810000Y42770000D03*
X19560000Y44020000D03*
X34350000Y32850000D03*
X34300004Y31450000D03*
X42810000Y18400000D03*
X47420000Y18060000D03*
X35800000Y33200000D03*
X54310000Y46890000D03*
X34331937Y25916937D03*
X49760000Y25559010D03*
X40522990Y17508235D03*
X67160010Y18895000D03*
X60110000Y18870000D03*
X70860000Y18895000D03*
X63610000Y18870000D03*
X44035000Y33870000D03*
X34260000Y27670000D03*
X13954982Y25169968D03*
X13910000Y27970000D03*
X34360000Y23570000D03*
X34360000Y21220000D03*
X34360000Y17370000D03*
X49760000Y28170000D03*
X49760000Y29620000D03*
X41560000Y33870000D03*
X49910000Y32720000D03*
X49060000Y33520000D03*
X48660000Y21120000D03*
X49360000Y20420000D03*
X49260000Y32820000D03*
X44950000Y40930000D03*
X33050000Y13300000D03*
X36450000Y16449998D03*
X39358862Y13620730D03*
X43450000Y13599994D03*
X48320000Y38750000D03*
X52984791Y16098927D03*
X59278000Y30172000D03*
X46660000Y16920000D03*
X42560000Y33150000D03*
X34150000Y24720000D03*
X48750000Y24220000D03*
X70650000Y45350000D03*
X48100000Y4300000D03*
X60860000Y42420000D03*
X56738000Y29664000D03*
X55055021Y24544985D03*
X60693000Y27500000D03*
X58913026Y22544904D03*
X62905516Y42316131D03*
X70850000Y11390000D03*
X71860000Y14600000D03*
X68260000Y14250000D03*
X67350000Y10960000D03*
X64660000Y14250000D03*
X63950000Y10940000D03*
X60450000Y11045000D03*
X61060000Y14350000D03*
X10360000Y37500000D03*
X9730000Y40600000D03*
X58860000Y38920000D03*
X57460000Y38920000D03*
X60548000Y20012000D03*
X14759998Y10320000D03*
X40160000Y22670000D03*
X44860000Y26020000D03*
X40960000Y27870000D03*
X38710000Y24770000D03*
X43260000Y24120000D03*
X42460000Y24120000D03*
X12760000Y15670000D03*
X14810000Y13170000D03*
D29*
X2964999Y46105001D02*
X3100000Y45970000D01*
X2480000Y46600000D02*
X2964999Y46115001D01*
X2964999Y46115001D02*
X2964999Y46105001D01*
X2984999Y47084999D02*
X3120000Y47220000D01*
X2480000Y46600000D02*
X2964999Y47084999D01*
X2964999Y47084999D02*
X2984999Y47084999D01*
X2964999Y37345001D02*
X3090000Y37220000D01*
X2480000Y37840000D02*
X2964999Y37355001D01*
X2964999Y37355001D02*
X2964999Y37345001D01*
X2964999Y38324999D02*
X2480000Y37840000D01*
X2964999Y38324999D02*
X2964999Y38334999D01*
X2480000Y19000000D02*
X3080000Y18400000D01*
X3120000Y19640000D02*
X2480000Y19000000D01*
X2480000Y10240000D02*
X2820000Y9900000D01*
X2964999Y9755001D02*
X2820000Y9900000D01*
X2480000Y10240000D02*
X2964999Y10724999D01*
X2964999Y10724999D02*
X2974999Y10724999D01*
D30*
X-960000Y19000000D02*
X1880000Y19000000D01*
X1880000Y19000000D02*
X2480000Y19000000D01*
X-960000Y10240000D02*
X2480000Y10240000D01*
D29*
X43276000Y15464000D02*
X45804000Y15464000D01*
X45804000Y15464000D02*
X45816000Y15452000D01*
X43276000Y15464000D02*
X41564000Y15464000D01*
X41564000Y15464000D02*
X41500000Y15400000D01*
X42150000Y14000000D02*
X42150000Y15325000D01*
X42150000Y15325000D02*
X42075000Y15400000D01*
X42075000Y15400000D02*
X41500000Y15400000D01*
X40710000Y26590000D02*
X40736000Y26616000D01*
X40710000Y25770000D02*
X40710000Y26590000D01*
X42510000Y25350000D02*
X42514000Y25346000D01*
X42510000Y26370000D02*
X42510000Y25350000D01*
D31*
X9810000Y22090000D02*
X8310000Y22090000D01*
X8310000Y22090000D02*
X7660000Y21440000D01*
D29*
X9669670Y11070330D02*
X9410000Y11330000D01*
X9929670Y11070330D02*
X9669670Y11070330D01*
D31*
X8365000Y6950000D02*
X9410000Y7995000D01*
X8110000Y6950000D02*
X8365000Y6950000D01*
X11660000Y14120000D02*
X11660000Y12120000D01*
X11660000Y12120000D02*
X11260000Y11720000D01*
D29*
X14320000Y6788000D02*
X14320000Y7930000D01*
X14320000Y7930000D02*
X14050000Y8200000D01*
X12560000Y6220000D02*
X12560000Y7430000D01*
X12560000Y7430000D02*
X12520000Y7470000D01*
X19390000Y14870000D02*
X19390000Y16434000D01*
X19390000Y16434000D02*
X19412000Y16456000D01*
X19390000Y14870000D02*
X19025000Y14870000D01*
X19025000Y14870000D02*
X18550000Y15345000D01*
X20890000Y14870000D02*
X20890000Y15000000D01*
X20890000Y15000000D02*
X21590000Y15700000D01*
X20890000Y14870000D02*
X20890000Y16434000D01*
X20890000Y16434000D02*
X20912000Y16456000D01*
X19560000Y44020000D02*
X20810000Y42770000D01*
D31*
X63610000Y18870000D02*
X67135010Y18870000D01*
X48356000Y16698000D02*
X48356000Y17124000D01*
X48356000Y17124000D02*
X47420000Y18060000D01*
X33370000Y16710000D02*
X33700000Y16710000D01*
X33700000Y16710000D02*
X34360000Y17370000D01*
X13954982Y25169968D02*
X13954982Y27925018D01*
X13954982Y27925018D02*
X13910000Y27970000D01*
X13480000Y29550000D02*
X13480000Y28400000D01*
X13480000Y28400000D02*
X13910000Y27970000D01*
X49372000Y45678000D02*
X50896000Y45678000D01*
X50896000Y45678000D02*
X52420000Y45678000D01*
X53098000Y45678000D02*
X54310000Y46890000D01*
X52420000Y45678000D02*
X53098000Y45678000D01*
X70860000Y18895000D02*
X67160010Y18895000D01*
X67135010Y18870000D02*
X67160010Y18895000D01*
X63610000Y18870000D02*
X67135010Y18870000D01*
X60110000Y18870000D02*
X63610000Y18870000D01*
D29*
X46324000Y40066000D02*
X45814000Y40066000D01*
X45814000Y40066000D02*
X44950000Y40930000D01*
X34150000Y13300000D02*
X33050000Y13300000D01*
X36450000Y15350000D02*
X36450000Y16449998D01*
X36300000Y15200000D02*
X36450000Y15350000D01*
X39738132Y14000000D02*
X39358862Y13620730D01*
X40650000Y14000000D02*
X39738132Y14000000D01*
X44800000Y13916000D02*
X43766006Y13916000D01*
X43766006Y13916000D02*
X43450000Y13599994D01*
X49626000Y38566000D02*
X48504000Y38566000D01*
X48504000Y38566000D02*
X48320000Y38750000D01*
X52910000Y13620000D02*
X52910000Y16024136D01*
X52984791Y18308789D02*
X52984791Y16098927D01*
X58770000Y29664000D02*
X58770000Y25474000D01*
X59278000Y30172000D02*
X58770000Y29664000D01*
X58262000Y23585998D02*
X52984791Y18308789D01*
X52910000Y16024136D02*
X52984791Y16098927D01*
X58262000Y24966000D02*
X58262000Y23585998D01*
X58770000Y25474000D02*
X58262000Y24966000D01*
D31*
X46628000Y16952000D02*
X46660000Y16920000D01*
X45816000Y16952000D02*
X46628000Y16952000D01*
X42700000Y34998000D02*
X42700000Y33290000D01*
X42700000Y33290000D02*
X42560000Y33150000D01*
X33270000Y25600000D02*
X34150000Y24720000D01*
X32342000Y25600000D02*
X33270000Y25600000D01*
X51670000Y24584000D02*
X49114000Y24584000D01*
X49114000Y24584000D02*
X48750000Y24220000D01*
X41498000Y16686000D02*
X41498000Y21398000D01*
D32*
X69150000Y4300000D02*
X74750000Y9900000D01*
X48100000Y4300000D02*
X69150000Y4300000D01*
X74750000Y9900000D02*
X74750000Y43250000D01*
X74750000Y43250000D02*
X72600000Y45400000D01*
X72600000Y45400000D02*
X70700000Y45400000D01*
X70700000Y45400000D02*
X70650000Y45350000D01*
D29*
X53944000Y48738000D02*
X56230000Y48738000D01*
X50896000Y47178000D02*
X52420000Y47178000D01*
X49372000Y47178000D02*
X50896000Y47178000D01*
D32*
X53944000Y48738000D02*
X53944000Y48702000D01*
X53944000Y48702000D02*
X52420000Y47178000D01*
X51658000Y48738000D02*
X51658000Y47940000D01*
X51658000Y47940000D02*
X50896000Y47178000D01*
X49372000Y48738000D02*
X49372000Y47178000D01*
X58516000Y48738000D02*
X49372000Y48738000D01*
X60600000Y40680000D02*
X60660000Y40620000D01*
X60600000Y40800000D02*
X60600000Y40680000D01*
X60860000Y41060000D02*
X60600000Y40800000D01*
X60860000Y42420000D02*
X60860000Y41060000D01*
D29*
X56738000Y28902000D02*
X55655000Y28902000D01*
X58020000Y28902000D02*
X56738000Y28902000D01*
X56738000Y29664000D02*
X56738000Y28902000D01*
X55655000Y28902000D02*
X55214000Y29343000D01*
X55214000Y29343000D02*
X55214000Y29918000D01*
X55190000Y24679964D02*
X55055021Y24544985D01*
X55190000Y26108000D02*
X55190000Y24679964D01*
X55190000Y26108000D02*
X55680000Y26108000D01*
X55680000Y26108000D02*
X57512000Y24276000D01*
X57512000Y24276000D02*
X57512000Y24076000D01*
X60693000Y27500000D02*
X59520000Y28673000D01*
X62580000Y25613000D02*
X60693000Y27500000D01*
X62580000Y25588000D02*
X62580000Y25613000D01*
X59520000Y28673000D02*
X59520000Y28902000D01*
X62338000Y25346000D02*
X62580000Y25588000D01*
X59012000Y24076000D02*
X59012000Y22643878D01*
X59012000Y22643878D02*
X58913026Y22544904D01*
D32*
X62834000Y40853000D02*
X62834000Y40828000D01*
D29*
X61281000Y39850000D02*
X62259000Y40828000D01*
X59480000Y39850000D02*
X61281000Y39850000D01*
X57560000Y41570000D02*
X57760000Y41570000D01*
X57760000Y41570000D02*
X59480000Y39850000D01*
X62834000Y42244615D02*
X62905516Y42316131D01*
X62834000Y40828000D02*
X62834000Y42244615D01*
X62259000Y40828000D02*
X62834000Y40828000D01*
X57360000Y41570000D02*
X56460000Y41120000D01*
X57560000Y41570000D02*
X57360000Y41570000D01*
X56460000Y41120000D02*
X56460000Y39220000D01*
X56460000Y39220000D02*
X56760000Y38920000D01*
X56760000Y38920000D02*
X57460000Y38920000D01*
X71800000Y11646000D02*
X71106000Y11646000D01*
X71106000Y11646000D02*
X70850000Y11390000D01*
X71800000Y13646000D02*
X71800000Y14540000D01*
X71800000Y14540000D02*
X71860000Y14600000D01*
X68300000Y13000000D02*
X68300000Y14210000D01*
X68300000Y14210000D02*
X68260000Y14250000D01*
X68300000Y11000000D02*
X67390000Y11000000D01*
X67390000Y11000000D02*
X67350000Y10960000D01*
X64800000Y13000000D02*
X64800000Y14110000D01*
X64800000Y14110000D02*
X64660000Y14250000D01*
X64800000Y11000000D02*
X64010000Y11000000D01*
X64010000Y11000000D02*
X63950000Y10940000D01*
X61250000Y11050000D02*
X60455000Y11050000D01*
X60455000Y11050000D02*
X60450000Y11045000D01*
X61250000Y14160000D02*
X61060000Y14350000D01*
X61250000Y13050000D02*
X61250000Y14160000D01*
X72220000Y43888000D02*
X72462000Y43888000D01*
X72462000Y43888000D02*
X73450000Y42900000D01*
X10120000Y38560000D02*
X10120000Y37740000D01*
X10120000Y37740000D02*
X10360000Y37500000D01*
D31*
X9810000Y23590000D02*
X8050000Y23590000D01*
X8050000Y23590000D02*
X7660000Y23980000D01*
D30*
X10120000Y40060000D02*
X10120000Y40210000D01*
X10120000Y40210000D02*
X9730000Y40600000D01*
D29*
X57710000Y40070000D02*
X58860000Y38920000D01*
X57560000Y40070000D02*
X57710000Y40070000D01*
D32*
X57560000Y40070000D02*
X57760000Y40070000D01*
D29*
X57512000Y38972000D02*
X57460000Y38920000D01*
X60548000Y20012000D02*
X61298000Y20012000D01*
X61298000Y20012000D02*
X61818000Y20532000D01*
X14139998Y9700000D02*
X14759998Y10320000D01*
X14050000Y9700000D02*
X14139998Y9700000D01*
X12520000Y8970000D02*
X12520000Y9420000D01*
X12520000Y9420000D02*
X12800000Y9700000D01*
X12800000Y9700000D02*
X14050000Y9700000D01*
X12520000Y8970000D02*
X12030000Y8970000D01*
X12030000Y8970000D02*
X10990330Y10009670D01*
D31*
X43260000Y24120000D02*
X42460000Y24120000D01*
D29*
X12760000Y15220000D02*
X12760000Y15670000D01*
X14810000Y13170000D02*
X12760000Y15220000D01*
D33*
G36*
X35860000Y34295750D02*
X36018750Y34137000D01*
X36993000Y34137000D01*
X36993000Y34157000D01*
X37247000Y34157000D01*
X37247000Y34137000D01*
X37267000Y34137000D01*
X37267000Y33883000D01*
X37247000Y33883000D01*
X37247000Y33033750D01*
X37405750Y32875000D01*
X37871310Y32875000D01*
X38104699Y32971673D01*
X38283327Y33150302D01*
X38380000Y33383691D01*
X38380000Y33540554D01*
X38396673Y33500302D01*
X38575301Y33321673D01*
X38808690Y33225000D01*
X39024250Y33225000D01*
X39183000Y33383750D01*
X39183000Y34133000D01*
X39437000Y34133000D01*
X39437000Y33383750D01*
X39595750Y33225000D01*
X39811310Y33225000D01*
X40044699Y33321673D01*
X40223327Y33500302D01*
X40320000Y33733691D01*
X40320000Y33974250D01*
X40161250Y34133000D01*
X39437000Y34133000D01*
X39183000Y34133000D01*
X39163000Y34133000D01*
X39163000Y34387000D01*
X39183000Y34387000D01*
X39183000Y34393000D01*
X39437000Y34393000D01*
X39437000Y34387000D01*
X40161250Y34387000D01*
X40167250Y34393000D01*
X41690000Y34393000D01*
X41690000Y33743953D01*
X41683081Y33737046D01*
X41525180Y33356777D01*
X41524821Y32945029D01*
X41682058Y32564485D01*
X41972954Y32273081D01*
X42353223Y32115180D01*
X42764971Y32114821D01*
X43145515Y32272058D01*
X43436919Y32562954D01*
X43488366Y32686853D01*
X43633118Y32903490D01*
X43710000Y33290000D01*
X43710000Y33784250D01*
X44130000Y33784250D01*
X44130000Y33543691D01*
X44226673Y33310302D01*
X44405301Y33131673D01*
X44638690Y33035000D01*
X44854250Y33035000D01*
X45013000Y33193750D01*
X45013000Y33943000D01*
X45267000Y33943000D01*
X45267000Y33193750D01*
X45425750Y33035000D01*
X45641310Y33035000D01*
X45832699Y33114276D01*
X45995301Y32951673D01*
X46228690Y32855000D01*
X46694250Y32855000D01*
X46853000Y33013750D01*
X46853000Y33863000D01*
X47107000Y33863000D01*
X47107000Y33013750D01*
X47265750Y32855000D01*
X47731310Y32855000D01*
X47964699Y32951673D01*
X48143327Y33130302D01*
X48240000Y33363691D01*
X48240000Y33704250D01*
X48130000Y33814250D01*
X49160000Y33814250D01*
X49160000Y33573691D01*
X49256673Y33340302D01*
X49435301Y33161673D01*
X49668690Y33065000D01*
X49884250Y33065000D01*
X50043000Y33223750D01*
X50043000Y33973000D01*
X49318750Y33973000D01*
X49160000Y33814250D01*
X48130000Y33814250D01*
X48081250Y33863000D01*
X47107000Y33863000D01*
X46853000Y33863000D01*
X46071250Y33863000D01*
X45991250Y33943000D01*
X45267000Y33943000D01*
X45013000Y33943000D01*
X44288750Y33943000D01*
X44130000Y33784250D01*
X43710000Y33784250D01*
X43710000Y34393000D01*
X44130000Y34393000D01*
X44130000Y34355750D01*
X44288750Y34197000D01*
X45013000Y34197000D01*
X45013000Y34217000D01*
X45267000Y34217000D01*
X45267000Y34197000D01*
X45798750Y34197000D01*
X45878750Y34117000D01*
X46853000Y34117000D01*
X46853000Y34137000D01*
X47107000Y34137000D01*
X47107000Y34117000D01*
X48081250Y34117000D01*
X48240000Y34275750D01*
X48240000Y34393000D01*
X49160000Y34393000D01*
X49160000Y34385750D01*
X49318750Y34227000D01*
X50043000Y34227000D01*
X50043000Y34247000D01*
X50297000Y34247000D01*
X50297000Y34227000D01*
X50317000Y34227000D01*
X50317000Y33973000D01*
X50297000Y33973000D01*
X50297000Y33223750D01*
X50455750Y33065000D01*
X50671310Y33065000D01*
X50733000Y33090553D01*
X50733000Y25594000D01*
X49114000Y25594000D01*
X48727490Y25517118D01*
X48399822Y25298178D01*
X48224302Y25122658D01*
X48164485Y25097942D01*
X47873081Y24807046D01*
X47715180Y24426777D01*
X47714821Y24015029D01*
X47872058Y23634485D01*
X48162954Y23343081D01*
X48543223Y23185180D01*
X48954971Y23184821D01*
X49335515Y23342058D01*
X49567862Y23574000D01*
X49748974Y23574000D01*
X49715673Y23540699D01*
X49619000Y23307310D01*
X49619000Y23091750D01*
X49777750Y22933000D01*
X50527000Y22933000D01*
X50527000Y22953000D01*
X50733000Y22953000D01*
X50733000Y16907000D01*
X49289250Y16907000D01*
X49366000Y16983750D01*
X49366000Y17224309D01*
X49269327Y17457698D01*
X49090699Y17636327D01*
X48857310Y17733000D01*
X48641750Y17733000D01*
X48483000Y17574250D01*
X48483000Y16907000D01*
X48229000Y16907000D01*
X48229000Y17574250D01*
X48070250Y17733000D01*
X47854690Y17733000D01*
X47621301Y17636327D01*
X47514236Y17529262D01*
X47247046Y17796919D01*
X46866777Y17954820D01*
X46663204Y17954997D01*
X46628000Y17962000D01*
X46379226Y17962000D01*
X46191000Y17999440D01*
X45441000Y17999440D01*
X45193235Y17950157D01*
X44983191Y17809809D01*
X44842843Y17599765D01*
X44793560Y17352000D01*
X44793560Y16907000D01*
X43129000Y16907000D01*
X43129000Y17091000D01*
X43149000Y17091000D01*
X43149000Y17840250D01*
X43403000Y17840250D01*
X43403000Y17091000D01*
X44127250Y17091000D01*
X44286000Y17249750D01*
X44286000Y17490309D01*
X44189327Y17723698D01*
X44010699Y17902327D01*
X43777310Y17999000D01*
X43561750Y17999000D01*
X43403000Y17840250D01*
X43149000Y17840250D01*
X42990250Y17999000D01*
X42774690Y17999000D01*
X42541301Y17902327D01*
X42508000Y17869026D01*
X42508000Y20485000D01*
X46260000Y20485000D01*
X46503004Y20533336D01*
X46592297Y20593000D01*
X46660000Y20593000D01*
X46708601Y20602667D01*
X46749803Y20630197D01*
X46777333Y20671399D01*
X46787000Y20720000D01*
X46787000Y20742250D01*
X49619000Y20742250D01*
X49619000Y20526690D01*
X49715673Y20293301D01*
X49894302Y20114673D01*
X50127691Y20018000D01*
X50368250Y20018000D01*
X50527000Y20176750D01*
X50527000Y20901000D01*
X49777750Y20901000D01*
X49619000Y20742250D01*
X46787000Y20742250D01*
X46787000Y20787703D01*
X46846664Y20876996D01*
X46895000Y21120000D01*
X46895000Y22520250D01*
X49619000Y22520250D01*
X49619000Y22304690D01*
X49715673Y22071301D01*
X49869975Y21917000D01*
X49715673Y21762699D01*
X49619000Y21529310D01*
X49619000Y21313750D01*
X49777750Y21155000D01*
X50527000Y21155000D01*
X50527000Y21879250D01*
X50489250Y21917000D01*
X50527000Y21954750D01*
X50527000Y22679000D01*
X49777750Y22679000D01*
X49619000Y22520250D01*
X46895000Y22520250D01*
X46895000Y27092250D01*
X49619000Y27092250D01*
X49619000Y26876690D01*
X49715673Y26643301D01*
X49894302Y26464673D01*
X50127691Y26368000D01*
X50368250Y26368000D01*
X50527000Y26526750D01*
X50527000Y27251000D01*
X49777750Y27251000D01*
X49619000Y27092250D01*
X46895000Y27092250D01*
X46895000Y27879310D01*
X49619000Y27879310D01*
X49619000Y27663750D01*
X49777750Y27505000D01*
X50527000Y27505000D01*
X50527000Y28229250D01*
X50368250Y28388000D01*
X50127691Y28388000D01*
X49894302Y28291327D01*
X49715673Y28112699D01*
X49619000Y27879310D01*
X46895000Y27879310D01*
X46895000Y29920000D01*
X46846664Y30163004D01*
X46787000Y30252297D01*
X46787000Y30320000D01*
X46777333Y30368601D01*
X46749803Y30409803D01*
X46708601Y30437333D01*
X46660000Y30447000D01*
X46592297Y30447000D01*
X46503004Y30506664D01*
X46260000Y30555000D01*
X37460000Y30555000D01*
X37216996Y30506664D01*
X37127703Y30447000D01*
X37060000Y30447000D01*
X37011399Y30437333D01*
X36970197Y30409803D01*
X36942667Y30368601D01*
X36933000Y30320000D01*
X36933000Y30252297D01*
X36873336Y30163004D01*
X36825000Y29920000D01*
X36825000Y21120000D01*
X36873336Y20876996D01*
X36933000Y20787703D01*
X36933000Y20720000D01*
X36942667Y20671399D01*
X36970197Y20630197D01*
X37011399Y20602667D01*
X37060000Y20593000D01*
X37127703Y20593000D01*
X37216996Y20533336D01*
X37460000Y20485000D01*
X40488000Y20485000D01*
X40488000Y17352486D01*
X40477560Y17300000D01*
X40477560Y16907000D01*
X39760000Y16907000D01*
X39760000Y17064250D01*
X39601250Y17223000D01*
X38877000Y17223000D01*
X38877000Y17203000D01*
X38623000Y17203000D01*
X38623000Y17223000D01*
X37898750Y17223000D01*
X37740000Y17064250D01*
X37740000Y16907000D01*
X37381042Y16907000D01*
X37327942Y17035513D01*
X37037046Y17326917D01*
X36656777Y17484818D01*
X36245029Y17485177D01*
X35864485Y17327940D01*
X35573081Y17037044D01*
X35519082Y16907000D01*
X34291250Y16907000D01*
X34380000Y16995750D01*
X34380000Y17236309D01*
X34283327Y17469698D01*
X34104699Y17648327D01*
X33871310Y17745000D01*
X33655750Y17745000D01*
X33497000Y17586250D01*
X33497000Y16907000D01*
X33243000Y16907000D01*
X33243000Y17586250D01*
X33084250Y17745000D01*
X32987000Y17745000D01*
X32987000Y17876309D01*
X37740000Y17876309D01*
X37740000Y17635750D01*
X37898750Y17477000D01*
X38623000Y17477000D01*
X38623000Y18226250D01*
X38877000Y18226250D01*
X38877000Y17477000D01*
X39601250Y17477000D01*
X39760000Y17635750D01*
X39760000Y17876309D01*
X39663327Y18109698D01*
X39484699Y18288327D01*
X39251310Y18385000D01*
X39035750Y18385000D01*
X38877000Y18226250D01*
X38623000Y18226250D01*
X38464250Y18385000D01*
X38248690Y18385000D01*
X38015301Y18288327D01*
X37836673Y18109698D01*
X37740000Y17876309D01*
X32987000Y17876309D01*
X32987000Y18498000D01*
X33068250Y18498000D01*
X33227000Y18656750D01*
X33227000Y19631000D01*
X33481000Y19631000D01*
X33481000Y18656750D01*
X33639750Y18498000D01*
X33980309Y18498000D01*
X34213698Y18594673D01*
X34392327Y18773301D01*
X34489000Y19006690D01*
X34489000Y19472250D01*
X34330250Y19631000D01*
X33481000Y19631000D01*
X33227000Y19631000D01*
X33207000Y19631000D01*
X33207000Y19885000D01*
X33227000Y19885000D01*
X33227000Y20859250D01*
X33481000Y20859250D01*
X33481000Y19885000D01*
X34330250Y19885000D01*
X34489000Y20043750D01*
X34489000Y20509310D01*
X34392327Y20742699D01*
X34213698Y20921327D01*
X33980309Y21018000D01*
X33639750Y21018000D01*
X33481000Y20859250D01*
X33227000Y20859250D01*
X33068250Y21018000D01*
X32987000Y21018000D01*
X32987000Y22679000D01*
X33231000Y22679000D01*
X33231000Y21954750D01*
X33389750Y21796000D01*
X33630309Y21796000D01*
X33863698Y21892673D01*
X34042327Y22071301D01*
X34139000Y22304690D01*
X34139000Y22520250D01*
X33980250Y22679000D01*
X33231000Y22679000D01*
X32987000Y22679000D01*
X32987000Y24454644D01*
X33247342Y24194302D01*
X33272058Y24134485D01*
X33562954Y23843081D01*
X33628172Y23816000D01*
X33389750Y23816000D01*
X33231000Y23657250D01*
X33231000Y22933000D01*
X33980250Y22933000D01*
X34139000Y23091750D01*
X34139000Y23307310D01*
X34042327Y23540699D01*
X33865623Y23717402D01*
X33943223Y23685180D01*
X34354971Y23684821D01*
X34735515Y23842058D01*
X35026919Y24132954D01*
X35184820Y24513223D01*
X35185179Y24924971D01*
X35027942Y25305515D01*
X34737046Y25596919D01*
X34676151Y25622205D01*
X33984178Y26314178D01*
X33656510Y26533118D01*
X33270000Y26610000D01*
X32987000Y26610000D01*
X32987000Y26822750D01*
X33033000Y26868750D01*
X33033000Y27593000D01*
X33287000Y27593000D01*
X33287000Y26868750D01*
X33445750Y26710000D01*
X33686309Y26710000D01*
X33919698Y26806673D01*
X34098327Y26985301D01*
X34195000Y27218690D01*
X34195000Y27434250D01*
X34036250Y27593000D01*
X33287000Y27593000D01*
X33033000Y27593000D01*
X33013000Y27593000D01*
X33013000Y27847000D01*
X33033000Y27847000D01*
X33033000Y28571250D01*
X33287000Y28571250D01*
X33287000Y27847000D01*
X34036250Y27847000D01*
X34195000Y28005750D01*
X34195000Y28221310D01*
X34098327Y28454699D01*
X33919698Y28633327D01*
X33686309Y28730000D01*
X33445750Y28730000D01*
X33287000Y28571250D01*
X33033000Y28571250D01*
X32987000Y28617250D01*
X32987000Y29791000D01*
X33231000Y29791000D01*
X33231000Y29066750D01*
X33389750Y28908000D01*
X33630309Y28908000D01*
X33863698Y29004673D01*
X34042327Y29183301D01*
X34139000Y29416690D01*
X34139000Y29632250D01*
X33980250Y29791000D01*
X33231000Y29791000D01*
X32987000Y29791000D01*
X32987000Y31569000D01*
X33227000Y31569000D01*
X33227000Y30594750D01*
X33231000Y30590750D01*
X33231000Y30045000D01*
X33980250Y30045000D01*
X34139000Y30203750D01*
X34139000Y30419310D01*
X34053280Y30626255D01*
X34138327Y30711301D01*
X34235000Y30944690D01*
X34235000Y31156250D01*
X49619000Y31156250D01*
X49619000Y30940690D01*
X49715673Y30707301D01*
X49894302Y30528673D01*
X50127691Y30432000D01*
X50368250Y30432000D01*
X50527000Y30590750D01*
X50527000Y31315000D01*
X49777750Y31315000D01*
X49619000Y31156250D01*
X34235000Y31156250D01*
X34235000Y31410250D01*
X34076250Y31569000D01*
X33227000Y31569000D01*
X32987000Y31569000D01*
X32987000Y32797250D01*
X33227000Y32797250D01*
X33227000Y31823000D01*
X34076250Y31823000D01*
X34196560Y31943310D01*
X49619000Y31943310D01*
X49619000Y31727750D01*
X49777750Y31569000D01*
X50527000Y31569000D01*
X50527000Y32293250D01*
X50368250Y32452000D01*
X50127691Y32452000D01*
X49894302Y32355327D01*
X49715673Y32176699D01*
X49619000Y31943310D01*
X34196560Y31943310D01*
X34235000Y31981750D01*
X34235000Y32447310D01*
X34138327Y32680699D01*
X33959698Y32859327D01*
X33726309Y32956000D01*
X33385750Y32956000D01*
X33227000Y32797250D01*
X32987000Y32797250D01*
X32987000Y33994250D01*
X33140000Y33994250D01*
X33140000Y33753691D01*
X33236673Y33520302D01*
X33415301Y33341673D01*
X33648690Y33245000D01*
X33864250Y33245000D01*
X34023000Y33403750D01*
X34023000Y34153000D01*
X34277000Y34153000D01*
X34277000Y33403750D01*
X34435750Y33245000D01*
X34651310Y33245000D01*
X34884699Y33341673D01*
X35063327Y33520302D01*
X35147805Y33724250D01*
X35860000Y33724250D01*
X35860000Y33383691D01*
X35956673Y33150302D01*
X36135301Y32971673D01*
X36368690Y32875000D01*
X36834250Y32875000D01*
X36993000Y33033750D01*
X36993000Y33883000D01*
X36018750Y33883000D01*
X35860000Y33724250D01*
X35147805Y33724250D01*
X35160000Y33753691D01*
X35160000Y33994250D01*
X35001250Y34153000D01*
X34277000Y34153000D01*
X34023000Y34153000D01*
X33298750Y34153000D01*
X33140000Y33994250D01*
X32987000Y33994250D01*
X32987000Y34393000D01*
X35860000Y34393000D01*
X35860000Y34295750D01*
X35860000Y34295750D01*
G37*
X35860000Y34295750D02*
X36018750Y34137000D01*
X36993000Y34137000D01*
X36993000Y34157000D01*
X37247000Y34157000D01*
X37247000Y34137000D01*
X37267000Y34137000D01*
X37267000Y33883000D01*
X37247000Y33883000D01*
X37247000Y33033750D01*
X37405750Y32875000D01*
X37871310Y32875000D01*
X38104699Y32971673D01*
X38283327Y33150302D01*
X38380000Y33383691D01*
X38380000Y33540554D01*
X38396673Y33500302D01*
X38575301Y33321673D01*
X38808690Y33225000D01*
X39024250Y33225000D01*
X39183000Y33383750D01*
X39183000Y34133000D01*
X39437000Y34133000D01*
X39437000Y33383750D01*
X39595750Y33225000D01*
X39811310Y33225000D01*
X40044699Y33321673D01*
X40223327Y33500302D01*
X40320000Y33733691D01*
X40320000Y33974250D01*
X40161250Y34133000D01*
X39437000Y34133000D01*
X39183000Y34133000D01*
X39163000Y34133000D01*
X39163000Y34387000D01*
X39183000Y34387000D01*
X39183000Y34393000D01*
X39437000Y34393000D01*
X39437000Y34387000D01*
X40161250Y34387000D01*
X40167250Y34393000D01*
X41690000Y34393000D01*
X41690000Y33743953D01*
X41683081Y33737046D01*
X41525180Y33356777D01*
X41524821Y32945029D01*
X41682058Y32564485D01*
X41972954Y32273081D01*
X42353223Y32115180D01*
X42764971Y32114821D01*
X43145515Y32272058D01*
X43436919Y32562954D01*
X43488366Y32686853D01*
X43633118Y32903490D01*
X43710000Y33290000D01*
X43710000Y33784250D01*
X44130000Y33784250D01*
X44130000Y33543691D01*
X44226673Y33310302D01*
X44405301Y33131673D01*
X44638690Y33035000D01*
X44854250Y33035000D01*
X45013000Y33193750D01*
X45013000Y33943000D01*
X45267000Y33943000D01*
X45267000Y33193750D01*
X45425750Y33035000D01*
X45641310Y33035000D01*
X45832699Y33114276D01*
X45995301Y32951673D01*
X46228690Y32855000D01*
X46694250Y32855000D01*
X46853000Y33013750D01*
X46853000Y33863000D01*
X47107000Y33863000D01*
X47107000Y33013750D01*
X47265750Y32855000D01*
X47731310Y32855000D01*
X47964699Y32951673D01*
X48143327Y33130302D01*
X48240000Y33363691D01*
X48240000Y33704250D01*
X48130000Y33814250D01*
X49160000Y33814250D01*
X49160000Y33573691D01*
X49256673Y33340302D01*
X49435301Y33161673D01*
X49668690Y33065000D01*
X49884250Y33065000D01*
X50043000Y33223750D01*
X50043000Y33973000D01*
X49318750Y33973000D01*
X49160000Y33814250D01*
X48130000Y33814250D01*
X48081250Y33863000D01*
X47107000Y33863000D01*
X46853000Y33863000D01*
X46071250Y33863000D01*
X45991250Y33943000D01*
X45267000Y33943000D01*
X45013000Y33943000D01*
X44288750Y33943000D01*
X44130000Y33784250D01*
X43710000Y33784250D01*
X43710000Y34393000D01*
X44130000Y34393000D01*
X44130000Y34355750D01*
X44288750Y34197000D01*
X45013000Y34197000D01*
X45013000Y34217000D01*
X45267000Y34217000D01*
X45267000Y34197000D01*
X45798750Y34197000D01*
X45878750Y34117000D01*
X46853000Y34117000D01*
X46853000Y34137000D01*
X47107000Y34137000D01*
X47107000Y34117000D01*
X48081250Y34117000D01*
X48240000Y34275750D01*
X48240000Y34393000D01*
X49160000Y34393000D01*
X49160000Y34385750D01*
X49318750Y34227000D01*
X50043000Y34227000D01*
X50043000Y34247000D01*
X50297000Y34247000D01*
X50297000Y34227000D01*
X50317000Y34227000D01*
X50317000Y33973000D01*
X50297000Y33973000D01*
X50297000Y33223750D01*
X50455750Y33065000D01*
X50671310Y33065000D01*
X50733000Y33090553D01*
X50733000Y25594000D01*
X49114000Y25594000D01*
X48727490Y25517118D01*
X48399822Y25298178D01*
X48224302Y25122658D01*
X48164485Y25097942D01*
X47873081Y24807046D01*
X47715180Y24426777D01*
X47714821Y24015029D01*
X47872058Y23634485D01*
X48162954Y23343081D01*
X48543223Y23185180D01*
X48954971Y23184821D01*
X49335515Y23342058D01*
X49567862Y23574000D01*
X49748974Y23574000D01*
X49715673Y23540699D01*
X49619000Y23307310D01*
X49619000Y23091750D01*
X49777750Y22933000D01*
X50527000Y22933000D01*
X50527000Y22953000D01*
X50733000Y22953000D01*
X50733000Y16907000D01*
X49289250Y16907000D01*
X49366000Y16983750D01*
X49366000Y17224309D01*
X49269327Y17457698D01*
X49090699Y17636327D01*
X48857310Y17733000D01*
X48641750Y17733000D01*
X48483000Y17574250D01*
X48483000Y16907000D01*
X48229000Y16907000D01*
X48229000Y17574250D01*
X48070250Y17733000D01*
X47854690Y17733000D01*
X47621301Y17636327D01*
X47514236Y17529262D01*
X47247046Y17796919D01*
X46866777Y17954820D01*
X46663204Y17954997D01*
X46628000Y17962000D01*
X46379226Y17962000D01*
X46191000Y17999440D01*
X45441000Y17999440D01*
X45193235Y17950157D01*
X44983191Y17809809D01*
X44842843Y17599765D01*
X44793560Y17352000D01*
X44793560Y16907000D01*
X43129000Y16907000D01*
X43129000Y17091000D01*
X43149000Y17091000D01*
X43149000Y17840250D01*
X43403000Y17840250D01*
X43403000Y17091000D01*
X44127250Y17091000D01*
X44286000Y17249750D01*
X44286000Y17490309D01*
X44189327Y17723698D01*
X44010699Y17902327D01*
X43777310Y17999000D01*
X43561750Y17999000D01*
X43403000Y17840250D01*
X43149000Y17840250D01*
X42990250Y17999000D01*
X42774690Y17999000D01*
X42541301Y17902327D01*
X42508000Y17869026D01*
X42508000Y20485000D01*
X46260000Y20485000D01*
X46503004Y20533336D01*
X46592297Y20593000D01*
X46660000Y20593000D01*
X46708601Y20602667D01*
X46749803Y20630197D01*
X46777333Y20671399D01*
X46787000Y20720000D01*
X46787000Y20742250D01*
X49619000Y20742250D01*
X49619000Y20526690D01*
X49715673Y20293301D01*
X49894302Y20114673D01*
X50127691Y20018000D01*
X50368250Y20018000D01*
X50527000Y20176750D01*
X50527000Y20901000D01*
X49777750Y20901000D01*
X49619000Y20742250D01*
X46787000Y20742250D01*
X46787000Y20787703D01*
X46846664Y20876996D01*
X46895000Y21120000D01*
X46895000Y22520250D01*
X49619000Y22520250D01*
X49619000Y22304690D01*
X49715673Y22071301D01*
X49869975Y21917000D01*
X49715673Y21762699D01*
X49619000Y21529310D01*
X49619000Y21313750D01*
X49777750Y21155000D01*
X50527000Y21155000D01*
X50527000Y21879250D01*
X50489250Y21917000D01*
X50527000Y21954750D01*
X50527000Y22679000D01*
X49777750Y22679000D01*
X49619000Y22520250D01*
X46895000Y22520250D01*
X46895000Y27092250D01*
X49619000Y27092250D01*
X49619000Y26876690D01*
X49715673Y26643301D01*
X49894302Y26464673D01*
X50127691Y26368000D01*
X50368250Y26368000D01*
X50527000Y26526750D01*
X50527000Y27251000D01*
X49777750Y27251000D01*
X49619000Y27092250D01*
X46895000Y27092250D01*
X46895000Y27879310D01*
X49619000Y27879310D01*
X49619000Y27663750D01*
X49777750Y27505000D01*
X50527000Y27505000D01*
X50527000Y28229250D01*
X50368250Y28388000D01*
X50127691Y28388000D01*
X49894302Y28291327D01*
X49715673Y28112699D01*
X49619000Y27879310D01*
X46895000Y27879310D01*
X46895000Y29920000D01*
X46846664Y30163004D01*
X46787000Y30252297D01*
X46787000Y30320000D01*
X46777333Y30368601D01*
X46749803Y30409803D01*
X46708601Y30437333D01*
X46660000Y30447000D01*
X46592297Y30447000D01*
X46503004Y30506664D01*
X46260000Y30555000D01*
X37460000Y30555000D01*
X37216996Y30506664D01*
X37127703Y30447000D01*
X37060000Y30447000D01*
X37011399Y30437333D01*
X36970197Y30409803D01*
X36942667Y30368601D01*
X36933000Y30320000D01*
X36933000Y30252297D01*
X36873336Y30163004D01*
X36825000Y29920000D01*
X36825000Y21120000D01*
X36873336Y20876996D01*
X36933000Y20787703D01*
X36933000Y20720000D01*
X36942667Y20671399D01*
X36970197Y20630197D01*
X37011399Y20602667D01*
X37060000Y20593000D01*
X37127703Y20593000D01*
X37216996Y20533336D01*
X37460000Y20485000D01*
X40488000Y20485000D01*
X40488000Y17352486D01*
X40477560Y17300000D01*
X40477560Y16907000D01*
X39760000Y16907000D01*
X39760000Y17064250D01*
X39601250Y17223000D01*
X38877000Y17223000D01*
X38877000Y17203000D01*
X38623000Y17203000D01*
X38623000Y17223000D01*
X37898750Y17223000D01*
X37740000Y17064250D01*
X37740000Y16907000D01*
X37381042Y16907000D01*
X37327942Y17035513D01*
X37037046Y17326917D01*
X36656777Y17484818D01*
X36245029Y17485177D01*
X35864485Y17327940D01*
X35573081Y17037044D01*
X35519082Y16907000D01*
X34291250Y16907000D01*
X34380000Y16995750D01*
X34380000Y17236309D01*
X34283327Y17469698D01*
X34104699Y17648327D01*
X33871310Y17745000D01*
X33655750Y17745000D01*
X33497000Y17586250D01*
X33497000Y16907000D01*
X33243000Y16907000D01*
X33243000Y17586250D01*
X33084250Y17745000D01*
X32987000Y17745000D01*
X32987000Y17876309D01*
X37740000Y17876309D01*
X37740000Y17635750D01*
X37898750Y17477000D01*
X38623000Y17477000D01*
X38623000Y18226250D01*
X38877000Y18226250D01*
X38877000Y17477000D01*
X39601250Y17477000D01*
X39760000Y17635750D01*
X39760000Y17876309D01*
X39663327Y18109698D01*
X39484699Y18288327D01*
X39251310Y18385000D01*
X39035750Y18385000D01*
X38877000Y18226250D01*
X38623000Y18226250D01*
X38464250Y18385000D01*
X38248690Y18385000D01*
X38015301Y18288327D01*
X37836673Y18109698D01*
X37740000Y17876309D01*
X32987000Y17876309D01*
X32987000Y18498000D01*
X33068250Y18498000D01*
X33227000Y18656750D01*
X33227000Y19631000D01*
X33481000Y19631000D01*
X33481000Y18656750D01*
X33639750Y18498000D01*
X33980309Y18498000D01*
X34213698Y18594673D01*
X34392327Y18773301D01*
X34489000Y19006690D01*
X34489000Y19472250D01*
X34330250Y19631000D01*
X33481000Y19631000D01*
X33227000Y19631000D01*
X33207000Y19631000D01*
X33207000Y19885000D01*
X33227000Y19885000D01*
X33227000Y20859250D01*
X33481000Y20859250D01*
X33481000Y19885000D01*
X34330250Y19885000D01*
X34489000Y20043750D01*
X34489000Y20509310D01*
X34392327Y20742699D01*
X34213698Y20921327D01*
X33980309Y21018000D01*
X33639750Y21018000D01*
X33481000Y20859250D01*
X33227000Y20859250D01*
X33068250Y21018000D01*
X32987000Y21018000D01*
X32987000Y22679000D01*
X33231000Y22679000D01*
X33231000Y21954750D01*
X33389750Y21796000D01*
X33630309Y21796000D01*
X33863698Y21892673D01*
X34042327Y22071301D01*
X34139000Y22304690D01*
X34139000Y22520250D01*
X33980250Y22679000D01*
X33231000Y22679000D01*
X32987000Y22679000D01*
X32987000Y24454644D01*
X33247342Y24194302D01*
X33272058Y24134485D01*
X33562954Y23843081D01*
X33628172Y23816000D01*
X33389750Y23816000D01*
X33231000Y23657250D01*
X33231000Y22933000D01*
X33980250Y22933000D01*
X34139000Y23091750D01*
X34139000Y23307310D01*
X34042327Y23540699D01*
X33865623Y23717402D01*
X33943223Y23685180D01*
X34354971Y23684821D01*
X34735515Y23842058D01*
X35026919Y24132954D01*
X35184820Y24513223D01*
X35185179Y24924971D01*
X35027942Y25305515D01*
X34737046Y25596919D01*
X34676151Y25622205D01*
X33984178Y26314178D01*
X33656510Y26533118D01*
X33270000Y26610000D01*
X32987000Y26610000D01*
X32987000Y26822750D01*
X33033000Y26868750D01*
X33033000Y27593000D01*
X33287000Y27593000D01*
X33287000Y26868750D01*
X33445750Y26710000D01*
X33686309Y26710000D01*
X33919698Y26806673D01*
X34098327Y26985301D01*
X34195000Y27218690D01*
X34195000Y27434250D01*
X34036250Y27593000D01*
X33287000Y27593000D01*
X33033000Y27593000D01*
X33013000Y27593000D01*
X33013000Y27847000D01*
X33033000Y27847000D01*
X33033000Y28571250D01*
X33287000Y28571250D01*
X33287000Y27847000D01*
X34036250Y27847000D01*
X34195000Y28005750D01*
X34195000Y28221310D01*
X34098327Y28454699D01*
X33919698Y28633327D01*
X33686309Y28730000D01*
X33445750Y28730000D01*
X33287000Y28571250D01*
X33033000Y28571250D01*
X32987000Y28617250D01*
X32987000Y29791000D01*
X33231000Y29791000D01*
X33231000Y29066750D01*
X33389750Y28908000D01*
X33630309Y28908000D01*
X33863698Y29004673D01*
X34042327Y29183301D01*
X34139000Y29416690D01*
X34139000Y29632250D01*
X33980250Y29791000D01*
X33231000Y29791000D01*
X32987000Y29791000D01*
X32987000Y31569000D01*
X33227000Y31569000D01*
X33227000Y30594750D01*
X33231000Y30590750D01*
X33231000Y30045000D01*
X33980250Y30045000D01*
X34139000Y30203750D01*
X34139000Y30419310D01*
X34053280Y30626255D01*
X34138327Y30711301D01*
X34235000Y30944690D01*
X34235000Y31156250D01*
X49619000Y31156250D01*
X49619000Y30940690D01*
X49715673Y30707301D01*
X49894302Y30528673D01*
X50127691Y30432000D01*
X50368250Y30432000D01*
X50527000Y30590750D01*
X50527000Y31315000D01*
X49777750Y31315000D01*
X49619000Y31156250D01*
X34235000Y31156250D01*
X34235000Y31410250D01*
X34076250Y31569000D01*
X33227000Y31569000D01*
X32987000Y31569000D01*
X32987000Y32797250D01*
X33227000Y32797250D01*
X33227000Y31823000D01*
X34076250Y31823000D01*
X34196560Y31943310D01*
X49619000Y31943310D01*
X49619000Y31727750D01*
X49777750Y31569000D01*
X50527000Y31569000D01*
X50527000Y32293250D01*
X50368250Y32452000D01*
X50127691Y32452000D01*
X49894302Y32355327D01*
X49715673Y32176699D01*
X49619000Y31943310D01*
X34196560Y31943310D01*
X34235000Y31981750D01*
X34235000Y32447310D01*
X34138327Y32680699D01*
X33959698Y32859327D01*
X33726309Y32956000D01*
X33385750Y32956000D01*
X33227000Y32797250D01*
X32987000Y32797250D01*
X32987000Y33994250D01*
X33140000Y33994250D01*
X33140000Y33753691D01*
X33236673Y33520302D01*
X33415301Y33341673D01*
X33648690Y33245000D01*
X33864250Y33245000D01*
X34023000Y33403750D01*
X34023000Y34153000D01*
X34277000Y34153000D01*
X34277000Y33403750D01*
X34435750Y33245000D01*
X34651310Y33245000D01*
X34884699Y33341673D01*
X35063327Y33520302D01*
X35147805Y33724250D01*
X35860000Y33724250D01*
X35860000Y33383691D01*
X35956673Y33150302D01*
X36135301Y32971673D01*
X36368690Y32875000D01*
X36834250Y32875000D01*
X36993000Y33033750D01*
X36993000Y33883000D01*
X36018750Y33883000D01*
X35860000Y33724250D01*
X35147805Y33724250D01*
X35160000Y33753691D01*
X35160000Y33994250D01*
X35001250Y34153000D01*
X34277000Y34153000D01*
X34023000Y34153000D01*
X33298750Y34153000D01*
X33140000Y33994250D01*
X32987000Y33994250D01*
X32987000Y34393000D01*
X35860000Y34393000D01*
X35860000Y34295750D01*
G36*
X46133000Y21247000D02*
X37587000Y21247000D01*
X37587000Y23484250D01*
X39450000Y23484250D01*
X39450000Y23143691D01*
X39546673Y22910302D01*
X39725301Y22731673D01*
X39958690Y22635000D01*
X40424250Y22635000D01*
X40583000Y22793750D01*
X40583000Y23643000D01*
X40837000Y23643000D01*
X40837000Y22793750D01*
X40995750Y22635000D01*
X41461310Y22635000D01*
X41694699Y22731673D01*
X41873327Y22910302D01*
X41970000Y23143691D01*
X41970000Y23484250D01*
X41811250Y23643000D01*
X40837000Y23643000D01*
X40583000Y23643000D01*
X39608750Y23643000D01*
X39450000Y23484250D01*
X37587000Y23484250D01*
X37587000Y26270000D01*
X39437560Y26270000D01*
X39437560Y25270000D01*
X39486843Y25022235D01*
X39627191Y24812191D01*
X39688320Y24771346D01*
X39546673Y24629698D01*
X39450000Y24396309D01*
X39450000Y24055750D01*
X39608750Y23897000D01*
X40583000Y23897000D01*
X40583000Y23917000D01*
X40837000Y23917000D01*
X40837000Y23897000D01*
X41811250Y23897000D01*
X41970000Y24055750D01*
X41970000Y24396309D01*
X41942537Y24462610D01*
X42307223Y24311180D01*
X42718971Y24310821D01*
X43099515Y24468058D01*
X43390919Y24758954D01*
X43548820Y25139223D01*
X43549032Y25382940D01*
X43592809Y25412191D01*
X43733157Y25622235D01*
X43782440Y25870000D01*
X43782440Y26870000D01*
X43733157Y27117765D01*
X43592809Y27327809D01*
X43531680Y27368654D01*
X43673327Y27510302D01*
X43770000Y27743691D01*
X43770000Y28084250D01*
X43611250Y28243000D01*
X42637000Y28243000D01*
X42637000Y28223000D01*
X42383000Y28223000D01*
X42383000Y28243000D01*
X41408750Y28243000D01*
X41250000Y28084250D01*
X41250000Y27743691D01*
X41346673Y27510302D01*
X41488320Y27368654D01*
X41463590Y27352130D01*
X41323046Y27492919D01*
X40942777Y27650820D01*
X40531029Y27651179D01*
X40150485Y27493942D01*
X39859081Y27203046D01*
X39701180Y26822777D01*
X39701140Y26777221D01*
X39627191Y26727809D01*
X39486843Y26517765D01*
X39437560Y26270000D01*
X37587000Y26270000D01*
X37587000Y28996309D01*
X41250000Y28996309D01*
X41250000Y28655750D01*
X41408750Y28497000D01*
X42383000Y28497000D01*
X42383000Y29346250D01*
X42637000Y29346250D01*
X42637000Y28497000D01*
X43611250Y28497000D01*
X43770000Y28655750D01*
X43770000Y28996309D01*
X43673327Y29229698D01*
X43494699Y29408327D01*
X43261310Y29505000D01*
X42795750Y29505000D01*
X42637000Y29346250D01*
X42383000Y29346250D01*
X42224250Y29505000D01*
X41758690Y29505000D01*
X41525301Y29408327D01*
X41346673Y29229698D01*
X41250000Y28996309D01*
X37587000Y28996309D01*
X37587000Y29793000D01*
X46133000Y29793000D01*
X46133000Y21247000D01*
X46133000Y21247000D01*
G37*
X46133000Y21247000D02*
X37587000Y21247000D01*
X37587000Y23484250D01*
X39450000Y23484250D01*
X39450000Y23143691D01*
X39546673Y22910302D01*
X39725301Y22731673D01*
X39958690Y22635000D01*
X40424250Y22635000D01*
X40583000Y22793750D01*
X40583000Y23643000D01*
X40837000Y23643000D01*
X40837000Y22793750D01*
X40995750Y22635000D01*
X41461310Y22635000D01*
X41694699Y22731673D01*
X41873327Y22910302D01*
X41970000Y23143691D01*
X41970000Y23484250D01*
X41811250Y23643000D01*
X40837000Y23643000D01*
X40583000Y23643000D01*
X39608750Y23643000D01*
X39450000Y23484250D01*
X37587000Y23484250D01*
X37587000Y26270000D01*
X39437560Y26270000D01*
X39437560Y25270000D01*
X39486843Y25022235D01*
X39627191Y24812191D01*
X39688320Y24771346D01*
X39546673Y24629698D01*
X39450000Y24396309D01*
X39450000Y24055750D01*
X39608750Y23897000D01*
X40583000Y23897000D01*
X40583000Y23917000D01*
X40837000Y23917000D01*
X40837000Y23897000D01*
X41811250Y23897000D01*
X41970000Y24055750D01*
X41970000Y24396309D01*
X41942537Y24462610D01*
X42307223Y24311180D01*
X42718971Y24310821D01*
X43099515Y24468058D01*
X43390919Y24758954D01*
X43548820Y25139223D01*
X43549032Y25382940D01*
X43592809Y25412191D01*
X43733157Y25622235D01*
X43782440Y25870000D01*
X43782440Y26870000D01*
X43733157Y27117765D01*
X43592809Y27327809D01*
X43531680Y27368654D01*
X43673327Y27510302D01*
X43770000Y27743691D01*
X43770000Y28084250D01*
X43611250Y28243000D01*
X42637000Y28243000D01*
X42637000Y28223000D01*
X42383000Y28223000D01*
X42383000Y28243000D01*
X41408750Y28243000D01*
X41250000Y28084250D01*
X41250000Y27743691D01*
X41346673Y27510302D01*
X41488320Y27368654D01*
X41463590Y27352130D01*
X41323046Y27492919D01*
X40942777Y27650820D01*
X40531029Y27651179D01*
X40150485Y27493942D01*
X39859081Y27203046D01*
X39701180Y26822777D01*
X39701140Y26777221D01*
X39627191Y26727809D01*
X39486843Y26517765D01*
X39437560Y26270000D01*
X37587000Y26270000D01*
X37587000Y28996309D01*
X41250000Y28996309D01*
X41250000Y28655750D01*
X41408750Y28497000D01*
X42383000Y28497000D01*
X42383000Y29346250D01*
X42637000Y29346250D01*
X42637000Y28497000D01*
X43611250Y28497000D01*
X43770000Y28655750D01*
X43770000Y28996309D01*
X43673327Y29229698D01*
X43494699Y29408327D01*
X43261310Y29505000D01*
X42795750Y29505000D01*
X42637000Y29346250D01*
X42383000Y29346250D01*
X42224250Y29505000D01*
X41758690Y29505000D01*
X41525301Y29408327D01*
X41346673Y29229698D01*
X41250000Y28996309D01*
X37587000Y28996309D01*
X37587000Y29793000D01*
X46133000Y29793000D01*
X46133000Y21247000D01*
G36*
X77088338Y54128954D02*
X77502333Y53852331D01*
X77778953Y53438340D01*
X77890000Y52880069D01*
X77890000Y45292032D01*
X77822862Y45264223D01*
X77498438Y45047451D01*
X77399591Y44948603D01*
X77328673Y44877685D01*
X76996235Y44875595D01*
X76886970Y44948603D01*
X76452624Y45035000D01*
X75847376Y45035000D01*
X75413030Y44948603D01*
X75287683Y44864849D01*
X74322092Y44858776D01*
X73190434Y45990434D01*
X73156540Y46013081D01*
X72919541Y46171439D01*
X72600000Y46235000D01*
X71217585Y46235000D01*
X70856777Y46384820D01*
X70445029Y46385179D01*
X70064485Y46227942D01*
X69773081Y45937046D01*
X69615180Y45556777D01*
X69614821Y45145029D01*
X69772058Y44764485D01*
X69847693Y44688718D01*
X69781673Y44622699D01*
X69685000Y44389310D01*
X69685000Y44173750D01*
X69843750Y44015000D01*
X70593000Y44015000D01*
X70593000Y44035000D01*
X70847000Y44035000D01*
X70847000Y44015000D01*
X70867000Y44015000D01*
X70867000Y43761000D01*
X70847000Y43761000D01*
X70847000Y43036750D01*
X71005750Y42878000D01*
X71246309Y42878000D01*
X71479698Y42974673D01*
X71480898Y42975873D01*
X71572235Y42914843D01*
X71820000Y42865560D01*
X72316590Y42865560D01*
X72293001Y36040439D01*
X72302500Y35991805D01*
X72329888Y35950508D01*
X72370994Y35922836D01*
X72421393Y35913008D01*
X73915000Y35929396D01*
X73915000Y10245868D01*
X70124148Y6455016D01*
X70071961Y6717378D01*
X69750054Y7199147D01*
X69268285Y7521054D01*
X68700000Y7634093D01*
X68131715Y7521054D01*
X67649946Y7199147D01*
X67430000Y6869974D01*
X67210054Y7199147D01*
X66728285Y7521054D01*
X66160000Y7634093D01*
X65591715Y7521054D01*
X65109946Y7199147D01*
X64890000Y6869974D01*
X64670054Y7199147D01*
X64188285Y7521054D01*
X63620000Y7634093D01*
X63051715Y7521054D01*
X62569946Y7199147D01*
X62350000Y6869974D01*
X62130054Y7199147D01*
X61648285Y7521054D01*
X61080000Y7634093D01*
X60511715Y7521054D01*
X60029946Y7199147D01*
X59802298Y6858447D01*
X59735183Y7001358D01*
X59306924Y7391645D01*
X58896890Y7561476D01*
X58667000Y7440155D01*
X58667000Y6247000D01*
X58687000Y6247000D01*
X58687000Y5993000D01*
X58667000Y5993000D01*
X58667000Y5973000D01*
X58413000Y5973000D01*
X58413000Y5993000D01*
X56127000Y5993000D01*
X56127000Y5973000D01*
X55873000Y5973000D01*
X55873000Y5993000D01*
X55853000Y5993000D01*
X55853000Y6247000D01*
X55873000Y6247000D01*
X55873000Y7440155D01*
X56127000Y7440155D01*
X56127000Y6247000D01*
X58413000Y6247000D01*
X58413000Y7440155D01*
X58183110Y7561476D01*
X57773076Y7391645D01*
X57344817Y7001358D01*
X57270000Y6842046D01*
X57195183Y7001358D01*
X56766924Y7391645D01*
X56356890Y7561476D01*
X56127000Y7440155D01*
X55873000Y7440155D01*
X55643110Y7561476D01*
X55233076Y7391645D01*
X54928739Y7114292D01*
X54908157Y7217765D01*
X54767809Y7427809D01*
X54557765Y7568157D01*
X54310000Y7617440D01*
X52610000Y7617440D01*
X52362235Y7568157D01*
X52152191Y7427809D01*
X52011843Y7217765D01*
X51962560Y6970000D01*
X51962560Y5270000D01*
X51989413Y5135000D01*
X48728892Y5135000D01*
X48687046Y5176919D01*
X48306777Y5334820D01*
X47895029Y5335179D01*
X47514485Y5177942D01*
X47223081Y4887046D01*
X47065180Y4506777D01*
X47064821Y4095029D01*
X47222058Y3714485D01*
X47512954Y3423081D01*
X47893223Y3265180D01*
X48304971Y3264821D01*
X48685515Y3422058D01*
X48728532Y3465000D01*
X69150000Y3465000D01*
X69469541Y3528561D01*
X69740434Y3709566D01*
X75340434Y9309566D01*
X75521439Y9580459D01*
X75585000Y9900000D01*
X75585000Y35817190D01*
X75847376Y35765000D01*
X76452624Y35765000D01*
X76886970Y35851397D01*
X77055267Y35963850D01*
X77290527Y35966431D01*
X77302549Y35948439D01*
X77302550Y35948438D01*
X77498438Y35752549D01*
X77822862Y35535777D01*
X77890000Y35507968D01*
X77890000Y4069931D01*
X77778953Y3511660D01*
X77502333Y3097669D01*
X77088338Y2821046D01*
X76529846Y2709956D01*
X-1918540Y2660052D01*
X-2467650Y2783619D01*
X-2874601Y3070500D01*
X-3143253Y3495173D01*
X-3239866Y4014730D01*
X-3239011Y4434250D01*
X11550000Y4434250D01*
X11550000Y4193691D01*
X11646673Y3960302D01*
X11825301Y3781673D01*
X12058690Y3685000D01*
X12274250Y3685000D01*
X12433000Y3843750D01*
X12433000Y4593000D01*
X12687000Y4593000D01*
X12687000Y3843750D01*
X12845750Y3685000D01*
X13061310Y3685000D01*
X13294699Y3781673D01*
X13299000Y3785974D01*
X13335301Y3749673D01*
X13568690Y3653000D01*
X14034250Y3653000D01*
X14193000Y3811750D01*
X14193000Y4661000D01*
X14447000Y4661000D01*
X14447000Y3811750D01*
X14605750Y3653000D01*
X15071310Y3653000D01*
X15304699Y3749673D01*
X15483327Y3928302D01*
X15580000Y4161691D01*
X15580000Y4502250D01*
X15421250Y4661000D01*
X14447000Y4661000D01*
X14193000Y4661000D01*
X13218750Y4661000D01*
X13150750Y4593000D01*
X12687000Y4593000D01*
X12433000Y4593000D01*
X11708750Y4593000D01*
X11550000Y4434250D01*
X-3239011Y4434250D01*
X-3234460Y6664250D01*
X4975000Y6664250D01*
X4975000Y6198690D01*
X5071673Y5965301D01*
X5250302Y5786673D01*
X5483691Y5690000D01*
X5824250Y5690000D01*
X5983000Y5848750D01*
X5983000Y6823000D01*
X5133750Y6823000D01*
X4975000Y6664250D01*
X-3234460Y6664250D01*
X-3232344Y7701310D01*
X4975000Y7701310D01*
X4975000Y7235750D01*
X5133750Y7077000D01*
X5983000Y7077000D01*
X5983000Y8051250D01*
X6237000Y8051250D01*
X6237000Y7077000D01*
X6257000Y7077000D01*
X6257000Y6823000D01*
X6237000Y6823000D01*
X6237000Y5848750D01*
X6395750Y5690000D01*
X6736309Y5690000D01*
X6969698Y5786673D01*
X7111346Y5928320D01*
X7152191Y5867191D01*
X7362235Y5726843D01*
X7610000Y5677560D01*
X8610000Y5677560D01*
X8857765Y5726843D01*
X9067809Y5867191D01*
X9208157Y6077235D01*
X9257440Y6325000D01*
X9257440Y6414084D01*
X9935698Y7092342D01*
X9995515Y7117058D01*
X10286919Y7407954D01*
X10444820Y7788223D01*
X10445179Y8199971D01*
X10287942Y8580515D01*
X9997046Y8871919D01*
X9616777Y9029820D01*
X9205029Y9030179D01*
X8824485Y8872942D01*
X8533081Y8582046D01*
X8507795Y8521151D01*
X8209084Y8222440D01*
X7610000Y8222440D01*
X7362235Y8173157D01*
X7152191Y8032809D01*
X7111346Y7971680D01*
X6969698Y8113327D01*
X6736309Y8210000D01*
X6395750Y8210000D01*
X6237000Y8051250D01*
X5983000Y8051250D01*
X5824250Y8210000D01*
X5483691Y8210000D01*
X5250302Y8113327D01*
X5071673Y7934699D01*
X4975000Y7701310D01*
X-3232344Y7701310D01*
X-3230927Y8395000D01*
X-1245750Y8395000D01*
X-1087000Y8553750D01*
X-1087000Y10113000D01*
X-1107000Y10113000D01*
X-1107000Y10367000D01*
X-1087000Y10367000D01*
X-1087000Y11926250D01*
X-833000Y11926250D01*
X-833000Y10367000D01*
X-813000Y10367000D01*
X-813000Y10113000D01*
X-833000Y10113000D01*
X-833000Y8553750D01*
X-674250Y8395000D01*
X1706309Y8395000D01*
X1939698Y8491673D01*
X2118327Y8670301D01*
X2215000Y8903690D01*
X2215000Y9147871D01*
X2338564Y9106851D01*
X2782968Y9138982D01*
X3044308Y9247232D01*
X3079595Y9460800D01*
X2951710Y9588685D01*
X3013327Y9650301D01*
X3082443Y9817162D01*
X3259200Y9640405D01*
X3472768Y9675692D01*
X3613149Y10098564D01*
X3581018Y10542968D01*
X3472768Y10804308D01*
X3259200Y10839595D01*
X3082443Y10662838D01*
X3013327Y10829699D01*
X2951710Y10891315D01*
X3079595Y11019200D01*
X3062110Y11125029D01*
X8374821Y11125029D01*
X8532058Y10744485D01*
X8822954Y10453081D01*
X9117005Y10330981D01*
X9330440Y10117546D01*
X9540484Y9977198D01*
X9788249Y9927915D01*
X9862730Y9942730D01*
X9847915Y9868249D01*
X9897198Y9620484D01*
X10037546Y9410440D01*
X10391100Y9056886D01*
X10601144Y8916538D01*
X10848909Y8867255D01*
X11052752Y8907801D01*
X11467752Y8492801D01*
X11471843Y8472235D01*
X11612191Y8262191D01*
X11675334Y8220000D01*
X11612191Y8177809D01*
X11471843Y7967765D01*
X11422560Y7720000D01*
X11422560Y7220000D01*
X11471843Y6972235D01*
X11576475Y6815643D01*
X11537560Y6620000D01*
X11537560Y5820000D01*
X11586843Y5572235D01*
X11647873Y5480898D01*
X11646673Y5479698D01*
X11550000Y5246309D01*
X11550000Y5005750D01*
X11708750Y4847000D01*
X12433000Y4847000D01*
X12433000Y4867000D01*
X12687000Y4867000D01*
X12687000Y4847000D01*
X13411250Y4847000D01*
X13479250Y4915000D01*
X14193000Y4915000D01*
X14193000Y4935000D01*
X14447000Y4935000D01*
X14447000Y4915000D01*
X15421250Y4915000D01*
X15580000Y5073750D01*
X15580000Y5414309D01*
X15483327Y5647698D01*
X15341680Y5789346D01*
X15402809Y5830191D01*
X15543157Y6040235D01*
X15592440Y6288000D01*
X15592440Y7288000D01*
X15543157Y7535765D01*
X15402809Y7745809D01*
X15192765Y7886157D01*
X15136949Y7897259D01*
X15147440Y7950000D01*
X15147440Y8450000D01*
X15098157Y8697765D01*
X14957809Y8907809D01*
X14894666Y8950000D01*
X14957809Y8992191D01*
X15098157Y9202235D01*
X15127982Y9352176D01*
X15345513Y9442058D01*
X15636917Y9732954D01*
X15794818Y10113223D01*
X15795177Y10524971D01*
X15637940Y10905515D01*
X15347044Y11196919D01*
X14966775Y11354820D01*
X14555027Y11355179D01*
X14174483Y11197942D01*
X13883079Y10907046D01*
X13754520Y10597440D01*
X13600000Y10597440D01*
X13352235Y10548157D01*
X13182885Y10435000D01*
X12800000Y10435000D01*
X12530718Y10381436D01*
X12518728Y10379051D01*
X12280277Y10219724D01*
X12113154Y10052601D01*
X12132745Y10151091D01*
X12083462Y10398856D01*
X11943114Y10608900D01*
X11749591Y10802423D01*
X11845515Y10842058D01*
X12136919Y11132954D01*
X12162205Y11193849D01*
X12374178Y11405822D01*
X12593118Y11733489D01*
X12670000Y12120000D01*
X12670000Y13115300D01*
X12758157Y13247235D01*
X12807440Y13495000D01*
X12807440Y14133114D01*
X13774996Y13165557D01*
X13774821Y12965029D01*
X13932058Y12584485D01*
X14222954Y12293081D01*
X14603223Y12135180D01*
X15014971Y12134821D01*
X15395515Y12292058D01*
X15686919Y12582954D01*
X15844820Y12963223D01*
X15845179Y13374971D01*
X15687942Y13755515D01*
X15397046Y14046919D01*
X15016777Y14204820D01*
X14814450Y14204996D01*
X13879417Y15140029D01*
X17514821Y15140029D01*
X17672058Y14759485D01*
X17962954Y14468081D01*
X18343223Y14310180D01*
X18514434Y14310031D01*
X18541843Y14172235D01*
X18682191Y13962191D01*
X18892235Y13821843D01*
X19140000Y13772560D01*
X19640000Y13772560D01*
X19887765Y13821843D01*
X20097809Y13962191D01*
X20140000Y14025334D01*
X20182191Y13962191D01*
X20392235Y13821843D01*
X20640000Y13772560D01*
X21140000Y13772560D01*
X21387765Y13821843D01*
X21597809Y13962191D01*
X21738157Y14172235D01*
X21787440Y14420000D01*
X21787440Y14664828D01*
X21794971Y14664821D01*
X22175515Y14822058D01*
X22466919Y15112954D01*
X22624820Y15493223D01*
X22625179Y15904971D01*
X22467942Y16285515D01*
X22177046Y16576919D01*
X21959440Y16667277D01*
X21959440Y16831000D01*
X21910157Y17078765D01*
X21769809Y17288809D01*
X21559765Y17429157D01*
X21312000Y17478440D01*
X20512000Y17478440D01*
X20264235Y17429157D01*
X20162000Y17360845D01*
X20059765Y17429157D01*
X19812000Y17478440D01*
X19012000Y17478440D01*
X18764235Y17429157D01*
X18554191Y17288809D01*
X18413843Y17078765D01*
X18364560Y16831000D01*
X18364560Y16380162D01*
X18345029Y16380179D01*
X17964485Y16222942D01*
X17673081Y15932046D01*
X17515180Y15551777D01*
X17514821Y15140029D01*
X13879417Y15140029D01*
X13724815Y15294631D01*
X13794820Y15463223D01*
X13795179Y15874971D01*
X13637942Y16255515D01*
X13347046Y16546919D01*
X12966777Y16704820D01*
X12555029Y16705179D01*
X12174485Y16547942D01*
X11883081Y16257046D01*
X11725180Y15876777D01*
X11724821Y15465029D01*
X11754814Y15392440D01*
X11160000Y15392440D01*
X10912235Y15343157D01*
X10702191Y15202809D01*
X10661346Y15141680D01*
X10519698Y15283327D01*
X10286309Y15380000D01*
X9945750Y15380000D01*
X9787000Y15221250D01*
X9787000Y14247000D01*
X9807000Y14247000D01*
X9807000Y13993000D01*
X9787000Y13993000D01*
X9787000Y13018750D01*
X9945750Y12860000D01*
X10286309Y12860000D01*
X10519698Y12956673D01*
X10650000Y13086974D01*
X10650000Y12573500D01*
X10383081Y12307046D01*
X10322460Y12161054D01*
X10318856Y12163462D01*
X10071091Y12212745D01*
X10004461Y12199492D01*
X9997046Y12206919D01*
X9616777Y12364820D01*
X9205029Y12365179D01*
X8824485Y12207942D01*
X8533081Y11917046D01*
X8375180Y11536777D01*
X8374821Y11125029D01*
X3062110Y11125029D01*
X3044308Y11232768D01*
X2621436Y11373149D01*
X2215000Y11343763D01*
X2215000Y11576310D01*
X2118327Y11809699D01*
X1939698Y11988327D01*
X1706309Y12085000D01*
X-674250Y12085000D01*
X-833000Y11926250D01*
X-1087000Y11926250D01*
X-1245750Y12085000D01*
X-3223396Y12085000D01*
X-3219827Y13834250D01*
X8525000Y13834250D01*
X8525000Y13368690D01*
X8621673Y13135301D01*
X8800302Y12956673D01*
X9033691Y12860000D01*
X9374250Y12860000D01*
X9533000Y13018750D01*
X9533000Y13993000D01*
X8683750Y13993000D01*
X8525000Y13834250D01*
X-3219827Y13834250D01*
X-3217711Y14871310D01*
X8525000Y14871310D01*
X8525000Y14405750D01*
X8683750Y14247000D01*
X9533000Y14247000D01*
X9533000Y15221250D01*
X9374250Y15380000D01*
X9033691Y15380000D01*
X8800302Y15283327D01*
X8621673Y15104699D01*
X8525000Y14871310D01*
X-3217711Y14871310D01*
X-3213049Y17155000D01*
X-1245750Y17155000D01*
X-1087000Y17313750D01*
X-1087000Y18873000D01*
X-1107000Y18873000D01*
X-1107000Y19127000D01*
X-1087000Y19127000D01*
X-1087000Y20686250D01*
X-833000Y20686250D01*
X-833000Y19127000D01*
X-813000Y19127000D01*
X-813000Y18873000D01*
X-833000Y18873000D01*
X-833000Y17313750D01*
X-674250Y17155000D01*
X1706309Y17155000D01*
X1939698Y17251673D01*
X2118327Y17430301D01*
X2215000Y17663690D01*
X2215000Y17907871D01*
X2338564Y17866851D01*
X2782968Y17898982D01*
X3044308Y18007232D01*
X3079595Y18220800D01*
X2951710Y18348685D01*
X3013327Y18410301D01*
X3082443Y18577162D01*
X3259200Y18400405D01*
X3472768Y18435692D01*
X3613149Y18858564D01*
X3581018Y19302968D01*
X3510900Y19472250D01*
X30219000Y19472250D01*
X30219000Y19006690D01*
X30315673Y18773301D01*
X30494302Y18594673D01*
X30727691Y18498000D01*
X31068250Y18498000D01*
X31227000Y18656750D01*
X31227000Y19631000D01*
X30377750Y19631000D01*
X30219000Y19472250D01*
X3510900Y19472250D01*
X3472768Y19564308D01*
X3259200Y19599595D01*
X3082443Y19422838D01*
X3013327Y19589699D01*
X2951710Y19651315D01*
X3079595Y19779200D01*
X3044308Y19992768D01*
X2621436Y20133149D01*
X2215000Y20103763D01*
X2215000Y20336310D01*
X2118327Y20569699D01*
X1939698Y20748327D01*
X1706309Y20845000D01*
X-674250Y20845000D01*
X-833000Y20686250D01*
X-1087000Y20686250D01*
X-1245750Y20845000D01*
X-3205518Y20845000D01*
X-3199121Y23980000D01*
X6145907Y23980000D01*
X6258946Y23411715D01*
X6580853Y22929946D01*
X6910026Y22710000D01*
X6580853Y22490054D01*
X6258946Y22008285D01*
X6145907Y21440000D01*
X6258946Y20871715D01*
X6580853Y20389946D01*
X7062622Y20068039D01*
X7630907Y19955000D01*
X7689093Y19955000D01*
X8257378Y20068039D01*
X8739147Y20389946D01*
X8818903Y20509310D01*
X30219000Y20509310D01*
X30219000Y20043750D01*
X30377750Y19885000D01*
X31227000Y19885000D01*
X31227000Y20859250D01*
X31068250Y21018000D01*
X30727691Y21018000D01*
X30494302Y20921327D01*
X30315673Y20742699D01*
X30219000Y20509310D01*
X8818903Y20509310D01*
X9061054Y20871715D01*
X9102484Y21080000D01*
X9810000Y21080000D01*
X10196510Y21156882D01*
X10249906Y21192560D01*
X10260000Y21192560D01*
X10507765Y21241843D01*
X10717809Y21382191D01*
X10858157Y21592235D01*
X10907440Y21840000D01*
X10907440Y22340000D01*
X10871587Y22520250D01*
X30569000Y22520250D01*
X30569000Y22304690D01*
X30665673Y22071301D01*
X30844302Y21892673D01*
X31077691Y21796000D01*
X31318250Y21796000D01*
X31477000Y21954750D01*
X31477000Y22679000D01*
X30727750Y22679000D01*
X30569000Y22520250D01*
X10871587Y22520250D01*
X10858157Y22587765D01*
X10717809Y22797809D01*
X10654666Y22840000D01*
X10717809Y22882191D01*
X10858157Y23092235D01*
X10900937Y23307310D01*
X30569000Y23307310D01*
X30569000Y23091750D01*
X30727750Y22933000D01*
X31477000Y22933000D01*
X31477000Y23657250D01*
X31318250Y23816000D01*
X31077691Y23816000D01*
X30844302Y23719327D01*
X30665673Y23540699D01*
X30569000Y23307310D01*
X10900937Y23307310D01*
X10907440Y23340000D01*
X10907440Y23840000D01*
X10858157Y24087765D01*
X10717809Y24297809D01*
X10507765Y24438157D01*
X10260000Y24487440D01*
X10249906Y24487440D01*
X10196510Y24523118D01*
X9810000Y24600000D01*
X9026499Y24600000D01*
X8739147Y25030054D01*
X8695223Y25059403D01*
X8869698Y25131673D01*
X9048327Y25310301D01*
X9145000Y25543690D01*
X9145000Y26234250D01*
X8986250Y26393000D01*
X7787000Y26393000D01*
X7787000Y26373000D01*
X7533000Y26373000D01*
X7533000Y26393000D01*
X6333750Y26393000D01*
X6175000Y26234250D01*
X6175000Y25543690D01*
X6271673Y25310301D01*
X6450302Y25131673D01*
X6624777Y25059403D01*
X6580853Y25030054D01*
X6258946Y24548285D01*
X6145907Y23980000D01*
X-3199121Y23980000D01*
X-3191945Y27496310D01*
X6175000Y27496310D01*
X6175000Y26805750D01*
X6333750Y26647000D01*
X7533000Y26647000D01*
X7533000Y27846250D01*
X7787000Y27846250D01*
X7787000Y26647000D01*
X8986250Y26647000D01*
X9145000Y26805750D01*
X9145000Y27496310D01*
X9048327Y27729699D01*
X8869698Y27908327D01*
X8636309Y28005000D01*
X7945750Y28005000D01*
X7787000Y27846250D01*
X7533000Y27846250D01*
X7374250Y28005000D01*
X6683691Y28005000D01*
X6450302Y27908327D01*
X6271673Y27729699D01*
X6175000Y27496310D01*
X-3191945Y27496310D01*
X-3188337Y29264250D01*
X10945000Y29264250D01*
X10945000Y29048690D01*
X11041673Y28815301D01*
X11220302Y28636673D01*
X11453691Y28540000D01*
X11694250Y28540000D01*
X11853000Y28698750D01*
X11853000Y29423000D01*
X11103750Y29423000D01*
X10945000Y29264250D01*
X-3188337Y29264250D01*
X-3186731Y30051310D01*
X10945000Y30051310D01*
X10945000Y29835750D01*
X11103750Y29677000D01*
X11853000Y29677000D01*
X11853000Y30401250D01*
X12107000Y30401250D01*
X12107000Y29677000D01*
X12127000Y29677000D01*
X12127000Y29423000D01*
X12107000Y29423000D01*
X12107000Y28698750D01*
X12265750Y28540000D01*
X12470000Y28540000D01*
X12470000Y28400000D01*
X12546882Y28013490D01*
X12765822Y27685822D01*
X12944982Y27506662D01*
X12944982Y25436518D01*
X12920162Y25376745D01*
X12919803Y24964997D01*
X13077040Y24584453D01*
X13367936Y24293049D01*
X13748205Y24135148D01*
X14159953Y24134789D01*
X14540497Y24292026D01*
X14831901Y24582922D01*
X14989802Y24963191D01*
X14990108Y25314250D01*
X29807000Y25314250D01*
X29807000Y25098690D01*
X29903673Y24865301D01*
X30082302Y24686673D01*
X30315691Y24590000D01*
X30556250Y24590000D01*
X30715000Y24748750D01*
X30715000Y25473000D01*
X29965750Y25473000D01*
X29807000Y25314250D01*
X14990108Y25314250D01*
X14990161Y25374939D01*
X14964982Y25435877D01*
X14964982Y26101310D01*
X29807000Y26101310D01*
X29807000Y25885750D01*
X29965750Y25727000D01*
X30715000Y25727000D01*
X30715000Y26451250D01*
X30556250Y26610000D01*
X30315691Y26610000D01*
X30082302Y26513327D01*
X29903673Y26334699D01*
X29807000Y26101310D01*
X14964982Y26101310D01*
X14964982Y27434250D01*
X30625000Y27434250D01*
X30625000Y27218690D01*
X30721673Y26985301D01*
X30900302Y26806673D01*
X31133691Y26710000D01*
X31374250Y26710000D01*
X31533000Y26868750D01*
X31533000Y27593000D01*
X30783750Y27593000D01*
X30625000Y27434250D01*
X14964982Y27434250D01*
X14964982Y27925018D01*
X14945048Y28025230D01*
X14945179Y28174971D01*
X14926033Y28221310D01*
X30625000Y28221310D01*
X30625000Y28005750D01*
X30783750Y27847000D01*
X31533000Y27847000D01*
X31533000Y28571250D01*
X31374250Y28730000D01*
X31133691Y28730000D01*
X30900302Y28633327D01*
X30721673Y28454699D01*
X30625000Y28221310D01*
X14926033Y28221310D01*
X14787942Y28555515D01*
X14497046Y28846919D01*
X14490000Y28849845D01*
X14490000Y28986774D01*
X14527440Y29175000D01*
X14527440Y29632250D01*
X30569000Y29632250D01*
X30569000Y29416690D01*
X30665673Y29183301D01*
X30844302Y29004673D01*
X31077691Y28908000D01*
X31318250Y28908000D01*
X31477000Y29066750D01*
X31477000Y29791000D01*
X30727750Y29791000D01*
X30569000Y29632250D01*
X14527440Y29632250D01*
X14527440Y29925000D01*
X14478157Y30172765D01*
X14337809Y30382809D01*
X14127765Y30523157D01*
X13880000Y30572440D01*
X13080000Y30572440D01*
X12832235Y30523157D01*
X12740898Y30462127D01*
X12739698Y30463327D01*
X12506309Y30560000D01*
X12265750Y30560000D01*
X12107000Y30401250D01*
X11853000Y30401250D01*
X11694250Y30560000D01*
X11453691Y30560000D01*
X11220302Y30463327D01*
X11041673Y30284699D01*
X10945000Y30051310D01*
X-3186731Y30051310D01*
X-3183958Y31410250D01*
X29965000Y31410250D01*
X29965000Y30944690D01*
X30061673Y30711301D01*
X30240302Y30532673D01*
X30473691Y30436000D01*
X30575913Y30436000D01*
X30569000Y30419310D01*
X30569000Y30203750D01*
X30727750Y30045000D01*
X31477000Y30045000D01*
X31477000Y30065000D01*
X31671980Y30065000D01*
X31664821Y26553503D01*
X31602898Y26512127D01*
X31601698Y26513327D01*
X31368309Y26610000D01*
X31127750Y26610000D01*
X30969000Y26451250D01*
X30969000Y25727000D01*
X30989000Y25727000D01*
X30989000Y25473000D01*
X30969000Y25473000D01*
X30969000Y24748750D01*
X31127750Y24590000D01*
X31368309Y24590000D01*
X31601698Y24686673D01*
X31602898Y24687873D01*
X31660938Y24649091D01*
X31653536Y21018000D01*
X31639750Y21018000D01*
X31481000Y20859250D01*
X31481000Y19885000D01*
X31501000Y19885000D01*
X31501000Y19631000D01*
X31481000Y19631000D01*
X31481000Y18656750D01*
X31639750Y18498000D01*
X31648398Y18498000D01*
X31643000Y15850259D01*
X31652568Y15801639D01*
X31680015Y15760381D01*
X31721160Y15732767D01*
X31769682Y15723000D01*
X32360000Y15721521D01*
X32360000Y15495750D01*
X32518750Y15337000D01*
X33243000Y15337000D01*
X33243000Y15357000D01*
X33497000Y15357000D01*
X33497000Y15337000D01*
X34221250Y15337000D01*
X34311250Y15427000D01*
X34723000Y15427000D01*
X34723000Y15447000D01*
X34977000Y15447000D01*
X34977000Y15427000D01*
X34997000Y15427000D01*
X34997000Y15173000D01*
X34977000Y15173000D01*
X34977000Y14448750D01*
X35118076Y14307674D01*
X34890302Y14213327D01*
X34889102Y14212127D01*
X34797765Y14273157D01*
X34588944Y14314694D01*
X34723000Y14448750D01*
X34723000Y15173000D01*
X33973750Y15173000D01*
X33883750Y15083000D01*
X33497000Y15083000D01*
X33497000Y15063000D01*
X33243000Y15063000D01*
X33243000Y15083000D01*
X32518750Y15083000D01*
X32360000Y14924250D01*
X32360000Y14683691D01*
X32456673Y14450302D01*
X32635301Y14271673D01*
X32663282Y14260083D01*
X32464485Y14177942D01*
X32173081Y13887046D01*
X32015180Y13506777D01*
X32014821Y13095029D01*
X32172058Y12714485D01*
X32462954Y12423081D01*
X32843223Y12265180D01*
X33110697Y12264947D01*
X33013025Y7332514D01*
X33021728Y7283732D01*
X33048437Y7241993D01*
X33089086Y7213653D01*
X33140146Y7203000D01*
X50500146Y7223000D01*
X50548736Y7232723D01*
X50589906Y7260301D01*
X50617389Y7301534D01*
X50626975Y7347486D01*
X50696134Y10840029D01*
X59414821Y10840029D01*
X59572058Y10459485D01*
X59862954Y10168081D01*
X60243223Y10010180D01*
X60289989Y10010139D01*
X60377235Y9951843D01*
X60625000Y9902560D01*
X61875000Y9902560D01*
X62122765Y9951843D01*
X62332809Y10092191D01*
X62473157Y10302235D01*
X62522440Y10550000D01*
X62522440Y10735029D01*
X62914821Y10735029D01*
X63072058Y10354485D01*
X63362954Y10063081D01*
X63743223Y9905180D01*
X63922475Y9905024D01*
X63927235Y9901843D01*
X64175000Y9852560D01*
X65425000Y9852560D01*
X65672765Y9901843D01*
X65882809Y10042191D01*
X66023157Y10252235D01*
X66072440Y10500000D01*
X66072440Y10755029D01*
X66314821Y10755029D01*
X66472058Y10374485D01*
X66762954Y10083081D01*
X67143223Y9925180D01*
X67392634Y9924963D01*
X67427235Y9901843D01*
X67675000Y9852560D01*
X68925000Y9852560D01*
X69172765Y9901843D01*
X69382809Y10042191D01*
X69523157Y10252235D01*
X69572440Y10500000D01*
X69572440Y11185029D01*
X69814821Y11185029D01*
X69972058Y10804485D01*
X70262954Y10513081D01*
X70643223Y10355180D01*
X71054971Y10354821D01*
X71402847Y10498560D01*
X72425000Y10498560D01*
X72672765Y10547843D01*
X72882809Y10688191D01*
X73023157Y10898235D01*
X73072440Y11146000D01*
X73072440Y12146000D01*
X73023157Y12393765D01*
X72882809Y12603809D01*
X72819666Y12646000D01*
X72882809Y12688191D01*
X73023157Y12898235D01*
X73072440Y13146000D01*
X73072440Y14146000D01*
X73023157Y14393765D01*
X72894988Y14585582D01*
X72895179Y14804971D01*
X72737942Y15185515D01*
X72447046Y15476919D01*
X72066777Y15634820D01*
X71655029Y15635179D01*
X71274485Y15477942D01*
X70983081Y15187046D01*
X70825180Y14806777D01*
X70825066Y14675889D01*
X70717191Y14603809D01*
X70576843Y14393765D01*
X70527560Y14146000D01*
X70527560Y13146000D01*
X70576843Y12898235D01*
X70717191Y12688191D01*
X70780334Y12646000D01*
X70717191Y12603809D01*
X70579834Y12398241D01*
X70264485Y12267942D01*
X69973081Y11977046D01*
X69815180Y11596777D01*
X69814821Y11185029D01*
X69572440Y11185029D01*
X69572440Y11500000D01*
X69523157Y11747765D01*
X69382809Y11957809D01*
X69319666Y12000000D01*
X69382809Y12042191D01*
X69523157Y12252235D01*
X69572440Y12500000D01*
X69572440Y13500000D01*
X69523157Y13747765D01*
X69382809Y13957809D01*
X69286167Y14022384D01*
X69294820Y14043223D01*
X69295179Y14454971D01*
X69137942Y14835515D01*
X68847046Y15126919D01*
X68466777Y15284820D01*
X68055029Y15285179D01*
X67674485Y15127942D01*
X67383081Y14837046D01*
X67225180Y14456777D01*
X67224821Y14045029D01*
X67251412Y13980675D01*
X67217191Y13957809D01*
X67076843Y13747765D01*
X67027560Y13500000D01*
X67027560Y12500000D01*
X67076843Y12252235D01*
X67217191Y12042191D01*
X67280334Y12000000D01*
X67272952Y11995067D01*
X67145029Y11995179D01*
X66764485Y11837942D01*
X66473081Y11547046D01*
X66315180Y11166777D01*
X66314821Y10755029D01*
X66072440Y10755029D01*
X66072440Y11500000D01*
X66023157Y11747765D01*
X65882809Y11957809D01*
X65819666Y12000000D01*
X65882809Y12042191D01*
X66023157Y12252235D01*
X66072440Y12500000D01*
X66072440Y13500000D01*
X66023157Y13747765D01*
X65882809Y13957809D01*
X65694855Y14083397D01*
X65695179Y14454971D01*
X65537942Y14835515D01*
X65247046Y15126919D01*
X64866777Y15284820D01*
X64455029Y15285179D01*
X64074485Y15127942D01*
X63783081Y14837046D01*
X63625180Y14456777D01*
X63624821Y14045029D01*
X63682384Y13905716D01*
X63576843Y13747765D01*
X63527560Y13500000D01*
X63527560Y12500000D01*
X63576843Y12252235D01*
X63717191Y12042191D01*
X63780334Y12000000D01*
X63740202Y11973184D01*
X63364485Y11817942D01*
X63073081Y11527046D01*
X62915180Y11146777D01*
X62914821Y10735029D01*
X62522440Y10735029D01*
X62522440Y11550000D01*
X62473157Y11797765D01*
X62332809Y12007809D01*
X62269666Y12050000D01*
X62332809Y12092191D01*
X62473157Y12302235D01*
X62522440Y12550000D01*
X62522440Y13550000D01*
X62473157Y13797765D01*
X62332809Y14007809D01*
X62122765Y14148157D01*
X62094829Y14153714D01*
X62095179Y14554971D01*
X61937942Y14935515D01*
X61647046Y15226919D01*
X61266777Y15384820D01*
X60855029Y15385179D01*
X60474485Y15227942D01*
X60183081Y14937046D01*
X60025180Y14556777D01*
X60024821Y14145029D01*
X60114254Y13928584D01*
X60026843Y13797765D01*
X59977560Y13550000D01*
X59977560Y12550000D01*
X60026843Y12302235D01*
X60167191Y12092191D01*
X60208041Y12064896D01*
X59864485Y11922942D01*
X59573081Y11632046D01*
X59415180Y11251777D01*
X59414821Y10840029D01*
X50696134Y10840029D01*
X50726975Y12397486D01*
X50718272Y12446268D01*
X50691563Y12488007D01*
X50650914Y12516347D01*
X50599854Y12527000D01*
X36533821Y12510795D01*
X36588327Y12565301D01*
X36685000Y12798690D01*
X36685000Y13014250D01*
X36526250Y13173000D01*
X35777000Y13173000D01*
X35777000Y13153000D01*
X35523000Y13153000D01*
X35523000Y13173000D01*
X35503000Y13173000D01*
X35503000Y13415759D01*
X38323683Y13415759D01*
X38480920Y13035215D01*
X38771816Y12743811D01*
X39152085Y12585910D01*
X39563833Y12585551D01*
X39944377Y12742788D01*
X40191263Y12989243D01*
X40250000Y12977560D01*
X41050000Y12977560D01*
X41297765Y13026843D01*
X41389102Y13087873D01*
X41390302Y13086673D01*
X41623691Y12990000D01*
X41864250Y12990000D01*
X42023000Y13148750D01*
X42023000Y13873000D01*
X42003000Y13873000D01*
X42003000Y14127000D01*
X42023000Y14127000D01*
X42023000Y14147000D01*
X42277000Y14147000D01*
X42277000Y14127000D01*
X42297000Y14127000D01*
X42297000Y13873000D01*
X42277000Y13873000D01*
X42277000Y13148750D01*
X42435750Y12990000D01*
X42596494Y12990000D01*
X42862954Y12723075D01*
X43243223Y12565174D01*
X43654971Y12564815D01*
X44035515Y12722052D01*
X44239336Y12925518D01*
X44400000Y12893560D01*
X45200000Y12893560D01*
X45447765Y12942843D01*
X45539102Y13003873D01*
X45540302Y13002673D01*
X45773691Y12906000D01*
X46014250Y12906000D01*
X46173000Y13064750D01*
X46173000Y13789000D01*
X46427000Y13789000D01*
X46427000Y13064750D01*
X46585750Y12906000D01*
X46826309Y12906000D01*
X47059698Y13002673D01*
X47238327Y13181301D01*
X47335000Y13414690D01*
X47335000Y13630250D01*
X47176250Y13789000D01*
X46427000Y13789000D01*
X46173000Y13789000D01*
X46153000Y13789000D01*
X46153000Y14043000D01*
X46173000Y14043000D01*
X46173000Y14063000D01*
X46427000Y14063000D01*
X46427000Y14043000D01*
X47176250Y14043000D01*
X47335000Y14201750D01*
X47335000Y14417310D01*
X47238327Y14650699D01*
X47059698Y14829327D01*
X46859505Y14912250D01*
X47346000Y14912250D01*
X47346000Y14671691D01*
X47442673Y14438302D01*
X47621301Y14259673D01*
X47854690Y14163000D01*
X48070250Y14163000D01*
X48229000Y14321750D01*
X48229000Y15071000D01*
X48483000Y15071000D01*
X48483000Y14321750D01*
X48641750Y14163000D01*
X48857310Y14163000D01*
X49090699Y14259673D01*
X49269327Y14438302D01*
X49366000Y14671691D01*
X49366000Y14912250D01*
X49207250Y15071000D01*
X48483000Y15071000D01*
X48229000Y15071000D01*
X47504750Y15071000D01*
X47346000Y14912250D01*
X46859505Y14912250D01*
X46826309Y14926000D01*
X46826000Y14926000D01*
X46826000Y15166250D01*
X46667250Y15325000D01*
X45943000Y15325000D01*
X45943000Y15305000D01*
X45689000Y15305000D01*
X45689000Y15325000D01*
X44964750Y15325000D01*
X44806000Y15166250D01*
X44806000Y14938440D01*
X44400000Y14938440D01*
X44276102Y14913795D01*
X44286000Y14937691D01*
X44286000Y15178250D01*
X44127250Y15337000D01*
X43403000Y15337000D01*
X43403000Y15317000D01*
X43149000Y15317000D01*
X43149000Y15337000D01*
X42424750Y15337000D01*
X42356000Y15268250D01*
X42351250Y15273000D01*
X41627000Y15273000D01*
X41627000Y15253000D01*
X41373000Y15253000D01*
X41373000Y15273000D01*
X40648750Y15273000D01*
X40490000Y15114250D01*
X40490000Y15022440D01*
X40250000Y15022440D01*
X40002235Y14973157D01*
X39792191Y14832809D01*
X39725105Y14732409D01*
X39460238Y14679723D01*
X39456860Y14679051D01*
X39421876Y14655675D01*
X39153891Y14655909D01*
X38773347Y14498672D01*
X38481943Y14207776D01*
X38324042Y13827507D01*
X38323683Y13415759D01*
X35503000Y13415759D01*
X35503000Y13427000D01*
X35523000Y13427000D01*
X35523000Y14151250D01*
X35381924Y14292326D01*
X35609698Y14386673D01*
X35610898Y14387873D01*
X35702235Y14326843D01*
X35911056Y14285306D01*
X35777000Y14151250D01*
X35777000Y13427000D01*
X36526250Y13427000D01*
X36685000Y13585750D01*
X36685000Y13801310D01*
X36588327Y14034699D01*
X36409698Y14213327D01*
X36254626Y14277560D01*
X36750000Y14277560D01*
X36997765Y14326843D01*
X37207809Y14467191D01*
X37348157Y14677235D01*
X37397440Y14925000D01*
X37397440Y15675000D01*
X37390694Y15708912D01*
X37883427Y15707677D01*
X37740000Y15564250D01*
X37740000Y15323691D01*
X37836673Y15090302D01*
X38015301Y14911673D01*
X38248690Y14815000D01*
X38464250Y14815000D01*
X38623000Y14973750D01*
X38623000Y15705824D01*
X38877000Y15705187D01*
X38877000Y14973750D01*
X39035750Y14815000D01*
X39251310Y14815000D01*
X39484699Y14911673D01*
X39663327Y15090302D01*
X39760000Y15323691D01*
X39760000Y15564250D01*
X39620927Y15703323D01*
X40490000Y15701145D01*
X40490000Y15685750D01*
X40648750Y15527000D01*
X41373000Y15527000D01*
X41373000Y15547000D01*
X41627000Y15547000D01*
X41627000Y15527000D01*
X42351250Y15527000D01*
X42420000Y15595750D01*
X42424750Y15591000D01*
X43149000Y15591000D01*
X43149000Y15611000D01*
X43403000Y15611000D01*
X43403000Y15591000D01*
X44127250Y15591000D01*
X44228026Y15691776D01*
X44853542Y15690208D01*
X44964750Y15579000D01*
X45689000Y15579000D01*
X45689000Y15599000D01*
X45943000Y15599000D01*
X45943000Y15579000D01*
X46667250Y15579000D01*
X46773646Y15685396D01*
X47346000Y15683962D01*
X47346000Y15483750D01*
X47504750Y15325000D01*
X48229000Y15325000D01*
X48229000Y15345000D01*
X48483000Y15345000D01*
X48483000Y15325000D01*
X49207250Y15325000D01*
X49366000Y15483750D01*
X49366000Y15678899D01*
X51719682Y15673000D01*
X51768307Y15682546D01*
X51809577Y15709973D01*
X51837211Y15751105D01*
X51846999Y15799419D01*
X51866301Y20018000D01*
X51868250Y20018000D01*
X52027000Y20176750D01*
X52027000Y20901000D01*
X52281000Y20901000D01*
X52281000Y20176750D01*
X52439750Y20018000D01*
X52680309Y20018000D01*
X52913698Y20114673D01*
X53092327Y20293301D01*
X53189000Y20526690D01*
X53189000Y20742250D01*
X53030250Y20901000D01*
X52281000Y20901000D01*
X52027000Y20901000D01*
X52007000Y20901000D01*
X52007000Y21155000D01*
X52027000Y21155000D01*
X52027000Y21879250D01*
X51989250Y21917000D01*
X52027000Y21954750D01*
X52027000Y22679000D01*
X52281000Y22679000D01*
X52281000Y21954750D01*
X52318750Y21917000D01*
X52281000Y21879250D01*
X52281000Y21155000D01*
X53030250Y21155000D01*
X53189000Y21313750D01*
X53189000Y21529310D01*
X53092327Y21762699D01*
X52938025Y21917000D01*
X53092327Y22071301D01*
X53189000Y22304690D01*
X53189000Y22520250D01*
X53030250Y22679000D01*
X52281000Y22679000D01*
X52027000Y22679000D01*
X52007000Y22679000D01*
X52007000Y22933000D01*
X52027000Y22933000D01*
X52027000Y22953000D01*
X52281000Y22953000D01*
X52281000Y22933000D01*
X53030250Y22933000D01*
X53189000Y23091750D01*
X53189000Y23307310D01*
X53092327Y23540699D01*
X52971638Y23661388D01*
X53043000Y23732750D01*
X53043000Y24457000D01*
X53023000Y24457000D01*
X53023000Y24711000D01*
X53043000Y24711000D01*
X53043000Y24731000D01*
X53297000Y24731000D01*
X53297000Y24711000D01*
X53317000Y24711000D01*
X53317000Y24457000D01*
X53297000Y24457000D01*
X53297000Y23732750D01*
X53455750Y23574000D01*
X53696309Y23574000D01*
X53929698Y23670673D01*
X54108327Y23849301D01*
X54165534Y23987411D01*
X54177079Y23959470D01*
X54467975Y23668066D01*
X54848244Y23510165D01*
X55259992Y23509806D01*
X55640536Y23667043D01*
X55931940Y23957939D01*
X56089841Y24338208D01*
X56090120Y24658433D01*
X56614560Y24133993D01*
X56614560Y23626000D01*
X56663843Y23378235D01*
X56804191Y23168191D01*
X56804524Y23167969D01*
X52465068Y18828512D01*
X52305740Y18590061D01*
X52249791Y18308789D01*
X52249791Y16827645D01*
X52107872Y16685973D01*
X51949971Y16305704D01*
X51949612Y15893956D01*
X52106849Y15513412D01*
X52175000Y15445142D01*
X52175000Y14534868D01*
X52052191Y14452809D01*
X51911843Y14242765D01*
X51862560Y13995000D01*
X51862560Y13245000D01*
X51911843Y12997235D01*
X52052191Y12787191D01*
X52262235Y12646843D01*
X52510000Y12597560D01*
X53310000Y12597560D01*
X53557765Y12646843D01*
X53649102Y12707873D01*
X53650302Y12706673D01*
X53883691Y12610000D01*
X54124250Y12610000D01*
X54283000Y12768750D01*
X54283000Y13493000D01*
X54537000Y13493000D01*
X54537000Y12768750D01*
X54695750Y12610000D01*
X54936309Y12610000D01*
X55169698Y12706673D01*
X55348327Y12885301D01*
X55445000Y13118690D01*
X55445000Y13334250D01*
X55286250Y13493000D01*
X54537000Y13493000D01*
X54283000Y13493000D01*
X54263000Y13493000D01*
X54263000Y13747000D01*
X54283000Y13747000D01*
X54283000Y14471250D01*
X54537000Y14471250D01*
X54537000Y13747000D01*
X55286250Y13747000D01*
X55445000Y13905750D01*
X55445000Y14121310D01*
X55348327Y14354699D01*
X55169698Y14533327D01*
X54936309Y14630000D01*
X54695750Y14630000D01*
X54537000Y14471250D01*
X54283000Y14471250D01*
X54124250Y14630000D01*
X53883691Y14630000D01*
X53650302Y14533327D01*
X53649102Y14532127D01*
X53645000Y14534868D01*
X53645000Y15295549D01*
X53861710Y15511881D01*
X54019611Y15892150D01*
X54019970Y16303898D01*
X53862733Y16684442D01*
X53719791Y16827634D01*
X53719791Y18004343D01*
X54380477Y18665029D01*
X59074821Y18665029D01*
X59232058Y18284485D01*
X59522954Y17993081D01*
X59903223Y17835180D01*
X60314971Y17834821D01*
X60375909Y17860000D01*
X63343450Y17860000D01*
X63403223Y17835180D01*
X63814971Y17834821D01*
X63875909Y17860000D01*
X67135010Y17860000D01*
X67135118Y17860021D01*
X67364981Y17859821D01*
X67425919Y17885000D01*
X70593450Y17885000D01*
X70653223Y17860180D01*
X71064971Y17859821D01*
X71445515Y18017058D01*
X71736919Y18307954D01*
X71894820Y18688223D01*
X71895179Y19099971D01*
X71737942Y19480515D01*
X71447046Y19771919D01*
X71066777Y19929820D01*
X70655029Y19930179D01*
X70594091Y19905000D01*
X67426560Y19905000D01*
X67366787Y19929820D01*
X66955039Y19930179D01*
X66833596Y19880000D01*
X63876550Y19880000D01*
X63816777Y19904820D01*
X63405029Y19905179D01*
X63344091Y19880000D01*
X62788327Y19880000D01*
X62791157Y19884235D01*
X62840440Y20132000D01*
X62840440Y20932000D01*
X62791157Y21179765D01*
X62730127Y21271102D01*
X62731327Y21272302D01*
X62828000Y21505691D01*
X62828000Y21746250D01*
X62669250Y21905000D01*
X61945000Y21905000D01*
X61945000Y21885000D01*
X61691000Y21885000D01*
X61691000Y21905000D01*
X60966750Y21905000D01*
X60808000Y21746250D01*
X60808000Y21505691D01*
X60904673Y21272302D01*
X60905873Y21271102D01*
X60844843Y21179765D01*
X60813545Y21022417D01*
X60754777Y21046820D01*
X60343029Y21047179D01*
X59962485Y20889942D01*
X59671081Y20599046D01*
X59513180Y20218777D01*
X59512821Y19807029D01*
X59535376Y19752442D01*
X59524485Y19747942D01*
X59233081Y19457046D01*
X59075180Y19076777D01*
X59074821Y18665029D01*
X54380477Y18665029D01*
X57929755Y22214306D01*
X58035084Y21959389D01*
X58325980Y21667985D01*
X58706249Y21510084D01*
X59117997Y21509725D01*
X59498541Y21666962D01*
X59789945Y21957858D01*
X59947846Y22338127D01*
X59948037Y22558309D01*
X60808000Y22558309D01*
X60808000Y22317750D01*
X60966750Y22159000D01*
X61691000Y22159000D01*
X61691000Y22908250D01*
X61532250Y23067000D01*
X61316690Y23067000D01*
X61083301Y22970327D01*
X60904673Y22791698D01*
X60808000Y22558309D01*
X59948037Y22558309D01*
X59948205Y22749875D01*
X59790968Y23130419D01*
X59747000Y23174464D01*
X59747000Y23208885D01*
X59860157Y23378235D01*
X59909440Y23626000D01*
X59909440Y23802250D01*
X61570000Y23802250D01*
X61570000Y23561691D01*
X61666673Y23328302D01*
X61845301Y23149673D01*
X62078690Y23053000D01*
X62089750Y23053000D01*
X61945000Y22908250D01*
X61945000Y22159000D01*
X62669250Y22159000D01*
X62828000Y22317750D01*
X62828000Y22558309D01*
X62731327Y22791698D01*
X62552699Y22970327D01*
X62319310Y23067000D01*
X62308250Y23067000D01*
X62453000Y23211750D01*
X62453000Y23961000D01*
X62707000Y23961000D01*
X62707000Y23211750D01*
X62865750Y23053000D01*
X63081310Y23053000D01*
X63314699Y23149673D01*
X63493327Y23328302D01*
X63590000Y23561691D01*
X63590000Y23802250D01*
X63431250Y23961000D01*
X62707000Y23961000D01*
X62453000Y23961000D01*
X61728750Y23961000D01*
X61570000Y23802250D01*
X59909440Y23802250D01*
X59909440Y24526000D01*
X59860157Y24773765D01*
X59719809Y24983809D01*
X59509765Y25124157D01*
X59415732Y25142861D01*
X59449051Y25192727D01*
X59465454Y25275191D01*
X59505000Y25474000D01*
X59505000Y27648554D01*
X59657996Y27495558D01*
X59657821Y27295029D01*
X59815058Y26914485D01*
X60105954Y26623081D01*
X60486223Y26465180D01*
X60688550Y26465004D01*
X61557560Y25595994D01*
X61557560Y25188000D01*
X61606843Y24940235D01*
X61667873Y24848898D01*
X61666673Y24847698D01*
X61570000Y24614309D01*
X61570000Y24373750D01*
X61728750Y24215000D01*
X62453000Y24215000D01*
X62453000Y24235000D01*
X62707000Y24235000D01*
X62707000Y24215000D01*
X63431250Y24215000D01*
X63590000Y24373750D01*
X63590000Y24614309D01*
X63493327Y24847698D01*
X63492127Y24848898D01*
X63553157Y24940235D01*
X63602440Y25188000D01*
X63602440Y25988000D01*
X63553157Y26235765D01*
X63412809Y26445809D01*
X63202765Y26586157D01*
X62955000Y26635440D01*
X62597006Y26635440D01*
X61728004Y27504442D01*
X61728179Y27704971D01*
X61570942Y28085515D01*
X61280046Y28376919D01*
X60899777Y28534820D01*
X60697450Y28534996D01*
X60417440Y28815006D01*
X60417440Y29352000D01*
X60368157Y29599765D01*
X60240438Y29790908D01*
X60312820Y29965223D01*
X60313179Y30376971D01*
X60155942Y30757515D01*
X59865046Y31048919D01*
X59484777Y31206820D01*
X59073029Y31207179D01*
X58692485Y31049942D01*
X58401081Y30759046D01*
X58243180Y30378777D01*
X58243000Y30172833D01*
X58127143Y29999440D01*
X57770000Y29999440D01*
X57723123Y29990116D01*
X57615942Y30249515D01*
X57325046Y30540919D01*
X56944777Y30698820D01*
X56533029Y30699179D01*
X56198630Y30561009D01*
X56071809Y30750809D01*
X55861765Y30891157D01*
X55614000Y30940440D01*
X54814000Y30940440D01*
X54566235Y30891157D01*
X54474898Y30830127D01*
X54473698Y30831327D01*
X54240309Y30928000D01*
X53999750Y30928000D01*
X53841000Y30769250D01*
X53841000Y30045000D01*
X53861000Y30045000D01*
X53861000Y29791000D01*
X53841000Y29791000D01*
X53841000Y29066750D01*
X53999750Y28908000D01*
X54240309Y28908000D01*
X54473698Y29004673D01*
X54474898Y29005873D01*
X54566235Y28944843D01*
X54620225Y28934104D01*
X54694277Y28823277D01*
X55135276Y28382277D01*
X55355694Y28234999D01*
X55373728Y28222949D01*
X55655000Y28167000D01*
X57196723Y28167000D01*
X57312191Y27994191D01*
X57522235Y27853843D01*
X57770000Y27804560D01*
X58035000Y27804560D01*
X58035000Y25778447D01*
X57742277Y25485723D01*
X57582949Y25247272D01*
X57582489Y25244958D01*
X56210870Y26616576D01*
X56188157Y26730765D01*
X56047809Y26940809D01*
X55837765Y27081157D01*
X55590000Y27130440D01*
X54790000Y27130440D01*
X54542235Y27081157D01*
X54450898Y27020127D01*
X54449698Y27021327D01*
X54216309Y27118000D01*
X53975750Y27118000D01*
X53817000Y26959250D01*
X53817000Y26235000D01*
X53837000Y26235000D01*
X53837000Y25981000D01*
X53817000Y25981000D01*
X53817000Y25961000D01*
X53563000Y25961000D01*
X53563000Y25981000D01*
X52813750Y25981000D01*
X52655000Y25822250D01*
X52655000Y25606690D01*
X52660256Y25594000D01*
X52643691Y25594000D01*
X52410302Y25497327D01*
X52409102Y25496127D01*
X52317765Y25557157D01*
X52070000Y25606440D01*
X51891871Y25606440D01*
X51895480Y26395230D01*
X52027000Y26526750D01*
X52027000Y27251000D01*
X52281000Y27251000D01*
X52281000Y26526750D01*
X52439750Y26368000D01*
X52680309Y26368000D01*
X52680621Y26368129D01*
X52813750Y26235000D01*
X53563000Y26235000D01*
X53563000Y26959250D01*
X53404250Y27118000D01*
X53163691Y27118000D01*
X53163379Y27117871D01*
X53030250Y27251000D01*
X52281000Y27251000D01*
X52027000Y27251000D01*
X52007000Y27251000D01*
X52007000Y27505000D01*
X52027000Y27505000D01*
X52027000Y28229250D01*
X52281000Y28229250D01*
X52281000Y27505000D01*
X53030250Y27505000D01*
X53189000Y27663750D01*
X53189000Y27879310D01*
X53092327Y28112699D01*
X52913698Y28291327D01*
X52680309Y28388000D01*
X52439750Y28388000D01*
X52281000Y28229250D01*
X52027000Y28229250D01*
X51904432Y28351818D01*
X51910290Y29632250D01*
X52679000Y29632250D01*
X52679000Y29416690D01*
X52775673Y29183301D01*
X52954302Y29004673D01*
X53187691Y28908000D01*
X53428250Y28908000D01*
X53587000Y29066750D01*
X53587000Y29791000D01*
X52837750Y29791000D01*
X52679000Y29632250D01*
X51910290Y29632250D01*
X51914160Y30477910D01*
X52027000Y30590750D01*
X52027000Y31315000D01*
X52281000Y31315000D01*
X52281000Y30590750D01*
X52439750Y30432000D01*
X52680309Y30432000D01*
X52685074Y30433974D01*
X52679000Y30419310D01*
X52679000Y30203750D01*
X52837750Y30045000D01*
X53587000Y30045000D01*
X53587000Y30769250D01*
X53428250Y30928000D01*
X53187691Y30928000D01*
X53182926Y30926026D01*
X53189000Y30940690D01*
X53189000Y31156250D01*
X53030250Y31315000D01*
X52281000Y31315000D01*
X52027000Y31315000D01*
X52007000Y31315000D01*
X52007000Y31569000D01*
X52027000Y31569000D01*
X52027000Y32293250D01*
X52281000Y32293250D01*
X52281000Y31569000D01*
X53030250Y31569000D01*
X53189000Y31727750D01*
X53189000Y31943310D01*
X53092327Y32176699D01*
X52913698Y32355327D01*
X52680309Y32452000D01*
X52439750Y32452000D01*
X52281000Y32293250D01*
X52027000Y32293250D01*
X51922943Y32397307D01*
X51936999Y35469419D01*
X51927554Y35518063D01*
X51900213Y35559391D01*
X51859137Y35587109D01*
X51810000Y35597000D01*
X48240000Y35597000D01*
X48240000Y35704250D01*
X48081250Y35863000D01*
X47107000Y35863000D01*
X47107000Y35843000D01*
X46853000Y35843000D01*
X46853000Y35863000D01*
X46833000Y35863000D01*
X46833000Y36117000D01*
X46853000Y36117000D01*
X46853000Y36966250D01*
X47107000Y36966250D01*
X47107000Y36117000D01*
X48081250Y36117000D01*
X48090559Y36126309D01*
X49160000Y36126309D01*
X49160000Y35885750D01*
X49318750Y35727000D01*
X50043000Y35727000D01*
X50043000Y36476250D01*
X50297000Y36476250D01*
X50297000Y35727000D01*
X51021250Y35727000D01*
X51180000Y35885750D01*
X51180000Y36126309D01*
X51083327Y36359698D01*
X50904699Y36538327D01*
X50671310Y36635000D01*
X50455750Y36635000D01*
X50297000Y36476250D01*
X50043000Y36476250D01*
X49884250Y36635000D01*
X49668690Y36635000D01*
X49435301Y36538327D01*
X49256673Y36359698D01*
X49160000Y36126309D01*
X48090559Y36126309D01*
X48240000Y36275750D01*
X48240000Y36616309D01*
X48143327Y36849698D01*
X47964699Y37028327D01*
X47731310Y37125000D01*
X47265750Y37125000D01*
X47107000Y36966250D01*
X46853000Y36966250D01*
X46694250Y37125000D01*
X46228690Y37125000D01*
X45995301Y37028327D01*
X45816673Y36849698D01*
X45720000Y36616309D01*
X45720000Y36572405D01*
X45641310Y36605000D01*
X45425750Y36605000D01*
X45267000Y36446250D01*
X45267000Y35697000D01*
X45287000Y35697000D01*
X45287000Y35597000D01*
X44993000Y35597000D01*
X44993000Y35697000D01*
X45013000Y35697000D01*
X45013000Y36446250D01*
X44854250Y36605000D01*
X44638690Y36605000D01*
X44405301Y36508327D01*
X44226673Y36329698D01*
X44130000Y36096309D01*
X44130000Y35855750D01*
X44288748Y35697002D01*
X44130000Y35697002D01*
X44130000Y35597000D01*
X43682857Y35597000D01*
X43673157Y35645765D01*
X43612127Y35737102D01*
X43613327Y35738302D01*
X43710000Y35971691D01*
X43710000Y36212250D01*
X43551250Y36371000D01*
X42827000Y36371000D01*
X42827000Y36351000D01*
X42573000Y36351000D01*
X42573000Y36371000D01*
X41848750Y36371000D01*
X41690000Y36212250D01*
X41690000Y35971691D01*
X41786673Y35738302D01*
X41787873Y35737102D01*
X41726843Y35645765D01*
X41717143Y35597000D01*
X40197250Y35597000D01*
X40161250Y35633000D01*
X39437000Y35633000D01*
X39437000Y35613000D01*
X39183000Y35613000D01*
X39183000Y35633000D01*
X39163000Y35633000D01*
X39163000Y35887000D01*
X39183000Y35887000D01*
X39183000Y36636250D01*
X39437000Y36636250D01*
X39437000Y35887000D01*
X40161250Y35887000D01*
X40320000Y36045750D01*
X40320000Y36286309D01*
X40223327Y36519698D01*
X40044699Y36698327D01*
X39811310Y36795000D01*
X39595750Y36795000D01*
X39437000Y36636250D01*
X39183000Y36636250D01*
X39024250Y36795000D01*
X38808690Y36795000D01*
X38575301Y36698327D01*
X38396673Y36519698D01*
X38380000Y36479446D01*
X38380000Y36636309D01*
X38283327Y36869698D01*
X38128717Y37024309D01*
X41690000Y37024309D01*
X41690000Y36783750D01*
X41848750Y36625000D01*
X42573000Y36625000D01*
X42573000Y37374250D01*
X42827000Y37374250D01*
X42827000Y36625000D01*
X43551250Y36625000D01*
X43710000Y36783750D01*
X43710000Y37024309D01*
X43613327Y37257698D01*
X43434699Y37436327D01*
X43201310Y37533000D01*
X42985750Y37533000D01*
X42827000Y37374250D01*
X42573000Y37374250D01*
X42414250Y37533000D01*
X42198690Y37533000D01*
X41965301Y37436327D01*
X41786673Y37257698D01*
X41690000Y37024309D01*
X38128717Y37024309D01*
X38104699Y37048327D01*
X37871310Y37145000D01*
X37405750Y37145000D01*
X37247000Y36986250D01*
X37247000Y36137000D01*
X37267000Y36137000D01*
X37267000Y35883000D01*
X37247000Y35883000D01*
X37247000Y35863000D01*
X36993000Y35863000D01*
X36993000Y35883000D01*
X36018750Y35883000D01*
X35860000Y35724250D01*
X35860000Y35597000D01*
X35057250Y35597000D01*
X35001250Y35653000D01*
X34277000Y35653000D01*
X34277000Y35633000D01*
X34023000Y35633000D01*
X34023000Y35653000D01*
X33298750Y35653000D01*
X33242750Y35597000D01*
X31810000Y35597000D01*
X31761399Y35587333D01*
X31720197Y35559803D01*
X31692667Y35518601D01*
X31683000Y35470259D01*
X31677874Y32956000D01*
X31385750Y32956000D01*
X31227000Y32797250D01*
X31227000Y31823000D01*
X31247000Y31823000D01*
X31247000Y31569000D01*
X31227000Y31569000D01*
X31227000Y31549000D01*
X30973000Y31549000D01*
X30973000Y31569000D01*
X30123750Y31569000D01*
X29965000Y31410250D01*
X-3183958Y31410250D01*
X-3181842Y32447310D01*
X29965000Y32447310D01*
X29965000Y31981750D01*
X30123750Y31823000D01*
X30973000Y31823000D01*
X30973000Y32797250D01*
X30814250Y32956000D01*
X30473691Y32956000D01*
X30240302Y32859327D01*
X30061673Y32680699D01*
X29965000Y32447310D01*
X-3181842Y32447310D01*
X-3174600Y35995000D01*
X-1245750Y35995000D01*
X-1087000Y36153750D01*
X-1087000Y37713000D01*
X-1107000Y37713000D01*
X-1107000Y37967000D01*
X-1087000Y37967000D01*
X-1087000Y39526250D01*
X-833000Y39526250D01*
X-833000Y37967000D01*
X-813000Y37967000D01*
X-813000Y37713000D01*
X-833000Y37713000D01*
X-833000Y36153750D01*
X-674250Y35995000D01*
X1706309Y35995000D01*
X1939698Y36091673D01*
X2118327Y36270301D01*
X2215000Y36503690D01*
X2215000Y36580000D01*
X6145907Y36580000D01*
X6258946Y36011715D01*
X6580853Y35529946D01*
X6910026Y35310000D01*
X6580853Y35090054D01*
X6258946Y34608285D01*
X6145907Y34040000D01*
X6258946Y33471715D01*
X6580853Y32989946D01*
X7062622Y32668039D01*
X7630907Y32555000D01*
X7689093Y32555000D01*
X8257378Y32668039D01*
X8739147Y32989946D01*
X9061054Y33471715D01*
X9174093Y34040000D01*
X9061054Y34608285D01*
X8739147Y35090054D01*
X8409974Y35310000D01*
X8739147Y35529946D01*
X9061054Y36011715D01*
X9119652Y36306309D01*
X33140000Y36306309D01*
X33140000Y36065750D01*
X33298750Y35907000D01*
X34023000Y35907000D01*
X34023000Y36656250D01*
X34277000Y36656250D01*
X34277000Y35907000D01*
X35001250Y35907000D01*
X35160000Y36065750D01*
X35160000Y36306309D01*
X35063327Y36539698D01*
X34966717Y36636309D01*
X35860000Y36636309D01*
X35860000Y36295750D01*
X36018750Y36137000D01*
X36993000Y36137000D01*
X36993000Y36986250D01*
X36834250Y37145000D01*
X36368690Y37145000D01*
X36135301Y37048327D01*
X35956673Y36869698D01*
X35860000Y36636309D01*
X34966717Y36636309D01*
X34884699Y36718327D01*
X34651310Y36815000D01*
X34435750Y36815000D01*
X34277000Y36656250D01*
X34023000Y36656250D01*
X33864250Y36815000D01*
X33648690Y36815000D01*
X33415301Y36718327D01*
X33236673Y36539698D01*
X33140000Y36306309D01*
X9119652Y36306309D01*
X9174093Y36580000D01*
X9061054Y37148285D01*
X8739147Y37630054D01*
X8695223Y37659403D01*
X8869698Y37731673D01*
X9048327Y37910301D01*
X9096176Y38025818D01*
X9212191Y37852191D01*
X9347906Y37761508D01*
X9325180Y37706777D01*
X9324821Y37295029D01*
X9482058Y36914485D01*
X9772954Y36623081D01*
X10153223Y36465180D01*
X10564971Y36464821D01*
X10945515Y36622058D01*
X11236919Y36912954D01*
X11394820Y37293223D01*
X11395179Y37704971D01*
X11237942Y38085515D01*
X11183613Y38139939D01*
X11211522Y38280250D01*
X45314000Y38280250D01*
X45314000Y38039691D01*
X45410673Y37806302D01*
X45589301Y37627673D01*
X45822690Y37531000D01*
X46038250Y37531000D01*
X46197000Y37689750D01*
X46197000Y38439000D01*
X45472750Y38439000D01*
X45314000Y38280250D01*
X11211522Y38280250D01*
X11217440Y38310000D01*
X11217440Y38810000D01*
X11168157Y39057765D01*
X11027809Y39267809D01*
X10964666Y39310000D01*
X11027809Y39352191D01*
X11168157Y39562235D01*
X11217440Y39810000D01*
X11217440Y40310000D01*
X11168157Y40557765D01*
X11056394Y40725029D01*
X43914821Y40725029D01*
X44072058Y40344485D01*
X44362954Y40053081D01*
X44743223Y39895180D01*
X44945550Y39895004D01*
X45294277Y39546276D01*
X45330141Y39522313D01*
X45350843Y39418235D01*
X45411873Y39326898D01*
X45410673Y39325698D01*
X45314000Y39092309D01*
X45314000Y38851750D01*
X45472750Y38693000D01*
X46197000Y38693000D01*
X46197000Y38713000D01*
X46451000Y38713000D01*
X46451000Y38693000D01*
X46471000Y38693000D01*
X46471000Y38439000D01*
X46451000Y38439000D01*
X46451000Y37689750D01*
X46609750Y37531000D01*
X46825310Y37531000D01*
X47058699Y37627673D01*
X47237327Y37806302D01*
X47334000Y38039691D01*
X47334000Y38280250D01*
X47175252Y38438998D01*
X47328632Y38438998D01*
X47442058Y38164485D01*
X47732954Y37873081D01*
X48113223Y37715180D01*
X48524971Y37714821D01*
X48731689Y37800235D01*
X48793191Y37708191D01*
X49003235Y37567843D01*
X49251000Y37518560D01*
X50001000Y37518560D01*
X50248765Y37567843D01*
X50458809Y37708191D01*
X50599157Y37918235D01*
X50648440Y38166000D01*
X50648440Y38966000D01*
X50599157Y39213765D01*
X50538127Y39305102D01*
X50539327Y39306302D01*
X50636000Y39539691D01*
X50636000Y39780250D01*
X50477250Y39939000D01*
X49753000Y39939000D01*
X49753000Y39919000D01*
X49499000Y39919000D01*
X49499000Y39939000D01*
X48774750Y39939000D01*
X48616000Y39780250D01*
X48616000Y39747771D01*
X48526777Y39784820D01*
X48115029Y39785179D01*
X47734485Y39627942D01*
X47443081Y39337046D01*
X47334000Y39074349D01*
X47334000Y39092309D01*
X47237327Y39325698D01*
X47236127Y39326898D01*
X47297157Y39418235D01*
X47346440Y39666000D01*
X47346440Y40466000D01*
X47321316Y40592309D01*
X48616000Y40592309D01*
X48616000Y40351750D01*
X48774750Y40193000D01*
X49499000Y40193000D01*
X49499000Y40942250D01*
X49753000Y40942250D01*
X49753000Y40193000D01*
X50477250Y40193000D01*
X50636000Y40351750D01*
X50636000Y40592309D01*
X50539327Y40825698D01*
X50360699Y41004327D01*
X50127310Y41101000D01*
X49911750Y41101000D01*
X49753000Y40942250D01*
X49499000Y40942250D01*
X49340250Y41101000D01*
X49124690Y41101000D01*
X48891301Y41004327D01*
X48712673Y40825698D01*
X48616000Y40592309D01*
X47321316Y40592309D01*
X47297157Y40713765D01*
X47156809Y40923809D01*
X46946765Y41064157D01*
X46699000Y41113440D01*
X45985160Y41113440D01*
X45985165Y41120000D01*
X55725000Y41120000D01*
X55725000Y39220000D01*
X55770154Y38993000D01*
X55780949Y38938728D01*
X55940277Y38700277D01*
X56240276Y38400277D01*
X56375386Y38310000D01*
X56478728Y38240949D01*
X56724167Y38192128D01*
X56872954Y38043081D01*
X57253223Y37885180D01*
X57664971Y37884821D01*
X58045515Y38042058D01*
X58159944Y38156288D01*
X58272954Y38043081D01*
X58653223Y37885180D01*
X59064971Y37884821D01*
X59445515Y38042058D01*
X59736919Y38332954D01*
X59747805Y38359170D01*
X59925301Y38181673D01*
X60158690Y38085000D01*
X60374250Y38085000D01*
X60533000Y38243750D01*
X60533000Y38993000D01*
X60787000Y38993000D01*
X60787000Y38243750D01*
X60945750Y38085000D01*
X61161310Y38085000D01*
X61394699Y38181673D01*
X61573327Y38360302D01*
X61670000Y38593691D01*
X61670000Y38834250D01*
X61511250Y38993000D01*
X60787000Y38993000D01*
X60533000Y38993000D01*
X60513000Y38993000D01*
X60513000Y39042250D01*
X61824000Y39042250D01*
X61824000Y38801691D01*
X61920673Y38568302D01*
X62099301Y38389673D01*
X62332690Y38293000D01*
X62548250Y38293000D01*
X62707000Y38451750D01*
X62707000Y39201000D01*
X62961000Y39201000D01*
X62961000Y38451750D01*
X63119750Y38293000D01*
X63335310Y38293000D01*
X63568699Y38389673D01*
X63747327Y38568302D01*
X63844000Y38801691D01*
X63844000Y39042250D01*
X63685250Y39201000D01*
X62961000Y39201000D01*
X62707000Y39201000D01*
X61982750Y39201000D01*
X61824000Y39042250D01*
X60513000Y39042250D01*
X60513000Y39115000D01*
X61281000Y39115000D01*
X61562272Y39170949D01*
X61800723Y39330277D01*
X61954098Y39483652D01*
X61982750Y39455000D01*
X62707000Y39455000D01*
X62707000Y39475000D01*
X62961000Y39475000D01*
X62961000Y39455000D01*
X63685250Y39455000D01*
X63844000Y39613750D01*
X63844000Y39854309D01*
X63747327Y40087698D01*
X63746127Y40088898D01*
X63807157Y40180235D01*
X63856440Y40428000D01*
X63856440Y41228000D01*
X63807157Y41475765D01*
X63695728Y41642529D01*
X63782435Y41729085D01*
X63940336Y42109354D01*
X63940695Y42521102D01*
X63783458Y42901646D01*
X63492562Y43193050D01*
X63112293Y43350951D01*
X62700545Y43351310D01*
X62320001Y43194073D01*
X62028597Y42903177D01*
X61895141Y42581779D01*
X61895179Y42624971D01*
X61737942Y43005515D01*
X61447046Y43296919D01*
X61066777Y43454820D01*
X60655029Y43455179D01*
X60274485Y43297942D01*
X59983081Y43007046D01*
X59825180Y42626777D01*
X59824821Y42215029D01*
X59982058Y41834485D01*
X60025000Y41791468D01*
X60025000Y41609982D01*
X59827191Y41477809D01*
X59686843Y41267765D01*
X59637560Y41020000D01*
X59637560Y40731887D01*
X58657440Y41712006D01*
X58657440Y41820000D01*
X58608157Y42067765D01*
X58467809Y42277809D01*
X58257765Y42418157D01*
X58010000Y42467440D01*
X57110000Y42467440D01*
X56862235Y42418157D01*
X56652191Y42277809D01*
X56511843Y42067765D01*
X56489736Y41956623D01*
X56131298Y41777404D01*
X56038226Y41705171D01*
X55940277Y41639723D01*
X55925605Y41617765D01*
X55904742Y41601573D01*
X55846400Y41499226D01*
X55780949Y41401272D01*
X55775797Y41375371D01*
X55762718Y41352427D01*
X55747984Y41235549D01*
X55725000Y41120000D01*
X45985165Y41120000D01*
X45985179Y41134971D01*
X45827942Y41515515D01*
X45537046Y41806919D01*
X45156777Y41964820D01*
X44745029Y41965179D01*
X44364485Y41807942D01*
X44073081Y41517046D01*
X43915180Y41136777D01*
X43914821Y40725029D01*
X11056394Y40725029D01*
X11027809Y40767809D01*
X10817765Y40908157D01*
X10714017Y40928794D01*
X10607942Y41185515D01*
X10317046Y41476919D01*
X9936777Y41634820D01*
X9525029Y41635179D01*
X9144485Y41477942D01*
X8853081Y41187046D01*
X8695180Y40806777D01*
X8694983Y40580696D01*
X8636309Y40605000D01*
X7945750Y40605000D01*
X7787000Y40446250D01*
X7787000Y39247000D01*
X7807000Y39247000D01*
X7807000Y38993000D01*
X7787000Y38993000D01*
X7787000Y38973000D01*
X7533000Y38973000D01*
X7533000Y38993000D01*
X6333750Y38993000D01*
X6175000Y38834250D01*
X6175000Y38143690D01*
X6271673Y37910301D01*
X6450302Y37731673D01*
X6624777Y37659403D01*
X6580853Y37630054D01*
X6258946Y37148285D01*
X6145907Y36580000D01*
X2215000Y36580000D01*
X2215000Y36747871D01*
X2338564Y36706851D01*
X2782968Y36738982D01*
X3044308Y36847232D01*
X3079595Y37060800D01*
X2951710Y37188685D01*
X3013327Y37250301D01*
X3082443Y37417162D01*
X3259200Y37240405D01*
X3472768Y37275692D01*
X3613149Y37698564D01*
X3581018Y38142968D01*
X3472768Y38404308D01*
X3259200Y38439595D01*
X3082443Y38262838D01*
X3013327Y38429699D01*
X2951710Y38491315D01*
X3079595Y38619200D01*
X3044308Y38832768D01*
X2621436Y38973149D01*
X2215000Y38943763D01*
X2215000Y39176310D01*
X2118327Y39409699D01*
X1939698Y39588327D01*
X1706309Y39685000D01*
X-674250Y39685000D01*
X-833000Y39526250D01*
X-1087000Y39526250D01*
X-1245750Y39685000D01*
X-3167069Y39685000D01*
X-3166230Y40096310D01*
X6175000Y40096310D01*
X6175000Y39405750D01*
X6333750Y39247000D01*
X7533000Y39247000D01*
X7533000Y40446250D01*
X7374250Y40605000D01*
X6683691Y40605000D01*
X6450302Y40508327D01*
X6271673Y40329699D01*
X6175000Y40096310D01*
X-3166230Y40096310D01*
X-3158642Y43815029D01*
X18524821Y43815029D01*
X18682058Y43434485D01*
X18972954Y43143081D01*
X19353223Y42985180D01*
X19555550Y42985004D01*
X19774996Y42765558D01*
X19774821Y42565029D01*
X19932058Y42184485D01*
X20222954Y41893081D01*
X20603223Y41735180D01*
X21014971Y41734821D01*
X21395515Y41892058D01*
X21686919Y42182954D01*
X21844820Y42563223D01*
X21845179Y42974971D01*
X21687942Y43355515D01*
X21441638Y43602250D01*
X69685000Y43602250D01*
X69685000Y43386690D01*
X69781673Y43153301D01*
X69960302Y42974673D01*
X70193691Y42878000D01*
X70434250Y42878000D01*
X70593000Y43036750D01*
X70593000Y43761000D01*
X69843750Y43761000D01*
X69685000Y43602250D01*
X21441638Y43602250D01*
X21397046Y43646919D01*
X21016777Y43804820D01*
X20814450Y43804996D01*
X20595004Y44024442D01*
X20595179Y44224971D01*
X20437942Y44605515D01*
X20147046Y44896919D01*
X19766777Y45054820D01*
X19355029Y45055179D01*
X18974485Y44897942D01*
X18683081Y44607046D01*
X18525180Y44226777D01*
X18524821Y43815029D01*
X-3158642Y43815029D01*
X-3156723Y44755000D01*
X-1245750Y44755000D01*
X-1087000Y44913750D01*
X-1087000Y46473000D01*
X-1107000Y46473000D01*
X-1107000Y46727000D01*
X-1087000Y46727000D01*
X-1087000Y48286250D01*
X-833000Y48286250D01*
X-833000Y46727000D01*
X-813000Y46727000D01*
X-813000Y46473000D01*
X-833000Y46473000D01*
X-833000Y44913750D01*
X-674250Y44755000D01*
X1706309Y44755000D01*
X1939698Y44851673D01*
X2118327Y45030301D01*
X2215000Y45263690D01*
X2215000Y45507871D01*
X2338564Y45466851D01*
X2782968Y45498982D01*
X3044308Y45607232D01*
X3079595Y45820800D01*
X2951710Y45948685D01*
X3013327Y46010301D01*
X3082443Y46177162D01*
X3259200Y46000405D01*
X3472768Y46035692D01*
X3613149Y46458564D01*
X3581018Y46902968D01*
X3472768Y47164308D01*
X3259200Y47199595D01*
X3082443Y47022838D01*
X3013327Y47189699D01*
X2951710Y47251315D01*
X3079595Y47379200D01*
X3044308Y47592768D01*
X2621436Y47733149D01*
X2215000Y47703763D01*
X2215000Y47936310D01*
X2118327Y48169699D01*
X1939698Y48348327D01*
X1706309Y48445000D01*
X-674250Y48445000D01*
X-833000Y48286250D01*
X-1087000Y48286250D01*
X-1245750Y48445000D01*
X-3149192Y48445000D01*
X-3147574Y49238000D01*
X47924560Y49238000D01*
X47924560Y48238000D01*
X47973843Y47990235D01*
X48114191Y47780191D01*
X48317582Y47644288D01*
X48274560Y47428000D01*
X48274560Y46928000D01*
X48323843Y46680235D01*
X48464191Y46470191D01*
X48527334Y46428000D01*
X48464191Y46385809D01*
X48323843Y46175765D01*
X48274560Y45928000D01*
X48274560Y45428000D01*
X48323843Y45180235D01*
X48464191Y44970191D01*
X48674235Y44829843D01*
X48922000Y44780560D01*
X48932094Y44780560D01*
X48985490Y44744882D01*
X49372000Y44668000D01*
X53098000Y44668000D01*
X53484510Y44744882D01*
X53812178Y44963822D01*
X54835698Y45987342D01*
X54895515Y46012058D01*
X55186919Y46302954D01*
X55344820Y46683223D01*
X55345179Y47094971D01*
X55187942Y47475515D01*
X55011042Y47652724D01*
X55087000Y47703477D01*
X55182235Y47639843D01*
X55430000Y47590560D01*
X57030000Y47590560D01*
X57277765Y47639843D01*
X57373000Y47703477D01*
X57468235Y47639843D01*
X57716000Y47590560D01*
X59316000Y47590560D01*
X59563765Y47639843D01*
X59773809Y47780191D01*
X59914157Y47990235D01*
X59963440Y48238000D01*
X59963440Y49238000D01*
X59914157Y49485765D01*
X59773809Y49695809D01*
X59563765Y49836157D01*
X59316000Y49885440D01*
X57716000Y49885440D01*
X57468235Y49836157D01*
X57373000Y49772523D01*
X57277765Y49836157D01*
X57030000Y49885440D01*
X55430000Y49885440D01*
X55182235Y49836157D01*
X55087000Y49772523D01*
X54991765Y49836157D01*
X54744000Y49885440D01*
X53144000Y49885440D01*
X52896235Y49836157D01*
X52801000Y49772523D01*
X52705765Y49836157D01*
X52458000Y49885440D01*
X50858000Y49885440D01*
X50610235Y49836157D01*
X50515000Y49772523D01*
X50419765Y49836157D01*
X50172000Y49885440D01*
X48572000Y49885440D01*
X48324235Y49836157D01*
X48114191Y49695809D01*
X47973843Y49485765D01*
X47924560Y49238000D01*
X-3147574Y49238000D01*
X-3143055Y51452250D01*
X47937000Y51452250D01*
X47937000Y51111691D01*
X48033673Y50878302D01*
X48212301Y50699673D01*
X48445690Y50603000D01*
X49086250Y50603000D01*
X49245000Y50761750D01*
X49245000Y51611000D01*
X49499000Y51611000D01*
X49499000Y50761750D01*
X49657750Y50603000D01*
X50298310Y50603000D01*
X50515000Y50692756D01*
X50731690Y50603000D01*
X51372250Y50603000D01*
X51531000Y50761750D01*
X51531000Y51611000D01*
X51785000Y51611000D01*
X51785000Y50761750D01*
X51943750Y50603000D01*
X52584310Y50603000D01*
X52801000Y50692756D01*
X53017690Y50603000D01*
X53658250Y50603000D01*
X53817000Y50761750D01*
X53817000Y51611000D01*
X54071000Y51611000D01*
X54071000Y50761750D01*
X54229750Y50603000D01*
X54870310Y50603000D01*
X55087000Y50692756D01*
X55303690Y50603000D01*
X55944250Y50603000D01*
X56103000Y50761750D01*
X56103000Y51611000D01*
X56357000Y51611000D01*
X56357000Y50761750D01*
X56515750Y50603000D01*
X57156310Y50603000D01*
X57373000Y50692756D01*
X57589690Y50603000D01*
X58230250Y50603000D01*
X58389000Y50761750D01*
X58389000Y51611000D01*
X58643000Y51611000D01*
X58643000Y50761750D01*
X58801750Y50603000D01*
X59442310Y50603000D01*
X59675699Y50699673D01*
X59854327Y50878302D01*
X59951000Y51111691D01*
X59951000Y51452250D01*
X59792250Y51611000D01*
X58643000Y51611000D01*
X58389000Y51611000D01*
X56357000Y51611000D01*
X56103000Y51611000D01*
X54071000Y51611000D01*
X53817000Y51611000D01*
X51785000Y51611000D01*
X51531000Y51611000D01*
X49499000Y51611000D01*
X49245000Y51611000D01*
X48095750Y51611000D01*
X47937000Y51452250D01*
X-3143055Y51452250D01*
X-3141194Y52364309D01*
X47937000Y52364309D01*
X47937000Y52023750D01*
X48095750Y51865000D01*
X49245000Y51865000D01*
X49245000Y52714250D01*
X49499000Y52714250D01*
X49499000Y51865000D01*
X51531000Y51865000D01*
X51531000Y52714250D01*
X51785000Y52714250D01*
X51785000Y51865000D01*
X53817000Y51865000D01*
X53817000Y52714250D01*
X54071000Y52714250D01*
X54071000Y51865000D01*
X56103000Y51865000D01*
X56103000Y52714250D01*
X56357000Y52714250D01*
X56357000Y51865000D01*
X58389000Y51865000D01*
X58389000Y52714250D01*
X58643000Y52714250D01*
X58643000Y51865000D01*
X59792250Y51865000D01*
X59951000Y52023750D01*
X59951000Y52364309D01*
X59854327Y52597698D01*
X59675699Y52776327D01*
X59442310Y52873000D01*
X58801750Y52873000D01*
X58643000Y52714250D01*
X58389000Y52714250D01*
X58230250Y52873000D01*
X57589690Y52873000D01*
X57373000Y52783244D01*
X57156310Y52873000D01*
X56515750Y52873000D01*
X56357000Y52714250D01*
X56103000Y52714250D01*
X55944250Y52873000D01*
X55303690Y52873000D01*
X55087000Y52783244D01*
X54870310Y52873000D01*
X54229750Y52873000D01*
X54071000Y52714250D01*
X53817000Y52714250D01*
X53658250Y52873000D01*
X53017690Y52873000D01*
X52801000Y52783244D01*
X52584310Y52873000D01*
X51943750Y52873000D01*
X51785000Y52714250D01*
X51531000Y52714250D01*
X51372250Y52873000D01*
X50731690Y52873000D01*
X50515000Y52783244D01*
X50298310Y52873000D01*
X49657750Y52873000D01*
X49499000Y52714250D01*
X49245000Y52714250D01*
X49086250Y52873000D01*
X48445690Y52873000D01*
X48212301Y52776327D01*
X48033673Y52597698D01*
X47937000Y52364309D01*
X-3141194Y52364309D01*
X-3140142Y52879354D01*
X-3028954Y53438338D01*
X-2752331Y53852333D01*
X-2338340Y54128953D01*
X-1780069Y54240000D01*
X76530069Y54240000D01*
X77088338Y54128954D01*
X77088338Y54128954D01*
G37*
X77088338Y54128954D02*
X77502333Y53852331D01*
X77778953Y53438340D01*
X77890000Y52880069D01*
X77890000Y45292032D01*
X77822862Y45264223D01*
X77498438Y45047451D01*
X77399591Y44948603D01*
X77328673Y44877685D01*
X76996235Y44875595D01*
X76886970Y44948603D01*
X76452624Y45035000D01*
X75847376Y45035000D01*
X75413030Y44948603D01*
X75287683Y44864849D01*
X74322092Y44858776D01*
X73190434Y45990434D01*
X73156540Y46013081D01*
X72919541Y46171439D01*
X72600000Y46235000D01*
X71217585Y46235000D01*
X70856777Y46384820D01*
X70445029Y46385179D01*
X70064485Y46227942D01*
X69773081Y45937046D01*
X69615180Y45556777D01*
X69614821Y45145029D01*
X69772058Y44764485D01*
X69847693Y44688718D01*
X69781673Y44622699D01*
X69685000Y44389310D01*
X69685000Y44173750D01*
X69843750Y44015000D01*
X70593000Y44015000D01*
X70593000Y44035000D01*
X70847000Y44035000D01*
X70847000Y44015000D01*
X70867000Y44015000D01*
X70867000Y43761000D01*
X70847000Y43761000D01*
X70847000Y43036750D01*
X71005750Y42878000D01*
X71246309Y42878000D01*
X71479698Y42974673D01*
X71480898Y42975873D01*
X71572235Y42914843D01*
X71820000Y42865560D01*
X72316590Y42865560D01*
X72293001Y36040439D01*
X72302500Y35991805D01*
X72329888Y35950508D01*
X72370994Y35922836D01*
X72421393Y35913008D01*
X73915000Y35929396D01*
X73915000Y10245868D01*
X70124148Y6455016D01*
X70071961Y6717378D01*
X69750054Y7199147D01*
X69268285Y7521054D01*
X68700000Y7634093D01*
X68131715Y7521054D01*
X67649946Y7199147D01*
X67430000Y6869974D01*
X67210054Y7199147D01*
X66728285Y7521054D01*
X66160000Y7634093D01*
X65591715Y7521054D01*
X65109946Y7199147D01*
X64890000Y6869974D01*
X64670054Y7199147D01*
X64188285Y7521054D01*
X63620000Y7634093D01*
X63051715Y7521054D01*
X62569946Y7199147D01*
X62350000Y6869974D01*
X62130054Y7199147D01*
X61648285Y7521054D01*
X61080000Y7634093D01*
X60511715Y7521054D01*
X60029946Y7199147D01*
X59802298Y6858447D01*
X59735183Y7001358D01*
X59306924Y7391645D01*
X58896890Y7561476D01*
X58667000Y7440155D01*
X58667000Y6247000D01*
X58687000Y6247000D01*
X58687000Y5993000D01*
X58667000Y5993000D01*
X58667000Y5973000D01*
X58413000Y5973000D01*
X58413000Y5993000D01*
X56127000Y5993000D01*
X56127000Y5973000D01*
X55873000Y5973000D01*
X55873000Y5993000D01*
X55853000Y5993000D01*
X55853000Y6247000D01*
X55873000Y6247000D01*
X55873000Y7440155D01*
X56127000Y7440155D01*
X56127000Y6247000D01*
X58413000Y6247000D01*
X58413000Y7440155D01*
X58183110Y7561476D01*
X57773076Y7391645D01*
X57344817Y7001358D01*
X57270000Y6842046D01*
X57195183Y7001358D01*
X56766924Y7391645D01*
X56356890Y7561476D01*
X56127000Y7440155D01*
X55873000Y7440155D01*
X55643110Y7561476D01*
X55233076Y7391645D01*
X54928739Y7114292D01*
X54908157Y7217765D01*
X54767809Y7427809D01*
X54557765Y7568157D01*
X54310000Y7617440D01*
X52610000Y7617440D01*
X52362235Y7568157D01*
X52152191Y7427809D01*
X52011843Y7217765D01*
X51962560Y6970000D01*
X51962560Y5270000D01*
X51989413Y5135000D01*
X48728892Y5135000D01*
X48687046Y5176919D01*
X48306777Y5334820D01*
X47895029Y5335179D01*
X47514485Y5177942D01*
X47223081Y4887046D01*
X47065180Y4506777D01*
X47064821Y4095029D01*
X47222058Y3714485D01*
X47512954Y3423081D01*
X47893223Y3265180D01*
X48304971Y3264821D01*
X48685515Y3422058D01*
X48728532Y3465000D01*
X69150000Y3465000D01*
X69469541Y3528561D01*
X69740434Y3709566D01*
X75340434Y9309566D01*
X75521439Y9580459D01*
X75585000Y9900000D01*
X75585000Y35817190D01*
X75847376Y35765000D01*
X76452624Y35765000D01*
X76886970Y35851397D01*
X77055267Y35963850D01*
X77290527Y35966431D01*
X77302549Y35948439D01*
X77302550Y35948438D01*
X77498438Y35752549D01*
X77822862Y35535777D01*
X77890000Y35507968D01*
X77890000Y4069931D01*
X77778953Y3511660D01*
X77502333Y3097669D01*
X77088338Y2821046D01*
X76529846Y2709956D01*
X-1918540Y2660052D01*
X-2467650Y2783619D01*
X-2874601Y3070500D01*
X-3143253Y3495173D01*
X-3239866Y4014730D01*
X-3239011Y4434250D01*
X11550000Y4434250D01*
X11550000Y4193691D01*
X11646673Y3960302D01*
X11825301Y3781673D01*
X12058690Y3685000D01*
X12274250Y3685000D01*
X12433000Y3843750D01*
X12433000Y4593000D01*
X12687000Y4593000D01*
X12687000Y3843750D01*
X12845750Y3685000D01*
X13061310Y3685000D01*
X13294699Y3781673D01*
X13299000Y3785974D01*
X13335301Y3749673D01*
X13568690Y3653000D01*
X14034250Y3653000D01*
X14193000Y3811750D01*
X14193000Y4661000D01*
X14447000Y4661000D01*
X14447000Y3811750D01*
X14605750Y3653000D01*
X15071310Y3653000D01*
X15304699Y3749673D01*
X15483327Y3928302D01*
X15580000Y4161691D01*
X15580000Y4502250D01*
X15421250Y4661000D01*
X14447000Y4661000D01*
X14193000Y4661000D01*
X13218750Y4661000D01*
X13150750Y4593000D01*
X12687000Y4593000D01*
X12433000Y4593000D01*
X11708750Y4593000D01*
X11550000Y4434250D01*
X-3239011Y4434250D01*
X-3234460Y6664250D01*
X4975000Y6664250D01*
X4975000Y6198690D01*
X5071673Y5965301D01*
X5250302Y5786673D01*
X5483691Y5690000D01*
X5824250Y5690000D01*
X5983000Y5848750D01*
X5983000Y6823000D01*
X5133750Y6823000D01*
X4975000Y6664250D01*
X-3234460Y6664250D01*
X-3232344Y7701310D01*
X4975000Y7701310D01*
X4975000Y7235750D01*
X5133750Y7077000D01*
X5983000Y7077000D01*
X5983000Y8051250D01*
X6237000Y8051250D01*
X6237000Y7077000D01*
X6257000Y7077000D01*
X6257000Y6823000D01*
X6237000Y6823000D01*
X6237000Y5848750D01*
X6395750Y5690000D01*
X6736309Y5690000D01*
X6969698Y5786673D01*
X7111346Y5928320D01*
X7152191Y5867191D01*
X7362235Y5726843D01*
X7610000Y5677560D01*
X8610000Y5677560D01*
X8857765Y5726843D01*
X9067809Y5867191D01*
X9208157Y6077235D01*
X9257440Y6325000D01*
X9257440Y6414084D01*
X9935698Y7092342D01*
X9995515Y7117058D01*
X10286919Y7407954D01*
X10444820Y7788223D01*
X10445179Y8199971D01*
X10287942Y8580515D01*
X9997046Y8871919D01*
X9616777Y9029820D01*
X9205029Y9030179D01*
X8824485Y8872942D01*
X8533081Y8582046D01*
X8507795Y8521151D01*
X8209084Y8222440D01*
X7610000Y8222440D01*
X7362235Y8173157D01*
X7152191Y8032809D01*
X7111346Y7971680D01*
X6969698Y8113327D01*
X6736309Y8210000D01*
X6395750Y8210000D01*
X6237000Y8051250D01*
X5983000Y8051250D01*
X5824250Y8210000D01*
X5483691Y8210000D01*
X5250302Y8113327D01*
X5071673Y7934699D01*
X4975000Y7701310D01*
X-3232344Y7701310D01*
X-3230927Y8395000D01*
X-1245750Y8395000D01*
X-1087000Y8553750D01*
X-1087000Y10113000D01*
X-1107000Y10113000D01*
X-1107000Y10367000D01*
X-1087000Y10367000D01*
X-1087000Y11926250D01*
X-833000Y11926250D01*
X-833000Y10367000D01*
X-813000Y10367000D01*
X-813000Y10113000D01*
X-833000Y10113000D01*
X-833000Y8553750D01*
X-674250Y8395000D01*
X1706309Y8395000D01*
X1939698Y8491673D01*
X2118327Y8670301D01*
X2215000Y8903690D01*
X2215000Y9147871D01*
X2338564Y9106851D01*
X2782968Y9138982D01*
X3044308Y9247232D01*
X3079595Y9460800D01*
X2951710Y9588685D01*
X3013327Y9650301D01*
X3082443Y9817162D01*
X3259200Y9640405D01*
X3472768Y9675692D01*
X3613149Y10098564D01*
X3581018Y10542968D01*
X3472768Y10804308D01*
X3259200Y10839595D01*
X3082443Y10662838D01*
X3013327Y10829699D01*
X2951710Y10891315D01*
X3079595Y11019200D01*
X3062110Y11125029D01*
X8374821Y11125029D01*
X8532058Y10744485D01*
X8822954Y10453081D01*
X9117005Y10330981D01*
X9330440Y10117546D01*
X9540484Y9977198D01*
X9788249Y9927915D01*
X9862730Y9942730D01*
X9847915Y9868249D01*
X9897198Y9620484D01*
X10037546Y9410440D01*
X10391100Y9056886D01*
X10601144Y8916538D01*
X10848909Y8867255D01*
X11052752Y8907801D01*
X11467752Y8492801D01*
X11471843Y8472235D01*
X11612191Y8262191D01*
X11675334Y8220000D01*
X11612191Y8177809D01*
X11471843Y7967765D01*
X11422560Y7720000D01*
X11422560Y7220000D01*
X11471843Y6972235D01*
X11576475Y6815643D01*
X11537560Y6620000D01*
X11537560Y5820000D01*
X11586843Y5572235D01*
X11647873Y5480898D01*
X11646673Y5479698D01*
X11550000Y5246309D01*
X11550000Y5005750D01*
X11708750Y4847000D01*
X12433000Y4847000D01*
X12433000Y4867000D01*
X12687000Y4867000D01*
X12687000Y4847000D01*
X13411250Y4847000D01*
X13479250Y4915000D01*
X14193000Y4915000D01*
X14193000Y4935000D01*
X14447000Y4935000D01*
X14447000Y4915000D01*
X15421250Y4915000D01*
X15580000Y5073750D01*
X15580000Y5414309D01*
X15483327Y5647698D01*
X15341680Y5789346D01*
X15402809Y5830191D01*
X15543157Y6040235D01*
X15592440Y6288000D01*
X15592440Y7288000D01*
X15543157Y7535765D01*
X15402809Y7745809D01*
X15192765Y7886157D01*
X15136949Y7897259D01*
X15147440Y7950000D01*
X15147440Y8450000D01*
X15098157Y8697765D01*
X14957809Y8907809D01*
X14894666Y8950000D01*
X14957809Y8992191D01*
X15098157Y9202235D01*
X15127982Y9352176D01*
X15345513Y9442058D01*
X15636917Y9732954D01*
X15794818Y10113223D01*
X15795177Y10524971D01*
X15637940Y10905515D01*
X15347044Y11196919D01*
X14966775Y11354820D01*
X14555027Y11355179D01*
X14174483Y11197942D01*
X13883079Y10907046D01*
X13754520Y10597440D01*
X13600000Y10597440D01*
X13352235Y10548157D01*
X13182885Y10435000D01*
X12800000Y10435000D01*
X12530718Y10381436D01*
X12518728Y10379051D01*
X12280277Y10219724D01*
X12113154Y10052601D01*
X12132745Y10151091D01*
X12083462Y10398856D01*
X11943114Y10608900D01*
X11749591Y10802423D01*
X11845515Y10842058D01*
X12136919Y11132954D01*
X12162205Y11193849D01*
X12374178Y11405822D01*
X12593118Y11733489D01*
X12670000Y12120000D01*
X12670000Y13115300D01*
X12758157Y13247235D01*
X12807440Y13495000D01*
X12807440Y14133114D01*
X13774996Y13165557D01*
X13774821Y12965029D01*
X13932058Y12584485D01*
X14222954Y12293081D01*
X14603223Y12135180D01*
X15014971Y12134821D01*
X15395515Y12292058D01*
X15686919Y12582954D01*
X15844820Y12963223D01*
X15845179Y13374971D01*
X15687942Y13755515D01*
X15397046Y14046919D01*
X15016777Y14204820D01*
X14814450Y14204996D01*
X13879417Y15140029D01*
X17514821Y15140029D01*
X17672058Y14759485D01*
X17962954Y14468081D01*
X18343223Y14310180D01*
X18514434Y14310031D01*
X18541843Y14172235D01*
X18682191Y13962191D01*
X18892235Y13821843D01*
X19140000Y13772560D01*
X19640000Y13772560D01*
X19887765Y13821843D01*
X20097809Y13962191D01*
X20140000Y14025334D01*
X20182191Y13962191D01*
X20392235Y13821843D01*
X20640000Y13772560D01*
X21140000Y13772560D01*
X21387765Y13821843D01*
X21597809Y13962191D01*
X21738157Y14172235D01*
X21787440Y14420000D01*
X21787440Y14664828D01*
X21794971Y14664821D01*
X22175515Y14822058D01*
X22466919Y15112954D01*
X22624820Y15493223D01*
X22625179Y15904971D01*
X22467942Y16285515D01*
X22177046Y16576919D01*
X21959440Y16667277D01*
X21959440Y16831000D01*
X21910157Y17078765D01*
X21769809Y17288809D01*
X21559765Y17429157D01*
X21312000Y17478440D01*
X20512000Y17478440D01*
X20264235Y17429157D01*
X20162000Y17360845D01*
X20059765Y17429157D01*
X19812000Y17478440D01*
X19012000Y17478440D01*
X18764235Y17429157D01*
X18554191Y17288809D01*
X18413843Y17078765D01*
X18364560Y16831000D01*
X18364560Y16380162D01*
X18345029Y16380179D01*
X17964485Y16222942D01*
X17673081Y15932046D01*
X17515180Y15551777D01*
X17514821Y15140029D01*
X13879417Y15140029D01*
X13724815Y15294631D01*
X13794820Y15463223D01*
X13795179Y15874971D01*
X13637942Y16255515D01*
X13347046Y16546919D01*
X12966777Y16704820D01*
X12555029Y16705179D01*
X12174485Y16547942D01*
X11883081Y16257046D01*
X11725180Y15876777D01*
X11724821Y15465029D01*
X11754814Y15392440D01*
X11160000Y15392440D01*
X10912235Y15343157D01*
X10702191Y15202809D01*
X10661346Y15141680D01*
X10519698Y15283327D01*
X10286309Y15380000D01*
X9945750Y15380000D01*
X9787000Y15221250D01*
X9787000Y14247000D01*
X9807000Y14247000D01*
X9807000Y13993000D01*
X9787000Y13993000D01*
X9787000Y13018750D01*
X9945750Y12860000D01*
X10286309Y12860000D01*
X10519698Y12956673D01*
X10650000Y13086974D01*
X10650000Y12573500D01*
X10383081Y12307046D01*
X10322460Y12161054D01*
X10318856Y12163462D01*
X10071091Y12212745D01*
X10004461Y12199492D01*
X9997046Y12206919D01*
X9616777Y12364820D01*
X9205029Y12365179D01*
X8824485Y12207942D01*
X8533081Y11917046D01*
X8375180Y11536777D01*
X8374821Y11125029D01*
X3062110Y11125029D01*
X3044308Y11232768D01*
X2621436Y11373149D01*
X2215000Y11343763D01*
X2215000Y11576310D01*
X2118327Y11809699D01*
X1939698Y11988327D01*
X1706309Y12085000D01*
X-674250Y12085000D01*
X-833000Y11926250D01*
X-1087000Y11926250D01*
X-1245750Y12085000D01*
X-3223396Y12085000D01*
X-3219827Y13834250D01*
X8525000Y13834250D01*
X8525000Y13368690D01*
X8621673Y13135301D01*
X8800302Y12956673D01*
X9033691Y12860000D01*
X9374250Y12860000D01*
X9533000Y13018750D01*
X9533000Y13993000D01*
X8683750Y13993000D01*
X8525000Y13834250D01*
X-3219827Y13834250D01*
X-3217711Y14871310D01*
X8525000Y14871310D01*
X8525000Y14405750D01*
X8683750Y14247000D01*
X9533000Y14247000D01*
X9533000Y15221250D01*
X9374250Y15380000D01*
X9033691Y15380000D01*
X8800302Y15283327D01*
X8621673Y15104699D01*
X8525000Y14871310D01*
X-3217711Y14871310D01*
X-3213049Y17155000D01*
X-1245750Y17155000D01*
X-1087000Y17313750D01*
X-1087000Y18873000D01*
X-1107000Y18873000D01*
X-1107000Y19127000D01*
X-1087000Y19127000D01*
X-1087000Y20686250D01*
X-833000Y20686250D01*
X-833000Y19127000D01*
X-813000Y19127000D01*
X-813000Y18873000D01*
X-833000Y18873000D01*
X-833000Y17313750D01*
X-674250Y17155000D01*
X1706309Y17155000D01*
X1939698Y17251673D01*
X2118327Y17430301D01*
X2215000Y17663690D01*
X2215000Y17907871D01*
X2338564Y17866851D01*
X2782968Y17898982D01*
X3044308Y18007232D01*
X3079595Y18220800D01*
X2951710Y18348685D01*
X3013327Y18410301D01*
X3082443Y18577162D01*
X3259200Y18400405D01*
X3472768Y18435692D01*
X3613149Y18858564D01*
X3581018Y19302968D01*
X3510900Y19472250D01*
X30219000Y19472250D01*
X30219000Y19006690D01*
X30315673Y18773301D01*
X30494302Y18594673D01*
X30727691Y18498000D01*
X31068250Y18498000D01*
X31227000Y18656750D01*
X31227000Y19631000D01*
X30377750Y19631000D01*
X30219000Y19472250D01*
X3510900Y19472250D01*
X3472768Y19564308D01*
X3259200Y19599595D01*
X3082443Y19422838D01*
X3013327Y19589699D01*
X2951710Y19651315D01*
X3079595Y19779200D01*
X3044308Y19992768D01*
X2621436Y20133149D01*
X2215000Y20103763D01*
X2215000Y20336310D01*
X2118327Y20569699D01*
X1939698Y20748327D01*
X1706309Y20845000D01*
X-674250Y20845000D01*
X-833000Y20686250D01*
X-1087000Y20686250D01*
X-1245750Y20845000D01*
X-3205518Y20845000D01*
X-3199121Y23980000D01*
X6145907Y23980000D01*
X6258946Y23411715D01*
X6580853Y22929946D01*
X6910026Y22710000D01*
X6580853Y22490054D01*
X6258946Y22008285D01*
X6145907Y21440000D01*
X6258946Y20871715D01*
X6580853Y20389946D01*
X7062622Y20068039D01*
X7630907Y19955000D01*
X7689093Y19955000D01*
X8257378Y20068039D01*
X8739147Y20389946D01*
X8818903Y20509310D01*
X30219000Y20509310D01*
X30219000Y20043750D01*
X30377750Y19885000D01*
X31227000Y19885000D01*
X31227000Y20859250D01*
X31068250Y21018000D01*
X30727691Y21018000D01*
X30494302Y20921327D01*
X30315673Y20742699D01*
X30219000Y20509310D01*
X8818903Y20509310D01*
X9061054Y20871715D01*
X9102484Y21080000D01*
X9810000Y21080000D01*
X10196510Y21156882D01*
X10249906Y21192560D01*
X10260000Y21192560D01*
X10507765Y21241843D01*
X10717809Y21382191D01*
X10858157Y21592235D01*
X10907440Y21840000D01*
X10907440Y22340000D01*
X10871587Y22520250D01*
X30569000Y22520250D01*
X30569000Y22304690D01*
X30665673Y22071301D01*
X30844302Y21892673D01*
X31077691Y21796000D01*
X31318250Y21796000D01*
X31477000Y21954750D01*
X31477000Y22679000D01*
X30727750Y22679000D01*
X30569000Y22520250D01*
X10871587Y22520250D01*
X10858157Y22587765D01*
X10717809Y22797809D01*
X10654666Y22840000D01*
X10717809Y22882191D01*
X10858157Y23092235D01*
X10900937Y23307310D01*
X30569000Y23307310D01*
X30569000Y23091750D01*
X30727750Y22933000D01*
X31477000Y22933000D01*
X31477000Y23657250D01*
X31318250Y23816000D01*
X31077691Y23816000D01*
X30844302Y23719327D01*
X30665673Y23540699D01*
X30569000Y23307310D01*
X10900937Y23307310D01*
X10907440Y23340000D01*
X10907440Y23840000D01*
X10858157Y24087765D01*
X10717809Y24297809D01*
X10507765Y24438157D01*
X10260000Y24487440D01*
X10249906Y24487440D01*
X10196510Y24523118D01*
X9810000Y24600000D01*
X9026499Y24600000D01*
X8739147Y25030054D01*
X8695223Y25059403D01*
X8869698Y25131673D01*
X9048327Y25310301D01*
X9145000Y25543690D01*
X9145000Y26234250D01*
X8986250Y26393000D01*
X7787000Y26393000D01*
X7787000Y26373000D01*
X7533000Y26373000D01*
X7533000Y26393000D01*
X6333750Y26393000D01*
X6175000Y26234250D01*
X6175000Y25543690D01*
X6271673Y25310301D01*
X6450302Y25131673D01*
X6624777Y25059403D01*
X6580853Y25030054D01*
X6258946Y24548285D01*
X6145907Y23980000D01*
X-3199121Y23980000D01*
X-3191945Y27496310D01*
X6175000Y27496310D01*
X6175000Y26805750D01*
X6333750Y26647000D01*
X7533000Y26647000D01*
X7533000Y27846250D01*
X7787000Y27846250D01*
X7787000Y26647000D01*
X8986250Y26647000D01*
X9145000Y26805750D01*
X9145000Y27496310D01*
X9048327Y27729699D01*
X8869698Y27908327D01*
X8636309Y28005000D01*
X7945750Y28005000D01*
X7787000Y27846250D01*
X7533000Y27846250D01*
X7374250Y28005000D01*
X6683691Y28005000D01*
X6450302Y27908327D01*
X6271673Y27729699D01*
X6175000Y27496310D01*
X-3191945Y27496310D01*
X-3188337Y29264250D01*
X10945000Y29264250D01*
X10945000Y29048690D01*
X11041673Y28815301D01*
X11220302Y28636673D01*
X11453691Y28540000D01*
X11694250Y28540000D01*
X11853000Y28698750D01*
X11853000Y29423000D01*
X11103750Y29423000D01*
X10945000Y29264250D01*
X-3188337Y29264250D01*
X-3186731Y30051310D01*
X10945000Y30051310D01*
X10945000Y29835750D01*
X11103750Y29677000D01*
X11853000Y29677000D01*
X11853000Y30401250D01*
X12107000Y30401250D01*
X12107000Y29677000D01*
X12127000Y29677000D01*
X12127000Y29423000D01*
X12107000Y29423000D01*
X12107000Y28698750D01*
X12265750Y28540000D01*
X12470000Y28540000D01*
X12470000Y28400000D01*
X12546882Y28013490D01*
X12765822Y27685822D01*
X12944982Y27506662D01*
X12944982Y25436518D01*
X12920162Y25376745D01*
X12919803Y24964997D01*
X13077040Y24584453D01*
X13367936Y24293049D01*
X13748205Y24135148D01*
X14159953Y24134789D01*
X14540497Y24292026D01*
X14831901Y24582922D01*
X14989802Y24963191D01*
X14990108Y25314250D01*
X29807000Y25314250D01*
X29807000Y25098690D01*
X29903673Y24865301D01*
X30082302Y24686673D01*
X30315691Y24590000D01*
X30556250Y24590000D01*
X30715000Y24748750D01*
X30715000Y25473000D01*
X29965750Y25473000D01*
X29807000Y25314250D01*
X14990108Y25314250D01*
X14990161Y25374939D01*
X14964982Y25435877D01*
X14964982Y26101310D01*
X29807000Y26101310D01*
X29807000Y25885750D01*
X29965750Y25727000D01*
X30715000Y25727000D01*
X30715000Y26451250D01*
X30556250Y26610000D01*
X30315691Y26610000D01*
X30082302Y26513327D01*
X29903673Y26334699D01*
X29807000Y26101310D01*
X14964982Y26101310D01*
X14964982Y27434250D01*
X30625000Y27434250D01*
X30625000Y27218690D01*
X30721673Y26985301D01*
X30900302Y26806673D01*
X31133691Y26710000D01*
X31374250Y26710000D01*
X31533000Y26868750D01*
X31533000Y27593000D01*
X30783750Y27593000D01*
X30625000Y27434250D01*
X14964982Y27434250D01*
X14964982Y27925018D01*
X14945048Y28025230D01*
X14945179Y28174971D01*
X14926033Y28221310D01*
X30625000Y28221310D01*
X30625000Y28005750D01*
X30783750Y27847000D01*
X31533000Y27847000D01*
X31533000Y28571250D01*
X31374250Y28730000D01*
X31133691Y28730000D01*
X30900302Y28633327D01*
X30721673Y28454699D01*
X30625000Y28221310D01*
X14926033Y28221310D01*
X14787942Y28555515D01*
X14497046Y28846919D01*
X14490000Y28849845D01*
X14490000Y28986774D01*
X14527440Y29175000D01*
X14527440Y29632250D01*
X30569000Y29632250D01*
X30569000Y29416690D01*
X30665673Y29183301D01*
X30844302Y29004673D01*
X31077691Y28908000D01*
X31318250Y28908000D01*
X31477000Y29066750D01*
X31477000Y29791000D01*
X30727750Y29791000D01*
X30569000Y29632250D01*
X14527440Y29632250D01*
X14527440Y29925000D01*
X14478157Y30172765D01*
X14337809Y30382809D01*
X14127765Y30523157D01*
X13880000Y30572440D01*
X13080000Y30572440D01*
X12832235Y30523157D01*
X12740898Y30462127D01*
X12739698Y30463327D01*
X12506309Y30560000D01*
X12265750Y30560000D01*
X12107000Y30401250D01*
X11853000Y30401250D01*
X11694250Y30560000D01*
X11453691Y30560000D01*
X11220302Y30463327D01*
X11041673Y30284699D01*
X10945000Y30051310D01*
X-3186731Y30051310D01*
X-3183958Y31410250D01*
X29965000Y31410250D01*
X29965000Y30944690D01*
X30061673Y30711301D01*
X30240302Y30532673D01*
X30473691Y30436000D01*
X30575913Y30436000D01*
X30569000Y30419310D01*
X30569000Y30203750D01*
X30727750Y30045000D01*
X31477000Y30045000D01*
X31477000Y30065000D01*
X31671980Y30065000D01*
X31664821Y26553503D01*
X31602898Y26512127D01*
X31601698Y26513327D01*
X31368309Y26610000D01*
X31127750Y26610000D01*
X30969000Y26451250D01*
X30969000Y25727000D01*
X30989000Y25727000D01*
X30989000Y25473000D01*
X30969000Y25473000D01*
X30969000Y24748750D01*
X31127750Y24590000D01*
X31368309Y24590000D01*
X31601698Y24686673D01*
X31602898Y24687873D01*
X31660938Y24649091D01*
X31653536Y21018000D01*
X31639750Y21018000D01*
X31481000Y20859250D01*
X31481000Y19885000D01*
X31501000Y19885000D01*
X31501000Y19631000D01*
X31481000Y19631000D01*
X31481000Y18656750D01*
X31639750Y18498000D01*
X31648398Y18498000D01*
X31643000Y15850259D01*
X31652568Y15801639D01*
X31680015Y15760381D01*
X31721160Y15732767D01*
X31769682Y15723000D01*
X32360000Y15721521D01*
X32360000Y15495750D01*
X32518750Y15337000D01*
X33243000Y15337000D01*
X33243000Y15357000D01*
X33497000Y15357000D01*
X33497000Y15337000D01*
X34221250Y15337000D01*
X34311250Y15427000D01*
X34723000Y15427000D01*
X34723000Y15447000D01*
X34977000Y15447000D01*
X34977000Y15427000D01*
X34997000Y15427000D01*
X34997000Y15173000D01*
X34977000Y15173000D01*
X34977000Y14448750D01*
X35118076Y14307674D01*
X34890302Y14213327D01*
X34889102Y14212127D01*
X34797765Y14273157D01*
X34588944Y14314694D01*
X34723000Y14448750D01*
X34723000Y15173000D01*
X33973750Y15173000D01*
X33883750Y15083000D01*
X33497000Y15083000D01*
X33497000Y15063000D01*
X33243000Y15063000D01*
X33243000Y15083000D01*
X32518750Y15083000D01*
X32360000Y14924250D01*
X32360000Y14683691D01*
X32456673Y14450302D01*
X32635301Y14271673D01*
X32663282Y14260083D01*
X32464485Y14177942D01*
X32173081Y13887046D01*
X32015180Y13506777D01*
X32014821Y13095029D01*
X32172058Y12714485D01*
X32462954Y12423081D01*
X32843223Y12265180D01*
X33110697Y12264947D01*
X33013025Y7332514D01*
X33021728Y7283732D01*
X33048437Y7241993D01*
X33089086Y7213653D01*
X33140146Y7203000D01*
X50500146Y7223000D01*
X50548736Y7232723D01*
X50589906Y7260301D01*
X50617389Y7301534D01*
X50626975Y7347486D01*
X50696134Y10840029D01*
X59414821Y10840029D01*
X59572058Y10459485D01*
X59862954Y10168081D01*
X60243223Y10010180D01*
X60289989Y10010139D01*
X60377235Y9951843D01*
X60625000Y9902560D01*
X61875000Y9902560D01*
X62122765Y9951843D01*
X62332809Y10092191D01*
X62473157Y10302235D01*
X62522440Y10550000D01*
X62522440Y10735029D01*
X62914821Y10735029D01*
X63072058Y10354485D01*
X63362954Y10063081D01*
X63743223Y9905180D01*
X63922475Y9905024D01*
X63927235Y9901843D01*
X64175000Y9852560D01*
X65425000Y9852560D01*
X65672765Y9901843D01*
X65882809Y10042191D01*
X66023157Y10252235D01*
X66072440Y10500000D01*
X66072440Y10755029D01*
X66314821Y10755029D01*
X66472058Y10374485D01*
X66762954Y10083081D01*
X67143223Y9925180D01*
X67392634Y9924963D01*
X67427235Y9901843D01*
X67675000Y9852560D01*
X68925000Y9852560D01*
X69172765Y9901843D01*
X69382809Y10042191D01*
X69523157Y10252235D01*
X69572440Y10500000D01*
X69572440Y11185029D01*
X69814821Y11185029D01*
X69972058Y10804485D01*
X70262954Y10513081D01*
X70643223Y10355180D01*
X71054971Y10354821D01*
X71402847Y10498560D01*
X72425000Y10498560D01*
X72672765Y10547843D01*
X72882809Y10688191D01*
X73023157Y10898235D01*
X73072440Y11146000D01*
X73072440Y12146000D01*
X73023157Y12393765D01*
X72882809Y12603809D01*
X72819666Y12646000D01*
X72882809Y12688191D01*
X73023157Y12898235D01*
X73072440Y13146000D01*
X73072440Y14146000D01*
X73023157Y14393765D01*
X72894988Y14585582D01*
X72895179Y14804971D01*
X72737942Y15185515D01*
X72447046Y15476919D01*
X72066777Y15634820D01*
X71655029Y15635179D01*
X71274485Y15477942D01*
X70983081Y15187046D01*
X70825180Y14806777D01*
X70825066Y14675889D01*
X70717191Y14603809D01*
X70576843Y14393765D01*
X70527560Y14146000D01*
X70527560Y13146000D01*
X70576843Y12898235D01*
X70717191Y12688191D01*
X70780334Y12646000D01*
X70717191Y12603809D01*
X70579834Y12398241D01*
X70264485Y12267942D01*
X69973081Y11977046D01*
X69815180Y11596777D01*
X69814821Y11185029D01*
X69572440Y11185029D01*
X69572440Y11500000D01*
X69523157Y11747765D01*
X69382809Y11957809D01*
X69319666Y12000000D01*
X69382809Y12042191D01*
X69523157Y12252235D01*
X69572440Y12500000D01*
X69572440Y13500000D01*
X69523157Y13747765D01*
X69382809Y13957809D01*
X69286167Y14022384D01*
X69294820Y14043223D01*
X69295179Y14454971D01*
X69137942Y14835515D01*
X68847046Y15126919D01*
X68466777Y15284820D01*
X68055029Y15285179D01*
X67674485Y15127942D01*
X67383081Y14837046D01*
X67225180Y14456777D01*
X67224821Y14045029D01*
X67251412Y13980675D01*
X67217191Y13957809D01*
X67076843Y13747765D01*
X67027560Y13500000D01*
X67027560Y12500000D01*
X67076843Y12252235D01*
X67217191Y12042191D01*
X67280334Y12000000D01*
X67272952Y11995067D01*
X67145029Y11995179D01*
X66764485Y11837942D01*
X66473081Y11547046D01*
X66315180Y11166777D01*
X66314821Y10755029D01*
X66072440Y10755029D01*
X66072440Y11500000D01*
X66023157Y11747765D01*
X65882809Y11957809D01*
X65819666Y12000000D01*
X65882809Y12042191D01*
X66023157Y12252235D01*
X66072440Y12500000D01*
X66072440Y13500000D01*
X66023157Y13747765D01*
X65882809Y13957809D01*
X65694855Y14083397D01*
X65695179Y14454971D01*
X65537942Y14835515D01*
X65247046Y15126919D01*
X64866777Y15284820D01*
X64455029Y15285179D01*
X64074485Y15127942D01*
X63783081Y14837046D01*
X63625180Y14456777D01*
X63624821Y14045029D01*
X63682384Y13905716D01*
X63576843Y13747765D01*
X63527560Y13500000D01*
X63527560Y12500000D01*
X63576843Y12252235D01*
X63717191Y12042191D01*
X63780334Y12000000D01*
X63740202Y11973184D01*
X63364485Y11817942D01*
X63073081Y11527046D01*
X62915180Y11146777D01*
X62914821Y10735029D01*
X62522440Y10735029D01*
X62522440Y11550000D01*
X62473157Y11797765D01*
X62332809Y12007809D01*
X62269666Y12050000D01*
X62332809Y12092191D01*
X62473157Y12302235D01*
X62522440Y12550000D01*
X62522440Y13550000D01*
X62473157Y13797765D01*
X62332809Y14007809D01*
X62122765Y14148157D01*
X62094829Y14153714D01*
X62095179Y14554971D01*
X61937942Y14935515D01*
X61647046Y15226919D01*
X61266777Y15384820D01*
X60855029Y15385179D01*
X60474485Y15227942D01*
X60183081Y14937046D01*
X60025180Y14556777D01*
X60024821Y14145029D01*
X60114254Y13928584D01*
X60026843Y13797765D01*
X59977560Y13550000D01*
X59977560Y12550000D01*
X60026843Y12302235D01*
X60167191Y12092191D01*
X60208041Y12064896D01*
X59864485Y11922942D01*
X59573081Y11632046D01*
X59415180Y11251777D01*
X59414821Y10840029D01*
X50696134Y10840029D01*
X50726975Y12397486D01*
X50718272Y12446268D01*
X50691563Y12488007D01*
X50650914Y12516347D01*
X50599854Y12527000D01*
X36533821Y12510795D01*
X36588327Y12565301D01*
X36685000Y12798690D01*
X36685000Y13014250D01*
X36526250Y13173000D01*
X35777000Y13173000D01*
X35777000Y13153000D01*
X35523000Y13153000D01*
X35523000Y13173000D01*
X35503000Y13173000D01*
X35503000Y13415759D01*
X38323683Y13415759D01*
X38480920Y13035215D01*
X38771816Y12743811D01*
X39152085Y12585910D01*
X39563833Y12585551D01*
X39944377Y12742788D01*
X40191263Y12989243D01*
X40250000Y12977560D01*
X41050000Y12977560D01*
X41297765Y13026843D01*
X41389102Y13087873D01*
X41390302Y13086673D01*
X41623691Y12990000D01*
X41864250Y12990000D01*
X42023000Y13148750D01*
X42023000Y13873000D01*
X42003000Y13873000D01*
X42003000Y14127000D01*
X42023000Y14127000D01*
X42023000Y14147000D01*
X42277000Y14147000D01*
X42277000Y14127000D01*
X42297000Y14127000D01*
X42297000Y13873000D01*
X42277000Y13873000D01*
X42277000Y13148750D01*
X42435750Y12990000D01*
X42596494Y12990000D01*
X42862954Y12723075D01*
X43243223Y12565174D01*
X43654971Y12564815D01*
X44035515Y12722052D01*
X44239336Y12925518D01*
X44400000Y12893560D01*
X45200000Y12893560D01*
X45447765Y12942843D01*
X45539102Y13003873D01*
X45540302Y13002673D01*
X45773691Y12906000D01*
X46014250Y12906000D01*
X46173000Y13064750D01*
X46173000Y13789000D01*
X46427000Y13789000D01*
X46427000Y13064750D01*
X46585750Y12906000D01*
X46826309Y12906000D01*
X47059698Y13002673D01*
X47238327Y13181301D01*
X47335000Y13414690D01*
X47335000Y13630250D01*
X47176250Y13789000D01*
X46427000Y13789000D01*
X46173000Y13789000D01*
X46153000Y13789000D01*
X46153000Y14043000D01*
X46173000Y14043000D01*
X46173000Y14063000D01*
X46427000Y14063000D01*
X46427000Y14043000D01*
X47176250Y14043000D01*
X47335000Y14201750D01*
X47335000Y14417310D01*
X47238327Y14650699D01*
X47059698Y14829327D01*
X46859505Y14912250D01*
X47346000Y14912250D01*
X47346000Y14671691D01*
X47442673Y14438302D01*
X47621301Y14259673D01*
X47854690Y14163000D01*
X48070250Y14163000D01*
X48229000Y14321750D01*
X48229000Y15071000D01*
X48483000Y15071000D01*
X48483000Y14321750D01*
X48641750Y14163000D01*
X48857310Y14163000D01*
X49090699Y14259673D01*
X49269327Y14438302D01*
X49366000Y14671691D01*
X49366000Y14912250D01*
X49207250Y15071000D01*
X48483000Y15071000D01*
X48229000Y15071000D01*
X47504750Y15071000D01*
X47346000Y14912250D01*
X46859505Y14912250D01*
X46826309Y14926000D01*
X46826000Y14926000D01*
X46826000Y15166250D01*
X46667250Y15325000D01*
X45943000Y15325000D01*
X45943000Y15305000D01*
X45689000Y15305000D01*
X45689000Y15325000D01*
X44964750Y15325000D01*
X44806000Y15166250D01*
X44806000Y14938440D01*
X44400000Y14938440D01*
X44276102Y14913795D01*
X44286000Y14937691D01*
X44286000Y15178250D01*
X44127250Y15337000D01*
X43403000Y15337000D01*
X43403000Y15317000D01*
X43149000Y15317000D01*
X43149000Y15337000D01*
X42424750Y15337000D01*
X42356000Y15268250D01*
X42351250Y15273000D01*
X41627000Y15273000D01*
X41627000Y15253000D01*
X41373000Y15253000D01*
X41373000Y15273000D01*
X40648750Y15273000D01*
X40490000Y15114250D01*
X40490000Y15022440D01*
X40250000Y15022440D01*
X40002235Y14973157D01*
X39792191Y14832809D01*
X39725105Y14732409D01*
X39460238Y14679723D01*
X39456860Y14679051D01*
X39421876Y14655675D01*
X39153891Y14655909D01*
X38773347Y14498672D01*
X38481943Y14207776D01*
X38324042Y13827507D01*
X38323683Y13415759D01*
X35503000Y13415759D01*
X35503000Y13427000D01*
X35523000Y13427000D01*
X35523000Y14151250D01*
X35381924Y14292326D01*
X35609698Y14386673D01*
X35610898Y14387873D01*
X35702235Y14326843D01*
X35911056Y14285306D01*
X35777000Y14151250D01*
X35777000Y13427000D01*
X36526250Y13427000D01*
X36685000Y13585750D01*
X36685000Y13801310D01*
X36588327Y14034699D01*
X36409698Y14213327D01*
X36254626Y14277560D01*
X36750000Y14277560D01*
X36997765Y14326843D01*
X37207809Y14467191D01*
X37348157Y14677235D01*
X37397440Y14925000D01*
X37397440Y15675000D01*
X37390694Y15708912D01*
X37883427Y15707677D01*
X37740000Y15564250D01*
X37740000Y15323691D01*
X37836673Y15090302D01*
X38015301Y14911673D01*
X38248690Y14815000D01*
X38464250Y14815000D01*
X38623000Y14973750D01*
X38623000Y15705824D01*
X38877000Y15705187D01*
X38877000Y14973750D01*
X39035750Y14815000D01*
X39251310Y14815000D01*
X39484699Y14911673D01*
X39663327Y15090302D01*
X39760000Y15323691D01*
X39760000Y15564250D01*
X39620927Y15703323D01*
X40490000Y15701145D01*
X40490000Y15685750D01*
X40648750Y15527000D01*
X41373000Y15527000D01*
X41373000Y15547000D01*
X41627000Y15547000D01*
X41627000Y15527000D01*
X42351250Y15527000D01*
X42420000Y15595750D01*
X42424750Y15591000D01*
X43149000Y15591000D01*
X43149000Y15611000D01*
X43403000Y15611000D01*
X43403000Y15591000D01*
X44127250Y15591000D01*
X44228026Y15691776D01*
X44853542Y15690208D01*
X44964750Y15579000D01*
X45689000Y15579000D01*
X45689000Y15599000D01*
X45943000Y15599000D01*
X45943000Y15579000D01*
X46667250Y15579000D01*
X46773646Y15685396D01*
X47346000Y15683962D01*
X47346000Y15483750D01*
X47504750Y15325000D01*
X48229000Y15325000D01*
X48229000Y15345000D01*
X48483000Y15345000D01*
X48483000Y15325000D01*
X49207250Y15325000D01*
X49366000Y15483750D01*
X49366000Y15678899D01*
X51719682Y15673000D01*
X51768307Y15682546D01*
X51809577Y15709973D01*
X51837211Y15751105D01*
X51846999Y15799419D01*
X51866301Y20018000D01*
X51868250Y20018000D01*
X52027000Y20176750D01*
X52027000Y20901000D01*
X52281000Y20901000D01*
X52281000Y20176750D01*
X52439750Y20018000D01*
X52680309Y20018000D01*
X52913698Y20114673D01*
X53092327Y20293301D01*
X53189000Y20526690D01*
X53189000Y20742250D01*
X53030250Y20901000D01*
X52281000Y20901000D01*
X52027000Y20901000D01*
X52007000Y20901000D01*
X52007000Y21155000D01*
X52027000Y21155000D01*
X52027000Y21879250D01*
X51989250Y21917000D01*
X52027000Y21954750D01*
X52027000Y22679000D01*
X52281000Y22679000D01*
X52281000Y21954750D01*
X52318750Y21917000D01*
X52281000Y21879250D01*
X52281000Y21155000D01*
X53030250Y21155000D01*
X53189000Y21313750D01*
X53189000Y21529310D01*
X53092327Y21762699D01*
X52938025Y21917000D01*
X53092327Y22071301D01*
X53189000Y22304690D01*
X53189000Y22520250D01*
X53030250Y22679000D01*
X52281000Y22679000D01*
X52027000Y22679000D01*
X52007000Y22679000D01*
X52007000Y22933000D01*
X52027000Y22933000D01*
X52027000Y22953000D01*
X52281000Y22953000D01*
X52281000Y22933000D01*
X53030250Y22933000D01*
X53189000Y23091750D01*
X53189000Y23307310D01*
X53092327Y23540699D01*
X52971638Y23661388D01*
X53043000Y23732750D01*
X53043000Y24457000D01*
X53023000Y24457000D01*
X53023000Y24711000D01*
X53043000Y24711000D01*
X53043000Y24731000D01*
X53297000Y24731000D01*
X53297000Y24711000D01*
X53317000Y24711000D01*
X53317000Y24457000D01*
X53297000Y24457000D01*
X53297000Y23732750D01*
X53455750Y23574000D01*
X53696309Y23574000D01*
X53929698Y23670673D01*
X54108327Y23849301D01*
X54165534Y23987411D01*
X54177079Y23959470D01*
X54467975Y23668066D01*
X54848244Y23510165D01*
X55259992Y23509806D01*
X55640536Y23667043D01*
X55931940Y23957939D01*
X56089841Y24338208D01*
X56090120Y24658433D01*
X56614560Y24133993D01*
X56614560Y23626000D01*
X56663843Y23378235D01*
X56804191Y23168191D01*
X56804524Y23167969D01*
X52465068Y18828512D01*
X52305740Y18590061D01*
X52249791Y18308789D01*
X52249791Y16827645D01*
X52107872Y16685973D01*
X51949971Y16305704D01*
X51949612Y15893956D01*
X52106849Y15513412D01*
X52175000Y15445142D01*
X52175000Y14534868D01*
X52052191Y14452809D01*
X51911843Y14242765D01*
X51862560Y13995000D01*
X51862560Y13245000D01*
X51911843Y12997235D01*
X52052191Y12787191D01*
X52262235Y12646843D01*
X52510000Y12597560D01*
X53310000Y12597560D01*
X53557765Y12646843D01*
X53649102Y12707873D01*
X53650302Y12706673D01*
X53883691Y12610000D01*
X54124250Y12610000D01*
X54283000Y12768750D01*
X54283000Y13493000D01*
X54537000Y13493000D01*
X54537000Y12768750D01*
X54695750Y12610000D01*
X54936309Y12610000D01*
X55169698Y12706673D01*
X55348327Y12885301D01*
X55445000Y13118690D01*
X55445000Y13334250D01*
X55286250Y13493000D01*
X54537000Y13493000D01*
X54283000Y13493000D01*
X54263000Y13493000D01*
X54263000Y13747000D01*
X54283000Y13747000D01*
X54283000Y14471250D01*
X54537000Y14471250D01*
X54537000Y13747000D01*
X55286250Y13747000D01*
X55445000Y13905750D01*
X55445000Y14121310D01*
X55348327Y14354699D01*
X55169698Y14533327D01*
X54936309Y14630000D01*
X54695750Y14630000D01*
X54537000Y14471250D01*
X54283000Y14471250D01*
X54124250Y14630000D01*
X53883691Y14630000D01*
X53650302Y14533327D01*
X53649102Y14532127D01*
X53645000Y14534868D01*
X53645000Y15295549D01*
X53861710Y15511881D01*
X54019611Y15892150D01*
X54019970Y16303898D01*
X53862733Y16684442D01*
X53719791Y16827634D01*
X53719791Y18004343D01*
X54380477Y18665029D01*
X59074821Y18665029D01*
X59232058Y18284485D01*
X59522954Y17993081D01*
X59903223Y17835180D01*
X60314971Y17834821D01*
X60375909Y17860000D01*
X63343450Y17860000D01*
X63403223Y17835180D01*
X63814971Y17834821D01*
X63875909Y17860000D01*
X67135010Y17860000D01*
X67135118Y17860021D01*
X67364981Y17859821D01*
X67425919Y17885000D01*
X70593450Y17885000D01*
X70653223Y17860180D01*
X71064971Y17859821D01*
X71445515Y18017058D01*
X71736919Y18307954D01*
X71894820Y18688223D01*
X71895179Y19099971D01*
X71737942Y19480515D01*
X71447046Y19771919D01*
X71066777Y19929820D01*
X70655029Y19930179D01*
X70594091Y19905000D01*
X67426560Y19905000D01*
X67366787Y19929820D01*
X66955039Y19930179D01*
X66833596Y19880000D01*
X63876550Y19880000D01*
X63816777Y19904820D01*
X63405029Y19905179D01*
X63344091Y19880000D01*
X62788327Y19880000D01*
X62791157Y19884235D01*
X62840440Y20132000D01*
X62840440Y20932000D01*
X62791157Y21179765D01*
X62730127Y21271102D01*
X62731327Y21272302D01*
X62828000Y21505691D01*
X62828000Y21746250D01*
X62669250Y21905000D01*
X61945000Y21905000D01*
X61945000Y21885000D01*
X61691000Y21885000D01*
X61691000Y21905000D01*
X60966750Y21905000D01*
X60808000Y21746250D01*
X60808000Y21505691D01*
X60904673Y21272302D01*
X60905873Y21271102D01*
X60844843Y21179765D01*
X60813545Y21022417D01*
X60754777Y21046820D01*
X60343029Y21047179D01*
X59962485Y20889942D01*
X59671081Y20599046D01*
X59513180Y20218777D01*
X59512821Y19807029D01*
X59535376Y19752442D01*
X59524485Y19747942D01*
X59233081Y19457046D01*
X59075180Y19076777D01*
X59074821Y18665029D01*
X54380477Y18665029D01*
X57929755Y22214306D01*
X58035084Y21959389D01*
X58325980Y21667985D01*
X58706249Y21510084D01*
X59117997Y21509725D01*
X59498541Y21666962D01*
X59789945Y21957858D01*
X59947846Y22338127D01*
X59948037Y22558309D01*
X60808000Y22558309D01*
X60808000Y22317750D01*
X60966750Y22159000D01*
X61691000Y22159000D01*
X61691000Y22908250D01*
X61532250Y23067000D01*
X61316690Y23067000D01*
X61083301Y22970327D01*
X60904673Y22791698D01*
X60808000Y22558309D01*
X59948037Y22558309D01*
X59948205Y22749875D01*
X59790968Y23130419D01*
X59747000Y23174464D01*
X59747000Y23208885D01*
X59860157Y23378235D01*
X59909440Y23626000D01*
X59909440Y23802250D01*
X61570000Y23802250D01*
X61570000Y23561691D01*
X61666673Y23328302D01*
X61845301Y23149673D01*
X62078690Y23053000D01*
X62089750Y23053000D01*
X61945000Y22908250D01*
X61945000Y22159000D01*
X62669250Y22159000D01*
X62828000Y22317750D01*
X62828000Y22558309D01*
X62731327Y22791698D01*
X62552699Y22970327D01*
X62319310Y23067000D01*
X62308250Y23067000D01*
X62453000Y23211750D01*
X62453000Y23961000D01*
X62707000Y23961000D01*
X62707000Y23211750D01*
X62865750Y23053000D01*
X63081310Y23053000D01*
X63314699Y23149673D01*
X63493327Y23328302D01*
X63590000Y23561691D01*
X63590000Y23802250D01*
X63431250Y23961000D01*
X62707000Y23961000D01*
X62453000Y23961000D01*
X61728750Y23961000D01*
X61570000Y23802250D01*
X59909440Y23802250D01*
X59909440Y24526000D01*
X59860157Y24773765D01*
X59719809Y24983809D01*
X59509765Y25124157D01*
X59415732Y25142861D01*
X59449051Y25192727D01*
X59465454Y25275191D01*
X59505000Y25474000D01*
X59505000Y27648554D01*
X59657996Y27495558D01*
X59657821Y27295029D01*
X59815058Y26914485D01*
X60105954Y26623081D01*
X60486223Y26465180D01*
X60688550Y26465004D01*
X61557560Y25595994D01*
X61557560Y25188000D01*
X61606843Y24940235D01*
X61667873Y24848898D01*
X61666673Y24847698D01*
X61570000Y24614309D01*
X61570000Y24373750D01*
X61728750Y24215000D01*
X62453000Y24215000D01*
X62453000Y24235000D01*
X62707000Y24235000D01*
X62707000Y24215000D01*
X63431250Y24215000D01*
X63590000Y24373750D01*
X63590000Y24614309D01*
X63493327Y24847698D01*
X63492127Y24848898D01*
X63553157Y24940235D01*
X63602440Y25188000D01*
X63602440Y25988000D01*
X63553157Y26235765D01*
X63412809Y26445809D01*
X63202765Y26586157D01*
X62955000Y26635440D01*
X62597006Y26635440D01*
X61728004Y27504442D01*
X61728179Y27704971D01*
X61570942Y28085515D01*
X61280046Y28376919D01*
X60899777Y28534820D01*
X60697450Y28534996D01*
X60417440Y28815006D01*
X60417440Y29352000D01*
X60368157Y29599765D01*
X60240438Y29790908D01*
X60312820Y29965223D01*
X60313179Y30376971D01*
X60155942Y30757515D01*
X59865046Y31048919D01*
X59484777Y31206820D01*
X59073029Y31207179D01*
X58692485Y31049942D01*
X58401081Y30759046D01*
X58243180Y30378777D01*
X58243000Y30172833D01*
X58127143Y29999440D01*
X57770000Y29999440D01*
X57723123Y29990116D01*
X57615942Y30249515D01*
X57325046Y30540919D01*
X56944777Y30698820D01*
X56533029Y30699179D01*
X56198630Y30561009D01*
X56071809Y30750809D01*
X55861765Y30891157D01*
X55614000Y30940440D01*
X54814000Y30940440D01*
X54566235Y30891157D01*
X54474898Y30830127D01*
X54473698Y30831327D01*
X54240309Y30928000D01*
X53999750Y30928000D01*
X53841000Y30769250D01*
X53841000Y30045000D01*
X53861000Y30045000D01*
X53861000Y29791000D01*
X53841000Y29791000D01*
X53841000Y29066750D01*
X53999750Y28908000D01*
X54240309Y28908000D01*
X54473698Y29004673D01*
X54474898Y29005873D01*
X54566235Y28944843D01*
X54620225Y28934104D01*
X54694277Y28823277D01*
X55135276Y28382277D01*
X55355694Y28234999D01*
X55373728Y28222949D01*
X55655000Y28167000D01*
X57196723Y28167000D01*
X57312191Y27994191D01*
X57522235Y27853843D01*
X57770000Y27804560D01*
X58035000Y27804560D01*
X58035000Y25778447D01*
X57742277Y25485723D01*
X57582949Y25247272D01*
X57582489Y25244958D01*
X56210870Y26616576D01*
X56188157Y26730765D01*
X56047809Y26940809D01*
X55837765Y27081157D01*
X55590000Y27130440D01*
X54790000Y27130440D01*
X54542235Y27081157D01*
X54450898Y27020127D01*
X54449698Y27021327D01*
X54216309Y27118000D01*
X53975750Y27118000D01*
X53817000Y26959250D01*
X53817000Y26235000D01*
X53837000Y26235000D01*
X53837000Y25981000D01*
X53817000Y25981000D01*
X53817000Y25961000D01*
X53563000Y25961000D01*
X53563000Y25981000D01*
X52813750Y25981000D01*
X52655000Y25822250D01*
X52655000Y25606690D01*
X52660256Y25594000D01*
X52643691Y25594000D01*
X52410302Y25497327D01*
X52409102Y25496127D01*
X52317765Y25557157D01*
X52070000Y25606440D01*
X51891871Y25606440D01*
X51895480Y26395230D01*
X52027000Y26526750D01*
X52027000Y27251000D01*
X52281000Y27251000D01*
X52281000Y26526750D01*
X52439750Y26368000D01*
X52680309Y26368000D01*
X52680621Y26368129D01*
X52813750Y26235000D01*
X53563000Y26235000D01*
X53563000Y26959250D01*
X53404250Y27118000D01*
X53163691Y27118000D01*
X53163379Y27117871D01*
X53030250Y27251000D01*
X52281000Y27251000D01*
X52027000Y27251000D01*
X52007000Y27251000D01*
X52007000Y27505000D01*
X52027000Y27505000D01*
X52027000Y28229250D01*
X52281000Y28229250D01*
X52281000Y27505000D01*
X53030250Y27505000D01*
X53189000Y27663750D01*
X53189000Y27879310D01*
X53092327Y28112699D01*
X52913698Y28291327D01*
X52680309Y28388000D01*
X52439750Y28388000D01*
X52281000Y28229250D01*
X52027000Y28229250D01*
X51904432Y28351818D01*
X51910290Y29632250D01*
X52679000Y29632250D01*
X52679000Y29416690D01*
X52775673Y29183301D01*
X52954302Y29004673D01*
X53187691Y28908000D01*
X53428250Y28908000D01*
X53587000Y29066750D01*
X53587000Y29791000D01*
X52837750Y29791000D01*
X52679000Y29632250D01*
X51910290Y29632250D01*
X51914160Y30477910D01*
X52027000Y30590750D01*
X52027000Y31315000D01*
X52281000Y31315000D01*
X52281000Y30590750D01*
X52439750Y30432000D01*
X52680309Y30432000D01*
X52685074Y30433974D01*
X52679000Y30419310D01*
X52679000Y30203750D01*
X52837750Y30045000D01*
X53587000Y30045000D01*
X53587000Y30769250D01*
X53428250Y30928000D01*
X53187691Y30928000D01*
X53182926Y30926026D01*
X53189000Y30940690D01*
X53189000Y31156250D01*
X53030250Y31315000D01*
X52281000Y31315000D01*
X52027000Y31315000D01*
X52007000Y31315000D01*
X52007000Y31569000D01*
X52027000Y31569000D01*
X52027000Y32293250D01*
X52281000Y32293250D01*
X52281000Y31569000D01*
X53030250Y31569000D01*
X53189000Y31727750D01*
X53189000Y31943310D01*
X53092327Y32176699D01*
X52913698Y32355327D01*
X52680309Y32452000D01*
X52439750Y32452000D01*
X52281000Y32293250D01*
X52027000Y32293250D01*
X51922943Y32397307D01*
X51936999Y35469419D01*
X51927554Y35518063D01*
X51900213Y35559391D01*
X51859137Y35587109D01*
X51810000Y35597000D01*
X48240000Y35597000D01*
X48240000Y35704250D01*
X48081250Y35863000D01*
X47107000Y35863000D01*
X47107000Y35843000D01*
X46853000Y35843000D01*
X46853000Y35863000D01*
X46833000Y35863000D01*
X46833000Y36117000D01*
X46853000Y36117000D01*
X46853000Y36966250D01*
X47107000Y36966250D01*
X47107000Y36117000D01*
X48081250Y36117000D01*
X48090559Y36126309D01*
X49160000Y36126309D01*
X49160000Y35885750D01*
X49318750Y35727000D01*
X50043000Y35727000D01*
X50043000Y36476250D01*
X50297000Y36476250D01*
X50297000Y35727000D01*
X51021250Y35727000D01*
X51180000Y35885750D01*
X51180000Y36126309D01*
X51083327Y36359698D01*
X50904699Y36538327D01*
X50671310Y36635000D01*
X50455750Y36635000D01*
X50297000Y36476250D01*
X50043000Y36476250D01*
X49884250Y36635000D01*
X49668690Y36635000D01*
X49435301Y36538327D01*
X49256673Y36359698D01*
X49160000Y36126309D01*
X48090559Y36126309D01*
X48240000Y36275750D01*
X48240000Y36616309D01*
X48143327Y36849698D01*
X47964699Y37028327D01*
X47731310Y37125000D01*
X47265750Y37125000D01*
X47107000Y36966250D01*
X46853000Y36966250D01*
X46694250Y37125000D01*
X46228690Y37125000D01*
X45995301Y37028327D01*
X45816673Y36849698D01*
X45720000Y36616309D01*
X45720000Y36572405D01*
X45641310Y36605000D01*
X45425750Y36605000D01*
X45267000Y36446250D01*
X45267000Y35697000D01*
X45287000Y35697000D01*
X45287000Y35597000D01*
X44993000Y35597000D01*
X44993000Y35697000D01*
X45013000Y35697000D01*
X45013000Y36446250D01*
X44854250Y36605000D01*
X44638690Y36605000D01*
X44405301Y36508327D01*
X44226673Y36329698D01*
X44130000Y36096309D01*
X44130000Y35855750D01*
X44288748Y35697002D01*
X44130000Y35697002D01*
X44130000Y35597000D01*
X43682857Y35597000D01*
X43673157Y35645765D01*
X43612127Y35737102D01*
X43613327Y35738302D01*
X43710000Y35971691D01*
X43710000Y36212250D01*
X43551250Y36371000D01*
X42827000Y36371000D01*
X42827000Y36351000D01*
X42573000Y36351000D01*
X42573000Y36371000D01*
X41848750Y36371000D01*
X41690000Y36212250D01*
X41690000Y35971691D01*
X41786673Y35738302D01*
X41787873Y35737102D01*
X41726843Y35645765D01*
X41717143Y35597000D01*
X40197250Y35597000D01*
X40161250Y35633000D01*
X39437000Y35633000D01*
X39437000Y35613000D01*
X39183000Y35613000D01*
X39183000Y35633000D01*
X39163000Y35633000D01*
X39163000Y35887000D01*
X39183000Y35887000D01*
X39183000Y36636250D01*
X39437000Y36636250D01*
X39437000Y35887000D01*
X40161250Y35887000D01*
X40320000Y36045750D01*
X40320000Y36286309D01*
X40223327Y36519698D01*
X40044699Y36698327D01*
X39811310Y36795000D01*
X39595750Y36795000D01*
X39437000Y36636250D01*
X39183000Y36636250D01*
X39024250Y36795000D01*
X38808690Y36795000D01*
X38575301Y36698327D01*
X38396673Y36519698D01*
X38380000Y36479446D01*
X38380000Y36636309D01*
X38283327Y36869698D01*
X38128717Y37024309D01*
X41690000Y37024309D01*
X41690000Y36783750D01*
X41848750Y36625000D01*
X42573000Y36625000D01*
X42573000Y37374250D01*
X42827000Y37374250D01*
X42827000Y36625000D01*
X43551250Y36625000D01*
X43710000Y36783750D01*
X43710000Y37024309D01*
X43613327Y37257698D01*
X43434699Y37436327D01*
X43201310Y37533000D01*
X42985750Y37533000D01*
X42827000Y37374250D01*
X42573000Y37374250D01*
X42414250Y37533000D01*
X42198690Y37533000D01*
X41965301Y37436327D01*
X41786673Y37257698D01*
X41690000Y37024309D01*
X38128717Y37024309D01*
X38104699Y37048327D01*
X37871310Y37145000D01*
X37405750Y37145000D01*
X37247000Y36986250D01*
X37247000Y36137000D01*
X37267000Y36137000D01*
X37267000Y35883000D01*
X37247000Y35883000D01*
X37247000Y35863000D01*
X36993000Y35863000D01*
X36993000Y35883000D01*
X36018750Y35883000D01*
X35860000Y35724250D01*
X35860000Y35597000D01*
X35057250Y35597000D01*
X35001250Y35653000D01*
X34277000Y35653000D01*
X34277000Y35633000D01*
X34023000Y35633000D01*
X34023000Y35653000D01*
X33298750Y35653000D01*
X33242750Y35597000D01*
X31810000Y35597000D01*
X31761399Y35587333D01*
X31720197Y35559803D01*
X31692667Y35518601D01*
X31683000Y35470259D01*
X31677874Y32956000D01*
X31385750Y32956000D01*
X31227000Y32797250D01*
X31227000Y31823000D01*
X31247000Y31823000D01*
X31247000Y31569000D01*
X31227000Y31569000D01*
X31227000Y31549000D01*
X30973000Y31549000D01*
X30973000Y31569000D01*
X30123750Y31569000D01*
X29965000Y31410250D01*
X-3183958Y31410250D01*
X-3181842Y32447310D01*
X29965000Y32447310D01*
X29965000Y31981750D01*
X30123750Y31823000D01*
X30973000Y31823000D01*
X30973000Y32797250D01*
X30814250Y32956000D01*
X30473691Y32956000D01*
X30240302Y32859327D01*
X30061673Y32680699D01*
X29965000Y32447310D01*
X-3181842Y32447310D01*
X-3174600Y35995000D01*
X-1245750Y35995000D01*
X-1087000Y36153750D01*
X-1087000Y37713000D01*
X-1107000Y37713000D01*
X-1107000Y37967000D01*
X-1087000Y37967000D01*
X-1087000Y39526250D01*
X-833000Y39526250D01*
X-833000Y37967000D01*
X-813000Y37967000D01*
X-813000Y37713000D01*
X-833000Y37713000D01*
X-833000Y36153750D01*
X-674250Y35995000D01*
X1706309Y35995000D01*
X1939698Y36091673D01*
X2118327Y36270301D01*
X2215000Y36503690D01*
X2215000Y36580000D01*
X6145907Y36580000D01*
X6258946Y36011715D01*
X6580853Y35529946D01*
X6910026Y35310000D01*
X6580853Y35090054D01*
X6258946Y34608285D01*
X6145907Y34040000D01*
X6258946Y33471715D01*
X6580853Y32989946D01*
X7062622Y32668039D01*
X7630907Y32555000D01*
X7689093Y32555000D01*
X8257378Y32668039D01*
X8739147Y32989946D01*
X9061054Y33471715D01*
X9174093Y34040000D01*
X9061054Y34608285D01*
X8739147Y35090054D01*
X8409974Y35310000D01*
X8739147Y35529946D01*
X9061054Y36011715D01*
X9119652Y36306309D01*
X33140000Y36306309D01*
X33140000Y36065750D01*
X33298750Y35907000D01*
X34023000Y35907000D01*
X34023000Y36656250D01*
X34277000Y36656250D01*
X34277000Y35907000D01*
X35001250Y35907000D01*
X35160000Y36065750D01*
X35160000Y36306309D01*
X35063327Y36539698D01*
X34966717Y36636309D01*
X35860000Y36636309D01*
X35860000Y36295750D01*
X36018750Y36137000D01*
X36993000Y36137000D01*
X36993000Y36986250D01*
X36834250Y37145000D01*
X36368690Y37145000D01*
X36135301Y37048327D01*
X35956673Y36869698D01*
X35860000Y36636309D01*
X34966717Y36636309D01*
X34884699Y36718327D01*
X34651310Y36815000D01*
X34435750Y36815000D01*
X34277000Y36656250D01*
X34023000Y36656250D01*
X33864250Y36815000D01*
X33648690Y36815000D01*
X33415301Y36718327D01*
X33236673Y36539698D01*
X33140000Y36306309D01*
X9119652Y36306309D01*
X9174093Y36580000D01*
X9061054Y37148285D01*
X8739147Y37630054D01*
X8695223Y37659403D01*
X8869698Y37731673D01*
X9048327Y37910301D01*
X9096176Y38025818D01*
X9212191Y37852191D01*
X9347906Y37761508D01*
X9325180Y37706777D01*
X9324821Y37295029D01*
X9482058Y36914485D01*
X9772954Y36623081D01*
X10153223Y36465180D01*
X10564971Y36464821D01*
X10945515Y36622058D01*
X11236919Y36912954D01*
X11394820Y37293223D01*
X11395179Y37704971D01*
X11237942Y38085515D01*
X11183613Y38139939D01*
X11211522Y38280250D01*
X45314000Y38280250D01*
X45314000Y38039691D01*
X45410673Y37806302D01*
X45589301Y37627673D01*
X45822690Y37531000D01*
X46038250Y37531000D01*
X46197000Y37689750D01*
X46197000Y38439000D01*
X45472750Y38439000D01*
X45314000Y38280250D01*
X11211522Y38280250D01*
X11217440Y38310000D01*
X11217440Y38810000D01*
X11168157Y39057765D01*
X11027809Y39267809D01*
X10964666Y39310000D01*
X11027809Y39352191D01*
X11168157Y39562235D01*
X11217440Y39810000D01*
X11217440Y40310000D01*
X11168157Y40557765D01*
X11056394Y40725029D01*
X43914821Y40725029D01*
X44072058Y40344485D01*
X44362954Y40053081D01*
X44743223Y39895180D01*
X44945550Y39895004D01*
X45294277Y39546276D01*
X45330141Y39522313D01*
X45350843Y39418235D01*
X45411873Y39326898D01*
X45410673Y39325698D01*
X45314000Y39092309D01*
X45314000Y38851750D01*
X45472750Y38693000D01*
X46197000Y38693000D01*
X46197000Y38713000D01*
X46451000Y38713000D01*
X46451000Y38693000D01*
X46471000Y38693000D01*
X46471000Y38439000D01*
X46451000Y38439000D01*
X46451000Y37689750D01*
X46609750Y37531000D01*
X46825310Y37531000D01*
X47058699Y37627673D01*
X47237327Y37806302D01*
X47334000Y38039691D01*
X47334000Y38280250D01*
X47175252Y38438998D01*
X47328632Y38438998D01*
X47442058Y38164485D01*
X47732954Y37873081D01*
X48113223Y37715180D01*
X48524971Y37714821D01*
X48731689Y37800235D01*
X48793191Y37708191D01*
X49003235Y37567843D01*
X49251000Y37518560D01*
X50001000Y37518560D01*
X50248765Y37567843D01*
X50458809Y37708191D01*
X50599157Y37918235D01*
X50648440Y38166000D01*
X50648440Y38966000D01*
X50599157Y39213765D01*
X50538127Y39305102D01*
X50539327Y39306302D01*
X50636000Y39539691D01*
X50636000Y39780250D01*
X50477250Y39939000D01*
X49753000Y39939000D01*
X49753000Y39919000D01*
X49499000Y39919000D01*
X49499000Y39939000D01*
X48774750Y39939000D01*
X48616000Y39780250D01*
X48616000Y39747771D01*
X48526777Y39784820D01*
X48115029Y39785179D01*
X47734485Y39627942D01*
X47443081Y39337046D01*
X47334000Y39074349D01*
X47334000Y39092309D01*
X47237327Y39325698D01*
X47236127Y39326898D01*
X47297157Y39418235D01*
X47346440Y39666000D01*
X47346440Y40466000D01*
X47321316Y40592309D01*
X48616000Y40592309D01*
X48616000Y40351750D01*
X48774750Y40193000D01*
X49499000Y40193000D01*
X49499000Y40942250D01*
X49753000Y40942250D01*
X49753000Y40193000D01*
X50477250Y40193000D01*
X50636000Y40351750D01*
X50636000Y40592309D01*
X50539327Y40825698D01*
X50360699Y41004327D01*
X50127310Y41101000D01*
X49911750Y41101000D01*
X49753000Y40942250D01*
X49499000Y40942250D01*
X49340250Y41101000D01*
X49124690Y41101000D01*
X48891301Y41004327D01*
X48712673Y40825698D01*
X48616000Y40592309D01*
X47321316Y40592309D01*
X47297157Y40713765D01*
X47156809Y40923809D01*
X46946765Y41064157D01*
X46699000Y41113440D01*
X45985160Y41113440D01*
X45985165Y41120000D01*
X55725000Y41120000D01*
X55725000Y39220000D01*
X55770154Y38993000D01*
X55780949Y38938728D01*
X55940277Y38700277D01*
X56240276Y38400277D01*
X56375386Y38310000D01*
X56478728Y38240949D01*
X56724167Y38192128D01*
X56872954Y38043081D01*
X57253223Y37885180D01*
X57664971Y37884821D01*
X58045515Y38042058D01*
X58159944Y38156288D01*
X58272954Y38043081D01*
X58653223Y37885180D01*
X59064971Y37884821D01*
X59445515Y38042058D01*
X59736919Y38332954D01*
X59747805Y38359170D01*
X59925301Y38181673D01*
X60158690Y38085000D01*
X60374250Y38085000D01*
X60533000Y38243750D01*
X60533000Y38993000D01*
X60787000Y38993000D01*
X60787000Y38243750D01*
X60945750Y38085000D01*
X61161310Y38085000D01*
X61394699Y38181673D01*
X61573327Y38360302D01*
X61670000Y38593691D01*
X61670000Y38834250D01*
X61511250Y38993000D01*
X60787000Y38993000D01*
X60533000Y38993000D01*
X60513000Y38993000D01*
X60513000Y39042250D01*
X61824000Y39042250D01*
X61824000Y38801691D01*
X61920673Y38568302D01*
X62099301Y38389673D01*
X62332690Y38293000D01*
X62548250Y38293000D01*
X62707000Y38451750D01*
X62707000Y39201000D01*
X62961000Y39201000D01*
X62961000Y38451750D01*
X63119750Y38293000D01*
X63335310Y38293000D01*
X63568699Y38389673D01*
X63747327Y38568302D01*
X63844000Y38801691D01*
X63844000Y39042250D01*
X63685250Y39201000D01*
X62961000Y39201000D01*
X62707000Y39201000D01*
X61982750Y39201000D01*
X61824000Y39042250D01*
X60513000Y39042250D01*
X60513000Y39115000D01*
X61281000Y39115000D01*
X61562272Y39170949D01*
X61800723Y39330277D01*
X61954098Y39483652D01*
X61982750Y39455000D01*
X62707000Y39455000D01*
X62707000Y39475000D01*
X62961000Y39475000D01*
X62961000Y39455000D01*
X63685250Y39455000D01*
X63844000Y39613750D01*
X63844000Y39854309D01*
X63747327Y40087698D01*
X63746127Y40088898D01*
X63807157Y40180235D01*
X63856440Y40428000D01*
X63856440Y41228000D01*
X63807157Y41475765D01*
X63695728Y41642529D01*
X63782435Y41729085D01*
X63940336Y42109354D01*
X63940695Y42521102D01*
X63783458Y42901646D01*
X63492562Y43193050D01*
X63112293Y43350951D01*
X62700545Y43351310D01*
X62320001Y43194073D01*
X62028597Y42903177D01*
X61895141Y42581779D01*
X61895179Y42624971D01*
X61737942Y43005515D01*
X61447046Y43296919D01*
X61066777Y43454820D01*
X60655029Y43455179D01*
X60274485Y43297942D01*
X59983081Y43007046D01*
X59825180Y42626777D01*
X59824821Y42215029D01*
X59982058Y41834485D01*
X60025000Y41791468D01*
X60025000Y41609982D01*
X59827191Y41477809D01*
X59686843Y41267765D01*
X59637560Y41020000D01*
X59637560Y40731887D01*
X58657440Y41712006D01*
X58657440Y41820000D01*
X58608157Y42067765D01*
X58467809Y42277809D01*
X58257765Y42418157D01*
X58010000Y42467440D01*
X57110000Y42467440D01*
X56862235Y42418157D01*
X56652191Y42277809D01*
X56511843Y42067765D01*
X56489736Y41956623D01*
X56131298Y41777404D01*
X56038226Y41705171D01*
X55940277Y41639723D01*
X55925605Y41617765D01*
X55904742Y41601573D01*
X55846400Y41499226D01*
X55780949Y41401272D01*
X55775797Y41375371D01*
X55762718Y41352427D01*
X55747984Y41235549D01*
X55725000Y41120000D01*
X45985165Y41120000D01*
X45985179Y41134971D01*
X45827942Y41515515D01*
X45537046Y41806919D01*
X45156777Y41964820D01*
X44745029Y41965179D01*
X44364485Y41807942D01*
X44073081Y41517046D01*
X43915180Y41136777D01*
X43914821Y40725029D01*
X11056394Y40725029D01*
X11027809Y40767809D01*
X10817765Y40908157D01*
X10714017Y40928794D01*
X10607942Y41185515D01*
X10317046Y41476919D01*
X9936777Y41634820D01*
X9525029Y41635179D01*
X9144485Y41477942D01*
X8853081Y41187046D01*
X8695180Y40806777D01*
X8694983Y40580696D01*
X8636309Y40605000D01*
X7945750Y40605000D01*
X7787000Y40446250D01*
X7787000Y39247000D01*
X7807000Y39247000D01*
X7807000Y38993000D01*
X7787000Y38993000D01*
X7787000Y38973000D01*
X7533000Y38973000D01*
X7533000Y38993000D01*
X6333750Y38993000D01*
X6175000Y38834250D01*
X6175000Y38143690D01*
X6271673Y37910301D01*
X6450302Y37731673D01*
X6624777Y37659403D01*
X6580853Y37630054D01*
X6258946Y37148285D01*
X6145907Y36580000D01*
X2215000Y36580000D01*
X2215000Y36747871D01*
X2338564Y36706851D01*
X2782968Y36738982D01*
X3044308Y36847232D01*
X3079595Y37060800D01*
X2951710Y37188685D01*
X3013327Y37250301D01*
X3082443Y37417162D01*
X3259200Y37240405D01*
X3472768Y37275692D01*
X3613149Y37698564D01*
X3581018Y38142968D01*
X3472768Y38404308D01*
X3259200Y38439595D01*
X3082443Y38262838D01*
X3013327Y38429699D01*
X2951710Y38491315D01*
X3079595Y38619200D01*
X3044308Y38832768D01*
X2621436Y38973149D01*
X2215000Y38943763D01*
X2215000Y39176310D01*
X2118327Y39409699D01*
X1939698Y39588327D01*
X1706309Y39685000D01*
X-674250Y39685000D01*
X-833000Y39526250D01*
X-1087000Y39526250D01*
X-1245750Y39685000D01*
X-3167069Y39685000D01*
X-3166230Y40096310D01*
X6175000Y40096310D01*
X6175000Y39405750D01*
X6333750Y39247000D01*
X7533000Y39247000D01*
X7533000Y40446250D01*
X7374250Y40605000D01*
X6683691Y40605000D01*
X6450302Y40508327D01*
X6271673Y40329699D01*
X6175000Y40096310D01*
X-3166230Y40096310D01*
X-3158642Y43815029D01*
X18524821Y43815029D01*
X18682058Y43434485D01*
X18972954Y43143081D01*
X19353223Y42985180D01*
X19555550Y42985004D01*
X19774996Y42765558D01*
X19774821Y42565029D01*
X19932058Y42184485D01*
X20222954Y41893081D01*
X20603223Y41735180D01*
X21014971Y41734821D01*
X21395515Y41892058D01*
X21686919Y42182954D01*
X21844820Y42563223D01*
X21845179Y42974971D01*
X21687942Y43355515D01*
X21441638Y43602250D01*
X69685000Y43602250D01*
X69685000Y43386690D01*
X69781673Y43153301D01*
X69960302Y42974673D01*
X70193691Y42878000D01*
X70434250Y42878000D01*
X70593000Y43036750D01*
X70593000Y43761000D01*
X69843750Y43761000D01*
X69685000Y43602250D01*
X21441638Y43602250D01*
X21397046Y43646919D01*
X21016777Y43804820D01*
X20814450Y43804996D01*
X20595004Y44024442D01*
X20595179Y44224971D01*
X20437942Y44605515D01*
X20147046Y44896919D01*
X19766777Y45054820D01*
X19355029Y45055179D01*
X18974485Y44897942D01*
X18683081Y44607046D01*
X18525180Y44226777D01*
X18524821Y43815029D01*
X-3158642Y43815029D01*
X-3156723Y44755000D01*
X-1245750Y44755000D01*
X-1087000Y44913750D01*
X-1087000Y46473000D01*
X-1107000Y46473000D01*
X-1107000Y46727000D01*
X-1087000Y46727000D01*
X-1087000Y48286250D01*
X-833000Y48286250D01*
X-833000Y46727000D01*
X-813000Y46727000D01*
X-813000Y46473000D01*
X-833000Y46473000D01*
X-833000Y44913750D01*
X-674250Y44755000D01*
X1706309Y44755000D01*
X1939698Y44851673D01*
X2118327Y45030301D01*
X2215000Y45263690D01*
X2215000Y45507871D01*
X2338564Y45466851D01*
X2782968Y45498982D01*
X3044308Y45607232D01*
X3079595Y45820800D01*
X2951710Y45948685D01*
X3013327Y46010301D01*
X3082443Y46177162D01*
X3259200Y46000405D01*
X3472768Y46035692D01*
X3613149Y46458564D01*
X3581018Y46902968D01*
X3472768Y47164308D01*
X3259200Y47199595D01*
X3082443Y47022838D01*
X3013327Y47189699D01*
X2951710Y47251315D01*
X3079595Y47379200D01*
X3044308Y47592768D01*
X2621436Y47733149D01*
X2215000Y47703763D01*
X2215000Y47936310D01*
X2118327Y48169699D01*
X1939698Y48348327D01*
X1706309Y48445000D01*
X-674250Y48445000D01*
X-833000Y48286250D01*
X-1087000Y48286250D01*
X-1245750Y48445000D01*
X-3149192Y48445000D01*
X-3147574Y49238000D01*
X47924560Y49238000D01*
X47924560Y48238000D01*
X47973843Y47990235D01*
X48114191Y47780191D01*
X48317582Y47644288D01*
X48274560Y47428000D01*
X48274560Y46928000D01*
X48323843Y46680235D01*
X48464191Y46470191D01*
X48527334Y46428000D01*
X48464191Y46385809D01*
X48323843Y46175765D01*
X48274560Y45928000D01*
X48274560Y45428000D01*
X48323843Y45180235D01*
X48464191Y44970191D01*
X48674235Y44829843D01*
X48922000Y44780560D01*
X48932094Y44780560D01*
X48985490Y44744882D01*
X49372000Y44668000D01*
X53098000Y44668000D01*
X53484510Y44744882D01*
X53812178Y44963822D01*
X54835698Y45987342D01*
X54895515Y46012058D01*
X55186919Y46302954D01*
X55344820Y46683223D01*
X55345179Y47094971D01*
X55187942Y47475515D01*
X55011042Y47652724D01*
X55087000Y47703477D01*
X55182235Y47639843D01*
X55430000Y47590560D01*
X57030000Y47590560D01*
X57277765Y47639843D01*
X57373000Y47703477D01*
X57468235Y47639843D01*
X57716000Y47590560D01*
X59316000Y47590560D01*
X59563765Y47639843D01*
X59773809Y47780191D01*
X59914157Y47990235D01*
X59963440Y48238000D01*
X59963440Y49238000D01*
X59914157Y49485765D01*
X59773809Y49695809D01*
X59563765Y49836157D01*
X59316000Y49885440D01*
X57716000Y49885440D01*
X57468235Y49836157D01*
X57373000Y49772523D01*
X57277765Y49836157D01*
X57030000Y49885440D01*
X55430000Y49885440D01*
X55182235Y49836157D01*
X55087000Y49772523D01*
X54991765Y49836157D01*
X54744000Y49885440D01*
X53144000Y49885440D01*
X52896235Y49836157D01*
X52801000Y49772523D01*
X52705765Y49836157D01*
X52458000Y49885440D01*
X50858000Y49885440D01*
X50610235Y49836157D01*
X50515000Y49772523D01*
X50419765Y49836157D01*
X50172000Y49885440D01*
X48572000Y49885440D01*
X48324235Y49836157D01*
X48114191Y49695809D01*
X47973843Y49485765D01*
X47924560Y49238000D01*
X-3147574Y49238000D01*
X-3143055Y51452250D01*
X47937000Y51452250D01*
X47937000Y51111691D01*
X48033673Y50878302D01*
X48212301Y50699673D01*
X48445690Y50603000D01*
X49086250Y50603000D01*
X49245000Y50761750D01*
X49245000Y51611000D01*
X49499000Y51611000D01*
X49499000Y50761750D01*
X49657750Y50603000D01*
X50298310Y50603000D01*
X50515000Y50692756D01*
X50731690Y50603000D01*
X51372250Y50603000D01*
X51531000Y50761750D01*
X51531000Y51611000D01*
X51785000Y51611000D01*
X51785000Y50761750D01*
X51943750Y50603000D01*
X52584310Y50603000D01*
X52801000Y50692756D01*
X53017690Y50603000D01*
X53658250Y50603000D01*
X53817000Y50761750D01*
X53817000Y51611000D01*
X54071000Y51611000D01*
X54071000Y50761750D01*
X54229750Y50603000D01*
X54870310Y50603000D01*
X55087000Y50692756D01*
X55303690Y50603000D01*
X55944250Y50603000D01*
X56103000Y50761750D01*
X56103000Y51611000D01*
X56357000Y51611000D01*
X56357000Y50761750D01*
X56515750Y50603000D01*
X57156310Y50603000D01*
X57373000Y50692756D01*
X57589690Y50603000D01*
X58230250Y50603000D01*
X58389000Y50761750D01*
X58389000Y51611000D01*
X58643000Y51611000D01*
X58643000Y50761750D01*
X58801750Y50603000D01*
X59442310Y50603000D01*
X59675699Y50699673D01*
X59854327Y50878302D01*
X59951000Y51111691D01*
X59951000Y51452250D01*
X59792250Y51611000D01*
X58643000Y51611000D01*
X58389000Y51611000D01*
X56357000Y51611000D01*
X56103000Y51611000D01*
X54071000Y51611000D01*
X53817000Y51611000D01*
X51785000Y51611000D01*
X51531000Y51611000D01*
X49499000Y51611000D01*
X49245000Y51611000D01*
X48095750Y51611000D01*
X47937000Y51452250D01*
X-3143055Y51452250D01*
X-3141194Y52364309D01*
X47937000Y52364309D01*
X47937000Y52023750D01*
X48095750Y51865000D01*
X49245000Y51865000D01*
X49245000Y52714250D01*
X49499000Y52714250D01*
X49499000Y51865000D01*
X51531000Y51865000D01*
X51531000Y52714250D01*
X51785000Y52714250D01*
X51785000Y51865000D01*
X53817000Y51865000D01*
X53817000Y52714250D01*
X54071000Y52714250D01*
X54071000Y51865000D01*
X56103000Y51865000D01*
X56103000Y52714250D01*
X56357000Y52714250D01*
X56357000Y51865000D01*
X58389000Y51865000D01*
X58389000Y52714250D01*
X58643000Y52714250D01*
X58643000Y51865000D01*
X59792250Y51865000D01*
X59951000Y52023750D01*
X59951000Y52364309D01*
X59854327Y52597698D01*
X59675699Y52776327D01*
X59442310Y52873000D01*
X58801750Y52873000D01*
X58643000Y52714250D01*
X58389000Y52714250D01*
X58230250Y52873000D01*
X57589690Y52873000D01*
X57373000Y52783244D01*
X57156310Y52873000D01*
X56515750Y52873000D01*
X56357000Y52714250D01*
X56103000Y52714250D01*
X55944250Y52873000D01*
X55303690Y52873000D01*
X55087000Y52783244D01*
X54870310Y52873000D01*
X54229750Y52873000D01*
X54071000Y52714250D01*
X53817000Y52714250D01*
X53658250Y52873000D01*
X53017690Y52873000D01*
X52801000Y52783244D01*
X52584310Y52873000D01*
X51943750Y52873000D01*
X51785000Y52714250D01*
X51531000Y52714250D01*
X51372250Y52873000D01*
X50731690Y52873000D01*
X50515000Y52783244D01*
X50298310Y52873000D01*
X49657750Y52873000D01*
X49499000Y52714250D01*
X49245000Y52714250D01*
X49086250Y52873000D01*
X48445690Y52873000D01*
X48212301Y52776327D01*
X48033673Y52597698D01*
X47937000Y52364309D01*
X-3141194Y52364309D01*
X-3140142Y52879354D01*
X-3028954Y53438338D01*
X-2752331Y53852333D01*
X-2338340Y54128953D01*
X-1780069Y54240000D01*
X76530069Y54240000D01*
X77088338Y54128954D01*
M02*
